<?xml version="1.0" ?><!DOCTYPE svg  PUBLIC '-//W3C//DTD SVG 1.1//EN'  'http://www.w3.org/Graphics/SVG/1.1/DTD/svg11.dtd'><svg height="512px" style="enable-background:new 0 0 512 512;" version="1.1" viewBox="0 0 512 512" width="512px" xml:space="preserve" xmlns="http://www.w3.org/2000/svg" xmlns:xlink="http://www.w3.org/1999/xlink"><style type="text/css">
<![CDATA[
	.st0{display:inline;fill:none;stroke:#000000;stroke-width:16;stroke-linecap:round;stroke-linejoin:round;stroke-miterlimit:10;}
	.st1{display:none;}
]]>
</style><g class="st1" id="layer"><polyline class="st0" points="286,51 461,51 461,226  "/><polyline class="st0" points="51,226 51,51 226,51  "/><polyline class="st0" points="461,286 461,461 286,461  "/><polyline class="st0" points="226,461 51,461 51,286  "/></g><g id="layer_copy"><g><path d="M461,234c-4.418,0-8-3.582-8-8V59H286c-4.418,0-8-3.582-8-8s3.582-8,8-8h175c4.418,0,8,3.582,8,8v175    C469,230.418,465.418,234,461,234z"/></g><g><path d="M51,234c-4.418,0-8-3.582-8-8V51c0-4.418,3.582-8,8-8h175c4.418,0,8,3.582,8,8s-3.582,8-8,8H59v167    C59,230.418,55.418,234,51,234z"/></g><g><path d="M461,469H286c-4.418,0-8-3.582-8-8s3.582-8,8-8h167V286c0-4.418,3.582-8,8-8s8,3.582,8,8v175    C469,465.418,465.418,469,461,469z"/></g><g><path d="M226,469H51c-4.418,0-8-3.582-8-8V286c0-4.418,3.582-8,8-8s8,3.582,8,8v167h167c4.418,0,8,3.582,8,8S230.418,469,226,469z    "/></g></g></svg>