<?xml version="1.0" ?><!DOCTYPE svg  PUBLIC '-//W3C//DTD SVG 1.0//EN'  'http://www.w3.org/TR/2001/REC-SVG-20010904/DTD/svg10.dtd'>
<svg enable-background="new 0 0 512 512" height="512px" id="Layer_1" version="1.0" viewBox="0 0 512 512" width="512px" xml:space="preserve" xmlns="http://www.w3.org/2000/svg" xmlns:xlink="http://www.w3.org/1999/xlink">

<g fill="#000000">
<g>
<g><rect height="60" width="64" x="64" y="66"/></g>
<g><rect height="60" width="64" x="64" y="172.7"/></g>
<g><rect height="60" width="64" x="64" y="279.3"/></g>
<g><rect height="60" width="64" x="64" y="386"/></g>
</g>

<g><g><rect height="60" width="64" x="170.7" y="66"/></g><g><rect height="60" width="64" x="170.7" y="386"/></g><g><rect height="60" width="64" x="170.7" y="279.3"/></g><g><rect height="60" width="64" x="170.7" y="172.7"/></g></g><g><g><rect height="60" width="64" x="277.3" y="66"/></g><g><rect height="60" width="64" x="277.3" y="386"/></g><g><rect height="60" width="64" x="277.3" y="279.3"/></g><g><rect height="60" width="64" x="277.3" y="172.7"/></g></g><g><g><rect height="60" width="64" x="384" y="66"/></g><g><rect height="60" width="64" x="384" y="386"/></g><g><rect height="60" width="64" x="384" y="279.3"/></g><g><rect height="60" width="64" x="384" y="172.7"/></g></g>

</g>
</svg>