<?xml version="1.0" ?><!DOCTYPE svg  PUBLIC '-//W3C//DTD SVG 1.1//EN'  'http://www.w3.org/Graphics/SVG/1.1/DTD/svg11.dtd'><svg height="512px" id="OneDrive" style="enable-background:new 0 0 512 512;" version="1.1" viewBox="0 0 512 512" width="512px" xml:space="preserve" xmlns="http://www.w3.org/2000/svg" xmlns:xlink="http://www.w3.org/1999/xlink">
<path fill="#1B1464" d="M466,336.292c0,24.738-20.052,44.783-44.783,44.783H194.621c-30.063,0-54.43-24.366-54.43-54.43  c0-30.062,24.367-54.429,54.43-54.429c2.126,0,4.208,0.144,6.266,0.379c0.927-40.431,33.944-72.954,74.61-72.954  c25.795,0,48.535,13.071,61.957,32.964c8.157-4.01,17.311-6.327,27.018-6.327c33.898,0,61.379,27.474,61.379,61.38  c0,1.375-0.114,2.719-0.205,4.078C448.295,293.962,466,313.058,466,336.292z M187.086,257.178  c8.112-41.396,45.011-72.979,88.411-72.979c25.779,0,50.039,10.976,67.023,29.858c7.102-2.142,14.454-3.221,21.951-3.221  c0.045,0,0.083,0,0.121,0c-5.043-44.958-43.15-79.912-89.444-79.912c-35.084,0-65.413,20.105-80.277,49.386  c-9.434-5.362-20.303-8.469-31.932-8.469c-35.737,0-64.713,28.977-64.713,64.721c0,5.432,0.744,10.672,2.005,15.708  C70.062,253.66,46,278.482,46,309.001c0,31.4,25.46,56.86,56.86,56.86h33.975c-7.618-11.188-12.084-24.693-12.084-39.216  C124.75,290.658,152.094,260.944,187.086,257.178z"/></svg>