<?xml version="1.0" ?><svg enable-background="new 0 0 24 24" id="Layer_1" version="1.1" viewBox="0 0 24 24" xml:space="preserve" xmlns="http://www.w3.org/2000/svg" xmlns:xlink="http://www.w3.org/1999/xlink"><g><linearGradient gradientUnits="userSpaceOnUse" id="SVGID_1_" x1="12" x2="12" y1="0.4999911" y2="23.5000076"><stop offset="0" style="stop-color:#15BEF0"/><stop offset="0.155213" style="stop-color:#18B2E8"/><stop offset="0.4323524" style="stop-color:#2094D2"/><stop offset="0.7966607" style="stop-color:#2E62AF"/><stop offset="1" style="stop-color:#374499"/></linearGradient><circle cx="12" cy="11.999999" fill="url(#SVGID_1_)" r="11.5"/><path d="M12.0985413,23.9995956C5.4815764,24.0539341,0.0547392,18.7150173,0.0004046,12.0985403   S5.2844949,0.0547426,11.9014587,0.000404S23.945261,5.2849822,23.9995956,11.9014587S18.7155056,23.9452553,12.0985413,23.9995956   z M11.9096708,1.0003703C5.8444457,1.0501781,0.9505631,6.0251036,1.0003709,12.0903282   c0.0498078,6.0652256,5.0247331,10.9591084,11.0899582,10.9092999c6.0652246-0.0498066,10.9591074-5.0247326,10.9093008-11.0899582   C22.9498215,5.8444452,17.9748955,0.9505625,11.9096708,1.0003703z" fill="#F2F2F2"/><path d="M12.096488,23.7496033c-4.9648719,0.0407715-9.2582293-2.9195538-11.1385307-7.1913872   c-0.1702083-0.386694-0.3206436-0.7841358-0.450014-1.1910706c-0.1161132-0.3652334-0.2152575-0.7381144-0.296499-1.1177378   c0.0598641,0.3169479,0.1321694,0.629426,0.2163857,0.9369164c0.0657486,0.2400618,0.138757,0.4770823,0.218773,0.7108154   c1.6269925,4.7525816,6.1512332,8.1459856,11.4519386,8.1024561c5.4321747-0.0446091,9.9847565-3.6564808,11.4214001-8.6145344   c0.1224842-0.4227123,0.2223186-0.8552103,0.2981186-1.2961168c-0.0676003,0.3433495-0.1498146,0.6813297-0.2459679,1.0132828   C22.1297607,20.0815697,17.5505619,23.7048149,12.096488,23.7496033z" opacity="0.1"/><path d="M11.903512,0.2503956c5.4055185-0.0443902,10.0087805,3.451252,11.586072,8.3082752   c-1.4909973-4.9849339-6.1237087-8.6031408-11.5881252-8.5582666S1.8643779,3.73908,0.4554487,8.7478275   C1.9527607,3.8655558,6.4979935,0.2947858,11.903512,0.2503956z" fill="#FFFFFF" opacity="0.2"/><line fill="#303C42" id="XMLID_1303_" x1="6.5452142" x2="5.777051" y1="15.9420595" y2="15.2875834"/><path d="M11.2169733,7.1544528l-0.8967285-0.4038696c-0.2566528-0.1155396-0.5580444,0.003418-0.666626,0.2630615   L9.1958551,8.1084929l1.8186646,0.8463745l0.4616699-1.1595454C11.5751886,7.5467257,11.4609308,7.2643161,11.2169733,7.1544528z" fill="#FFFFFF"/><polygon fill="#FFFFFF" points="9.002923,8.5699797 5.7810602,16.2763405 7.7369318,17.1865578 10.829339,9.4199553  "/><polygon fill="#FFFFFF" points="5.5901423,16.7388039 5.4999933,19.5632668 7.5382013,17.6454201  "/><polygon fill="#FFFFFF" points="16.3926334,11.4999914 17.228754,13.4999914 20.9999943,13.4999914 20.9999943,11.4999914  "/><path d="M16.1583195,12.235465l-3.2883921-7.8654785c-0.1085815-0.2596436-0.4099731-0.3786013-0.666626-0.2630005   l-0.8967285,0.4038086c-0.2439575,0.1098633-0.3582153,0.3922729-0.2592163,0.6408691l3.1785889,7.9831543L16.1583195,12.235465z" fill="#FFFFFF"/><polygon fill="#FFFFFF" points="16.3512516,12.6970129 14.4111261,13.599906 14.9597101,14.9776525 16.9332218,14.0889196  "/><path d="M17.0975285,14.5632238l-1.9035654,0.8571777l-0.0025635,0.0012207   c-0.0606689,0.4542847-0.1087646,1.0783682,0.1060791,1.5679312c0.5132446,1.1698608,1.5321054,1.8510742,1.354249,2.8701782   c0,0,1.2987671-1.6889648,1.447876-2.7764282C18.2792301,15.7729406,17.5990543,14.9986486,17.0975285,14.5632238z" fill="#FFFFFF"/><polygon fill="#FFFFFF" points="9.7427301,13.4999914 13.8333063,13.4999914 13.0369806,11.4999914 10.5389948,11.4999914  "/><polygon fill="#FFFFFF" points="7.2361383,11.4999914 2.9999936,11.4999914 2.9999936,13.4999914 6.4000788,13.4999914  "/><linearGradient gradientUnits="userSpaceOnUse" id="SVGID_2_" x1="1.1221305" x2="22.8778687" y1="6.9275656" y2="17.0724335"><stop offset="0" style="stop-color:#FFFFFF;stop-opacity:0.2"/><stop offset="1" style="stop-color:#FFFFFF;stop-opacity:0"/></linearGradient><circle cx="12" cy="11.999999" fill="url(#SVGID_2_)" r="11.9996033"/></g><g/><g/><g/><g/><g/><g/><g/><g/><g/><g/><g/><g/><g/><g/><g/></svg>