<?xml version="1.0" ?><!DOCTYPE svg  PUBLIC '-//W3C//DTD SVG 1.1//EN'  'http://www.w3.org/Graphics/SVG/1.1/DTD/svg11.dtd'><svg enable-background="new 0 0 32 32" height="32px" id="Layer_1" version="1.1" viewBox="0 0 32 32" width="32px" xml:space="preserve" xmlns="http://www.w3.org/2000/svg" xmlns:xlink="http://www.w3.org/1999/xlink">
  <defs>
    <linearGradient id="g1" x1="0%" y1="100%" x2="100%" y2="0%">
      <stop offset="0%" style="stop-color:rgb(255,0,0);stop-opacity:1" />
      <stop offset="25%" style="stop-color:rgb(255,255,0);stop-opacity:1" />
      <stop offset="50%" style="stop-color:rgb(0,255,255);stop-opacity:1" />
      <stop offset="75%" style="stop-color:rgb(0,0,255);stop-opacity:1" />
      <stop offset="100%" style="stop-color:rgb(255,0,255);stop-opacity:1" />
    </linearGradient>
  </defs>
<path fill="url(#g1)" style="stroke-width:0.3;stroke:#FFFFFF;" d="M28.172,3.828c-0.964-0.964-2.186-1.575-3.533-1.767c-1.961-0.278-3.895,0.367-5.294,1.767  c-0.391,0.391-0.391,1.024,0,1.415c0.021,0.021,0.048,0.028,0.07,0.046c0.018,0.021,0.025,0.048,0.046,0.069l2.884,2.884  L7.449,23.138l-2.293-2.293L17.793,8.208c0.391-0.391,0.391-1.023,0-1.414s-1.023-0.391-1.414,0L3.037,20.136  c-0.001,0.001-0.002,0.001-0.003,0.002L2.292,20.88c-0.094,0.094-0.167,0.206-0.217,0.327C2.026,21.329,2,21.458,2,21.587V29  c0,0.553,0.448,1,1,1h7.414c0.265,0,0.52-0.105,0.707-0.293l17.051-17.051C30.605,10.222,30.605,6.262,28.172,3.828z M24.358,4.042  c0.914,0.13,1.744,0.545,2.399,1.2c1.409,1.41,1.606,3.567,0.614,5.199l-2.906-2.907l0,0l0,0l-2.916-2.916  C22.38,4.109,23.363,3.901,24.358,4.042z M4,28v-5.482l2.74,2.74c0.001,0.001,0.001,0.002,0.001,0.002s0.002,0.001,0.002,0.001  L9.482,28H4z M8.863,24.552L23.758,9.656l2.293,2.293L11.155,26.845L8.863,24.552z"/>
</svg>