<?xml version="1.0" ?><svg enable-background="new 0 0 512 512" id="Layer_1" version="1.1" viewBox="0 0 512 512" xml:space="preserve" xmlns="http://www.w3.org/2000/svg" xmlns:xlink="http://www.w3.org/1999/xlink"><g><g><linearGradient gradientUnits="userSpaceOnUse" id="SVGID_1_" x1="0.0000038" x2="512" y1="256" y2="256"><stop offset="0" style="stop-color:#F67950"/><stop offset="1" style="stop-color:#F15A29"/></linearGradient><circle cx="256" cy="256" fill="url(#SVGID_1_)" r="256"/><linearGradient gradientUnits="userSpaceOnUse" id="SVGID_2_" x1="42.6666679" x2="469.3333435" y1="256.0005188" y2="256.0005188"><stop offset="0" style="stop-color:#F15A29"/><stop offset="1" style="stop-color:#F67950"/></linearGradient><path d="M256,469.3338623c-117.6314697,0-213.3333282-95.7018738-213.3333282-213.3333435    c0-117.6309204,95.7018585-213.333313,213.3333282-213.333313c117.6357422,0,213.3333435,95.7024002,213.3333435,213.333313    C469.3333435,373.6319885,373.6357422,469.3338623,256,469.3338623z" fill="url(#SVGID_2_)"/></g><g><path d="M249.6495972,177.0213318l-26.7450562,26.7456055    c-18.1200104,18.1199951-47.5221405,27.1173248-73.8090668,27.6490631    c-4.6016083,0.092804-6.8016052,5.6762695-3.5472107,8.9306641l142.1039886,142.1034698    c3.254425,3.2543945,8.8373413,1.0544128,8.9301453-3.5477295c0.5328064-26.2864075,9.5291748-55.6885376,27.6490784-73.8085327    l26.7450562-26.7445374c27.9802551-27.9808044,27.9802551-73.3466644,0-101.3280029    C322.9962769,149.0421295,277.6298523,149.0421295,249.6495972,177.0213318z" opacity="0.3"/><path d="M191.2682648,336.7296143c11.5349426,11.5343933,28.9669342,13.533844,42.57547,6.0501099    l-48.624527-48.6239929C177.7338715,307.7637329,179.7338715,325.1957397,191.2682648,336.7296143z" opacity="0.3"/><path d="M378.3349304,149.6656036c-7.554657-7.5536041-19.8026733-7.5536041-27.3573303,0    c-2.8607178,2.8613281-4.6282654,6.3962555-5.3221436,10.0927887c4.4058838,2.9552002,8.5578613,6.3584137,12.3936157,10.1952057    c3.8591919,3.8586731,7.2293396,8.0213318,10.1531677,12.3962708c3.7113647-0.6896057,7.2617493-2.4560089,10.1326904-5.3274689    C385.8895874,169.4682617,385.8895874,157.2202606,378.3349304,149.6656036z" opacity="0.3"/></g><g><path d="M241.6495972,169.0213318l-26.7450562,26.7456055    c-18.1200104,18.1199951-47.5221405,27.1173248-73.8090668,27.6490631    c-4.6016083,0.092804-6.8016052,5.6762695-3.5472107,8.9306641l142.1039886,142.1034698    c3.254425,3.2543945,8.8373413,1.0544128,8.9301453-3.5477295c0.5328064-26.2864075,9.5291748-55.6885376,27.6490784-73.8085327    l26.7450562-26.7445374c27.9802551-27.9808044,27.9802551-73.3466644,0-101.3280029    C314.9962769,141.0421295,269.6298523,141.0421295,241.6495972,169.0213318z" fill="#FFFFFF"/><path d="M183.2682648,328.7296143c11.5349426,11.5343933,28.9669342,13.533844,42.57547,6.0501099    l-48.624527-48.6239929C169.7338715,299.7637329,171.7338715,317.1957397,183.2682648,328.7296143z" fill="#FFFFFF"/><path d="M370.3349304,141.6656036c-7.554657-7.5536041-19.8026733-7.5536041-27.3573303,0    c-2.8607178,2.8613281-4.6282654,6.3962555-5.3221436,10.0927887c4.4058838,2.9552002,8.5578613,6.3584137,12.3936157,10.1952057    c3.8591919,3.8586731,7.2293396,8.0213318,10.1531677,12.3962708c3.7113647-0.6896057,7.2617493-2.4560089,10.1326904-5.3274689    C377.8895874,161.4682617,377.8895874,149.2202606,370.3349304,141.6656036z" fill="#FFFFFF"/></g></g></svg>