<?xml version="1.0" ?>
<!DOCTYPE svg  PUBLIC '-//W3C//DTD SVG 1.1//EN'  'http://www.w3.org/Graphics/SVG/1.1/DTD/svg11.dtd'>
<svg height="32px" id="Layer_1" style="enable-background:new 0 0 32 32;" version="1.1" viewBox="0 0 32 32" width="32px" xml:space="preserve" xmlns="http://www.w3.org/2000/svg" xmlns:xlink="http://www.w3.org/1999/xlink">

<g transform="translate(192 288)" fill="#5050FF">
<path d="M-180.818-265.684l-4.031,6.982c-4.307-2.865-7.15-7.764-7.15-13.325c0-8.498,6.633-15.432,15-15.949v8.051 c-3.936,0.498-7,3.829-7,7.898C-183.999-269.43-182.737-267.143-180.818-265.684L-180.818-265.684z M-169.656-276.845l6.982-4.03 c-2.693-4.047-7.182-6.781-12.326-7.1v8.051C-172.82-279.649-170.926-278.511-169.656-276.845z M-161.684-279.137l-6.943,4.01 c0.402,0.953,0.627,2.002,0.627,3.103c0,4.412-3.588,8-8,8c-1.1,0-2.148-0.223-3.102-0.627l-4.01,6.943 c2.145,1.068,4.553,1.684,7.111,1.684c8.836,0,16-7.164,16-16C-160.001-274.584-160.615-276.993-161.684-279.137L-161.684-279.137z"/>
</g>
</svg>