<?xml version="1.0" ?><!DOCTYPE svg  PUBLIC '-//W3C//DTD SVG 1.1//EN'  'http://www.w3.org/Graphics/SVG/1.1/DTD/svg11.dtd'><svg style="enable-background:new 0 0 35.999 36.005;" version="1.1" viewBox="0 0 35.999 36.005" xml:space="preserve" xmlns="http://www.w3.org/2000/svg" xmlns:xlink="http://www.w3.org/1999/xlink"><g id="Paste"><g id="Layer_5"><g id="ClipView_1"><path d="M0,0v36.005h35.999V0H0z" marker-end="none" marker-start="none" style="fill:none;"/><g><defs><rect height="36.005" id="SVGID_1_" width="35.999"/></defs><clipPath id="SVGID_2_"><use style="overflow:visible;" xlink:href="#SVGID_1_"/></clipPath><g style="clip-path:url(#SVGID_2_);"><g id="Group_6"><g id="Group_7"><path d="M2.246,32.255l0.004-0.76L2.248,5.283L2.246,4.507         c0-0.413,0.336-0.75,0.75-0.75l6.338-0.001h10.913l5.242,0.001c0.419,0,0.756,0.337,0.756,0.75l-0.01,0.794v26.181         l0.01,0.773c0,0.414-0.337,0.75-0.75,0.75H2.996C2.582,33.005,2.246,32.669,2.246,32.255z" marker-end="none" marker-start="none" style="fill:#985B21;"/><g id="Group_8"><linearGradient gradientTransform="matrix(-4.008057e-005 1 -1 -4.008057e-005 201.2418 398.9947)" gradientUnits="userSpaceOnUse" id="SVGID_3_" x1="-388.6982" x2="-363.7162" y1="187.0166" y2="187.0166"><stop offset="0" style="stop-color:#CA974F"/><stop offset="1" style="stop-color:#B07136"/></linearGradient><path d="M3.006,4.511v27.741h22.469V4.511H3.006z" marker-end="none" marker-start="none" style="fill:url(#SVGID_3_);"/><path d="M3.006,4.512v27.743h0.739V4.512          H3.006z" marker-end="none" marker-start="none" style="fill:#EAC68F;fill-opacity:0.5804;"/><path d="M2.996,4.507v0.769h22.499V4.507          H2.996z" marker-end="none" marker-start="none" style="fill:#EAC68F;fill-opacity:0.5804;"/><path d="M2.996,31.506v0.749h22.499          v-0.749H2.996z" marker-end="none" marker-start="none" style="fill:#985B21;fill-opacity:0.5804;"/><path d="M24.745,4.506v27.735h0.727          V4.506H24.745z" marker-end="none" marker-start="none" style="fill:#985B21;fill-opacity:0.5804;"/><path d="M9.336,4.505v3.853h10.909V4.505          H9.336z" marker-end="none" marker-start="none" style="fill:#985B21;fill-opacity:0.4078;"/></g></g><g id="Group_9"><path d="M8.995,8.255l0.004-4.582l3.777-1.111         c0.07,0.338,0.631,1.001,0.757,1.014c0.212,0.114,0.454,0.179,0.712,0.179c0.257,0,0.499-0.064,0.711-0.179         c0.127-0.013,0.687-0.677,0.757-1.014l3.779,1.111l0.003,4.582H8.995z" marker-end="none" marker-start="none" style="fill:#526073;"/><linearGradient gradientTransform="matrix(1 0 0 1 163.496 346.959)" gradientUnits="userSpaceOnUse" id="SVGID_4_" x1="-149.2515" x2="-149.2515" y1="-341.704" y2="-344.704"><stop offset="0" style="stop-color:#6F8199"/><stop offset="1" style="stop-color:#D7DCE3"/></linearGradient><path d="M9.745,7.505l0.003-3.27l2.653-0.771         c0.053,0.077,0.101,0.139,0.142,0.191c0.098,0.124,0.205,0.245,0.306,0.343c0.049,0.048,0.11,0.103,0.176,0.152         c0.011,0.008,0.059,0.045,0.135,0.083l0.074,0.031l0.189,0.088c0.255,0.099,0.532,0.153,0.822,0.153         c0.287,0,0.563-0.053,0.819-0.153l0.173-0.08l0.089-0.037C15.4,4.197,15.449,4.16,15.463,4.15         c0.067-0.049,0.127-0.104,0.177-0.152c0.101-0.098,0.208-0.22,0.305-0.344c0.04-0.051,0.087-0.112,0.14-0.19l2.657,0.771         l0.002,3.27H9.745z" marker-end="none" marker-start="none" style="fill:url(#SVGID_4_);"/></g><path d="M11.996,2.254c0-1.241,1.009-2.249,2.25-2.249        c1.241,0,2.249,1.008,2.249,2.249s-1.008,2.248-2.249,2.248C13.005,4.502,11.996,3.495,11.996,2.254z M15.37,2.255        c0-0.621-0.504-1.125-1.125-1.125S13.12,1.634,13.12,2.255s0.504,1.125,1.125,1.125S15.37,2.876,15.37,2.255z" marker-end="none" marker-start="none" style="fill:#526073;"/><linearGradient gradientTransform="matrix(1 0 0 1 164.246 345.459)" gradientUnits="userSpaceOnUse" id="SVGID_5_" x1="-150.0005" x2="-150.0005" y1="-341.704" y2="-337.954"><stop offset="0" style="stop-color:#526073"/><stop offset="0.4" style="stop-color:#FFFFFF"/><stop offset="1" style="stop-color:#97A4B5"/></linearGradient><path d="M9.745,5.255v2.249h9.001V5.255H9.745z" marker-end="none" marker-start="none" style="fill:url(#SVGID_5_);"/></g><g id="Group_10"><g id="Group_11"><g id="Group_12"><linearGradient gradientTransform="matrix(1 0 0 1 176.25 371.709)" gradientUnits="userSpaceOnUse" id="SVGID_6_" x1="-152.2525" x2="-152.2525" y1="-341.704" y2="-357.454"><stop offset="0" style="stop-color:#57769A"/><stop offset="1" style="stop-color:#7299BF"/></linearGradient><path d="M14.246,10.505v24.001h19.503l-0.001-18.3          l-5.775-5.7L14.246,10.505z" marker-end="none" marker-start="none" style="fill:url(#SVGID_6_);"/><linearGradient gradientTransform="matrix(6.123234e-017 1 -1 6.123234e-017 212.796 399.958)" gradientUnits="userSpaceOnUse" id="SVGID_7_" x1="-388.702" x2="-369.368" y1="188.799" y2="188.799"><stop offset="0" style="stop-color:#FFFFFF"/><stop offset="1" style="stop-color:#D6E6F6"/></linearGradient><path d="M14.996,33.756v-22.5h12.669l5.333,5.264          v17.236H14.996z" marker-end="none" marker-start="none" style="fill:url(#SVGID_7_);"/></g><defs><filter filterUnits="userSpaceOnUse" height="22.499" id="Adobe_OpacityMaskFilter" width="0.749" x="15" y="11.257"><feColorMatrix type="matrix" values="1 0 0 0 0  0 1 0 0 0  0 0 1 0 0  0 0 0 1 0"/></filter></defs><mask height="22.499" id="TranspMask_4_1_" maskUnits="userSpaceOnUse" width="0.749" x="15" y="11.257"><linearGradient gradientTransform="matrix(-0.0331 0.9995 -0.9991 -0.0446 203.2963 412.2693)" gradientUnits="userSpaceOnUse" id="SVGID_8_" x1="-297.0918" x2="-274.4598" y1="196.8577" y2="196.8577"><stop offset="0" style="stop-color:#FFFFFF"/><stop offset="1" style="stop-color:#000000"/></linearGradient><rect height="784.45" style="fill:url(#SVGID_8_);filter:url(#Adobe_OpacityMaskFilter);" width="576.899" x="-269.075" y="-373.37"/></mask><path d="M15,11.257v22.499h0.749         V11.257H15z" marker-end="none" marker-start="none" style="mask:url(#TranspMask_4_1_);fill:#FFFFFF;"/><linearGradient gradientTransform="matrix(1 0 0 1 177.744 358.209)" gradientUnits="userSpaceOnUse" id="SVGID_9_" x1="-149.998" x2="-146.061" y1="-341.701" y2="-345.638"><stop offset="0" style="stop-color:#FFFFFF"/><stop offset="1" style="stop-color:#7299BF"/></linearGradient><path d="M32.999,16.505l-5.25-5.25v5.25H32.999z" marker-end="none" marker-start="none" style="fill:url(#SVGID_9_);"/><defs><filter filterUnits="userSpaceOnUse" height="3" id="Adobe_OpacityMaskFilter_1_" width="5.25" x="27.749" y="16.505"><feColorMatrix type="matrix" values="1 0 0 0 0  0 1 0 0 0  0 0 1 0 0  0 0 0 1 0"/></filter></defs><mask height="3" id="TranspMask_5_1_" maskUnits="userSpaceOnUse" width="5.25" x="27.749" y="16.505"><linearGradient gradientTransform="matrix(6.123234e-017 1 -1 6.123234e-017 216.718 406.209)" gradientUnits="userSpaceOnUse" id="SVGID_10_" x1="-307" x2="-304.001" y1="197.3435" y2="197.3435"><stop offset="0" style="stop-color:#FFFFFF"/><stop offset="1" style="stop-color:#000000"/></linearGradient><rect height="784.45" style="fill:url(#SVGID_10_);filter:url(#Adobe_OpacityMaskFilter_1_);" width="576.899" x="-269.075" y="-373.37"/></mask><path d="M27.749,16.505l5.25,3v-3         H27.749z" marker-end="none" marker-start="none" style="mask:url(#TranspMask_5_1_);fill:#7299BF;"/></g></g></g></g></g></g></g><g id="Layer_1"/></svg>