<?xml version="1.0" ?><!DOCTYPE svg  PUBLIC '-//W3C//DTD SVG 1.1//EN'  'http://www.w3.org/Graphics/SVG/1.1/DTD/svg11.dtd'><svg enable-background="new 0 0 512 512" height="512px" id="Layer_1" version="1.1" viewBox="0 0 512 512" width="512px" xml:space="preserve" xmlns="http://www.w3.org/2000/svg" xmlns:xlink="http://www.w3.org/1999/xlink"><path d="M511.999,432c0,44.182-35.816,80-80,80H80c-44.183,0-80-35.818-80-80V80C0,35.817,35.817,0,80,0h351.999  c44.184,0,80,35.817,80,80V432z" fill="#1B85F3"/><g><path d="M404.388,239.654l-15.019,15.019L254.042,119.347l-6.139,6.139l23.132,23.132l12.195,34.476l-5.86,5.86   l45.963,45.963l-16.475,16.475l-52.816-52.816l-55.273,55.273l-16.269-16.27l-23.859,23.859l-11.703-11.703l-39.126,39.125   l44.375,44.375l-10.17,10.171L310.61,512h121.389c44.183,0,79.999-35.818,79.999-80v-84.734L404.388,239.654z" fill="#055093"/><polygon fill="#055093" points="147.259,374.49 143.842,371.073 128.381,386.536 253.844,512 305.133,512 157.44,364.308  "/></g><g><path d="M182.492,237.568h-70.213c-3.476,0-6.279,2.822-6.279,6.271v40.605c0,3.448,2.804,6.289,6.288,6.289h39.698   L182.492,237.568z" fill="#FDFDFD"/><path d="M155.679,362.879l-18.066-10.362c-3.303-1.905-6.361-0.345-6.796,3.43l-3.131,27.204   c-0.427,3.811,1.788,5.153,4.945,2.993l23.337-15.86C159.127,368.114,159,364.785,155.679,362.879z" fill="#FDFDFD"/><path d="M254.747,206.582c1.906-3.294,0.763-7.549-2.55-9.473l-18.057-10.345c-3.303-1.923-7.586-0.753-9.473,2.541   l-27.693,48.254l-30.533,53.164l-25.472,44.362c-1.905,3.312-0.744,7.577,2.55,9.464l18.075,10.371   c3.304,1.914,7.567,0.763,9.474-2.531l35.415-61.666l22.866-39.889L254.747,206.582z" fill="#FDFDFD"/><path d="M251.453,237.568l-30.506,53.165h82.809c-5.998-11.896-13.974-28.865-24.662-53.165H251.453z" fill="#FDFDFD"/><path d="M352.973,291.404c-0.092-0.173-0.227-0.418-0.363-0.663c-1.669-3.121-5.88-11.196-11.396-21.668   c-0.063-0.154-0.146-0.272-0.2-0.436c-0.436-0.798-0.87-1.605-1.306-2.422c-0.318-0.59-0.645-1.216-0.953-1.843   c-0.281-0.5-0.563-1.016-0.835-1.561c-0.49-0.935-0.971-1.869-1.488-2.822c-0.146-0.29-0.299-0.581-0.472-0.889   c-0.563-1.062-1.134-2.151-1.706-3.23c-0.172-0.318-0.327-0.645-0.49-0.953c-12.739-24.063-28.728-53.681-38.582-69.279   c-17.259-27.303-40.325-72.772-46.767-69.569c-9.002,4.51,18.892,62.256,28.129,83.979c9.237,21.687,45.279,104.857,52.492,108.514   c7.241,3.594,10.036,1.579,14.881-0.417C348.744,306.167,357.409,299.443,352.973,291.404z" fill="#FDFDFD"/><path d="M373.57,334.26l-8.603-16.532c-1.96-3.729-6.533-5.254-10.199-3.385l-10.361,5.326   c-3.657,1.905-4.801,6.315-2.56,9.908l10.88,17.205c2.241,3.547,7.005,4.709,10.525,2.55l7.404-4.428   C374.188,342.808,375.512,337.998,373.57,334.26z" fill="#FDFDFD"/><path d="M370.894,358.161c-2.705,2.612-9.138,8.211-1.353,19.173c7.785,10.97,25.153,11.442,27.439,18.756   C396.98,396.09,402.443,340.376,370.894,358.161z" fill="#FDFDFD"/><path d="M405.991,284.444v-40.597c0-3.448-2.795-6.27-6.279-6.27h-60.995c7.188,13.447,13.829,26.114,18.512,35.043   c3.257,6.207,5.825,11.106,6.741,12.74c0.943,1.732,1.615,3.539,2.069,5.372h33.683c3.483,0,6.278-2.841,6.278-6.289H405.991z" fill="#FDFDFD"/></g></svg>