<?xml version="1.0" ?><svg height="32" width="32" xmlns="http://www.w3.org/2000/svg"><path stroke-width="0.1" stroke="#000000" d="M15.999 0c-8.837 0-16 7.163-16 16 0 8.835 7.163 16 16 16s16-7.164 16-16-7.163-16-16-16zm0 29c-7.18 0-13-5.82-13-13s5.82-13 13-13 13 5.82 13 13-5.82 13-13 13zm-.074-17.498c.113-.202.045-.46-.153-.577l-1.084-.629c-.198-.116-.455-.046-.568.155l-1.661 2.932-1.831 3.229-1.528 2.696c-.114.201-.045.46.153.574l1.084.631c.198.116.454.046.569-.154l2.123-3.747 1.372-2.421 1.524-2.689zm-.862 3.502l-1.667 3.006h5.884l-1.5-3.006h-2.717zm-4.796 0h-2.268c-.552 0-1 .449-1 1.002v1.003c0 .553.448 1.001 1 1.001h.468l1.8-3.006zm-.286 5.993l-1.083-.63c-.198-.115-.381-.02-.408.209l-.188 1.652c-.026.23.107.313.297.183l1.399-.966c.19-.131.183-.333-.017-.448zm11.833-4.344l-.022-.041-.684-1.317-.013-.023-.077-.15-.058-.109-.049-.096-.09-.172-.028-.053-.102-.197-.03-.058c-.764-1.461-1.723-3.262-2.314-4.208-1.035-1.659-2.418-4.422-2.804-4.227-.541.273 1.133 3.782 1.687 5.101.554 1.318 2.716 6.372 3.149 6.592s.602.098.891-.023c.291-.123.809-.528.544-1.019zm2.185-1.649h-2.131l1.715 3.006h.416c.553 0 1-.448 1-1.001v-1.003c0-.553-.447-1.002-1-1.002zm-.949 4.254l-.516-1.004c-.117-.227-.392-.32-.611-.206l-.622.324c-.219.114-.288.384-.153.601l.653 1.045c.135.216.419.287.631.156l.444-.27c.212-.128.29-.42.174-.646zm-.159 1.451c-.162.159-.548.501-.081 1.167.466.666 1.508.696 1.646 1.138-.001 0 .326-3.384-1.565-2.305z" fill="#00C080"/></svg>
