<?xml version="1.0" ?><!DOCTYPE svg  PUBLIC '-//W3C//DTD SVG 1.1//EN'  'http://www.w3.org/Graphics/SVG/1.1/DTD/svg11.dtd'><svg enable-background="new 0 0 52 52" height="52px" id="Слой_1" version="1.1" viewBox="0 0 52 52" width="52px" xml:space="preserve" xmlns="http://www.w3.org/2000/svg" xmlns:xlink="http://www.w3.org/1999/xlink"><g><g><g><path d="M26.824,26.123c0,0-0.494,0.032-1.359,0.089c-0.433,0.028-0.953,0.091-1.57,0.073     c-0.158-0.023-0.311,0.013-0.488-0.06c-0.142-0.045-0.32-0.177-0.447-0.279c-0.277-0.216-0.519-0.482-0.777-0.756     c-0.504-0.556-1.003-1.196-1.493-1.902c-0.477-0.715-0.988-1.466-1.309-2.391c-0.18-0.495-0.119-0.979-0.161-1.448     c-0.021-0.478-0.041-0.96-0.063-1.447c-0.037-0.975-0.096-1.96-0.115-2.954c-0.011-0.994-0.022-1.987-0.034-2.965     c-0.005-0.489-0.011-0.974-0.016-1.453l-0.008-0.714l-0.002-0.177c0.002-0.108,0.013-0.13,0.019-0.2l0.042-0.347     c0.016-0.456,0.199-0.926,0.357-1.373c0.216-0.41,0.403-0.826,0.68-1.164c0.512-0.714,1.08-1.288,1.723-1.746     c0.672-0.367,1.328-0.578,1.916-0.739c0.592-0.147,1.115-0.228,1.549-0.267c0.432-0.049,0.776-0.027,1.007-0.042     c0.232-0.008,0.356,0.001,0.356,0.001s-0.124-0.002-0.355,0.021c-0.23,0.028-0.572,0.027-0.997,0.103     c-0.427,0.065-0.938,0.177-1.51,0.357c-0.563,0.194-1.197,0.445-1.822,0.807c-0.549,0.423-1.118,1.025-1.568,1.712     c-0.254,0.33-0.414,0.731-0.601,1.112c-0.115,0.403-0.295,0.782-0.306,1.266l-0.038,0.348c-0.004,0.047-0.018,0.141-0.014,0.15     l0.004,0.176l0.016,0.71c0.011,0.476,0.021,0.958,0.032,1.444c0.022,0.971,0.043,1.958,0.065,2.944     c0.007,0.987,0.056,1.979,0.082,2.953c0.016,0.487,0.031,0.971,0.046,1.448c0.034,0.479-0.022,0.963,0.125,1.351     c0.286,0.835,0.756,1.612,1.199,2.322c0.456,0.708,0.927,1.357,1.401,1.918c0.24,0.276,0.475,0.542,0.72,0.759     c0.131,0.11,0.21,0.2,0.37,0.268c0.114,0.064,0.292,0.047,0.428,0.075c0.586,0.054,1.12,0.025,1.551,0.022     C26.329,26.125,26.824,26.123,26.824,26.123z" fill="#1D1D1B"/></g><g><path d="M26.703,15.498l-1.365,0.004c-0.227-0.009-0.455-0.042-0.684-0.062c-0.228-0.029-0.461-0.033-0.686-0.084     l-0.676-0.152c-0.226-0.053-0.439-0.152-0.66-0.227c-0.223-0.072-0.422-0.209-0.635-0.313l-0.294-0.213     c-0.096-0.086-0.181-0.153-0.275-0.281l-0.027-0.037l0-0.065c-0.011-1.292,0.023-2.584,0.038-3.876     c0.017-1.292,0.034-2.584,0.081-3.875l0.007-0.196l0.188-0.032l3.088-0.53l0.256-0.044l-0.006,0.254     c-0.039,1.661-0.06,3.322-0.13,4.983l-0.083-0.082l1.861,0.082l-1.861,0.082l-0.079,0.004l-0.004-0.086     c-0.07-1.661-0.092-3.322-0.13-4.983l0.25,0.209L21.8,6.557l0.196-0.229c-0.011,1.292-0.052,2.584-0.093,3.875     c-0.043,1.292-0.066,2.583-0.136,3.874l-0.027-0.101c0.038,0.057,0.124,0.145,0.194,0.21l0.249,0.199     c0.191,0.102,0.364,0.238,0.573,0.315c0.206,0.079,0.402,0.184,0.617,0.245l0.645,0.185c0.214,0.067,0.439,0.087,0.659,0.133     c0.222,0.037,0.442,0.087,0.667,0.113L26.703,15.498z" fill="#1D1D1B"/></g><g><path d="M21.502,14.261c-0.033,0.298-0.081,0.591-0.142,0.88l-0.03-0.139c0.219,0.177,0.478,0.33,0.729,0.472     c0.253,0.139,0.508,0.279,0.777,0.383c0.264,0.119,0.537,0.208,0.815,0.291c0.135,0.055,0.279,0.076,0.421,0.104l0.428,0.106     l-0.175,0.124c0.135-0.369,0.29-0.732,0.473-1.088c-0.024,0.399-0.076,0.791-0.148,1.177l-0.025,0.133l-0.151-0.01     c-0.309-0.02-0.63-0.014-0.936-0.092c-0.308-0.07-0.613-0.154-0.899-0.292c-0.581-0.253-1.097-0.627-1.512-1.117l-0.061-0.072     l0.03-0.067C21.217,14.785,21.352,14.521,21.502,14.261z" fill="#1D1D1B"/></g><g><path d="M24.342,22.538c-0.112-0.344-0.184-0.706-0.338-1.03c-0.123-0.335-0.297-0.649-0.471-0.961     c-0.363-0.613-0.774-1.201-1.277-1.703c-0.234-0.267-0.514-0.486-0.775-0.722c-0.127-0.123-0.281-0.211-0.419-0.319l-0.442-0.324     c-0.146-0.106-0.292-0.206-0.43-0.369c-0.142-0.146-0.285-0.292-0.368-0.475c-0.088-0.177-0.22-0.34-0.25-0.537l-0.147-0.57     l-0.017-0.063l0.042-0.083c0.448-0.874,0.923-1.733,1.384-2.601l-0.024,0.08c0.123-1.094,0.275-2.184,0.432-3.274     c0.148-1.091,0.325-2.179,0.515-3.265c-0.051,1.102-0.115,2.202-0.208,3.299c-0.084,1.098-0.173,2.195-0.292,3.29l-0.004,0.042     l-0.02,0.039c-0.45,0.873-0.885,1.753-1.348,2.62l0.026-0.145l0.116,0.483c0.018,0.171,0.129,0.297,0.196,0.446     c0.063,0.156,0.176,0.268,0.283,0.386c0.089,0.124,0.239,0.234,0.384,0.344l0.428,0.327c0.145,0.117,0.306,0.215,0.437,0.347     c0.274,0.251,0.542,0.508,0.773,0.798c0.251,0.272,0.455,0.582,0.667,0.882c0.111,0.147,0.189,0.316,0.285,0.473     c0.087,0.162,0.193,0.313,0.257,0.487c0.147,0.337,0.293,0.674,0.386,1.032C24.252,21.818,24.278,22.181,24.342,22.538z" fill="#1D1D1B"/></g><g><path d="M20.899,17.412c0.602,0.936,1.109,1.914,1.583,2.908c0.472,0.995,0.896,2.01,1.265,3.052l-0.229-0.029     c0.267-0.274,0.537-0.546,0.824-0.804c-0.192,0.335-0.4,0.657-0.612,0.975l-0.116,0.174L23.5,23.484     c-0.54-0.964-1.023-1.953-1.459-2.964C21.606,19.508,21.206,18.481,20.899,17.412z" fill="#1D1D1B"/></g><g><path d="M24.342,22.538c0,0,0.155-0.08,0.388-0.14c0.233-0.059,0.543-0.112,0.854-0.11     c0.311-0.003,0.621,0.049,0.854,0.109c0.232,0.06,0.388,0.141,0.388,0.141s-0.155,0.081-0.388,0.141     c-0.233,0.06-0.543,0.112-0.854,0.109c-0.311,0.002-0.621-0.051-0.854-0.11C24.497,22.618,24.342,22.538,24.342,22.538z" fill="#1D1D1B"/></g><g><path d="M22.864,21.856c0.026,0.644,0,1.281-0.036,1.918l-0.025-0.12c0.346,0.496,0.663,1.01,0.977,1.525     l-0.213-0.121c0.601-0.002,1.202,0.011,1.803,0.037l-0.211,0.211l0.053-0.755l0.012-0.17l0.15,0.012     c0.484,0.039,0.968,0.104,1.452,0.187c-0.486,0.064-0.973,0.11-1.458,0.13l0.161-0.158l0.053,0.755l0.014,0.202l-0.226,0.01     c-0.601,0.026-1.202,0.039-1.803,0.037l-0.143,0l-0.07-0.121c-0.303-0.521-0.605-1.044-0.876-1.584l-0.035-0.069l0.009-0.051     C22.565,23.103,22.688,22.476,22.864,21.856z" fill="#1D1D1B"/></g><g><path d="M24.342,24.832" fill="none"/></g><g><path d="M24.342,25.307c0,0-0.084-0.192-0.152-0.482c-0.066-0.291-0.129-0.678-0.136-1.067     c-0.012-0.389,0.031-0.779,0.083-1.072c0.053-0.293,0.129-0.489,0.129-0.489s0.085,0.192,0.152,0.482     c0.067,0.291,0.128,0.678,0.135,1.067c0.012,0.389-0.032,0.779-0.084,1.072C24.417,25.11,24.342,25.307,24.342,25.307z" fill="#1D1D1B"/></g><g><path d="M20.689,13.545" fill="none"/></g><g><path d="M21.228,15.098" fill="none"/></g></g><g><g><path d="M26.184,26.108c0,0,0.495,0.002,1.362,0.005c0.432,0.002,0.966,0.031,1.551-0.023     c0.138-0.028,0.313-0.011,0.429-0.075c0.159-0.067,0.239-0.157,0.37-0.268c0.245-0.217,0.479-0.482,0.72-0.759     c0.475-0.561,0.945-1.209,1.401-1.918c0.443-0.71,0.913-1.487,1.199-2.322c0.146-0.388,0.09-0.872,0.124-1.351     c0.016-0.478,0.031-0.961,0.047-1.449c0.025-0.974,0.074-1.966,0.081-2.953c0.022-0.987,0.044-1.974,0.065-2.945     c0.012-0.485,0.022-0.967,0.033-1.443l0.016-0.71l0.004-0.176c0.004-0.009-0.01-0.103-0.014-0.15l-0.038-0.348     c-0.011-0.484-0.191-0.863-0.307-1.266c-0.188-0.381-0.348-0.782-0.602-1.111c-0.45-0.687-1.019-1.289-1.568-1.711     c-0.625-0.362-1.259-0.613-1.822-0.807c-0.571-0.181-1.082-0.292-1.51-0.357c-0.425-0.075-0.767-0.075-0.997-0.103     c-0.231-0.023-0.355-0.021-0.355-0.021s0.124-0.01,0.356-0.001c0.231,0.014,0.575-0.008,1.007,0.041     c0.435,0.039,0.958,0.119,1.55,0.267c0.588,0.161,1.244,0.372,1.916,0.739c0.644,0.458,1.211,1.031,1.724,1.745     c0.278,0.338,0.465,0.754,0.682,1.164c0.158,0.447,0.342,0.917,0.357,1.373l0.042,0.347c0.006,0.069,0.017,0.091,0.02,0.2     l-0.002,0.177l-0.008,0.714c-0.006,0.479-0.011,0.964-0.017,1.453c-0.011,0.978-0.022,1.972-0.034,2.965     c-0.019,0.994-0.078,1.979-0.115,2.954c-0.021,0.487-0.042,0.97-0.063,1.447c-0.042,0.468,0.02,0.953-0.16,1.448     c-0.321,0.925-0.832,1.676-1.31,2.391c-0.489,0.706-0.988,1.346-1.492,1.902c-0.258,0.274-0.5,0.541-0.777,0.756     c-0.127,0.102-0.306,0.234-0.447,0.279c-0.177,0.073-0.33,0.037-0.488,0.06c-0.617,0.019-1.138-0.044-1.57-0.072     C26.678,26.141,26.184,26.108,26.184,26.108z" fill="#1D1D1B"/></g><g><path d="M26.305,15.484l1.359-0.121c0.225-0.026,0.445-0.077,0.667-0.113c0.221-0.046,0.445-0.066,0.659-0.133     l0.645-0.185c0.215-0.061,0.412-0.165,0.618-0.245c0.208-0.078,0.381-0.213,0.572-0.315l0.249-0.199     c0.07-0.066,0.155-0.154,0.194-0.21l-0.028,0.101c-0.068-1.291-0.092-2.583-0.136-3.875c-0.04-1.292-0.081-2.583-0.092-3.876     l0.195,0.229l-3.079-0.578l0.25-0.209c-0.038,1.661-0.06,3.322-0.131,4.983l-0.003,0.086l-0.079-0.004l-1.861-0.082l1.861-0.082     l-0.082,0.082c-0.071-1.661-0.093-3.322-0.131-4.983l-0.006-0.253l0.257,0.044l3.088,0.529l0.188,0.032l0.007,0.196     c0.048,1.292,0.064,2.584,0.082,3.876c0.015,1.292,0.049,2.584,0.038,3.877l-0.001,0.065l-0.027,0.037     c-0.095,0.127-0.179,0.195-0.275,0.281l-0.294,0.213c-0.213,0.104-0.412,0.241-0.635,0.313c-0.222,0.075-0.436,0.174-0.66,0.227     l-0.677,0.152c-0.225,0.051-0.458,0.055-0.685,0.084c-0.229,0.02-0.457,0.053-0.685,0.062L26.305,15.484z" fill="#1D1D1B"/></g><g><path d="M31.506,14.245c0.15,0.26,0.284,0.526,0.406,0.795l0.03,0.067l-0.062,0.072     c-0.414,0.49-0.931,0.864-1.512,1.117c-0.285,0.137-0.591,0.221-0.898,0.292c-0.306,0.079-0.627,0.073-0.937,0.093l-0.15,0.01     l-0.025-0.133c-0.072-0.387-0.124-0.779-0.147-1.179c0.184,0.356,0.338,0.721,0.474,1.09l-0.176-0.124l0.428-0.106     c0.142-0.029,0.285-0.05,0.421-0.105c0.277-0.083,0.551-0.171,0.814-0.291c0.269-0.104,0.523-0.244,0.777-0.383     c0.25-0.142,0.509-0.294,0.729-0.472l-0.031,0.139C31.586,14.837,31.538,14.544,31.506,14.245z" fill="#1D1D1B"/></g><g><path d="M28.666,22.523c0.063-0.357,0.089-0.72,0.217-1.066c0.093-0.358,0.238-0.695,0.386-1.032     c0.063-0.174,0.17-0.326,0.258-0.487c0.096-0.157,0.173-0.326,0.284-0.474c0.212-0.3,0.416-0.61,0.667-0.882     c0.231-0.29,0.5-0.546,0.773-0.798c0.132-0.132,0.292-0.23,0.437-0.347l0.429-0.327c0.145-0.11,0.295-0.22,0.385-0.344     c0.106-0.118,0.22-0.229,0.282-0.385c0.067-0.148,0.18-0.275,0.197-0.446l0.116-0.483l0.025,0.145     c-0.463-0.866-0.898-1.747-1.349-2.62l-0.021-0.039l-0.004-0.041c-0.226-2.19-0.392-4.387-0.499-6.59     c0.374,2.174,0.689,4.354,0.946,6.541l-0.024-0.08c0.461,0.868,0.938,1.727,1.386,2.601l0.042,0.082l-0.017,0.063l-0.147,0.57     c-0.029,0.196-0.161,0.36-0.249,0.536c-0.083,0.183-0.227,0.329-0.368,0.475c-0.138,0.162-0.284,0.261-0.43,0.368l-0.442,0.323     c-0.139,0.108-0.292,0.196-0.419,0.319c-0.262,0.236-0.541,0.455-0.775,0.722c-0.502,0.502-0.914,1.089-1.276,1.703     c-0.175,0.312-0.349,0.625-0.472,0.96C28.851,21.818,28.777,22.179,28.666,22.523z" fill="#1D1D1B"/></g><g><path d="M32.107,17.397c-0.307,1.069-0.707,2.096-1.141,3.108c-0.437,1.011-0.92,2-1.46,2.964l-0.114,0.203     l-0.115-0.174c-0.212-0.318-0.42-0.64-0.611-0.975c0.286,0.258,0.557,0.53,0.822,0.804l-0.229,0.029     c0.368-1.042,0.793-2.057,1.265-3.052C30.998,19.312,31.506,18.333,32.107,17.397z" fill="#1D1D1B"/></g><g><path d="M28.666,22.523c0,0-0.155,0.08-0.388,0.14c-0.233,0.059-0.543,0.112-0.854,0.11     c-0.311,0.003-0.621-0.049-0.854-0.109c-0.232-0.06-0.388-0.141-0.388-0.141s0.155-0.081,0.388-0.141     c0.233-0.06,0.543-0.112,0.854-0.109c0.311-0.002,0.62,0.051,0.854,0.11C28.511,22.444,28.666,22.523,28.666,22.523z" fill="#1D1D1B"/></g><g><path d="M30.143,21.841c0.176,0.62,0.299,1.247,0.413,1.874l0.009,0.051l-0.034,0.069     c-0.271,0.541-0.573,1.064-0.878,1.585l-0.07,0.121l-0.143,0c-0.601,0.002-1.2-0.011-1.801-0.037l-0.226-0.01l0.014-0.202     l0.054-0.756l0.161,0.158c-0.485-0.019-0.972-0.065-1.458-0.129c0.483-0.083,0.968-0.149,1.452-0.188l0.149-0.012l0.012,0.17     l0.054,0.756l-0.212-0.211c0.601-0.026,1.2-0.039,1.801-0.037l-0.213,0.121c0.314-0.516,0.631-1.03,0.978-1.526l-0.025,0.12     C30.143,23.123,30.116,22.485,30.143,21.841z" fill="#1D1D1B"/></g><g><path d="M28.666,24.818" fill="none"/></g><g><path d="M28.666,25.293c0,0-0.075-0.196-0.129-0.489c-0.052-0.293-0.096-0.683-0.084-1.072     c0.007-0.389,0.068-0.776,0.135-1.067c0.067-0.29,0.152-0.482,0.152-0.482s0.076,0.196,0.129,0.489s0.096,0.683,0.084,1.072     c-0.007,0.389-0.069,0.776-0.136,1.067C28.75,25.101,28.666,25.293,28.666,25.293z" fill="#1D1D1B"/></g><g><path d="M32.318,13.53" fill="none"/></g><g><path d="M31.779,15.084" fill="none"/></g></g><g><g><path d="M8.004,40.568l1.609-0.079l-0.075,0.054c0.206-0.611,0.509-1.178,0.882-1.703     c0.371-0.528,0.836-0.993,1.366-1.372c0.527-0.38,1.116-0.692,1.746-0.875c0.31-0.115,0.634-0.161,0.956-0.227     c0.323-0.057,0.651-0.062,0.978-0.093l-0.285,0.414c-0.467-1.144-0.909-2.297-1.365-3.445l-0.022-0.057l0-0.066     c-0.017-2.15-0.045-4.3-0.013-6.45l0.405,0.353l-3.995,0.532c-1.331,0.182-2.669,0.318-4.003,0.48l0.105-0.043     c-0.859,0.604-1.708,1.235-2.542,1.881c-0.419,0.322-0.845,0.637-1.234,0.992l-1.21,1.03l1.104-1.146     c0.364-0.39,0.764-0.738,1.158-1.095c0.396-0.354,0.781-0.724,1.2-1.05c0.412-0.336,0.822-0.674,1.247-0.998l0.042-0.032     l0.063-0.011c1.327-0.215,2.649-0.455,3.979-0.649l3.986-0.597l0.399-0.06l0.006,0.412c0.032,2.15,0.004,4.3-0.013,6.45     l-0.022-0.123c0.431,1.158,0.875,2.311,1.295,3.473l0.141,0.391l-0.426,0.023c-0.3,0.017-0.605,0.004-0.903,0.042     c-0.296,0.046-0.6,0.072-0.886,0.165c-0.587,0.139-1.141,0.399-1.648,0.728c-0.258,0.16-0.491,0.356-0.723,0.555     c-0.225,0.206-0.441,0.423-0.642,0.656c-0.395,0.47-0.735,1.001-0.976,1.564l-0.024,0.057l-0.051-0.002L8.004,40.568z" fill="#1D1D1B"/></g><g><path d="M20.147,22.794c0,0-0.066,0.626-0.237,1.544c-0.086,0.458-0.203,0.989-0.343,1.552     c-0.073,0.281-0.139,0.574-0.225,0.867l-0.125,0.442l-0.032,0.111l-0.058,0.146C19.104,27.524,19.072,27.6,19,27.702     c-0.254,0.366-0.531,0.555-0.825,0.727c-0.289,0.171-0.59,0.281-0.876,0.379c-0.577,0.188-1.124,0.285-1.594,0.34     c-0.941,0.102-1.569,0.058-1.569,0.058s0.591-0.191,1.477-0.479c0.436-0.146,0.941-0.316,1.451-0.537     c0.256-0.105,0.504-0.242,0.739-0.382c0.232-0.13,0.453-0.339,0.549-0.481c0.028-0.019,0.062-0.083,0.093-0.161     c0.009-0.018,0.046-0.109,0.033-0.066l0.035-0.11l0.138-0.439c0.088-0.292,0.194-0.573,0.286-0.848     c0.191-0.548,0.385-1.056,0.563-1.486C19.86,23.354,20.147,22.794,20.147,22.794z" fill="#1D1D1B"/></g><g><path d="M26.482,38.426c-0.82,0.055-1.614-0.273-2.334-0.64c-0.722-0.383-1.409-0.83-2.056-1.322     c-0.649-0.489-1.277-1.005-1.905-1.507c-0.314-0.25-0.629-0.5-0.949-0.721c-0.159-0.111-0.322-0.211-0.474-0.283     c-0.072-0.033-0.149-0.055-0.165-0.051c-0.025,0.015,0.115-0.053,0.083-0.051c-0.053,0.304-0.317,0.854-0.562,1.157     c-0.238,0.353-0.505,0.663-0.772,0.977c-0.535,0.624-1.104,1.206-1.678,1.782c-1.146,1.155-2.354,2.233-3.595,3.283l-0.229,0.084     c0.129,0.096,0.269,0.202,0.463,0.259c0.204,0.078,0.44-0.065,0.486-0.088c0.119-0.017,0.298,0.239,0.508,0.44l1.188,1.238     c0.813,0.806,1.532,1.702,2.279,2.568l1.114,1.305c0.387,0.422,0.706,0.901,1.04,1.367c0.662,0.936,1.333,1.861,1.975,2.803     c-0.756-0.862-1.481-1.74-2.216-2.608c-0.373-0.43-0.714-0.883-1.118-1.287l-1.172-1.242l-1.17-1.24     c-0.384-0.419-0.805-0.805-1.198-1.215l-1.201-1.211c-0.185-0.211-0.412-0.355-0.704-0.769c-0.158-0.222-0.125-0.564-0.126-0.685     c-0.01-0.143-0.075-0.235-0.149-0.339l-0.229,0.084c1.203-1.062,2.389-2.154,3.55-3.259c0.575-0.559,1.145-1.123,1.671-1.717     c0.261-0.297,0.526-0.597,0.744-0.91c0.25-0.338,0.368-0.514,0.501-0.998c0.021-0.075,0.103-0.207,0.203-0.271     c0.125-0.083,0.239-0.096,0.336-0.089c0.187,0.017,0.299,0.075,0.409,0.127c0.207,0.112,0.382,0.235,0.548,0.364     c0.333,0.255,0.638,0.523,0.943,0.791c0.607,0.538,1.203,1.078,1.819,1.592c0.62,0.508,1.238,1.02,1.917,1.442     C24.938,37.998,25.668,38.383,26.482,38.426z" fill="#1D1D1B"/></g><g><path d="M29.598,44.641c0,0-0.007,0.08-0.021,0.231c-0.027,0.147,0.001,0.377-0.103,0.645     c-0.044,0.135-0.078,0.29-0.142,0.447c-0.078,0.153-0.162,0.318-0.251,0.495c-0.107,0.166-0.247,0.326-0.381,0.506     c-0.156,0.159-0.337,0.313-0.521,0.479c-0.411,0.271-0.902,0.544-1.484,0.615c-0.151,0.018-0.274,0.055-0.457,0.056     c-0.143-0.007-0.287-0.014-0.432-0.021c-0.282,0.001-0.627-0.119-0.938-0.211c-0.612-0.238-1.168-0.669-1.589-1.233     c-0.406-0.58-0.603-1.293-0.64-2.01c0.027-0.667,0.233-1.438,0.638-2.011c0.42-0.564,0.977-0.996,1.589-1.234     c0.617-0.203,1.256-0.303,1.827-0.176c0.559,0.066,1.09,0.349,1.487,0.616c0.185,0.166,0.364,0.321,0.521,0.479     c0.135,0.18,0.274,0.341,0.381,0.507c0.09,0.177,0.174,0.342,0.251,0.495c0.063,0.157,0.098,0.313,0.142,0.446     c0.104,0.267,0.075,0.498,0.103,0.646C29.591,44.561,29.598,44.641,29.598,44.641z M29.598,44.641c0,0-0.009-0.08-0.025-0.23     c-0.031-0.147-0.008-0.378-0.116-0.641c-0.047-0.133-0.084-0.285-0.15-0.44c-0.085-0.146-0.177-0.305-0.275-0.474     c-0.115-0.155-0.263-0.304-0.402-0.469c-0.159-0.146-0.352-0.273-0.541-0.412c-0.433-0.216-0.87-0.409-1.427-0.42     c-0.531-0.063-1.078,0.098-1.58,0.321c-0.495,0.265-0.909,0.667-1.229,1.136c-0.286,0.506-0.438,1.004-0.463,1.629     c0.016,0.575,0.177,1.133,0.462,1.63c0.32,0.469,0.733,0.873,1.229,1.138c0.256,0.096,0.47,0.229,0.77,0.264l0.427,0.066     c0.101,0.011,0.257-0.008,0.381-0.01c0.534-0.006,1.01-0.208,1.43-0.421c0.188-0.139,0.382-0.266,0.54-0.413     c0.141-0.165,0.288-0.313,0.403-0.469c0.098-0.169,0.189-0.327,0.274-0.474c0.066-0.154,0.104-0.307,0.15-0.439     c0.108-0.263,0.085-0.494,0.116-0.642C29.589,44.721,29.598,44.641,29.598,44.641z" fill="#1D1D1B"/></g></g><g><g><path d="M42.869,40.652c-0.535-1.135-1.354-2.136-2.399-2.774c-0.513-0.327-1.067-0.589-1.658-0.726     c-0.288-0.092-0.593-0.117-0.891-0.163c-0.299-0.037-0.604-0.023-0.905-0.039l-0.396-0.021l0.128-0.371     c0.401-1.169,0.854-2.318,1.28-3.478l-0.022,0.122l-0.029-3.226c-0.011-1.075,0.014-2.15,0.02-3.226l0.002-0.408l0.397,0.06     l3.985,0.605l3.976,0.674l0.06,0.01l0.029,0.026c1.081,0.936,2.159,1.868,3.208,2.823c-1.168-0.819-2.305-1.662-3.44-2.501     l0.088,0.036l-4.006-0.455L38.297,27.1l0.399-0.348c0.006,1.075,0.03,2.15,0.02,3.226l-0.029,3.226l-0.001,0.067l-0.022,0.055     c-0.459,1.147-0.894,2.304-1.378,3.44l-0.27-0.392c0.326,0.032,0.653,0.037,0.976,0.095c0.32,0.066,0.645,0.113,0.952,0.229     c0.627,0.185,1.214,0.495,1.736,0.877C41.714,38.357,42.489,39.449,42.869,40.652z" fill="#1D1D1B"/></g><g><path d="M32.334,22.878c0,0,0.288,0.56,0.647,1.421c0.179,0.431,0.372,0.938,0.563,1.486     c0.092,0.275,0.198,0.557,0.286,0.848l0.138,0.438l0.035,0.11c-0.015-0.044,0.023,0.049,0.032,0.066     c0.031,0.077,0.064,0.143,0.093,0.16c0.096,0.144,0.317,0.353,0.55,0.482c0.234,0.14,0.482,0.276,0.739,0.382     c0.51,0.221,1.015,0.391,1.451,0.537c0.886,0.287,1.477,0.479,1.477,0.479s-0.629,0.044-1.569-0.058     c-0.47-0.055-1.017-0.151-1.594-0.341c-0.286-0.097-0.588-0.207-0.876-0.378c-0.295-0.172-0.571-0.36-0.826-0.727     c-0.07-0.103-0.103-0.178-0.127-0.244l-0.059-0.147l-0.031-0.111l-0.126-0.442c-0.085-0.292-0.15-0.586-0.225-0.867     c-0.14-0.563-0.256-1.094-0.343-1.552C32.4,23.504,32.334,22.878,32.334,22.878z" fill="#1D1D1B"/></g><g><path d="M26,38.508c0.813-0.044,1.547-0.421,2.223-0.834c0.68-0.423,1.299-0.934,1.918-1.443     c0.616-0.514,1.212-1.054,1.819-1.591c0.305-0.269,0.61-0.536,0.942-0.792c0.168-0.127,0.339-0.252,0.549-0.362     c0.108-0.053,0.22-0.111,0.405-0.128c0.088-0.008,0.223,0.007,0.338,0.087c0.115,0.077,0.18,0.194,0.205,0.276     c0.077,0.306,0.084,0.343,0.187,0.522c0.084,0.157,0.193,0.315,0.305,0.472c0.228,0.313,0.484,0.614,0.748,0.91     c0.529,0.592,1.096,1.159,1.672,1.717c1.162,1.104,2.353,2.193,3.554,3.256l0.345,0.305l-0.376,0.258     c-1.686,1.156-3.282,2.48-4.824,3.844c-0.773,0.683-1.488,1.427-2.211,2.165c-0.719,0.743-1.372,1.545-2.019,2.359     c0.276-0.438,0.533-0.896,0.846-1.312c0.295-0.431,0.614-0.843,0.936-1.255c0.651-0.815,1.359-1.587,2.095-2.328     c0.738-0.738,1.492-1.465,2.298-2.131c0.804-0.672,1.619-1.315,2.483-1.929l-0.031,0.563c-1.244-1.048-2.446-2.132-3.595-3.286     c-0.575-0.574-1.141-1.16-1.679-1.781c-0.269-0.311-0.53-0.629-0.773-0.974c-0.12-0.175-0.238-0.351-0.342-0.551     c-0.051-0.093-0.104-0.205-0.149-0.342c-0.028-0.071-0.028-0.106-0.043-0.16l-0.023-0.112c-0.033-0.014,0.106,0.077,0.085,0.05     c-0.016-0.004-0.096,0.018-0.168,0.052c-0.151,0.07-0.315,0.175-0.475,0.284c-0.319,0.222-0.635,0.472-0.948,0.722     c-0.629,0.503-1.256,1.019-1.905,1.508c-0.647,0.491-1.333,0.94-2.056,1.322C27.615,38.239,26.818,38.562,26,38.508z" fill="#1D1D1B"/></g></g><g><path d="M51.074,26c0,0-0.029,0.615-0.084,1.767c0,0.579-0.1,1.283-0.233,2.11c-0.068,0.412-0.113,0.861-0.215,1.33    c-0.117,0.465-0.243,0.959-0.376,1.481c-0.58,2.064-1.486,4.563-3.161,7.068c-1.643,2.508-3.957,5.079-7.033,7.154    c-3.075,2.056-6.896,3.589-11.12,4.106c-0.524,0.085-1.063,0.073-1.599,0.114c-0.54,0.012-1.074,0.095-1.628,0.05    c-1.083-0.065-2.182-0.053-3.288-0.267c-2.229-0.262-4.419-0.965-6.558-1.858c-2.138-0.916-4.13-2.219-5.997-3.708    c-1.834-1.539-3.447-3.367-4.839-5.373c-1.354-2.037-2.392-4.289-3.156-6.641c-0.717-2.378-1.047-4.838-1.112-7.348    c0.061-2.443,0.394-4.958,1.111-7.322c0.763-2.352,1.802-4.604,3.156-6.641c1.392-2.006,3.004-3.834,4.839-5.374    c1.867-1.49,3.858-2.792,5.997-3.708c4.253-1.866,8.865-2.444,13.067-1.961c4.234,0.519,8.048,2.052,11.126,4.107    c3.075,2.076,5.39,4.647,7.032,7.154c1.675,2.506,2.581,5.004,3.162,7.069c0.132,0.522,0.258,1.017,0.375,1.481    c0.102,0.468,0.146,0.918,0.215,1.33c0.134,0.827,0.233,1.531,0.233,2.11C51.045,25.385,51.074,26,51.074,26z M51.074,26    c0,0-0.033-0.614-0.095-1.766c-0.005-0.579-0.108-1.282-0.247-2.107c-0.071-0.412-0.118-0.86-0.223-1.327    c-0.121-0.463-0.249-0.956-0.385-1.477c-0.593-2.057-1.513-4.543-3.197-7.03c-1.652-2.487-3.973-5.032-7.043-7.075    c-3.066-2.023-6.877-3.52-11.054-4.005c-4.188-0.454-8.731,0.15-12.923,2.019c-2.105,0.917-4.062,2.217-5.893,3.696    c-1.799,1.529-3.375,3.34-4.732,5.322c-1.319,2.013-2.325,4.233-3.061,6.547c-0.69,2.343-0.993,4.738-1.048,7.216    c0.051,2.411,0.357,4.862,1.046,7.191c0.735,2.313,1.741,4.534,3.061,6.547c1.357,1.981,2.933,3.793,4.732,5.322    c1.831,1.479,3.788,2.778,5.893,3.695c2.102,0.895,4.273,1.606,6.461,1.876c1.08,0.219,2.188,0.214,3.269,0.285    c0.53,0.049,1.073-0.03,1.604-0.039c0.531-0.037,1.064-0.022,1.585-0.103c4.188-0.487,7.99-1.982,11.06-4.006    c3.069-2.044,5.39-4.588,7.042-7.076c1.685-2.485,2.605-4.972,3.197-7.029c0.136-0.521,0.264-1.013,0.385-1.477    c0.104-0.467,0.151-0.915,0.223-1.327c0.139-0.824,0.242-1.528,0.247-2.106C51.041,26.614,51.074,26,51.074,26z"/></g></g></svg>