<?xml version="1.0" ?><!DOCTYPE svg  PUBLIC '-//W3C//DTD SVG 1.1//EN'  'http://www.w3.org/Graphics/SVG/1.1/DTD/svg11.dtd'><svg enable-background="new 0 0 52 52" height="52px" id="Слой_1" version="1.1" viewBox="0 0 52 52" width="52px" xml:space="preserve" xmlns="http://www.w3.org/2000/svg" xmlns:xlink="http://www.w3.org/1999/xlink"><g><g><path d="M25.642,4.6c0,0,0.238,0.008,0.684,0.022c0.223-0.001,0.497,0.023,0.818,0.066    c0.323,0.025,0.688,0.096,1.095,0.192c0.801,0.202,1.784,0.571,2.639,1.376c0.861,0.796,1.45,2.041,1.75,3.436    c0.302,1.402,0.361,2.974,0.315,4.604c-0.015,1.635-0.02,3.356-0.115,5.154c-0.024,0.457-0.025,0.883-0.068,1.375    c-0.06,0.431-0.327,0.931-0.573,1.307c-0.542,0.785-1.114,1.446-1.561,2.299c-0.222,0.389-0.592,0.788-0.991,1.092    c-0.396,0.299-0.832,0.53-1.281,0.726c-0.903,0.376-1.883,0.586-2.869,0.583c-0.974-0.016-1.98-0.289-2.853-0.69    c-0.882-0.409-1.719-1.001-2.259-1.854c-0.481-0.802-1.079-1.476-1.575-2.299c-0.248-0.401-0.428-0.878-0.469-1.365    c-0.019-0.453-0.037-0.902-0.056-1.348c-0.097-1.78-0.091-3.515-0.11-5.153c-0.048-1.638,0.039-3.198,0.351-4.602    c0.339-1.388,0.948-2.622,1.85-3.38c0.876-0.781,1.873-1.119,2.678-1.298c0.813-0.185,1.473-0.215,1.917-0.228    C25.404,4.597,25.642,4.6,25.642,4.6z M25.642,4.6c0,0-0.238,0-0.684,0.022c-0.443,0.017-1.102,0.053-1.911,0.245    c-0.801,0.186-1.789,0.533-2.648,1.313c-0.881,0.758-1.483,1.981-1.776,3.365c-0.274,1.393-0.323,2.945-0.235,4.573    c0.06,1.631,0.095,3.347,0.235,5.127c0.029,0.445,0.059,0.894,0.088,1.345c0.048,0.413,0.202,0.811,0.445,1.185    c0.462,0.745,1.103,1.475,1.596,2.275c0.474,0.737,1.246,1.287,2.078,1.66c0.854,0.373,1.723,0.607,2.655,0.622    c0.919,0.013,1.838-0.175,2.688-0.52c0.421-0.18,0.825-0.389,1.186-0.657c0.35-0.266,0.645-0.549,0.897-0.972    c0.43-0.809,1.073-1.571,1.589-2.285c0.25-0.39,0.457-0.693,0.546-1.166c0.031-0.442,0.062-0.88,0.092-1.316    c0.138-1.764,0.185-3.492,0.238-5.126c0.087-1.635,0.063-3.177-0.2-4.577c-0.256-1.392-0.839-2.625-1.68-3.42    c-0.837-0.805-1.812-1.182-2.607-1.391c-0.404-0.1-0.768-0.173-1.091-0.202c-0.32-0.046-0.593-0.073-0.817-0.074    C25.879,4.61,25.642,4.6,25.642,4.6z" fill="#1D1D1B"/></g><g><path d="M28.146,22.473c0,0-0.34-0.033-0.819-0.065c-0.122-0.012-0.223,0.001-0.337,0.011    c-0.146,0.038-0.255,0.095-0.452,0.116c-0.2,0.032-0.313,0.036-0.49,0.039c-0.162,0.003-0.326,0.006-0.49,0.009    c-0.164-0.003-0.328-0.006-0.49-0.009c-0.146-0.001-0.341-0.007-0.489-0.038c-0.15-0.016-0.307-0.077-0.447-0.115    c-0.081-0.012-0.266-0.023-0.361-0.01c-0.236,0.019-0.434,0.035-0.571,0.046c-0.146,0.01-0.23,0.016-0.23,0.016    s0.071-0.046,0.203-0.11c0.131-0.059,0.317-0.161,0.584-0.234c0.144-0.038,0.23-0.059,0.428-0.069    c0.138,0.007,0.269,0.03,0.426,0.036c0.157,0.019,0.281-0.008,0.457-0.005c0.162-0.003,0.326-0.006,0.49-0.009    c0.164,0.003,0.328,0.006,0.49,0.009c0.145-0.001,0.352,0.023,0.457,0.006c0.11,0,0.29-0.028,0.421-0.036    c0.163,0.008,0.335,0.032,0.452,0.071C27.864,22.29,28.146,22.473,28.146,22.473z" fill="#1D1D1B"/></g><g><g><path d="M24.813,17.736c0,0,0.007,0.057,0.008,0.155c-0.011,0.093-0.041,0.232-0.103,0.403     c-0.029,0.078-0.068,0.191-0.115,0.267c-0.042,0.081-0.098,0.176-0.155,0.257c-0.056,0.079-0.105,0.167-0.134,0.228     c-0.043,0.076-0.013,0.08-0.016,0.097c0.032,0.027-0.013,0.008,0.041,0.06l0.108,0.119c0.067,0.047,0.009,0.05,0.103,0.058     c0.064,0.005,0.064-0.006,0.179,0.013c0.038,0.009,0.1,0.027,0.178,0.07c0.126,0.074,0.173,0.136,0.238,0.194     c0.115,0.112,0.193,0.207,0.275,0.255c0.085,0.044,0.133,0.07,0.133,0.07s-0.053,0.018-0.16,0.023     c-0.1-0.008-0.264-0.037-0.411-0.119c-0.068-0.034-0.162-0.081-0.206-0.083c-0.004-0.002-0.034-0.008-0.095-0.003     c0.017,0.005-0.083,0.013-0.12,0.02c-0.032,0.012-0.165,0.001-0.244-0.018c-0.073-0.033-0.182-0.103-0.213-0.14     c-0.065-0.07-0.161-0.136-0.263-0.315c-0.079-0.182-0.034-0.415,0.042-0.52c0.067-0.128,0.151-0.205,0.221-0.285     c0.068-0.079,0.14-0.131,0.208-0.201c0.076-0.066,0.105-0.117,0.157-0.18c0.086-0.118,0.206-0.208,0.256-0.293     S24.813,17.736,24.813,17.736z" fill="#1D1D1B"/></g><g><path d="M26.22,17.736c0,0,0.036,0.047,0.086,0.133s0.17,0.175,0.256,0.293c0.052,0.063,0.081,0.113,0.157,0.18     c0.069,0.07,0.14,0.123,0.208,0.201c0.07,0.08,0.154,0.156,0.221,0.285c0.076,0.105,0.121,0.338,0.042,0.52     c-0.102,0.179-0.197,0.245-0.263,0.315c-0.031,0.037-0.141,0.107-0.213,0.14c-0.079,0.02-0.212,0.03-0.244,0.018     c-0.037-0.006-0.137-0.015-0.12-0.02c-0.061-0.005-0.091,0-0.095,0.003c-0.043,0.003-0.137,0.05-0.206,0.083     c-0.146,0.082-0.311,0.11-0.411,0.119c-0.107-0.005-0.16-0.023-0.16-0.023s0.048-0.025,0.133-0.07     c0.082-0.048,0.16-0.143,0.275-0.255c0.064-0.059,0.111-0.121,0.238-0.194c0.079-0.042,0.14-0.061,0.178-0.07     c0.114-0.019,0.115-0.008,0.179-0.013c0.094-0.008,0.036-0.011,0.103-0.058l0.108-0.119c0.053-0.052,0.009-0.033,0.041-0.06     c-0.003-0.018,0.027-0.021-0.016-0.097c-0.029-0.062-0.079-0.149-0.134-0.228c-0.057-0.081-0.114-0.177-0.155-0.257     c-0.046-0.075-0.086-0.188-0.115-0.267c-0.062-0.17-0.092-0.31-0.103-0.403C26.212,17.793,26.22,17.736,26.22,17.736z" fill="#1D1D1B"/></g></g><g><g><path d="M9.839,32.148c0,0,0.037-0.045,0.104-0.128c0.073-0.08,0.158-0.216,0.307-0.354     c0.152-0.134,0.332-0.315,0.574-0.467c0.23-0.172,0.519-0.325,0.843-0.46c0.65-0.273,1.454-0.476,2.312-0.604     c0.851-0.146,1.785-0.195,2.607-0.467c0.106-0.027,0.201-0.072,0.296-0.114c0.032-0.012,0.131-0.062,0.108-0.042l0.132-0.109     c0.201-0.14,0.303-0.303,0.42-0.456c0.237-0.333,0.466-0.707,0.579-1.087c0.257-0.822,0.496-1.59,0.702-2.248     c0.405-1.316,0.675-2.193,0.675-2.193s-0.035,0.228-0.095,0.627c-0.078,0.394-0.137,0.978-0.31,1.645     c-0.161,0.671-0.348,1.453-0.549,2.292c-0.124,0.449-0.336,0.864-0.624,1.265c-0.156,0.208-0.318,0.418-0.497,0.545l-0.131,0.111     c-0.123,0.075-0.132,0.065-0.204,0.102c-0.114,0.053-0.228,0.106-0.345,0.138c-0.935,0.292-1.858,0.322-2.708,0.429     c-0.848,0.095-1.633,0.209-2.271,0.43c-0.316,0.111-0.608,0.222-0.847,0.356c-0.251,0.118-0.437,0.266-0.602,0.378     C10.007,31.988,9.839,32.148,9.839,32.148z" fill="#1D1D1B"/></g><g><path d="M10.482,31.521c0,0-0.117,0.021-0.322,0.055c-0.204,0.024-0.489,0.096-0.832,0.164     c-0.345,0.045-0.73,0.194-1.151,0.282c-0.205,0.067-0.417,0.137-0.631,0.208c-0.214,0.071-0.439,0.122-0.643,0.229     c-0.412,0.193-0.862,0.318-1.22,0.556c-0.359,0.229-0.762,0.357-1.018,0.591c-0.55,0.415-0.96,0.676-0.96,0.676     s0.288-0.368,0.785-0.896c0.238-0.276,0.607-0.484,0.973-0.752c0.186-0.131,0.38-0.263,0.604-0.347     c0.216-0.097,0.436-0.195,0.656-0.295c0.218-0.105,0.455-0.154,0.681-0.223c0.228-0.065,0.453-0.123,0.672-0.174     c0.446-0.062,0.859-0.131,1.218-0.134C10.011,31.423,10.482,31.521,10.482,31.521z" fill="#1D1D1B"/></g></g><g><g><path d="M23.47,15.594c0,0-0.031-0.102-0.084-0.279c-0.071-0.163-0.188-0.382-0.406-0.571     c-0.102-0.096-0.231-0.186-0.379-0.239c-0.143-0.064-0.308-0.094-0.473-0.101c-0.18-0.02-0.323,0.022-0.457,0.094     c-0.146,0.076-0.284,0.196-0.392,0.333c-0.113,0.123-0.194,0.313-0.182,0.365c0.006,0.006-0.025-0.016,0.013,0.011l0.257,0.026     c0.391,0.033,0.754,0.092,1.066,0.128c0.312,0.031,0.575,0.123,0.754,0.156C23.367,15.566,23.47,15.594,23.47,15.594z      M23.47,15.594c0,0-0.422,0.028-1.043,0.049c-0.313,0.007-0.68,0.034-1.071,0.03c-0.103-0.001-0.178,0.003-0.338-0.01     c-0.157-0.017-0.373-0.18-0.395-0.386c-0.031-0.366,0.128-0.563,0.269-0.761c0.156-0.186,0.344-0.341,0.565-0.45     c0.232-0.12,0.505-0.142,0.713-0.1c0.223,0.022,0.432,0.106,0.6,0.216c0.174,0.1,0.314,0.236,0.417,0.372     c0.226,0.264,0.264,0.567,0.296,0.749C23.474,15.488,23.47,15.594,23.47,15.594z" fill="#1D1D1B"/></g><g><path d="M27.491,15.594c0,0-0.005-0.106-0.013-0.291c0.032-0.181,0.07-0.485,0.296-0.749     c0.104-0.135,0.243-0.271,0.417-0.372c0.168-0.11,0.377-0.194,0.6-0.216c0.208-0.042,0.481-0.02,0.714,0.1     c0.221,0.109,0.408,0.264,0.564,0.45c0.14,0.197,0.3,0.395,0.27,0.761c-0.022,0.206-0.237,0.369-0.395,0.386     c-0.16,0.013-0.235,0.009-0.339,0.01c-0.392,0.003-0.758-0.023-1.07-0.03C27.913,15.622,27.491,15.594,27.491,15.594z      M27.491,15.594c0,0,0.103-0.028,0.281-0.077c0.18-0.033,0.442-0.125,0.754-0.156c0.313-0.037,0.676-0.096,1.066-0.128     l0.257-0.026c0.038-0.028,0.007-0.005,0.013-0.011c0.013-0.052-0.068-0.243-0.182-0.365c-0.107-0.137-0.246-0.256-0.392-0.333     c-0.134-0.072-0.276-0.114-0.456-0.094c-0.165,0.006-0.33,0.037-0.473,0.101c-0.148,0.053-0.277,0.143-0.379,0.239     c-0.22,0.189-0.335,0.409-0.406,0.571C27.521,15.492,27.491,15.594,27.491,15.594z" fill="#1D1D1B"/></g></g><g><path d="M23.962,13.883c0,0-0.292-0.131-0.709-0.33c-0.417-0.197-0.968-0.46-1.522-0.658    c-0.276-0.098-0.557-0.187-0.819-0.222c-0.133-0.027-0.257-0.031-0.379-0.039c-0.125-0.02-0.23,0.023-0.339,0.029    c-0.106,0.015-0.191,0.063-0.282,0.083c-0.092,0.019-0.151,0.072-0.209,0.105c-0.12,0.069-0.188,0.109-0.188,0.109    s0.039-0.066,0.124-0.182c0.044-0.055,0.09-0.135,0.176-0.19c0.081-0.057,0.168-0.15,0.288-0.19    c0.118-0.037,0.249-0.113,0.393-0.125c0.144-0.024,0.3-0.056,0.456-0.037c0.32-0.002,0.639,0.092,0.949,0.19    c0.617,0.216,1.142,0.591,1.505,0.894C23.769,13.625,23.962,13.883,23.962,13.883z" fill="#1D1D1B"/></g><g><path d="M26.998,13.883c0,0,0.193-0.257,0.557-0.564c0.363-0.303,0.888-0.677,1.505-0.894    c0.311-0.099,0.629-0.192,0.949-0.19c0.155-0.02,0.313,0.013,0.456,0.037c0.145,0.012,0.274,0.089,0.393,0.125    c0.12,0.04,0.207,0.133,0.288,0.19c0.085,0.055,0.131,0.136,0.176,0.19c0.085,0.115,0.124,0.182,0.124,0.182    s-0.068-0.04-0.188-0.109c-0.058-0.033-0.117-0.086-0.209-0.105c-0.09-0.02-0.175-0.068-0.281-0.083    c-0.109-0.006-0.214-0.048-0.34-0.029c-0.122,0.008-0.246,0.012-0.379,0.039c-0.262,0.035-0.543,0.125-0.819,0.222    c-0.554,0.198-1.104,0.461-1.521,0.658C27.29,13.752,26.998,13.883,26.998,13.883z" fill="#1D1D1B"/></g><g><path d="M24.85,23.4c0,0-0.118,0.069-0.292,0.107c-0.087,0.005-0.193,0.027-0.305,0.022l-0.042-0.002    c0.058,0.003-0.007,0.006-0.005,0.009c-0.027,0.006-0.055,0.012-0.083,0.014l-0.168,0.021c-0.187,0.046-0.383,0.034-0.571,0.026    c-0.178-0.015-0.31-0.057-0.31-0.057s0.083-0.112,0.234-0.214c0.082-0.043,0.155-0.114,0.274-0.153    c0.113-0.045,0.244-0.078,0.367-0.103l0.169-0.002c0.028-0.001,0.055,0,0.083,0.003l0.076,0.009l0.037,0.013    c0.097,0.035,0.186,0.095,0.265,0.133C24.742,23.31,24.85,23.4,24.85,23.4z" fill="#1D1D1B"/></g><g><path d="M26,7.955c0,0,0.291-0.112,0.831-0.189c0.531-0.06,1.349-0.134,2.249,0.241    c0.444,0.181,0.897,0.487,1.247,0.925c0.182,0.214,0.335,0.452,0.471,0.722c0.117,0.252,0.235,0.511,0.356,0.773    c0.088,0.29,0.177,0.584,0.267,0.883c0.065,0.302,0.095,0.613,0.144,0.925c0.015,0.313,0.009,0.63,0.012,0.947l-0.103,0.942    c-0.115,0.619-0.259,1.225-0.417,1.814c-0.162,0.6-0.321,1.143-0.418,1.717c-0.071,0.286-0.091,0.56-0.111,0.825    c-0.025,0.266-0.055,0.527-0.052,0.793c-0.009,0.53-0.018,1.031-0.025,1.494c-0.019,0.235-0.036,0.46-0.053,0.674    c-0.039,0.212-0.101,0.412-0.146,0.598c-0.096,0.372-0.313,0.651-0.431,0.892c-0.381,0.389-0.599,0.611-0.599,0.611    s0.188-0.242,0.518-0.665c0.093-0.248,0.274-0.524,0.332-0.886c0.026-0.183,0.066-0.372,0.086-0.575    c0.003-0.207,0.007-0.425,0.011-0.652c-0.018-0.462-0.037-0.962-0.059-1.492c-0.018-0.265-0.003-0.546,0.01-0.835    c0.002-0.292,0.031-0.583,0.093-0.862c0.084-0.569,0.247-1.178,0.393-1.751c0.146-0.586,0.273-1.183,0.375-1.779l0.114-0.892    c0.001-0.296,0.013-0.592,0.005-0.884c-0.041-0.288-0.063-0.58-0.117-0.858c-0.076-0.273-0.15-0.542-0.225-0.807    c-0.113-0.266-0.225-0.528-0.333-0.784c-0.101-0.229-0.232-0.465-0.382-0.661c-0.291-0.41-0.68-0.706-1.079-0.896    c-0.804-0.385-1.595-0.421-2.124-0.399C26.304,7.885,26,7.955,26,7.955z" fill="#1D1D1B"/></g><g><path d="M22.472,44.11c0,0-0.056,0.304-0.272,0.714c-0.127,0.187-0.245,0.438-0.44,0.647    c-0.181,0.225-0.394,0.445-0.632,0.639c-0.23,0.202-0.481,0.377-0.733,0.514c-0.243,0.15-0.486,0.26-0.702,0.336    c-0.43,0.157-0.725,0.221-0.725,0.221s0.23-0.211,0.588-0.467c0.189-0.111,0.378-0.288,0.592-0.455    c0.217-0.163,0.448-0.332,0.657-0.53c0.449-0.356,0.854-0.762,1.167-1.069C22.271,44.343,22.472,44.11,22.472,44.11z" fill="#1D1D1B"/></g><g><g><path d="M41.624,31.349c0,0-0.168-0.16-0.479-0.412c-0.165-0.112-0.351-0.26-0.602-0.378     c-0.238-0.135-0.53-0.245-0.847-0.356c-0.639-0.221-1.423-0.335-2.271-0.43c-0.85-0.106-1.773-0.137-2.708-0.429     c-0.117-0.031-0.23-0.085-0.345-0.138c-0.071-0.036-0.081-0.026-0.203-0.102l-0.131-0.111c-0.179-0.127-0.342-0.337-0.498-0.545     c-0.287-0.4-0.499-0.815-0.623-1.265c-0.201-0.838-0.389-1.621-0.549-2.292c-0.174-0.667-0.232-1.25-0.311-1.645     c-0.061-0.399-0.095-0.627-0.095-0.627s0.271,0.877,0.675,2.193c0.206,0.658,0.445,1.426,0.702,2.248     c0.113,0.38,0.342,0.754,0.579,1.087c0.117,0.153,0.22,0.316,0.42,0.456l0.133,0.109c-0.023-0.02,0.076,0.03,0.108,0.042     c0.095,0.042,0.189,0.087,0.295,0.114c0.822,0.271,1.757,0.321,2.607,0.467c0.858,0.128,1.661,0.33,2.313,0.604     c0.324,0.135,0.613,0.288,0.843,0.46c0.242,0.151,0.421,0.333,0.573,0.467c0.149,0.138,0.234,0.273,0.308,0.354     C41.588,31.304,41.624,31.349,41.624,31.349z" fill="#1D1D1B"/></g><g><path d="M40.98,30.722c0,0,0.471-0.099,1.188-0.06c0.359,0.003,0.771,0.072,1.218,0.134     c0.219,0.05,0.444,0.108,0.672,0.173c0.227,0.069,0.464,0.118,0.682,0.224c0.22,0.099,0.439,0.197,0.656,0.295     c0.223,0.084,0.418,0.215,0.604,0.346c0.365,0.268,0.734,0.477,0.973,0.752c0.497,0.527,0.785,0.896,0.785,0.896     s-0.41-0.261-0.96-0.675c-0.257-0.234-0.659-0.362-1.019-0.591c-0.357-0.237-0.807-0.363-1.22-0.557     c-0.203-0.105-0.429-0.157-0.643-0.229c-0.215-0.07-0.427-0.14-0.631-0.207c-0.422-0.088-0.806-0.237-1.151-0.283     c-0.343-0.067-0.628-0.139-0.831-0.163C41.098,30.742,40.98,30.722,40.98,30.722z" fill="#1D1D1B"/></g></g><g><path d="M29.991,44.311c0,0,0.045,0.039,0.114,0.112c0.058,0.08,0.184,0.164,0.292,0.283    c0.209,0.243,0.546,0.511,0.835,0.822c0.132,0.169,0.292,0.307,0.445,0.438c0.15,0.132,0.274,0.279,0.391,0.396    c0.223,0.244,0.356,0.446,0.356,0.446s-0.218-0.064-0.521-0.219c-0.146-0.083-0.33-0.169-0.509-0.286    c-0.189-0.105-0.365-0.248-0.516-0.422c-0.152-0.171-0.306-0.34-0.435-0.51c-0.142-0.157-0.202-0.373-0.286-0.518    C30.005,44.543,29.991,44.311,29.991,44.311z" fill="#1D1D1B"/></g><g><path d="M51.074,26c0,0-0.029,0.615-0.084,1.767c0,0.579-0.1,1.283-0.233,2.11c-0.068,0.412-0.113,0.861-0.215,1.33    c-0.117,0.465-0.243,0.959-0.376,1.481c-0.58,2.064-1.486,4.563-3.161,7.068c-1.643,2.508-3.957,5.079-7.033,7.154    c-3.075,2.056-6.896,3.589-11.12,4.106c-0.524,0.085-1.063,0.073-1.599,0.114c-0.54,0.012-1.074,0.095-1.628,0.05    c-1.083-0.065-2.182-0.053-3.288-0.267c-2.229-0.262-4.419-0.965-6.558-1.858c-2.138-0.916-4.13-2.219-5.997-3.708    c-1.834-1.539-3.447-3.367-4.839-5.373c-1.354-2.037-2.392-4.289-3.156-6.641c-0.717-2.378-1.047-4.838-1.112-7.348    c0.061-2.443,0.394-4.958,1.111-7.322c0.763-2.352,1.802-4.604,3.156-6.641c1.392-2.006,3.004-3.834,4.839-5.374    c1.867-1.49,3.858-2.792,5.997-3.708c4.253-1.866,8.865-2.444,13.067-1.961c4.234,0.519,8.048,2.052,11.126,4.107    c3.075,2.076,5.39,4.647,7.032,7.154c1.675,2.506,2.581,5.004,3.162,7.069c0.132,0.522,0.258,1.017,0.375,1.481    c0.102,0.468,0.146,0.918,0.215,1.33c0.134,0.827,0.233,1.531,0.233,2.11C51.045,25.385,51.074,26,51.074,26z M51.074,26    c0,0-0.033-0.614-0.095-1.766c-0.005-0.579-0.108-1.282-0.247-2.107c-0.071-0.412-0.118-0.86-0.223-1.327    c-0.121-0.463-0.249-0.956-0.385-1.477c-0.593-2.057-1.513-4.543-3.197-7.03c-1.652-2.487-3.973-5.032-7.043-7.075    c-3.066-2.023-6.877-3.52-11.054-4.005c-4.188-0.454-8.731,0.15-12.923,2.019c-2.105,0.917-4.062,2.217-5.893,3.696    c-1.799,1.529-3.375,3.34-4.732,5.322c-1.319,2.013-2.325,4.233-3.061,6.547c-0.69,2.343-0.993,4.738-1.048,7.216    c0.051,2.411,0.357,4.862,1.046,7.191c0.735,2.313,1.741,4.534,3.061,6.547c1.357,1.981,2.933,3.793,4.732,5.322    c1.831,1.479,3.788,2.778,5.893,3.695c2.102,0.895,4.273,1.606,6.461,1.876c1.08,0.219,2.188,0.214,3.269,0.285    c0.53,0.049,1.073-0.03,1.604-0.039c0.531-0.037,1.064-0.022,1.585-0.103c4.188-0.487,7.99-1.982,11.06-4.006    c3.069-2.044,5.39-4.588,7.042-7.076c1.685-2.485,2.605-4.972,3.197-7.029c0.136-0.521,0.264-1.013,0.385-1.477    c0.104-0.467,0.151-0.915,0.223-1.327c0.139-0.824,0.242-1.528,0.247-2.106C51.041,26.614,51.074,26,51.074,26z"/></g></g></svg>