<?xml version="1.0" ?><!DOCTYPE svg  PUBLIC '-//W3C//DTD SVG 1.1//EN'  'http://www.w3.org/Graphics/SVG/1.1/DTD/svg11.dtd'><svg enable-background="new 0 0 52 52" height="52px" id="Слой_1" version="1.1" viewBox="0 0 52 52" width="52px" xml:space="preserve" xmlns="http://www.w3.org/2000/svg" xmlns:xlink="http://www.w3.org/1999/xlink"><g><path d="M25.653,12.648l0.806-0.017l0.202-0.004c0.067,0.015,0.134-0.039,0.202,0.031   c0.093,0.132,0.133,0.246,0.19,0.373c0.209,0.498,0.397,1.001,0.571,1.511l-0.062-0.044l1.247-0.009l-0.07,0.095   c-0.347-1.093-0.721-2.18-1.142-3.245c-0.214-0.531-0.437-1.06-0.706-1.557c-0.134-0.241-0.287-0.503-0.472-0.648   c-0.055-0.057-0.206-0.037-0.354-0.05c-0.07-0.001-0.147-0.009-0.211-0.006L25.756,9.08c-0.01,0-0.047,0-0.035,0   c0.007-0.001,0.015-0.006,0.021-0.014l0.005-0.014c0.006-0.008-0.011,0.01,0.012-0.021c0.045-0.04-0.008-0.168-0.045-0.164   l-0.061,0.233h-0.004l-0.061-0.233c-0.036-0.004-0.09,0.121-0.046,0.162c0.023,0.032,0.006,0.013,0.012,0.022l0.006,0.014   c0.005,0.009,0.014,0.014,0.021,0.015c0.012,0-0.026,0-0.036,0l-0.1-0.002c-0.065-0.003-0.14,0.004-0.21,0.006   c-0.141,0.013-0.303-0.007-0.357,0.052c-0.178,0.14-0.336,0.405-0.468,0.646c-0.27,0.497-0.492,1.027-0.706,1.557   c-0.421,1.064-0.795,2.151-1.142,3.245l-0.071-0.096l1.247,0.009l-0.062,0.044c0.173-0.51,0.362-1.014,0.571-1.511   c0.054-0.125,0.105-0.248,0.184-0.367c0.083-0.082,0.139-0.02,0.209-0.037l0.202,0.004l0.806,0.018l-0.806,0.018l-0.202,0.004   c-0.052,0.011-0.168-0.018-0.168,0.026c-0.065,0.108-0.113,0.237-0.161,0.361c-0.189,0.501-0.344,1.017-0.512,1.526l-0.015,0.044   l-0.047,0l-1.247,0.009l-0.1,0l0.029-0.096c0.332-1.103,0.689-2.196,1.098-3.274c0.208-0.538,0.423-1.074,0.693-1.591   c0.145-0.257,0.266-0.515,0.538-0.738c0.185-0.122,0.338-0.074,0.476-0.096c0.074-0.003,0.142-0.011,0.22-0.01l0.115,0.001   c0.025,0.002,0.025-0.003,0.072,0.004c0.024,0.005,0.051,0.015,0.074,0.027l0.032,0.02c0.009,0.011,0.001-0.01,0.023,0.027   c0.042,0.045-0.014,0.175-0.052,0.175l-0.061-0.233h0.004l-0.061,0.233c-0.038,0-0.093-0.132-0.05-0.176   c0.021-0.035,0.014-0.016,0.022-0.026l0.032-0.02c0.023-0.012,0.049-0.021,0.073-0.026c0.047-0.008,0.046-0.002,0.072-0.004   l0.117,0c0.08-0.002,0.146,0.006,0.219,0.009c0.13,0.022,0.295-0.025,0.479,0.099c0.264,0.218,0.39,0.48,0.533,0.736   c0.271,0.518,0.485,1.053,0.693,1.591c0.409,1.078,0.767,2.171,1.098,3.274l0.029,0.096l-0.1-0.001l-1.247-0.009l-0.047,0   l-0.015-0.044c-0.167-0.509-0.322-1.024-0.512-1.525c-0.044-0.121-0.104-0.259-0.154-0.354c-0.014-0.058-0.12-0.019-0.175-0.033   l-0.202-0.004L25.653,12.648z" fill="#1D1D1B"/></g><g><path d="M25.737,6.561c0,0,0.238,0.007,0.684,0.021c0.224-0.001,0.497,0.022,0.818,0.065   c0.324,0.024,0.689,0.094,1.096,0.189c0.802,0.2,1.788,0.567,2.647,1.372c0.866,0.796,1.455,2.044,1.768,3.44   c0.311,1.402,0.38,2.981,0.344,4.609c-0.005,1.636,0.001,3.355-0.085,5.161c-0.021,0.462-0.018,0.877-0.063,1.39   c-0.051,0.42-0.334,0.97-0.579,1.343c-0.548,0.803-1.103,1.438-1.553,2.303c-0.214,0.38-0.603,0.808-1.016,1.121   c-0.405,0.308-0.849,0.543-1.306,0.744c-0.915,0.384-1.911,0.599-2.913,0.598c-0.286-0.018-0.482-0.024-0.741-0.059   c-0.252-0.049-0.516-0.083-0.757-0.149c-0.484-0.124-0.951-0.297-1.404-0.499c-0.895-0.418-1.748-1.021-2.304-1.902   c-0.479-0.802-1.065-1.463-1.569-2.305c-0.249-0.408-0.436-0.904-0.476-1.41c-0.016-0.453-0.032-0.903-0.047-1.349   c-0.085-1.78-0.069-3.52-0.079-5.159c-0.038-1.641,0.058-3.202,0.379-4.609c0.35-1.389,0.961-2.626,1.867-3.385   c0.88-0.781,1.879-1.117,2.686-1.294c0.814-0.183,1.474-0.211,1.918-0.223C25.5,6.558,25.737,6.561,25.737,6.561z M25.737,6.561   c0,0-0.238,0-0.683,0.024c-0.444,0.018-1.103,0.056-1.91,0.25c-0.8,0.188-1.786,0.537-2.641,1.318   c-0.875,0.758-1.476,1.978-1.758,3.361c-0.265,1.39-0.304,2.941-0.207,4.565c0.07,1.63,0.115,3.341,0.266,5.122   c0.032,0.444,0.064,0.893,0.096,1.345c0.05,0.393,0.198,0.772,0.44,1.139c0.454,0.725,1.104,1.47,1.6,2.27   c0.458,0.708,1.214,1.246,2.033,1.611c0.415,0.177,0.841,0.328,1.282,0.435c0.217,0.057,0.428,0.077,0.642,0.121   c0.212,0.029,0.494,0.032,0.682,0.049c0.902,0.015,1.807-0.168,2.643-0.504c0.413-0.176,0.81-0.38,1.162-0.64   c0.336-0.256,0.612-0.51,0.873-0.941c0.426-0.798,1.087-1.586,1.596-2.281c0.251-0.393,0.442-0.647,0.539-1.131   c0.032-0.437,0.064-0.871,0.097-1.301c0.148-1.755,0.206-3.485,0.271-5.12c0.096-1.637,0.082-3.17-0.173-4.57   c-0.244-1.391-0.826-2.62-1.661-3.416c-0.833-0.804-1.806-1.183-2.601-1.394c-0.403-0.101-0.767-0.176-1.089-0.204   c-0.32-0.048-0.593-0.074-0.817-0.077C25.975,6.571,25.737,6.561,25.737,6.561z" fill="#1D1D1B"/></g><g><path d="M25.614,19.697c-0.304,0.053-0.607,0.077-0.911,0.116l0.033-0.005c-0.538,0.177-1.075,0.369-1.624,0.52   l-0.823,0.226c-0.153,0.041-0.255,0.064-0.393,0.111l-0.406,0.121c-0.266,0.089-0.551,0.147-0.806,0.247   c-0.256,0.102-0.517,0.19-0.781,0.279c-0.266,0.081-0.522,0.201-0.79,0.293l-0.806,0.283c0.46-0.342,0.944-0.638,1.458-0.9   c0.257-0.132,0.517-0.263,0.782-0.382c0.263-0.128,0.534-0.195,0.802-0.288l0.403-0.131c0.131-0.044,0.305-0.081,0.426-0.11   l0.822-0.186c0.548-0.123,1.109-0.206,1.667-0.303l0.031-0.005l0.003,0C25.007,19.62,25.311,19.644,25.614,19.697z" fill="#1D1D1B"/></g><g><path d="M19.163,15.93c0,0,0.002,0.234,0.005,0.645c0.051,0.197,0.035,0.445,0.156,0.698   c0.087,0.259,0.237,0.535,0.462,0.773c0.436,0.506,1.206,0.792,2.035,0.836c0.414,0.016,0.849-0.021,1.256-0.148   c0.423-0.135,0.736-0.34,0.916-0.72c0.176-0.329,0.107-0.74-0.106-1.094c-0.22-0.352-0.535-0.656-0.872-0.905   c-0.681-0.49-1.424-0.832-2.09-0.952c-0.332-0.059-0.643-0.074-0.908-0.023c-0.265,0.049-0.472,0.175-0.601,0.321   C19.175,15.673,19.176,15.938,19.163,15.93c0.02,0.006-0.042-0.25,0.176-0.628c0.236-0.381,0.906-0.62,1.626-0.517   c0.722,0.088,1.546,0.357,2.302,0.878c0.374,0.264,0.736,0.588,1.016,1.013c0.275,0.416,0.425,1.037,0.155,1.563   c-0.071,0.142-0.147,0.251-0.22,0.331l-0.055,0.068c-0.05,0.052-0.059,0.054-0.091,0.083l-0.16,0.134   c-0.223,0.152-0.46,0.251-0.699,0.324c-0.479,0.136-0.961,0.165-1.422,0.136c-0.463-0.03-0.897-0.167-1.286-0.341   c-0.372-0.206-0.717-0.437-0.934-0.746c-0.239-0.286-0.368-0.615-0.426-0.902c-0.095-0.283-0.049-0.552-0.075-0.756   C19.122,16.162,19.163,15.93,19.163,15.93z" fill="#1D1D1B"/></g><g><path d="M23.018,17.762c-0.017-0.646-0.553-1.156-1.202-1.139c-0.645,0.014-1.267,1.037-0.621,1.02   C21.842,17.625,23.018,17.762,23.018,17.762z" fill="#1D1D1B"/><g><path d="M23.018,17.762c0,0-0.032-0.08-0.077-0.222c-0.061-0.128-0.162-0.295-0.337-0.44    c-0.166-0.149-0.412-0.242-0.666-0.248c-0.141-0.014-0.243,0.022-0.34,0.075c-0.109,0.058-0.215,0.15-0.297,0.255    c-0.087,0.091-0.145,0.243-0.137,0.253c0.004-0.015-0.046-0.052-0.028-0.029l0.201,0.025c0.313,0.035,0.603,0.097,0.852,0.135    C22.688,17.66,23.018,17.762,23.018,17.762z M23.018,17.762c0,0-0.337,0.059-0.84,0.086c-0.251,0.006-0.545,0.029-0.859,0.023    c-0.086-0.002-0.134,0.002-0.275-0.009c-0.138-0.013-0.335-0.162-0.354-0.347c-0.026-0.324,0.11-0.483,0.225-0.648    c0.13-0.154,0.285-0.282,0.47-0.372c0.196-0.1,0.428-0.116,0.597-0.08c0.374,0.049,0.662,0.276,0.83,0.495    c0.182,0.219,0.204,0.47,0.226,0.617C23.029,17.676,23.018,17.762,23.018,17.762z" fill="#1D1D1B"/></g></g><g><path d="M28.238,23.861c-0.296-0.066-0.599-0.1-0.89-0.145c-0.142,0-0.269-0.016-0.42,0.037   c-0.14,0.043-0.305,0.061-0.473,0.077l0.008,0c-0.542,0.015-1.083,0.016-1.624,0h0.008c-0.17-0.017-0.337-0.035-0.473-0.077   l-0.108-0.027c-0.048-0.013-0.056-0.016-0.097-0.012l-0.226,0.002c-0.279,0.044-0.581,0.077-0.878,0.144   c0.28-0.112,0.564-0.227,0.878-0.293l0.226-0.026c0.034-0.008,0.102-0.005,0.127,0.002l0.114,0.016   c0.158,0.025,0.292,0.038,0.423,0.049h0.008c0.542-0.016,1.083-0.015,1.624,0l0.008,0c0.133-0.012,0.268-0.024,0.423-0.049   c0.143-0.036,0.318-0.012,0.478,0.008C27.674,23.635,27.957,23.75,28.238,23.861z" fill="#1D1D1B"/></g><g><path d="M25.649,10.166l-0.226,0.048l0.045-0.031c-0.082,0.458-0.233,0.891-0.413,1.313l-0.101-0.144   c0.231,0.018,0.463,0.051,0.694,0.107c-0.231,0.056-0.463,0.089-0.694,0.107l-0.147,0.012l0.047-0.155   c0.132-0.439,0.293-0.869,0.524-1.272l0.021-0.037l0.024,0.005L25.649,10.166z" fill="#1D1D1B"/></g><g><path d="M25.653,10.166l0.225-0.047l0.024-0.005l0.021,0.037c0.231,0.404,0.393,0.833,0.525,1.272l0.047,0.155   l-0.147-0.012c-0.231-0.018-0.463-0.051-0.694-0.107c0.231-0.056,0.463-0.089,0.694-0.107l-0.101,0.144   c-0.181-0.422-0.332-0.855-0.414-1.313l0.045,0.031L25.653,10.166z" fill="#1D1D1B"/></g><g><g><path d="M16.35,10.219l-0.4-0.588c-0.141-0.191-0.222-0.421-0.336-0.631c-0.058-0.106-0.077-0.227-0.117-0.339    c-0.037-0.115-0.074-0.23-0.09-0.348c-0.054-0.229-0.088-0.482-0.052-0.724c0.009-0.063,0.009-0.118,0.046-0.199    c0.018-0.024,0.05-0.073,0.122-0.044c0.041,0.023,0.041,0.039,0.06,0.06c0.013,0.03,0.031,0.063,0.039,0.092    c0.043,0.125,0.062,0.228,0.109,0.338c0.075,0.233,0.193,0.411,0.327,0.606c0.268,0.38,0.591,0.729,0.931,1.046l-0.014-0.011    l0.88,0.52l0.042,0.024l0.005,0.05c0.189,1.722,0.377,3.444,0.521,5.171l-0.002-0.015l0.023,0.116l0.007,0.067    c0,0.013-0.002,0.039-0.006,0.057c-0.003,0.011-0.003,0.017-0.01,0.032c-0.012,0.025-0.049,0.058-0.084,0.064    c-0.098,0.006-0.125-0.044-0.137-0.052c-0.021-0.02-0.031-0.034-0.045-0.051L18.1,15.366c-0.083-0.126-0.153-0.253-0.224-0.383    l-0.006-0.011l-0.001-0.007c-0.137-0.575-0.109-1.131-0.179-1.678c-0.012-0.138-0.042-0.268-0.07-0.399l-0.069-0.175    c-0.014-0.027-0.093-0.088-0.136-0.13c-0.098-0.108-0.225-0.135-0.334-0.209l-0.371-0.184c-0.117-0.07-0.274-0.132-0.365-0.235    c-0.102-0.096-0.21-0.182-0.306-0.286c-0.182-0.223-0.356-0.449-0.482-0.703c-0.14-0.246-0.205-0.534-0.239-0.806    c-0.007-0.138-0.058-0.281,0.017-0.421c0.158,0.035,0.192,0.201,0.272,0.308c-0.076-0.104-0.151-0.266-0.261-0.291    c-0.049,0.11-0.005,0.266,0.013,0.397c0.05,0.274,0.124,0.542,0.271,0.772c0.135,0.242,0.314,0.447,0.493,0.65    c0.093,0.1,0.206,0.186,0.309,0.279c0.1,0.106,0.217,0.136,0.338,0.208l0.382,0.181c0.123,0.076,0.279,0.129,0.373,0.229    c0.054,0.055,0.1,0.072,0.162,0.158c0.03,0.07,0.065,0.14,0.089,0.211c0.034,0.141,0.068,0.282,0.082,0.422    c0.08,0.557,0.068,1.13,0.2,1.641l-0.007-0.017c0.069,0.123,0.143,0.248,0.22,0.362l0.059,0.08c0.01,0.011,0.021,0.026,0.027,0.03    c0.011,0.017,0.017-0.005-0.048-0.001c-0.028,0.001-0.057,0.028-0.063,0.048c-0.003,0.007-0.003,0.003-0.005,0.006    c-0.002,0-0.001,0.008-0.001,0.003l-0.005-0.042l-0.021-0.097l-0.001-0.008l-0.001-0.007c-0.198-1.721-0.353-3.447-0.506-5.172    l0.047,0.075L16.88,9.632l-0.009-0.005l-0.005-0.005C16.519,9.286,16.2,8.93,15.928,8.53c-0.131-0.194-0.27-0.426-0.334-0.646    c-0.045-0.109-0.07-0.241-0.103-0.34c-0.007-0.029-0.02-0.047-0.028-0.072c0,0-0.014-0.016,0.001-0.005    c0.041,0.011,0.052-0.01,0.052-0.011c-0.015,0.027-0.026,0.093-0.032,0.146c-0.035,0.232-0.013,0.453,0.027,0.689    c0.011,0.118,0.042,0.23,0.071,0.344c0.034,0.111,0.047,0.231,0.098,0.337c0.102,0.21,0.169,0.439,0.301,0.638L16.35,10.219z" fill="#1D1D1B"/></g><g><path d="M15.563,8.725c0,0-0.027-0.038-0.073-0.103c-0.025-0.03-0.055-0.067-0.089-0.11    c-0.018-0.015-0.039-0.045-0.055-0.048c-0.014-0.013-0.014,0.003,0.018-0.003c0.025-0.005,0.026-0.023,0.023-0.003    c-0.005,0.101,0.039,0.269,0.065,0.429c0.034,0.172,0.043,0.354,0.075,0.527c0.006,0.167,0.068,0.325,0.14,0.471    c0.055,0.149,0.14,0.292,0.196,0.413c0.114,0.247,0.18,0.421,0.18,0.421s-0.126-0.133-0.3-0.348    c-0.077-0.116-0.197-0.222-0.271-0.39c-0.088-0.157-0.17-0.331-0.192-0.532c-0.021-0.186-0.02-0.368-0.042-0.532    c-0.015-0.175-0.022-0.327,0.015-0.495c0.001-0.014,0.021-0.063,0.072-0.084c0.067-0.006,0.093,0.025,0.1,0.038    c0.033,0.036,0.035,0.062,0.052,0.09c0.02,0.054,0.037,0.101,0.05,0.14C15.549,8.681,15.563,8.725,15.563,8.725z" fill="#1D1D1B"/></g></g><g><path d="M25.612,19.697c0.304-0.053,0.607-0.077,0.911-0.116l0.003,0l0.031,0.005   c0.559,0.097,1.119,0.18,1.667,0.303l0.822,0.186c0.121,0.029,0.295,0.066,0.426,0.11l0.403,0.131   c0.269,0.093,0.539,0.16,0.802,0.288c0.266,0.119,0.525,0.25,0.782,0.382c0.514,0.262,0.998,0.558,1.458,0.9l-0.806-0.283   c-0.268-0.092-0.523-0.212-0.79-0.293c-0.264-0.088-0.524-0.177-0.78-0.279c-0.255-0.099-0.54-0.158-0.806-0.247l-0.406-0.121   c-0.138-0.047-0.24-0.07-0.394-0.111l-0.823-0.226c-0.548-0.151-1.085-0.343-1.623-0.52l0.033,0.005   C26.22,19.774,25.916,19.75,25.612,19.697z" fill="#1D1D1B"/></g><g><g><path d="M34.951,10.219l0.37-0.607c0.132-0.199,0.198-0.428,0.301-0.638c0.05-0.106,0.063-0.226,0.097-0.337    c0.03-0.113,0.061-0.226,0.071-0.344c0.04-0.237,0.062-0.458,0.027-0.689C35.812,7.55,35.8,7.484,35.785,7.457    c0.001,0.001,0.011,0.021,0.052,0.011c0.016-0.011,0.002,0.005,0.002,0.005c-0.009,0.024-0.021,0.043-0.028,0.072    c-0.033,0.099-0.059,0.231-0.104,0.34c-0.064,0.22-0.202,0.453-0.334,0.646c-0.271,0.4-0.592,0.756-0.938,1.091L34.43,9.626    l-0.01,0.005l-0.871,0.535l0.048-0.075c-0.153,1.726-0.309,3.451-0.507,5.172v0.007l-0.002,0.008l-0.021,0.097l-0.005,0.042    c-0.001,0.004,0.001-0.003-0.002-0.003c-0.001-0.002-0.001,0.001-0.005-0.006c-0.005-0.02-0.034-0.047-0.062-0.048    c-0.065-0.003-0.06,0.019-0.049,0.001c0.007-0.004,0.018-0.019,0.027-0.03l0.059-0.08c0.078-0.114,0.151-0.239,0.221-0.362    l-0.008,0.017c0.133-0.51,0.121-1.084,0.2-1.641c0.015-0.14,0.049-0.281,0.083-0.422c0.023-0.071,0.059-0.141,0.088-0.211    c0.063-0.086,0.107-0.104,0.162-0.158c0.094-0.101,0.25-0.153,0.373-0.229l0.381-0.181c0.121-0.072,0.238-0.102,0.339-0.208    c0.102-0.094,0.215-0.18,0.309-0.279c0.178-0.203,0.357-0.408,0.493-0.65c0.146-0.23,0.221-0.498,0.271-0.772    c0.018-0.131,0.062-0.287,0.013-0.397c-0.109,0.025-0.186,0.187-0.261,0.291c0.08-0.107,0.115-0.273,0.272-0.308    c0.074,0.14,0.024,0.283,0.018,0.421c-0.035,0.272-0.1,0.56-0.239,0.806c-0.126,0.254-0.301,0.479-0.482,0.703    c-0.095,0.104-0.204,0.19-0.306,0.286c-0.091,0.103-0.248,0.165-0.365,0.235l-0.37,0.184c-0.11,0.074-0.236,0.102-0.334,0.209    c-0.044,0.042-0.122,0.104-0.136,0.13l-0.07,0.175c-0.028,0.131-0.058,0.261-0.069,0.399c-0.07,0.547-0.042,1.103-0.179,1.678    l-0.002,0.007l-0.006,0.011c-0.07,0.13-0.142,0.256-0.224,0.383l-0.068,0.096c-0.014,0.017-0.023,0.031-0.045,0.051    c-0.013,0.008-0.039,0.059-0.137,0.052c-0.035-0.007-0.071-0.039-0.084-0.064c-0.007-0.015-0.007-0.021-0.01-0.032    c-0.004-0.019-0.007-0.044-0.006-0.057l0.007-0.067l0.022-0.116l-0.002,0.015c0.145-1.727,0.332-3.449,0.521-5.171l0.006-0.05    l0.042-0.024l0.88-0.52l-0.014,0.011c0.34-0.317,0.664-0.666,0.931-1.046c0.135-0.195,0.253-0.373,0.328-0.606    c0.047-0.11,0.065-0.213,0.108-0.338c0.008-0.029,0.026-0.062,0.04-0.092c0.019-0.021,0.019-0.037,0.059-0.06    c0.072-0.029,0.104,0.02,0.122,0.044c0.037,0.081,0.037,0.135,0.046,0.199c0.036,0.242,0.001,0.495-0.052,0.724    c-0.018,0.118-0.055,0.233-0.091,0.348c-0.04,0.113-0.06,0.233-0.117,0.339c-0.114,0.21-0.195,0.44-0.337,0.631L34.951,10.219z" fill="#1D1D1B"/></g><g><path d="M35.738,8.725c0,0,0.013-0.044,0.036-0.121c0.014-0.039,0.031-0.086,0.05-0.14    c0.018-0.028,0.02-0.054,0.053-0.09c0.007-0.013,0.032-0.044,0.1-0.038c0.052,0.021,0.071,0.07,0.072,0.084    c0.037,0.168,0.029,0.32,0.015,0.495c-0.021,0.164-0.021,0.346-0.042,0.532C36,9.648,35.918,9.822,35.829,9.979    c-0.073,0.168-0.193,0.274-0.27,0.39c-0.174,0.215-0.301,0.348-0.301,0.348s0.065-0.174,0.18-0.421    c0.057-0.121,0.142-0.263,0.196-0.413c0.071-0.146,0.133-0.304,0.14-0.471c0.031-0.172,0.041-0.354,0.074-0.527    c0.026-0.161,0.071-0.328,0.065-0.429c-0.003-0.02-0.002-0.001,0.023,0.003c0.032,0.006,0.031-0.01,0.018,0.003    c-0.016,0.003-0.037,0.034-0.055,0.048c-0.034,0.042-0.064,0.08-0.089,0.11C35.765,8.687,35.738,8.725,35.738,8.725z" fill="#1D1D1B"/></g></g><g><path d="M28.241,24.434c0,0-0.324-0.074-0.807-0.134c-0.121-0.019-0.239-0.014-0.365-0.009   c-0.143,0.03-0.27,0.08-0.445,0.094c-0.176,0.028-0.312,0.02-0.481,0.025c-0.161,0.003-0.325,0.006-0.489,0.009   c-0.164-0.003-0.328-0.006-0.489-0.008c-0.154-0.005-0.331,0.002-0.481-0.025c-0.152-0.011-0.303-0.063-0.442-0.094   c-0.11-0.006-0.271-0.01-0.377,0.01c-0.464,0.058-0.798,0.133-0.798,0.133s0.077-0.03,0.211-0.083   c0.134-0.05,0.326-0.129,0.58-0.19c0.132-0.032,0.243-0.045,0.411-0.05c0.138,0.016,0.275,0.047,0.431,0.058   c0.154,0.022,0.297,0.008,0.465,0.008c0.161-0.002,0.325-0.005,0.489-0.008c0.164,0.003,0.328,0.006,0.489,0.009   c0.154,0,0.336,0.013,0.465-0.008c0.132-0.008,0.293-0.042,0.429-0.057c0.151,0.004,0.305,0.018,0.423,0.05   C27.944,24.292,28.241,24.434,28.241,24.434z" fill="#1D1D1B"/></g><g><path d="M31.989,15.93c0,0,0.042,0.232,0.092,0.639c-0.026,0.204,0.02,0.474-0.075,0.756   c-0.059,0.288-0.188,0.617-0.427,0.902c-0.217,0.31-0.562,0.54-0.934,0.746c-0.388,0.174-0.822,0.311-1.285,0.341   c-0.462,0.029-0.943,0-1.422-0.136c-0.238-0.073-0.476-0.172-0.699-0.324l-0.16-0.134c-0.032-0.029-0.041-0.031-0.091-0.083   l-0.055-0.068c-0.072-0.08-0.148-0.189-0.22-0.331c-0.27-0.526-0.12-1.147,0.155-1.563c0.28-0.425,0.642-0.749,1.016-1.013   c0.756-0.521,1.58-0.79,2.302-0.878c0.722-0.103,1.392,0.136,1.627,0.517C32.032,15.68,31.97,15.936,31.989,15.93   c-0.013,0.009-0.012-0.257-0.253-0.569c-0.13-0.146-0.337-0.272-0.602-0.321c-0.265-0.051-0.576-0.035-0.907,0.023   c-0.666,0.121-1.409,0.462-2.09,0.952c-0.337,0.249-0.652,0.553-0.872,0.905c-0.214,0.354-0.283,0.765-0.106,1.094   c0.18,0.38,0.493,0.585,0.916,0.72c0.407,0.127,0.842,0.165,1.256,0.148c0.828-0.044,1.599-0.33,2.034-0.836   c0.226-0.239,0.376-0.514,0.463-0.773c0.121-0.253,0.104-0.501,0.156-0.698C31.987,16.164,31.989,15.93,31.989,15.93z" fill="#1D1D1B"/></g><g><path d="M28.135,17.762c0.017-0.646,0.553-1.156,1.202-1.139c0.645,0.014,1.267,1.037,0.621,1.02   C29.311,17.625,28.135,17.762,28.135,17.762z" fill="#1D1D1B"/><g><path d="M28.135,17.762c0,0-0.012-0.086-0.02-0.234c0.022-0.147,0.045-0.398,0.227-0.617    c0.168-0.219,0.456-0.446,0.83-0.495c0.17-0.036,0.4-0.02,0.598,0.08c0.185,0.09,0.339,0.218,0.47,0.372    c0.114,0.166,0.251,0.324,0.224,0.648c-0.019,0.185-0.215,0.334-0.354,0.347c-0.141,0.011-0.188,0.006-0.275,0.009    c-0.313,0.006-0.607-0.018-0.858-0.023C28.472,17.82,28.135,17.762,28.135,17.762z M28.135,17.762c0,0,0.33-0.102,0.828-0.195    c0.249-0.038,0.539-0.1,0.852-0.135l0.2-0.025c0.02-0.023-0.031,0.014-0.027,0.029c0.008-0.011-0.049-0.163-0.137-0.253    c-0.081-0.104-0.188-0.197-0.297-0.255c-0.097-0.053-0.198-0.088-0.34-0.075c-0.254,0.006-0.5,0.099-0.666,0.248    c-0.175,0.145-0.275,0.312-0.336,0.44C28.167,17.682,28.135,17.762,28.135,17.762z" fill="#1D1D1B"/></g></g><g><g><path d="M24.91,19.697c0,0-0.007,0.054-0.019,0.148c-0.02,0.091-0.069,0.219-0.138,0.376    c-0.064,0.164-0.17,0.325-0.295,0.487c-0.121,0.155-0.241,0.34-0.178,0.446c0.027,0.055,0.098,0.135,0.174,0.216    c0.07,0.066,0.096,0.086,0.194,0.082c0.058,0.002,0.083-0.01,0.164,0.003c0.044,0.006,0.098,0.021,0.158,0.053    c0.105,0.056,0.164,0.114,0.229,0.167c0.123,0.104,0.221,0.185,0.308,0.224c0.086,0.03,0.141,0.043,0.141,0.043    s-0.053,0.003-0.152-0.003c-0.095-0.018-0.239-0.06-0.378-0.149c-0.067-0.04-0.149-0.091-0.213-0.111    c-0.023-0.013-0.061-0.021-0.116-0.02l-0.134,0.01c-0.042,0.008-0.133-0.005-0.197-0.019c-0.056-0.033-0.135-0.078-0.169-0.116    c-0.07-0.073-0.159-0.141-0.236-0.278c-0.057-0.141-0.029-0.315,0.039-0.412c0.06-0.11,0.131-0.191,0.197-0.271    c0.13-0.154,0.269-0.284,0.34-0.418c0.08-0.131,0.18-0.232,0.221-0.32C24.889,19.748,24.91,19.697,24.91,19.697z" fill="#1D1D1B"/></g><g><path d="M26.315,19.697c0,0,0.021,0.05,0.06,0.139c0.041,0.087,0.141,0.189,0.221,0.32    c0.07,0.134,0.209,0.265,0.34,0.417c0.066,0.08,0.138,0.162,0.197,0.271c0.069,0.097,0.097,0.271,0.04,0.412    c-0.078,0.137-0.167,0.206-0.237,0.278c-0.034,0.037-0.113,0.083-0.169,0.116c-0.063,0.014-0.155,0.027-0.197,0.019l-0.134-0.01    c-0.055-0.001-0.094,0.007-0.117,0.02c-0.063,0.021-0.146,0.071-0.213,0.111c-0.139,0.09-0.283,0.132-0.378,0.15    c-0.099,0.006-0.152,0.003-0.152,0.003s0.055-0.013,0.141-0.043c0.086-0.039,0.185-0.12,0.308-0.224    c0.065-0.053,0.124-0.111,0.229-0.167c0.06-0.033,0.114-0.047,0.158-0.053c0.081-0.013,0.106-0.001,0.164-0.003    c0.098,0.003,0.125-0.016,0.194-0.083c0.077-0.082,0.148-0.161,0.175-0.216c0.064-0.105-0.057-0.291-0.178-0.446    c-0.125-0.162-0.23-0.323-0.295-0.487c-0.068-0.157-0.118-0.285-0.138-0.376C26.322,19.751,26.315,19.697,26.315,19.697z" fill="#1D1D1B"/></g></g><g><g><path d="M19.691,24.746c0,0,0.009,0.406-0.036,1.004c-0.043,0.297-0.014,0.647-0.042,1.015    c-0.016,0.369-0.051,0.759-0.085,1.149c-0.108,0.78-0.126,1.562-0.085,2.135c0.027,0.287,0.067,0.523,0.131,0.683    c0.063,0.154,0.117,0.245,0.117,0.245s-0.019-0.017-0.054-0.048c-0.031-0.033-0.1-0.072-0.147-0.148    c-0.104-0.146-0.248-0.377-0.323-0.679c-0.077-0.3-0.156-0.651-0.174-1.038c-0.039-0.379-0.003-0.782,0.037-1.183    c0.086-0.802,0.193-1.605,0.349-2.181C19.543,25.123,19.691,24.746,19.691,24.746z" fill="#1D1D1B"/></g><g><path d="M19.45,30.177c0,0-0.484,0.095-1.21,0.235c-0.722,0.138-1.675,0.345-2.607,0.596    c-0.931,0.253-1.841,0.57-2.473,0.921c-0.302,0.189-0.581,0.328-0.734,0.476c-0.173,0.132-0.271,0.207-0.271,0.207    s0.074-0.101,0.203-0.275c0.128-0.18,0.352-0.404,0.648-0.643c0.307-0.222,0.677-0.471,1.108-0.667    c0.218-0.088,0.436-0.206,0.673-0.275c0.234-0.078,0.472-0.163,0.714-0.225c0.968-0.267,1.963-0.372,2.708-0.393    C18.955,30.112,19.45,30.177,19.45,30.177z" fill="#1D1D1B"/></g><g><path d="M12.798,31.984c0,0-0.718,0.055-1.747,0.305c-0.516,0.115-1.101,0.308-1.709,0.545    c-0.601,0.253-1.233,0.549-1.797,0.949c-0.293,0.185-0.569,0.392-0.817,0.624c-0.269,0.211-0.492,0.459-0.712,0.697    c-0.234,0.227-0.403,0.493-0.588,0.729c-0.193,0.231-0.329,0.48-0.454,0.712c-0.118,0.234-0.267,0.433-0.347,0.632    c-0.085,0.198-0.16,0.371-0.221,0.513c-0.129,0.286-0.204,0.449-0.204,0.449s0.041-0.174,0.111-0.479    c0.039-0.152,0.086-0.339,0.141-0.552c0.048-0.217,0.164-0.438,0.269-0.689c0.106-0.251,0.223-0.523,0.399-0.784    C5.29,35.37,5.44,35.067,5.68,34.819c0.223-0.262,0.441-0.547,0.726-0.772c0.262-0.252,0.551-0.479,0.86-0.679    c0.606-0.416,1.278-0.723,1.923-0.946c0.648-0.219,1.275-0.335,1.812-0.408C12.08,31.878,12.798,31.984,12.798,31.984z" fill="#1D1D1B"/></g></g><g><g><path d="M31.44,24.746c0,0,0.148,0.377,0.312,0.953c0.157,0.577,0.264,1.38,0.35,2.182    c0.04,0.401,0.076,0.804,0.037,1.183c-0.018,0.387-0.098,0.738-0.174,1.038c-0.075,0.302-0.22,0.532-0.322,0.678    c-0.048,0.077-0.117,0.115-0.148,0.149c-0.035,0.031-0.054,0.048-0.054,0.048s0.054-0.091,0.117-0.245    c0.063-0.159,0.104-0.396,0.131-0.683c0.04-0.573,0.023-1.354-0.086-2.135c-0.033-0.39-0.069-0.78-0.084-1.149    c-0.027-0.368,0.001-0.718-0.042-1.015C31.432,25.152,31.44,24.746,31.44,24.746z" fill="#1D1D1B"/></g><g><path d="M31.681,30.177c0,0,0.496-0.064,1.241-0.043c0.745,0.021,1.74,0.126,2.708,0.392    c0.242,0.063,0.479,0.146,0.714,0.226c0.237,0.069,0.455,0.188,0.674,0.275c0.432,0.196,0.802,0.445,1.108,0.667    c0.296,0.238,0.521,0.463,0.648,0.643c0.129,0.175,0.203,0.275,0.203,0.275s-0.099-0.075-0.271-0.207    c-0.153-0.147-0.432-0.286-0.734-0.476c-0.631-0.351-1.542-0.668-2.473-0.921c-0.933-0.251-1.886-0.458-2.607-0.596    C32.165,30.271,31.681,30.177,31.681,30.177z" fill="#1D1D1B"/></g><g><path d="M38.333,31.984c0,0,0.73-0.107,1.828,0.035c0.545,0.076,1.183,0.198,1.842,0.426    c0.654,0.232,1.336,0.55,1.948,0.981l0.455,0.327l0.411,0.376c0.287,0.233,0.502,0.53,0.726,0.798    c0.241,0.257,0.385,0.57,0.553,0.841c0.176,0.268,0.286,0.549,0.391,0.806c0.101,0.258,0.216,0.485,0.259,0.707    c0.051,0.218,0.096,0.407,0.132,0.564c0.066,0.312,0.104,0.489,0.104,0.489s-0.071-0.168-0.197-0.461    c-0.06-0.146-0.131-0.324-0.214-0.527c-0.075-0.206-0.224-0.41-0.338-0.65c-0.124-0.238-0.254-0.496-0.446-0.735    c-0.185-0.242-0.348-0.52-0.584-0.754c-0.221-0.245-0.441-0.504-0.712-0.722L44.1,34.139l-0.432-0.3    c-0.569-0.415-1.21-0.722-1.819-0.983c-0.618-0.245-1.213-0.443-1.738-0.561C39.064,32.039,38.333,31.984,38.333,31.984z" fill="#1D1D1B"/></g></g><g><path d="M20.953,49.772l0.406-2.951l0.019,0.057c-1.598-1.446-3.177-2.913-4.753-4.383l-0.25-0.232l0.341-0.059   c2.124-0.366,4.25-0.719,6.378-1.056l-0.167,0.124l2.771-5.842l0.219-0.462l0.229,0.456l2.905,5.776l-0.17-0.12   c2.136,0.288,4.27,0.592,6.401,0.908l0.342,0.051l-0.244,0.239c-1.542,1.505-3.088,3.007-4.652,4.489l0.018-0.057l0.464,2.88   l-0.589-2.856l-0.007-0.031l0.024-0.025c1.486-1.562,2.992-3.103,4.502-4.641l0.098,0.289c-2.141-0.254-4.279-0.521-6.415-0.803   l-0.116-0.016l-0.054-0.104L25.7,35.651l0.448-0.005l-2.818,5.819l-0.051,0.106l-0.116,0.018c-2.129,0.332-4.261,0.647-6.395,0.95   l0.091-0.291c1.544,1.503,3.085,3.009,4.608,4.535l0.025,0.025l-0.006,0.032L20.953,49.772z" fill="#1D1D1B"/></g><g><path d="M18.072,16.91c0,0-0.076-0.005-0.196-0.004c-0.049,0.024-0.094,0.034-0.115,0.101   c-0.028,0.045-0.028,0.146-0.044,0.23c-0.013,0.392,0.054,0.953,0.073,1.513c0.008,0.279,0.017,0.558,0.024,0.819   c0.026,0.247,0.016,0.485,0.062,0.682c0.034,0.199,0.075,0.358,0.135,0.461c0.061,0.096,0.128,0.134,0.13,0.13   c0,0-0.079,0.016-0.2-0.062c-0.1-0.084-0.248-0.231-0.333-0.441c-0.095-0.205-0.175-0.458-0.233-0.734   c-0.017-0.132-0.042-0.267-0.054-0.406c-0.016-0.136-0.026-0.298-0.032-0.432c-0.023-0.568,0.011-1.146,0.153-1.591   c0.045-0.112,0.083-0.221,0.179-0.293c0.084-0.09,0.199-0.08,0.273-0.072C18.013,16.864,18.072,16.91,18.072,16.91z" fill="#1D1D1B"/></g><g><path d="M33.28,16.678c0,0,0.059-0.046,0.177-0.099c0.074-0.008,0.188-0.018,0.272,0.072   c0.097,0.072,0.135,0.181,0.18,0.293c0.142,0.444,0.176,1.023,0.153,1.591c-0.006,0.134-0.016,0.296-0.032,0.432   c-0.011,0.139-0.036,0.274-0.053,0.406c-0.059,0.277-0.139,0.529-0.233,0.734c-0.085,0.21-0.232,0.357-0.333,0.441   c-0.121,0.078-0.2,0.062-0.2,0.062c0.002,0.004,0.069-0.035,0.131-0.13c0.06-0.103,0.101-0.263,0.135-0.461   c0.046-0.196,0.036-0.435,0.062-0.682c0.008-0.262,0.017-0.541,0.024-0.819c0.019-0.561,0.086-1.121,0.073-1.513   c-0.016-0.084-0.016-0.185-0.044-0.23c-0.021-0.066-0.066-0.077-0.115-0.101C33.356,16.673,33.28,16.678,33.28,16.678z" fill="#1D1D1B"/></g><g><path d="M51.074,26c0,0-0.029,0.615-0.084,1.767c0,0.579-0.1,1.283-0.233,2.11c-0.068,0.412-0.113,0.861-0.215,1.33   c-0.117,0.465-0.243,0.959-0.376,1.481c-0.58,2.064-1.486,4.563-3.161,7.068c-1.643,2.508-3.957,5.079-7.033,7.154   c-3.075,2.056-6.896,3.589-11.12,4.106c-0.524,0.085-1.063,0.073-1.599,0.114c-0.54,0.012-1.074,0.095-1.628,0.05   c-1.083-0.065-2.182-0.053-3.288-0.267c-2.229-0.262-4.419-0.965-6.558-1.858c-2.138-0.916-4.13-2.219-5.997-3.708   c-1.834-1.539-3.447-3.367-4.839-5.373c-1.354-2.037-2.392-4.289-3.156-6.641c-0.717-2.378-1.047-4.838-1.112-7.348   c0.061-2.443,0.394-4.958,1.111-7.322c0.763-2.352,1.802-4.604,3.156-6.641c1.392-2.006,3.004-3.834,4.839-5.374   c1.867-1.49,3.858-2.792,5.997-3.708c4.253-1.866,8.865-2.444,13.067-1.961c4.234,0.519,8.048,2.052,11.126,4.107   c3.075,2.076,5.39,4.647,7.032,7.154c1.675,2.506,2.581,5.004,3.162,7.069c0.132,0.522,0.258,1.017,0.375,1.481   c0.102,0.468,0.146,0.918,0.215,1.33c0.134,0.827,0.233,1.531,0.233,2.11C51.045,25.385,51.074,26,51.074,26z M51.074,26   c0,0-0.033-0.614-0.095-1.766c-0.005-0.579-0.108-1.282-0.247-2.107c-0.071-0.412-0.118-0.86-0.223-1.327   c-0.121-0.463-0.249-0.956-0.385-1.477c-0.593-2.057-1.513-4.543-3.197-7.03c-1.652-2.487-3.973-5.032-7.043-7.075   c-3.066-2.023-6.877-3.52-11.054-4.005c-4.188-0.454-8.731,0.15-12.923,2.019c-2.105,0.917-4.062,2.217-5.893,3.696   c-1.799,1.529-3.375,3.34-4.732,5.322c-1.319,2.013-2.325,4.233-3.061,6.547c-0.69,2.343-0.993,4.738-1.048,7.216   c0.051,2.411,0.357,4.862,1.046,7.191c0.735,2.313,1.741,4.534,3.061,6.547c1.357,1.981,2.933,3.793,4.732,5.322   c1.831,1.479,3.788,2.778,5.893,3.695c2.102,0.895,4.273,1.606,6.461,1.876c1.08,0.219,2.188,0.214,3.269,0.285   c0.53,0.049,1.073-0.03,1.604-0.039c0.531-0.037,1.064-0.022,1.585-0.103c4.188-0.487,7.99-1.982,11.06-4.006   c3.069-2.044,5.39-4.588,7.042-7.076c1.685-2.485,2.605-4.972,3.197-7.029c0.136-0.521,0.264-1.013,0.385-1.477   c0.104-0.467,0.151-0.915,0.223-1.327c0.139-0.824,0.242-1.528,0.247-2.106C51.041,26.614,51.074,26,51.074,26z"/></g></svg>