<?xml version="1.0" ?><!DOCTYPE svg  PUBLIC '-//W3C//DTD SVG 1.1//EN'  'http://www.w3.org/Graphics/SVG/1.1/DTD/svg11.dtd'><svg enable-background="new 0 0 52 52" height="52px" id="Слой_1" version="1.1" viewBox="0 0 52 52" width="52px" xml:space="preserve" xmlns="http://www.w3.org/2000/svg" xmlns:xlink="http://www.w3.org/1999/xlink"><g><g><g><path d="M19.787,27.994c0,0,0.072,0.271,0.121,0.677c0.05,0.403,0.079,0.949,0.073,1.479     c0.003,0.26,0.007,0.52,0.01,0.763c0.014,0.241,0.009,0.471,0.045,0.659c0.031,0.189,0.058,0.351,0.103,0.458     c0.047,0.103,0.073,0.173,0.073,0.173s-0.056-0.036-0.154-0.119c-0.083-0.089-0.211-0.23-0.292-0.43     c-0.184-0.395-0.289-0.951-0.286-1.51c0-0.547,0.078-1.077,0.146-1.481C19.699,28.261,19.787,27.994,19.787,27.994z" fill="#1D1D1B"/></g><g><path d="M12.675,33.838c0.396-0.527,0.946-0.933,1.526-1.25c0.582-0.326,1.209-0.557,1.844-0.749     c1.274-0.383,2.584-0.594,3.919-0.662l0.105-0.005l0.079,0.091c0.784,0.908,1.782,1.669,2.842,2.245     c1.067,0.575,2.265,0.911,3.475,0.904c1.208,0.003,2.419-0.312,3.511-0.875c0.552-0.271,1.072-0.605,1.583-0.957     c0.503-0.364,0.979-0.765,1.449-1.176c-0.422,0.461-0.87,0.898-1.352,1.302c-0.488,0.394-0.99,0.78-1.549,1.079     c-1.096,0.621-2.348,1.044-3.639,1.059c-1.288,0.027-2.571-0.313-3.706-0.903c-0.572-0.29-1.103-0.651-1.599-1.053     c-0.497-0.404-0.954-0.837-1.373-1.342l0.184,0.086c-1.285,0.06-2.589,0.216-3.85,0.512     C14.885,32.466,13.604,32.891,12.675,33.838z" fill="#1D1D1B"/></g><g><path d="M23.288,37.845c-0.904-0.165-1.784-0.472-2.644-0.795c-0.862-0.327-1.703-0.705-2.538-1.093     c-1.676-0.768-3.294-1.643-4.906-2.539l0.119,0.032l-1.776,0.354c-0.605,0.122-1.209,0.252-1.809,0.395     c-0.599,0.144-1.195,0.299-1.778,0.483c-0.292,0.092-0.579,0.193-0.854,0.31c-0.269,0.116-0.555,0.255-0.712,0.419l0.029-0.203     c0.232,0.668,0.335,1.325,0.41,1.997c0.068,0.669,0.081,1.341,0.058,2.01c-0.074,1.337-0.304,2.656-0.653,3.938     c0.267-1.301,0.404-2.626,0.398-3.943c-0.002-0.658-0.038-1.315-0.128-1.965c-0.093-0.643-0.228-1.302-0.454-1.882l-0.046-0.118     l0.075-0.085c0.265-0.298,0.56-0.423,0.853-0.56c0.293-0.129,0.59-0.238,0.888-0.337c0.597-0.198,1.199-0.364,1.803-0.519     c0.604-0.153,1.211-0.293,1.82-0.424l0.916-0.182l0.459-0.083l0.501-0.083l0.051-0.009l0.069,0.04     c1.581,0.922,3.202,1.782,4.821,2.64c0.811,0.428,1.638,0.818,2.467,1.21C21.557,37.24,22.396,37.608,23.288,37.845z" fill="#1D1D1B"/></g></g><g><path d="M23.644,26.958" fill="none"/></g><g><path d="M28.344,26.958" fill="none"/></g><g><path d="M27.938,27.062" fill="none"/></g><g><path d="M23.239,27.062" fill="none"/></g><g><path d="M26.093,19.52" fill="none"/></g><g><path d="M27.938,24.934" fill="none"/></g><g><path d="M23.339,26.958" fill="none"/></g><g><path d="M23.744,27.062" fill="none"/></g><g><path d="M28.444,27.062" fill="none"/></g><g><path d="M26.102,19.52" fill="none"/></g><g><path d="M26.393,17.385c0.064,0.768,0.14,1.535,0.165,2.303c0.046,0.768,0.059,1.535,0.067,2.303l-0.107-0.195    l4.368,2.777l-0.323,0.047c1.535-1.792,3.063-3.606,4.449-5.504c0.337-0.476,0.685-0.965,0.925-1.461    c0.064-0.14,0.092-0.213,0.094-0.334l0.005-0.444c0.002-0.295,0.01-0.593-0.001-0.884c-0.02-1.169-0.102-2.347-0.286-3.502    c-0.188-1.155-0.492-2.292-0.965-3.358c-0.48-1.059-1.154-2.039-2.047-2.788c-0.879-0.765-1.962-1.283-3.1-1.575    c-1.141-0.298-2.328-0.392-3.51-0.411c1.182-0.022,2.375,0.029,3.54,0.289c1.161,0.255,2.292,0.743,3.23,1.504    c0.941,0.758,1.66,1.762,2.179,2.845c0.509,1.09,0.843,2.252,1.059,3.428c0.219,1.178,0.311,2.369,0.335,3.565    c0.014,0.3,0.007,0.595,0.007,0.891l-0.001,0.444c0.005,0.176-0.066,0.391-0.131,0.516c-0.273,0.571-0.618,1.051-0.96,1.543    c-1.396,1.933-2.91,3.753-4.444,5.564L30.8,25.11l-0.184-0.118l-4.348-2.807l-0.108-0.07l0.001-0.125    c0.009-0.768,0.021-1.535,0.067-2.303C26.253,18.92,26.329,18.152,26.393,17.385z" fill="#1D1D1B"/></g><g><path d="M26.483,17.172c0.103,0.043,0.216,0.066,0.312,0.125l0.286,0.195c0.168,0.151,0.342,0.3,0.495,0.466    c0.314,0.327,0.615,0.666,0.885,1.034l-0.131-0.058c1.27-0.21,2.536-0.433,3.81-0.607l-0.175,0.132    c0.38-0.882,0.749-1.769,1.139-2.646l0.057,0.279l-1.563-1.5l0.182,0.06c-1.151,0.137-2.308,0.238-3.463,0.341l0.096-0.051    c-0.688,0.767-1.401,1.513-2.119,2.255c0.62-0.826,1.244-1.647,1.892-2.448l0.034-0.042l0.062-0.01    c1.146-0.176,2.293-0.352,3.443-0.493l0.104-0.013l0.078,0.072l1.592,1.469l0.127,0.117l-0.07,0.162    c-0.383,0.88-0.787,1.752-1.18,2.628l-0.052,0.115l-0.123,0.017c-1.274,0.171-2.555,0.295-3.833,0.432l-0.086,0.009l-0.045-0.067    c-0.245-0.367-0.495-0.74-0.774-1.086c-0.135-0.179-0.288-0.338-0.438-0.503l-0.246-0.219    C26.69,17.267,26.58,17.228,26.483,17.172z" fill="#1D1D1B"/></g><g><path d="M23.086,26.762c0,0,0.008,0.071,0.024,0.204c0.028,0.13,0.008,0.335,0.105,0.567    c0.042,0.116,0.075,0.251,0.135,0.387c0.074,0.131,0.153,0.271,0.238,0.422c0.1,0.14,0.228,0.273,0.35,0.422    c0.139,0.132,0.308,0.248,0.475,0.373c0.371,0.195,0.795,0.382,1.272,0.394c0.439,0.065,1.007-0.079,1.425-0.27    c0.451-0.231,0.832-0.592,1.132-1.015c0.275-0.435,0.407-0.989,0.423-1.462c-0.023-0.606-0.151-1.048-0.426-1.512    c-0.3-0.423-0.683-0.781-1.133-1.014c-0.457-0.195-0.951-0.331-1.425-0.268c-0.493,0.016-0.89,0.197-1.27,0.394    c-0.166,0.126-0.336,0.241-0.475,0.375c-0.122,0.149-0.25,0.282-0.35,0.422c-0.084,0.15-0.164,0.291-0.237,0.421    c-0.06,0.136-0.093,0.271-0.135,0.388c-0.097,0.232-0.077,0.436-0.105,0.566C23.095,26.691,23.086,26.762,23.086,26.762z     M23.086,26.762c0,0,0.006-0.071,0.017-0.205c0.024-0.131-0.002-0.336,0.088-0.573c0.038-0.119,0.068-0.256,0.124-0.397    c0.07-0.134,0.146-0.28,0.228-0.436c0.097-0.146,0.223-0.286,0.343-0.442c0.14-0.138,0.3-0.272,0.464-0.417    c0.355-0.231,0.815-0.472,1.309-0.525c0.501-0.106,1.057-0.011,1.59,0.171c0.53,0.213,1.007,0.594,1.362,1.086    c0.336,0.49,0.528,1.171,0.551,1.709c-0.029,0.67-0.213,1.241-0.55,1.759c-0.354,0.492-0.832,0.873-1.361,1.086    c-0.573,0.189-1.054,0.274-1.59,0.173c-0.51-0.056-0.943-0.29-1.308-0.522c-0.164-0.145-0.324-0.278-0.465-0.416    c-0.121-0.156-0.247-0.296-0.344-0.441c-0.082-0.155-0.158-0.301-0.228-0.436c-0.057-0.141-0.086-0.278-0.125-0.397    c-0.09-0.237-0.064-0.44-0.087-0.572C23.092,26.833,23.086,26.762,23.086,26.762z" fill="#1D1D1B"/></g><g><path d="M6.724,40.131c0,0,0.284,0.028,0.781,0.077C8,40.276,8.711,40.329,9.56,40.397    c0.845,0.092,1.849,0.13,2.909,0.31c0.529,0.096,1.085,0.144,1.632,0.287c0.551,0.126,1.111,0.255,1.67,0.384    c0.544,0.182,1.089,0.363,1.625,0.542c0.539,0.169,1.06,0.361,1.548,0.585c0.982,0.435,1.914,0.807,2.657,1.236    c1.508,0.817,2.489,1.396,2.489,1.396s-1.058-0.437-2.609-1.142c-0.384-0.186-0.806-0.37-1.267-0.532    c-0.454-0.176-0.933-0.362-1.428-0.554c-0.488-0.213-1.005-0.392-1.54-0.547c-0.531-0.166-1.07-0.335-1.609-0.503    c-0.547-0.138-1.095-0.275-1.634-0.41c-0.536-0.152-1.083-0.209-1.603-0.314c-1.043-0.196-2.028-0.325-2.875-0.46    c-0.852-0.113-1.548-0.264-2.035-0.371C7.002,40.193,6.724,40.131,6.724,40.131z" fill="#1D1D1B"/></g><g><g><path d="M33.194,27.761c0,0,0.088,0.267,0.159,0.669c0.068,0.404,0.146,0.935,0.146,1.481     c0.003,0.559-0.103,1.116-0.285,1.51c-0.081,0.199-0.21,0.341-0.292,0.43c-0.098,0.083-0.154,0.119-0.154,0.119     s0.026-0.07,0.073-0.173c0.045-0.107,0.072-0.269,0.104-0.458c0.036-0.188,0.032-0.418,0.046-0.659     c0.003-0.243,0.006-0.503,0.009-0.763c-0.006-0.53,0.023-1.076,0.073-1.479C33.122,28.032,33.194,27.761,33.194,27.761z" fill="#1D1D1B"/></g><g><path d="M33.01,31.171c0,0,0.495-0.064,1.241-0.043c0.744,0.021,1.74,0.126,2.708,0.392     c0.242,0.063,0.479,0.146,0.714,0.226c0.236,0.069,0.455,0.188,0.673,0.274c0.432,0.197,0.802,0.445,1.108,0.668     c0.296,0.237,0.521,0.462,0.648,0.642c0.129,0.175,0.203,0.275,0.203,0.275s-0.099-0.075-0.271-0.206     c-0.153-0.148-0.432-0.287-0.734-0.476c-0.631-0.352-1.542-0.669-2.473-0.921c-0.932-0.251-1.885-0.458-2.607-0.596     C33.494,31.266,33.01,31.171,33.01,31.171z" fill="#1D1D1B"/></g><g><path d="M29.693,37.611c0.893-0.23,1.734-0.594,2.567-0.976c0.829-0.391,1.655-0.787,2.469-1.209     c1.626-0.845,3.231-1.736,4.819-2.645l0.076-0.044l0.083,0.018c1.375,0.294,2.722,0.662,4.048,1.128     c1.313,0.486,2.619,1.05,3.771,1.914l0.185,0.139l-0.151,0.187c-0.741,0.913-1.411,1.935-1.849,3.039     c-0.211,0.555-0.365,1.135-0.403,1.729c-0.041,0.593,0.071,1.201,0.351,1.743c-0.33-0.511-0.511-1.124-0.528-1.745     c-0.031-0.623,0.1-1.242,0.29-1.83c0.391-1.182,1.016-2.257,1.798-3.229l0.033,0.324c-1.087-0.798-2.371-1.341-3.664-1.801     c-1.293-0.469-2.63-0.853-3.97-1.154l0.158-0.025c-1.604,0.91-3.239,1.753-4.908,2.532c-0.831,0.395-1.675,0.768-2.536,1.095     C31.473,37.129,30.596,37.44,29.693,37.611z" fill="#1D1D1B"/></g></g><g><path d="M45.325,39.623c0,0-0.282,0.067-0.776,0.186s-1.201,0.277-2.066,0.402    c-0.861,0.147-1.863,0.283-2.921,0.503c-0.527,0.114-1.084,0.181-1.625,0.35c-0.545,0.148-1.1,0.3-1.653,0.451    c-0.544,0.187-1.087,0.374-1.622,0.559c-0.268,0.093-0.533,0.185-0.796,0.275c-0.254,0.112-0.506,0.223-0.753,0.331    c-0.497,0.212-0.979,0.416-1.435,0.61c-0.464,0.179-0.885,0.388-1.269,0.589c-1.552,0.773-2.611,1.258-2.611,1.258    s0.978-0.623,2.482-1.509c0.74-0.464,1.676-0.874,2.661-1.347c0.248-0.115,0.501-0.231,0.756-0.35    c0.265-0.098,0.532-0.196,0.802-0.296c0.54-0.197,1.089-0.398,1.638-0.599c0.567-0.144,1.135-0.286,1.692-0.427    c0.555-0.161,1.12-0.218,1.657-0.323c1.075-0.203,2.099-0.248,2.957-0.354c0.862-0.078,1.586-0.142,2.088-0.22    C45.037,39.656,45.325,39.623,45.325,39.623z" fill="#1D1D1B"/></g><g><path d="M21.055,7.267c0,0,0.057,0.476,0.083,1.179c0.023,0.703,0,1.631-0.051,2.552    c-0.065,0.916-0.13,1.832-0.179,2.519c-0.014,0.34-0.034,0.628,0.01,0.816c0.023,0.091,0.045,0.163,0.076,0.207    c0.04,0.036,0.061,0.056,0.061,0.056c0.012,0-0.152,0-0.272-0.206c-0.114-0.189-0.233-0.481-0.305-0.836    c-0.155-0.711-0.192-1.662-0.14-2.6c0.058-0.938,0.207-1.866,0.373-2.553C20.882,7.714,21.055,7.267,21.055,7.267z" fill="#1D1D1B"/></g><g><path d="M30.761,7.267c0,0,0.248,0.41,0.51,1.07c0.136,0.328,0.263,0.721,0.377,1.148    c0.131,0.423,0.197,0.892,0.285,1.356c0.066,0.468,0.089,0.946,0.107,1.39c-0.008,0.448-0.055,0.869-0.098,1.221    c-0.066,0.356-0.188,0.642-0.242,0.839c-0.065,0.197-0.113,0.304-0.113,0.304s-0.018-0.124-0.03-0.33    c-0.01-0.207-0.026-0.495-0.044-0.833c-0.055-0.344-0.089-0.738-0.132-1.16c-0.081-0.423-0.111-0.875-0.19-1.325    c-0.064-0.454-0.129-0.907-0.188-1.333c-0.06-0.427-0.106-0.829-0.147-1.176C30.788,7.745,30.761,7.267,30.761,7.267z" fill="#1D1D1B"/></g><g><path d="M25.688,17.385c0.06,0.768,0.127,1.537,0.146,2.304c0.041,0.768,0.039,1.536,0.043,2.304l-0.234-0.237    c-0.339,0.232-0.675,0.462-0.991,0.702c-0.326,0.241-0.581,0.487-0.877,0.859c-0.315,0.378-0.734,0.677-1.099,0.932l-1.095,0.741    l-0.177,0.12l-0.145-0.159c-0.801-0.882-1.583-1.776-2.354-2.683c-0.767-0.912-1.534-1.818-2.223-2.813    c-0.162-0.27-0.351-0.47-0.442-0.89l-0.095-0.885c-0.059-0.59-0.104-1.194-0.127-1.791c-0.029-0.598-0.025-1.197-0.014-1.796    c0.024-0.599,0.069-1.198,0.148-1.794c0.086-0.595,0.197-1.187,0.355-1.769c0.164-0.58,0.354-1.155,0.618-1.7    c0.505-1.097,1.27-2.084,2.233-2.817c0.974-0.724,2.122-1.166,3.29-1.401c1.172-0.239,2.368-0.279,3.553-0.256    c-1.186,0.021-2.376,0.105-3.525,0.384c-1.147,0.273-2.245,0.755-3.162,1.477c-0.913,0.726-1.624,1.685-2.089,2.752    c-0.243,0.53-0.415,1.09-0.563,1.655c-0.143,0.567-0.238,1.145-0.31,1.727c-0.131,1.165-0.157,2.344-0.095,3.52    c0.027,0.589,0.074,1.169,0.137,1.76l0.101,0.885c0.031,0.166,0.218,0.454,0.371,0.68c0.668,0.954,1.441,1.86,2.207,2.76    c0.771,0.898,1.561,1.783,2.355,2.66l-0.322-0.04l1.006-0.655c0.335-0.21,0.615-0.376,1-0.464    c0.404-0.093,0.848-0.313,1.223-0.537c0.384-0.226,0.748-0.461,1.109-0.694l-0.234-0.237c0.02-0.768,0.033-1.535,0.089-2.302    C25.531,18.918,25.613,18.152,25.688,17.385z" fill="#1D1D1B"/></g><g><path d="M25.688,17.385" fill="none"/></g><g><path d="M25.064,16.713" fill="none"/></g><g><path d="M26.247,17.264c-0.119-0.035-0.235-0.015-0.336,0.045c-0.104,0.051-0.199,0.121-0.289,0.196    c-0.182,0.147-0.346,0.318-0.502,0.496c-0.312,0.354-0.597,0.736-0.872,1.116l-0.047,0.065l-0.087-0.009    c-1.333-0.133-2.665-0.28-3.991-0.457L20,18.699l-0.055-0.111c-0.418-0.843-0.853-1.678-1.248-2.532l-0.08-0.171l0.139-0.117    l1.637-1.383l0.075-0.064l0.095,0.012c1.198,0.154,2.389,0.358,3.584,0.539l0.048,0.007l0.025,0.03    c0.457,0.549,0.925,1.088,1.37,1.647c-0.526-0.484-1.03-0.99-1.545-1.485l0.073,0.037c-1.203-0.112-2.409-0.202-3.608-0.342    l0.169-0.052l-1.608,1.417l0.059-0.288c0.429,0.837,0.821,1.693,1.228,2.542l-0.175-0.127c1.326,0.185,2.648,0.4,3.968,0.629    l-0.135,0.057c0.303-0.379,0.628-0.733,0.984-1.061c0.177-0.164,0.362-0.321,0.566-0.455c0.1-0.068,0.208-0.128,0.325-0.166    C26.004,17.215,26.142,17.213,26.247,17.264z" fill="#1D1D1B"/></g><g><path d="M23.427,28.488c-1.352-0.453-2.651-1.096-3.825-1.93c-1.165-0.84-2.23-1.867-2.986-3.123    c-0.377-0.625-0.676-1.301-0.874-2.008c-0.192-0.729-0.303-1.398-0.402-2.13c-0.192-1.433-0.273-2.86-0.259-4.303l0.018-1.797    l0.455,1.739l1.556,5.945l-0.045-0.085c0.835,0.964,1.663,1.944,2.523,2.893l2.573,2.858c-0.923-0.889-1.897-1.732-2.782-2.663    c-0.897-0.919-1.798-1.834-2.645-2.805l-0.032-0.036l-0.013-0.05l-1.6-5.933l0.473-0.059c-0.003,0.703,0.029,1.414,0.068,2.12    c0.04,0.705,0.093,1.416,0.184,2.11c0.083,0.681,0.205,1.423,0.369,2.074c0.178,0.669,0.452,1.313,0.803,1.912    c0.697,1.205,1.667,2.254,2.782,3.119C20.884,27.197,22.105,27.95,23.427,28.488z" fill="#1D1D1B"/></g><g><path d="M27.798,26.829c0,0-0.005,0.05-0.013,0.144c-0.017,0.093,0.001,0.235-0.063,0.401    c-0.037,0.175-0.125,0.368-0.243,0.587c-0.133,0.21-0.319,0.418-0.56,0.615c-0.255,0.17-0.561,0.342-0.924,0.388    c-0.391,0.077-0.716,0.026-1.142-0.106c-0.383-0.148-0.732-0.417-0.996-0.77c-0.255-0.363-0.379-0.81-0.402-1.258    c0.017-0.416,0.146-0.902,0.4-1.259c0.264-0.354,0.612-0.623,0.997-0.771c0.386-0.126,0.785-0.187,1.141-0.106    c0.348,0.042,0.68,0.22,0.926,0.387c0.24,0.198,0.427,0.406,0.56,0.616c0.118,0.219,0.206,0.412,0.243,0.586    c0.064,0.166,0.047,0.31,0.063,0.402C27.793,26.779,27.798,26.829,27.798,26.829z M27.798,26.829c0,0-0.006-0.05-0.017-0.144    c-0.019-0.091-0.004-0.234-0.072-0.398c-0.04-0.172-0.131-0.364-0.265-0.567c-0.145-0.195-0.337-0.391-0.587-0.546    c-0.271-0.133-0.541-0.251-0.887-0.257c-0.329-0.037-0.667,0.063-0.977,0.203c-0.305,0.166-0.559,0.416-0.755,0.705    c-0.175,0.313-0.268,0.616-0.284,1.004c0.009,0.355,0.109,0.698,0.283,1.004c0.197,0.29,0.451,0.541,0.756,0.706    c0.27,0.133,0.682,0.244,0.977,0.203c0.33-0.002,0.626-0.126,0.888-0.258c0.251-0.155,0.442-0.352,0.587-0.547    c0.134-0.204,0.225-0.396,0.265-0.567c0.068-0.163,0.054-0.308,0.072-0.398C27.792,26.879,27.798,26.829,27.798,26.829z" fill="#1D1D1B"/></g><ellipse cx="25.996" cy="26.455" fill="none" rx="3.091" ry="3.219" stroke="#1D1D1B" stroke-miterlimit="10" stroke-width="0.25"/><g><path d="M28.759,28.488c1.321-0.538,2.543-1.291,3.659-2.152c1.115-0.864,2.084-1.914,2.781-3.118    c0.352-0.6,0.625-1.243,0.804-1.912c0.164-0.651,0.286-1.393,0.369-2.074c0.091-0.695,0.144-1.405,0.184-2.11    c0.039-0.706,0.071-1.417,0.068-2.119l0.473,0.058l-1.601,5.933l-0.013,0.05l-0.032,0.036c-0.848,0.971-1.748,1.886-2.645,2.805    c-0.885,0.931-1.859,1.774-2.782,2.663l2.573-2.858c0.86-0.948,1.688-1.929,2.523-2.893l-0.045,0.085l1.556-5.945l0.455-1.738    l0.018,1.796c0.015,1.443-0.066,2.87-0.259,4.303c-0.099,0.731-0.21,1.4-0.402,2.129c-0.198,0.707-0.497,1.383-0.874,2.008    c-0.756,1.255-1.82,2.282-2.985,3.122C31.409,27.393,30.11,28.035,28.759,28.488z" fill="#1D1D1B"/></g><g><path d="M36.796,17.419c0,0-0.064-0.768-0.103-1.919c-0.012-0.576-0.026-1.247-0.041-1.966    c0.01-0.72-0.021-1.485-0.063-2.25c-0.064-1.529-0.073-3.06-0.06-4.21c0.015-1.15,0.064-1.921,0.064-1.921    s0.111,0.762,0.217,1.911c0.106,1.149,0.22,2.685,0.278,4.222c0.032,0.768,0.055,1.536,0.003,2.254    c-0.043,0.719-0.084,1.389-0.118,1.964C36.891,16.653,36.796,17.419,36.796,17.419z" fill="#1D1D1B"/></g><g><path d="M16.029,5.192c0,0,0.02,0.85,0.003,2.115c-0.02,1.265-0.089,2.943-0.162,4.618    c-0.077,1.674-0.154,3.344-0.137,4.593c0.014,0.624,0.042,1.141,0.118,1.497c0.027,0.181,0.098,0.301,0.124,0.399    c0.035,0.095,0.053,0.146,0.053,0.146s-0.03-0.043-0.087-0.124c-0.046-0.084-0.168-0.197-0.228-0.375    c-0.142-0.349-0.311-0.868-0.409-1.503c-0.103-0.634-0.173-1.379-0.198-2.175c-0.033-0.796-0.017-1.645,0.016-2.49    C15.2,10.2,15.396,8.52,15.605,7.268C15.818,6.017,16.029,5.192,16.029,5.192z" fill="#1D1D1B"/></g><g><path d="M19.735,29.77c0,0,0.156,0.179,0.46,0.454c0.302,0.276,0.756,0.649,1.347,1.017    c0.284,0.202,0.63,0.355,0.977,0.545c0.372,0.138,0.746,0.324,1.164,0.431c0.406,0.145,0.844,0.217,1.289,0.285    c0.444,0.07,0.906,0.055,1.36,0.067c0.454-0.054,0.917-0.038,1.359-0.142c0.438-0.111,0.889-0.154,1.292-0.315    c0.411-0.143,0.808-0.279,1.184-0.409c0.363-0.17,0.706-0.329,1.022-0.478c0.646-0.278,1.126-0.621,1.492-0.811    c0.361-0.201,0.568-0.315,0.568-0.315s-0.187,0.144-0.514,0.396c-0.166,0.124-0.368,0.274-0.6,0.447    c-0.228,0.18-0.493,0.37-0.813,0.531c-0.313,0.174-0.65,0.362-1.009,0.563c-0.372,0.171-0.777,0.329-1.198,0.488    c-0.415,0.176-0.885,0.236-1.341,0.362c-0.46,0.118-0.95,0.119-1.43,0.182c-0.483-0.023-0.972-0.02-1.44-0.105    c-0.471-0.083-0.931-0.173-1.357-0.335c-0.441-0.114-0.82-0.348-1.195-0.519c-0.349-0.223-0.693-0.408-0.972-0.638    c-0.585-0.419-0.982-0.873-1.257-1.18C19.856,29.975,19.735,29.77,19.735,29.77z" fill="#1D1D1B"/></g><g><path d="M22.423,26.655c-0.021-0.008,0.064,0.394-0.258,0.899c-0.081,0.123-0.214,0.243-0.398,0.3    c-0.053,0.01-0.081,0.029-0.159,0.029l-0.126-0.002c-0.091-0.016-0.234-0.057-0.312-0.115c-0.19-0.109-0.333-0.287-0.421-0.483    c-0.105-0.202-0.125-0.397-0.142-0.647c0.014-0.162,0.035-0.419,0.141-0.611c0.088-0.196,0.229-0.375,0.421-0.483    c0.18-0.113,0.42-0.155,0.593-0.088c0.178,0.053,0.331,0.182,0.404,0.302C22.487,26.262,22.403,26.663,22.423,26.655z     M22.423,26.655c0,0-0.004-0.094-0.029-0.254c-0.021-0.079-0.036-0.177-0.092-0.276c-0.046-0.1-0.113-0.213-0.218-0.295    c-0.104-0.094-0.217-0.146-0.353-0.155c-0.142-0.016-0.258,0.052-0.352,0.147s-0.16,0.231-0.205,0.375    c-0.046,0.146-0.062,0.266-0.069,0.475c0.004,0.121,0.021,0.304,0.068,0.44c0.044,0.144,0.109,0.28,0.204,0.376    c0.053,0.059,0.08,0.073,0.144,0.112l0.122,0.033c0.002,0.005,0.056,0.001,0.082,0.003c0.13-0.005,0.262-0.065,0.358-0.156    c0.105-0.082,0.171-0.195,0.218-0.295c0.056-0.099,0.072-0.197,0.092-0.276C22.419,26.749,22.423,26.655,22.423,26.655z" fill="#1D1D1B"/></g><g><path d="M31.341,26.548c0,0-0.004,0.088-0.011,0.241c-0.024,0.152-0.046,0.375-0.175,0.624    c-0.058,0.128-0.17,0.257-0.346,0.331c-0.054,0.011-0.078,0.032-0.161,0.031l-0.118-0.004c-0.109-0.027-0.228-0.084-0.299-0.147    c-0.16-0.13-0.281-0.304-0.346-0.491c-0.082-0.193-0.097-0.373-0.11-0.601c0.013-0.157,0.026-0.381,0.109-0.571    c0.065-0.188,0.185-0.363,0.347-0.492c0.147-0.134,0.407-0.199,0.57-0.122c0.181,0.072,0.302,0.21,0.354,0.334    c0.129,0.25,0.149,0.473,0.175,0.625C31.337,26.46,31.341,26.548,31.341,26.548z M31.341,26.548c0,0-0.009-0.087-0.023-0.24    c-0.026-0.147-0.084-0.373-0.253-0.563c-0.081-0.102-0.195-0.16-0.3-0.176c-0.132-0.018-0.215,0.048-0.29,0.152    c-0.068,0.104-0.122,0.235-0.151,0.379c-0.031,0.139-0.047,0.269-0.05,0.461c0.001,0.122,0.017,0.296,0.048,0.432    c0.029,0.145,0.083,0.277,0.152,0.38c0.041,0.061,0.068,0.078,0.103,0.118l0.114,0.034c-0.008,0.004,0.043,0,0.064,0.003    c0.109-0.014,0.232-0.08,0.31-0.179c0.169-0.19,0.227-0.415,0.253-0.563C31.332,26.635,31.341,26.548,31.341,26.548z" fill="#1D1D1B"/></g><g><path d="M4.568,35.285c0,0,0.253,0.301,0.479,0.833c0.238,0.525,0.42,1.284,0.441,2.061    c-0.032,0.388,0.006,0.779-0.108,1.135c-0.097,0.354-0.151,0.689-0.302,0.946c-0.283,0.52-0.51,0.818-0.51,0.818    s0.015-0.402,0.095-0.934c0.052-0.264,0.021-0.589,0.062-0.914c0.026-0.164,0.019-0.335,0.015-0.51c0-0.174,0-0.351,0-0.527    c0.019-0.176-0.013-0.354-0.019-0.528c-0.016-0.174-0.004-0.349-0.019-0.516c-0.041-0.332-0.037-0.654-0.07-0.926    C4.593,35.66,4.568,35.285,4.568,35.285z" fill="#1D1D1B"/></g><g><path d="M51.074,26c0,0-0.029,0.615-0.084,1.767c0,0.579-0.1,1.283-0.233,2.11c-0.068,0.412-0.113,0.861-0.215,1.33    c-0.117,0.465-0.243,0.959-0.376,1.481c-0.58,2.064-1.486,4.563-3.161,7.068c-1.643,2.508-3.957,5.079-7.033,7.154    c-3.075,2.056-6.896,3.589-11.12,4.106c-0.524,0.085-1.063,0.073-1.599,0.114c-0.54,0.012-1.074,0.095-1.628,0.05    c-1.083-0.065-2.182-0.053-3.288-0.267c-2.229-0.262-4.419-0.965-6.558-1.858c-2.138-0.916-4.13-2.219-5.997-3.708    c-1.834-1.539-3.447-3.367-4.839-5.373c-1.354-2.037-2.392-4.289-3.156-6.641c-0.717-2.378-1.047-4.838-1.112-7.348    c0.061-2.443,0.394-4.958,1.111-7.322c0.763-2.352,1.802-4.604,3.156-6.641c1.392-2.006,3.004-3.834,4.839-5.374    c1.867-1.49,3.858-2.792,5.997-3.708c4.253-1.866,8.865-2.444,13.067-1.961c4.234,0.519,8.048,2.052,11.126,4.107    c3.075,2.076,5.39,4.647,7.032,7.154c1.675,2.506,2.581,5.004,3.162,7.069c0.132,0.522,0.258,1.017,0.375,1.481    c0.102,0.468,0.146,0.918,0.215,1.33c0.134,0.827,0.233,1.531,0.233,2.11C51.045,25.385,51.074,26,51.074,26z M51.074,26    c0,0-0.033-0.614-0.095-1.766c-0.005-0.579-0.108-1.282-0.247-2.107c-0.071-0.412-0.118-0.86-0.223-1.327    c-0.121-0.463-0.249-0.956-0.385-1.477c-0.593-2.057-1.513-4.543-3.197-7.03c-1.652-2.487-3.973-5.032-7.043-7.075    c-3.066-2.023-6.877-3.52-11.054-4.005c-4.188-0.454-8.731,0.15-12.923,2.019c-2.105,0.917-4.062,2.217-5.893,3.696    c-1.799,1.529-3.375,3.34-4.732,5.322c-1.319,2.013-2.325,4.233-3.061,6.547c-0.69,2.343-0.993,4.738-1.048,7.216    c0.051,2.411,0.357,4.862,1.046,7.191c0.735,2.313,1.741,4.534,3.061,6.547c1.357,1.981,2.933,3.793,4.732,5.322    c1.831,1.479,3.788,2.778,5.893,3.695c2.102,0.895,4.273,1.606,6.461,1.876c1.08,0.219,2.188,0.214,3.269,0.285    c0.53,0.049,1.073-0.03,1.604-0.039c0.531-0.037,1.064-0.022,1.585-0.103c4.188-0.487,7.99-1.982,11.06-4.006    c3.069-2.044,5.39-4.588,7.042-7.076c1.685-2.485,2.605-4.972,3.197-7.029c0.136-0.521,0.264-1.013,0.385-1.477    c0.104-0.467,0.151-0.915,0.223-1.327c0.139-0.824,0.242-1.528,0.247-2.106C51.041,26.614,51.074,26,51.074,26z"/></g></g></svg>