<?xml version="1.0" ?><!DOCTYPE svg  PUBLIC '-//W3C//DTD SVG 1.1//EN'  'http://www.w3.org/Graphics/SVG/1.1/DTD/svg11.dtd'><svg enable-background="new 0 0 52 52" height="52px" id="Слой_1" version="1.1" viewBox="0 0 52 52" width="52px" xml:space="preserve" xmlns="http://www.w3.org/2000/svg" xmlns:xlink="http://www.w3.org/1999/xlink"><g><g><path d="M34.466,15.405c0,0,0.052-0.029,0.143-0.067c0.08-0.031,0.25-0.096,0.445-0.043    c0.202,0.031,0.423,0.217,0.521,0.446c0.105,0.229,0.131,0.479,0.131,0.713c-0.011,0.124-0.005,0.22-0.031,0.363    c-0.018,0.106-0.049,0.208-0.071,0.309c-0.078,0.235-0.21,0.424-0.344,0.556c-0.308,0.265-0.584,0.177-0.569,0.177    c0,0,0.057-0.022,0.129-0.08c0.039-0.024,0.077-0.063,0.115-0.111c0.043-0.039,0.064-0.114,0.107-0.164    c0.072-0.128,0.092-0.291,0.127-0.452c0.011-0.102,0.013-0.209,0.03-0.315c0.011-0.069,0.003-0.193,0.007-0.287    c0.012-0.201-0.007-0.394-0.041-0.551c-0.043-0.148-0.091-0.284-0.212-0.341c-0.107-0.068-0.229-0.117-0.332-0.123    C34.522,15.42,34.466,15.405,34.466,15.405z" fill="#1D1D1B"/></g><g><path d="M26.28,27.034c0,0-0.075,0-0.215,0c-0.14-0.007-0.346,0.018-0.607-0.028    c-0.265-0.024-0.581-0.08-0.938-0.167c-0.355-0.089-0.76-0.197-1.177-0.374c-0.424-0.16-0.871-0.367-1.33-0.612    c-0.459-0.243-0.937-0.52-1.391-0.865c-0.466-0.329-0.909-0.722-1.337-1.146c-0.405-0.447-0.822-0.913-1.089-1.497    c-0.291-0.568-0.331-1.286-0.294-1.841c0.011-0.588,0.021-1.166,0.031-1.726c0.018-1.12,0.074-2.164,0.103-3.06    c0.076-1.791,0.167-2.985,0.167-2.985s0.07,1.194,0.115,2.985c0.013,0.896,0.051,1.94,0.05,3.06c0,0.56,0.001,1.138,0.002,1.726    c-0.021,0.616,0.022,1.121,0.278,1.628c0.221,0.514,0.603,0.962,0.976,1.388c0.398,0.41,0.815,0.795,1.259,1.121    c0.875,0.665,1.764,1.201,2.571,1.566c0.399,0.19,0.781,0.333,1.12,0.454c0.342,0.118,0.644,0.201,0.898,0.248    c0.25,0.065,0.459,0.076,0.597,0.097C26.206,27.024,26.28,27.034,26.28,27.034z" fill="#1D1D1B"/></g><g><path d="M19.625,14.257c0,0,0.109-0.07,0.3-0.194c0.199-0.097,0.525-0.266,0.95-0.23    c0.421,0.022,0.908,0.242,1.274,0.6c0.378,0.344,0.682,0.792,0.992,1.171c0.075,0.095,0.153,0.188,0.229,0.252l0.056,0.051    c-0.022-0.012,0.042,0.023,0.059,0.033l0.167,0.093c0.219,0.1,0.396,0.165,0.634,0.222c0.448,0.108,0.889,0.183,1.267,0.212    c0.191,0.027,0.336-0.004,0.452-0.047c0.121-0.06,0.192-0.165,0.238-0.258c0.078-0.199,0.038-0.336,0.038-0.336    c-0.01,0,0.088,0.114,0.056,0.362c-0.027,0.117-0.083,0.269-0.229,0.387c-0.152,0.116-0.364,0.178-0.56,0.174    c-0.393,0.014-0.855,0.025-1.354-0.063c-0.234-0.038-0.541-0.115-0.778-0.23l-0.168-0.089c-0.039-0.022-0.034-0.013-0.107-0.062    l-0.09-0.074c-0.121-0.1-0.21-0.206-0.297-0.31c-0.331-0.425-0.603-0.839-0.914-1.175c-0.305-0.337-0.651-0.571-1-0.634    c-0.349-0.072-0.659-0.021-0.874,0.04C19.749,14.218,19.625,14.257,19.625,14.257z" fill="#1D1D1B"/></g><g><path d="M21.773,14.45c0,0-0.438,2.488,1.473,2.621c1.372,0.096,1.131-0.363,1.555-0.431" fill="#1D1D1B"/><path d="M21.773,14.45c0,0,0.021,0.33,0.102,0.788c0.083,0.45,0.27,1.053,0.694,1.354    c0.106,0.075,0.222,0.137,0.351,0.175c0.125,0.038,0.267,0.068,0.389,0.086c0.308,0.027,0.563,0.072,0.77,0.037    c0.212-0.018,0.358-0.115,0.494-0.2c0.14-0.072,0.232-0.037,0.228-0.049c0.004,0.007-0.085,0.027-0.169,0.127    c-0.076,0.085-0.209,0.313-0.478,0.393c-0.257,0.094-0.566,0.129-0.854,0.132c-0.173-0.008-0.343-0.012-0.518-0.064    c-0.176-0.046-0.345-0.125-0.504-0.232c-0.308-0.227-0.508-0.562-0.596-0.878c-0.096-0.317-0.093-0.619-0.086-0.867    C21.635,14.752,21.773,14.45,21.773,14.45z" fill="#1D1D1B"/></g><g><path d="M25.843,18.652c0,0-0.117,0.037-0.302,0.04c-0.091-0.007-0.203-0.005-0.324-0.063    c-0.058-0.03-0.127-0.07-0.174-0.156c-0.047-0.085-0.039-0.195-0.008-0.266c0.071-0.147,0.172-0.218,0.245-0.296    c0.077-0.078,0.164-0.137,0.23-0.194c0.144-0.106,0.25-0.167,0.25-0.167s-0.052,0.111-0.146,0.262    c-0.077,0.145-0.282,0.349-0.348,0.489c-0.033,0.063-0.022,0.08,0.055,0.138c0.073,0.045,0.165,0.09,0.245,0.115    C25.725,18.616,25.843,18.652,25.843,18.652z" fill="#1D1D1B"/></g><g><path d="M25.759,17.55c0,0-0.086,0.022-0.221,0.092c-0.133,0.065-0.316,0.186-0.51,0.349    c-0.096,0.084-0.199,0.175-0.309,0.271c-0.094,0.112-0.194,0.23-0.297,0.353c-0.23,0.222-0.375,0.543-0.572,0.819    c-0.191,0.282-0.32,0.605-0.474,0.888c-0.16,0.281-0.259,0.568-0.358,0.807c-0.202,0.479-0.351,0.798-0.351,0.798    s0.079-0.338,0.219-0.846c0.081-0.249,0.137-0.556,0.293-0.849c0.148-0.294,0.269-0.629,0.458-0.928    c0.214-0.283,0.374-0.604,0.623-0.833c0.117-0.119,0.229-0.233,0.336-0.342c0.125-0.089,0.242-0.174,0.351-0.252    c0.218-0.153,0.433-0.228,0.579-0.275C25.672,17.556,25.759,17.55,25.759,17.55z" fill="#1D1D1B"/></g><g><path d="M26.313,27.034c0,0,0.08-0.01,0.229-0.028c0.148-0.019,0.371-0.038,0.64-0.106    c0.544-0.102,1.301-0.366,2.156-0.776c0.857-0.408,1.805-0.996,2.717-1.743c0.445-0.382,0.901-0.789,1.275-1.271    c0.372-0.476,0.706-1.006,0.833-1.575l0.054-0.423l0.004-0.479c0.003-0.319,0.006-0.637,0.009-0.952    c0.006-0.63,0.011-1.251,0.017-1.851c0.008-1.201,0.056-2.321,0.076-3.282c0.061-1.921,0.141-3.202,0.141-3.202    s0.08,1.281,0.141,3.202c0.021,0.961,0.068,2.082,0.076,3.282c0.006,0.6,0.011,1.221,0.017,1.851    c0.003,0.315,0.006,0.633,0.009,0.952l0.004,0.479l-0.058,0.53c-0.169,0.688-0.554,1.256-0.96,1.762    c-0.411,0.509-0.895,0.924-1.365,1.314c-0.961,0.761-1.981,1.283-2.874,1.662c-0.897,0.378-1.694,0.553-2.258,0.616    c-0.281,0.048-0.501,0.034-0.651,0.038C26.393,27.034,26.313,27.034,26.313,27.034z" fill="#1D1D1B"/></g><g><path d="M32.968,14.257c0,0-0.124-0.039-0.341-0.106c-0.215-0.061-0.525-0.112-0.874-0.04    c-0.349,0.063-0.695,0.297-1,0.634c-0.311,0.336-0.583,0.75-0.914,1.175c-0.086,0.104-0.176,0.21-0.296,0.31l-0.09,0.074    c-0.074,0.049-0.069,0.04-0.107,0.062l-0.169,0.089c-0.238,0.115-0.545,0.193-0.778,0.23c-0.498,0.087-0.961,0.076-1.354,0.063    c-0.195,0.004-0.407-0.058-0.559-0.174c-0.146-0.118-0.202-0.271-0.229-0.387c-0.032-0.248,0.066-0.362,0.056-0.362    c0,0-0.041,0.137,0.038,0.336c0.046,0.094,0.117,0.199,0.238,0.258c0.116,0.043,0.261,0.074,0.452,0.047    c0.379-0.029,0.819-0.104,1.267-0.212c0.239-0.057,0.416-0.122,0.635-0.222l0.167-0.093c0.017-0.01,0.081-0.045,0.058-0.033    l0.057-0.051c0.076-0.064,0.154-0.158,0.229-0.252c0.31-0.38,0.613-0.827,0.992-1.171c0.365-0.358,0.853-0.578,1.273-0.6    c0.425-0.035,0.75,0.133,0.949,0.23C32.858,14.187,32.968,14.257,32.968,14.257z" fill="#1D1D1B"/></g><g><path d="M30.819,14.45c0,0,0.438,2.488-1.473,2.621c-1.372,0.096-1.131-0.363-1.555-0.431" fill="#1D1D1B"/><path d="M30.819,14.45c0,0,0.139,0.302,0.178,0.802c0.007,0.248,0.01,0.549-0.086,0.867    c-0.089,0.316-0.289,0.651-0.597,0.878c-0.159,0.107-0.328,0.186-0.505,0.232c-0.174,0.052-0.344,0.056-0.517,0.064    c-0.288-0.003-0.598-0.038-0.854-0.132c-0.269-0.08-0.401-0.308-0.478-0.393c-0.083-0.1-0.174-0.12-0.169-0.127    c-0.005,0.012,0.088-0.023,0.228,0.049c0.136,0.085,0.282,0.182,0.494,0.2c0.206,0.036,0.462-0.009,0.77-0.037    c0.122-0.019,0.265-0.048,0.389-0.086c0.129-0.038,0.245-0.1,0.351-0.175c0.425-0.3,0.612-0.903,0.694-1.354    C30.798,14.78,30.819,14.45,30.819,14.45z" fill="#1D1D1B"/></g><g><path d="M26.75,18.652c0,0,0.118-0.037,0.278-0.099c0.08-0.025,0.171-0.07,0.244-0.115    c0.077-0.058,0.089-0.075,0.055-0.138c-0.064-0.141-0.271-0.344-0.347-0.489c-0.094-0.151-0.146-0.262-0.146-0.262    s0.106,0.061,0.249,0.167c0.067,0.058,0.154,0.117,0.231,0.194c0.072,0.078,0.173,0.149,0.244,0.296    c0.031,0.071,0.039,0.181-0.008,0.266c-0.047,0.086-0.116,0.126-0.175,0.156c-0.12,0.057-0.232,0.055-0.323,0.063    C26.867,18.689,26.75,18.652,26.75,18.652z" fill="#1D1D1B"/></g><g><path d="M28.884,21.957c-0.296-0.075-0.599-0.116-0.889-0.166c-0.142,0-0.267-0.02-0.419,0.039    c-0.139,0.046-0.306,0.066-0.476,0.085h0.008c-0.542,0.015-1.083,0.016-1.624,0l0.008,0c-0.172-0.019-0.34-0.04-0.476-0.084    l-0.108-0.03c-0.039-0.014-0.043-0.015-0.096-0.012l-0.227,0.004c-0.277,0.05-0.581,0.09-0.877,0.165    c0.278-0.12,0.56-0.242,0.876-0.315l0.227-0.028c0.024-0.009,0.095-0.006,0.129,0.003l0.114,0.019    c0.159,0.029,0.292,0.043,0.422,0.057l0.008,0c0.542-0.016,1.083-0.015,1.624,0h0.008c0.132-0.014,0.267-0.028,0.422-0.056    c0.142-0.041,0.321-0.015,0.481,0.007C28.322,21.716,28.605,21.837,28.884,21.957z" fill="#1D1D1B"/></g><g><path d="M29.327,22.562c-0.368-0.096-0.743-0.158-1.108-0.223l-0.261-0.007c-0.084-0.017-0.177,0.036-0.269,0.051    c-0.177,0.052-0.381,0.078-0.589,0.101h0.008c-0.542,0.013-1.083,0.014-1.624,0l0.008,0c-0.21-0.022-0.416-0.05-0.588-0.1    l-0.136-0.036c-0.048-0.017-0.06-0.019-0.123-0.015l-0.284,0.007c-0.351,0.064-0.727,0.125-1.096,0.221    c0.349-0.147,0.704-0.289,1.095-0.377l0.283-0.033c0.033-0.011,0.114-0.007,0.158,0.005l0.142,0.024    c0.195,0.044,0.366,0.06,0.532,0.078l0.008,0c0.542-0.013,1.083-0.013,1.624,0h0.008c0.169-0.018,0.341-0.035,0.533-0.077    c0.094-0.007,0.183-0.051,0.29-0.029l0.305,0.033C28.622,22.274,28.978,22.414,29.327,22.562z" fill="#1D1D1B"/></g><g><path d="M26.834,17.55c0,0,0.086,0.006,0.234,0.052c0.146,0.047,0.361,0.122,0.579,0.275    c0.108,0.078,0.226,0.163,0.35,0.252c0.107,0.109,0.22,0.224,0.337,0.342c0.25,0.229,0.408,0.55,0.623,0.833    c0.189,0.299,0.31,0.634,0.458,0.928c0.155,0.292,0.212,0.6,0.293,0.849c0.141,0.507,0.219,0.846,0.219,0.846    s-0.149-0.319-0.351-0.798c-0.1-0.239-0.199-0.526-0.358-0.807c-0.154-0.282-0.283-0.605-0.475-0.888    c-0.196-0.276-0.342-0.598-0.572-0.819c-0.103-0.122-0.202-0.24-0.297-0.353c-0.109-0.096-0.213-0.188-0.309-0.271    c-0.194-0.163-0.377-0.284-0.511-0.349C26.92,17.572,26.834,17.55,26.834,17.55z" fill="#1D1D1B"/></g><g><path d="M25.956,4.874l-0.959,0.067c-0.319,0.031-0.642,0.027-0.957,0.085l-0.939,0.199l-0.469,0.1l-0.448,0.17    c-0.297,0.117-0.601,0.22-0.893,0.348l-0.826,0.483c-0.291,0.14-0.504,0.389-0.757,0.58l-0.364,0.309l-0.311,0.362    c-0.206,0.242-0.428,0.473-0.579,0.756c-0.156,0.277-0.357,0.528-0.469,0.828c-0.12,0.294-0.28,0.571-0.367,0.877    c-0.088,0.305-0.21,0.6-0.27,0.912c-0.059,0.312-0.152,0.616-0.181,0.933c-0.042,0.314-0.09,0.627-0.101,0.945    c-0.047,0.629-0.039,1.273,0.03,1.887l-0.329-0.077c0.697-1.101,1.419-2.184,2.174-3.252c0.177-0.271,0.415-0.524,0.621-0.787    l0.322-0.391l0.04-0.049c0.019-0.017-0.012,0.002,0.046-0.044l0.024-0.019l0.097-0.075c0.039-0.031,0.166-0.082,0.252-0.096    c0.098-0.012,0.286,0.05,0.329,0.122c0.232,0.317,0.168,0.483,0.192,0.668c0.002,0.181-0.01,0.351-0.026,0.521    c-0.036,0.338-0.086,0.663-0.154,0.995l-0.565-0.255c0.199-0.248,0.415-0.45,0.636-0.623c0.225-0.168,0.448-0.338,0.683-0.48    c0.462-0.304,0.943-0.56,1.432-0.809c0.247-0.12,0.496-0.237,0.755-0.342l0.048-0.02l0.024-0.01l0.012-0.005l0.086-0.022    l0.099-0.017c0.075-0.007,0.228,0.021,0.32,0.074c0.075,0.047,0.115,0.094,0.167,0.148c0.143,0.197,0.184,0.366,0.216,0.516    c0.114,0.608,0.089,1.141,0.056,1.707l-0.6-0.301c0.438-0.381,0.862-0.775,1.311-1.147l1.367-1.091l0.342-0.272l0.172-0.136    c0.13-0.097,0.145-0.087,0.222-0.136c0.033-0.031,0.216-0.085,0.331-0.105c0.126-0.017,0.253,0.004,0.367,0.032    c0.225,0.082,0.397,0.223,0.506,0.364c0.231,0.286,0.353,0.58,0.46,0.872c0.103,0.295,0.179,0.58,0.236,0.892l-0.669-0.014    c0.116-0.49,0.234-0.97,0.378-1.453l0.218-0.724l0.301-0.736l0.009-0.023l0.005-0.011l0.003-0.006l0.001-0.003l0.046-0.064    c0.031-0.022-0.037,0.009,0.118-0.094c0.277-0.098,0.3-0.005,0.379,0.006c0.111,0.058,0.17,0.111,0.225,0.162    c0.11,0.102,0.196,0.2,0.28,0.302c0.165,0.202,0.313,0.406,0.458,0.612c0.288,0.413,0.558,0.829,0.821,1.255l-0.505,0.167    c-0.01-0.332,0.031-0.63,0.136-0.941c0.04-0.155,0.131-0.301,0.213-0.446c0.109-0.128,0.217-0.278,0.371-0.361l0.232-0.125    l0.029-0.015l0.015-0.007L32.5,8.529h0.004l0.007,0l0.053-0.002l0.106-0.004c0.108,0.022,0.238,0.07,0.34,0.127l0.191,0.164    c0.226,0.228,0.396,0.473,0.549,0.723c0.601,1.005,1.032,2.062,1.439,3.135l-0.296,0.032c0.126-1.102,0.001-2.273-0.403-3.329    c-0.113-0.26-0.197-0.534-0.354-0.773c-0.146-0.244-0.266-0.505-0.456-0.719c-0.184-0.216-0.332-0.467-0.557-0.646    c-0.215-0.187-0.409-0.399-0.64-0.567l-0.714-0.475c-0.243-0.15-0.515-0.25-0.771-0.376c-0.256-0.131-0.521-0.24-0.8-0.309    l-0.824-0.249c-0.277-0.072-0.564-0.102-0.847-0.155c-0.283-0.044-0.565-0.103-0.851-0.136L25.956,4.874z M25.956,4.874    l1.725,0.071c0.286,0.029,0.569,0.083,0.854,0.124c0.284,0.049,0.572,0.076,0.853,0.144l0.831,0.239    c0.282,0.066,0.55,0.172,0.811,0.3c0.26,0.125,0.535,0.221,0.783,0.37l0.729,0.472c0.236,0.166,0.438,0.379,0.658,0.566    c0.231,0.179,0.383,0.434,0.579,0.648c0.202,0.212,0.334,0.474,0.492,0.718c0.168,0.24,0.265,0.517,0.391,0.781    c0.133,0.261,0.189,0.55,0.288,0.825c0.074,0.282,0.136,0.569,0.184,0.856c0.088,0.581,0.117,1.161,0.064,1.76l-0.055,0.608    l-0.241-0.576c-0.436-1.039-0.91-2.083-1.513-3.013c-0.15-0.23-0.319-0.448-0.5-0.618l-0.136-0.11    c-0.027,0-0.027-0.016-0.051-0.044l-0.106,0.008l-0.053,0.004l-0.007,0l-0.004,0h-0.001c-0.016,0.003,0.123-0.026,0.064-0.014    L32.588,9L32.57,9.011l-0.14,0.084c-0.359,0.238-0.472,0.824-0.448,1.306l0.051,1l-0.556-0.833    c-0.271-0.404-0.553-0.808-0.845-1.195c-0.146-0.193-0.296-0.384-0.45-0.559c-0.077-0.086-0.155-0.172-0.228-0.237    C29.92,8.543,29.882,8.52,29.882,8.52c0.025-0.012-0.017,0.052,0.202-0.021c0.122-0.1,0.04-0.036,0.05-0.037l-0.001,0.001    c0.019-0.027-0.045,0.063,0.043-0.061l-0.001,0.003L30.173,8.41l-0.004,0.01L30.161,8.44l-0.248,0.64l-0.199,0.698    c-0.132,0.465-0.243,0.947-0.349,1.419l-0.343,1.537l-0.326-1.551c-0.107-0.508-0.286-1.088-0.563-1.425    c-0.065-0.09-0.138-0.12-0.181-0.142c-0.022,0-0.045-0.006-0.059-0.003c-0.021,0.023,0.008-0.034-0.078,0.025    c-0.044,0.028-0.168,0.09-0.146,0.09l-0.165,0.135l-0.332,0.271l-1.328,1.08c-0.445,0.358-0.872,0.744-1.309,1.114l-0.669,0.567    l0.069-0.868c0.04-0.5,0.059-1.049-0.022-1.497c-0.016-0.112-0.062-0.205-0.072-0.225c0.003,0.009,0.001,0,0.021,0.012    c0.029,0.033,0.119,0.029,0.13,0.013l-0.099,0.016l-0.006,0.001l-0.003,0c-0.017,0.004,0.139-0.036,0.073-0.019l-0.001,0    l-0.011,0.004l-0.022,0.009l-0.044,0.018c-0.238,0.093-0.476,0.2-0.712,0.312c-0.469,0.23-0.938,0.472-1.376,0.752    c-0.225,0.132-0.431,0.286-0.637,0.435c-0.205,0.155-0.378,0.319-0.521,0.487l-0.863,1.015l0.298-1.271    c0.071-0.302,0.133-0.618,0.175-0.925c0.021-0.153,0.037-0.308,0.04-0.451c0.021-0.131-0.043-0.319-0.006-0.265    c0.002,0.001,0.086,0.06,0.115,0.035c0.012,0.016,0.054-0.024,0.026-0.011l-0.099,0.071l-0.024,0.018    c0.042-0.035,0,0.003,0.005,0.001l-0.039,0.044l-0.308,0.353c-0.202,0.243-0.423,0.455-0.611,0.722    c-0.781,1.027-1.539,2.081-2.271,3.151l-0.291,0.425l-0.039-0.502c-0.05-0.662-0.034-1.307,0.037-1.955    c0.023-0.324,0.083-0.643,0.137-0.963c0.042-0.322,0.147-0.632,0.219-0.947c0.072-0.316,0.208-0.614,0.309-0.921    c0.099-0.309,0.273-0.588,0.405-0.882c0.125-0.3,0.339-0.551,0.507-0.826c0.163-0.281,0.387-0.516,0.601-0.758l0.321-0.363    l0.373-0.309c0.259-0.191,0.479-0.439,0.774-0.576l0.841-0.477c0.295-0.125,0.603-0.225,0.903-0.338l0.453-0.165l0.473-0.094    L24.038,5c0.316-0.054,0.639-0.046,0.958-0.072L25.956,4.874z" fill="#1D1D1B"/></g><g><g><path d="M4.826,27.177c0,0,0.188-0.181,0.518-0.498c0.167-0.156,0.369-0.346,0.601-0.563     c0.23-0.22,0.552-0.398,0.879-0.623c0.331-0.223,0.693-0.464,1.109-0.645c0.411-0.19,0.828-0.44,1.307-0.577     c0.93-0.347,1.958-0.608,3.005-0.778c0.267-0.025,0.523-0.063,0.799-0.076c0.224-0.021,0.413-0.104,0.643-0.208     c0.433-0.211,0.833-0.498,1.189-0.813c0.379-0.286,0.67-0.659,0.994-0.958c0.311-0.314,0.55-0.663,0.801-0.958     c0.509-0.588,0.838-1.153,1.112-1.518c0.267-0.371,0.42-0.583,0.42-0.583s-0.123,0.23-0.336,0.634     c-0.241,0.387-0.487,1.007-0.968,1.634c-0.235,0.316-0.455,0.687-0.753,1.03c-0.313,0.331-0.582,0.736-0.984,1.045     c-0.369,0.34-0.787,0.657-1.271,0.907c-0.231,0.116-0.525,0.243-0.821,0.27c-0.244,0.015-0.503,0.061-0.755,0.088     c-1.014,0.142-2.021,0.374-2.93,0.691c-0.465,0.13-0.883,0.337-1.295,0.497c-0.421,0.15-0.778,0.358-1.11,0.551     c-0.327,0.201-0.66,0.336-0.913,0.53c-0.254,0.191-0.476,0.358-0.658,0.496C5.037,27.022,4.826,27.177,4.826,27.177z" fill="#1D1D1B"/></g><g><path d="M6.238,26.008c0,0-0.076,0.021-0.208,0.044c-0.13,0.024-0.317,0.059-0.541,0.101     C5.051,26.221,4.465,26.31,3.88,26.4c-0.292,0.037-0.591,0.045-0.859,0.106c-0.271,0.052-0.531,0.072-0.753,0.104     c-0.447,0.048-0.764,0.043-0.764,0.043s0.266-0.148,0.692-0.315c0.215-0.076,0.464-0.181,0.739-0.264     c0.271-0.105,0.577-0.122,0.878-0.17c0.303-0.032,0.606-0.065,0.891-0.078c0.287-0.001,0.556,0.035,0.784,0.047     C5.944,25.907,6.238,26.008,6.238,26.008z" fill="#1D1D1B"/></g><g><path d="M21.182,41.198c0,0-0.026,0.117-0.118,0.309c-0.083,0.197-0.235,0.459-0.438,0.765     c-0.117,0.141-0.243,0.292-0.377,0.453c-0.129,0.168-0.282,0.329-0.463,0.47c-0.175,0.148-0.356,0.301-0.541,0.457     c-0.2,0.133-0.412,0.254-0.62,0.383c-0.215,0.115-0.417,0.259-0.64,0.347c-0.224,0.084-0.445,0.167-0.658,0.247     c-0.212,0.082-0.422,0.148-0.619,0.213c-0.205,0.038-0.398,0.074-0.576,0.107c-0.716,0.118-1.19,0.154-1.19,0.154     s0.448-0.195,1.114-0.426c0.167-0.056,0.347-0.117,0.538-0.182c0.181-0.091,0.37-0.188,0.569-0.275     c0.199-0.089,0.404-0.181,0.612-0.273c0.211-0.088,0.396-0.231,0.598-0.344c0.199-0.116,0.404-0.226,0.596-0.347     c0.182-0.136,0.361-0.269,0.534-0.398c0.367-0.238,0.639-0.54,0.908-0.767c0.226-0.263,0.454-0.461,0.568-0.632     C21.114,41.3,21.182,41.198,21.182,41.198z" fill="#1D1D1B"/></g></g><g><path d="M17.871,15.405c0,0-0.057,0.015-0.155,0.029c-0.104,0.005-0.226,0.054-0.333,0.122    c-0.122,0.057-0.169,0.192-0.212,0.341c-0.034,0.157-0.052,0.35-0.041,0.551c0.004,0.094-0.003,0.218,0.007,0.287    c0.018,0.106,0.02,0.213,0.03,0.315c0.035,0.16,0.055,0.323,0.127,0.452c0.043,0.05,0.064,0.125,0.107,0.164    c0.038,0.048,0.077,0.087,0.115,0.111c0.073,0.058,0.129,0.08,0.129,0.08c0.015,0-0.262,0.088-0.57-0.177    c-0.133-0.131-0.265-0.321-0.343-0.556c-0.023-0.1-0.055-0.202-0.072-0.308c-0.025-0.143-0.02-0.24-0.031-0.363    c0-0.234,0.025-0.484,0.13-0.712c0.099-0.229,0.32-0.416,0.522-0.446c0.196-0.053,0.365,0.012,0.445,0.043    C17.82,15.376,17.871,15.405,17.871,15.405z" fill="#1D1D1B"/></g><g><g><path d="M47.993,27.354c0,0-0.211-0.154-0.58-0.424c-0.183-0.137-0.404-0.304-0.658-0.496     c-0.254-0.193-0.586-0.329-0.913-0.53c-0.332-0.193-0.689-0.4-1.11-0.551c-0.412-0.16-0.83-0.367-1.295-0.497     c-0.909-0.317-1.916-0.549-2.931-0.691c-0.251-0.027-0.511-0.072-0.754-0.088c-0.297-0.027-0.59-0.154-0.821-0.27     c-0.485-0.25-0.903-0.567-1.271-0.907c-0.402-0.309-0.672-0.715-0.984-1.045c-0.298-0.344-0.518-0.714-0.752-1.03     c-0.481-0.627-0.728-1.247-0.968-1.634c-0.215-0.404-0.337-0.634-0.337-0.634s0.152,0.212,0.42,0.584     c0.274,0.364,0.603,0.929,1.111,1.518c0.251,0.295,0.49,0.645,0.801,0.958c0.323,0.299,0.614,0.671,0.993,0.958     c0.356,0.315,0.757,0.602,1.189,0.813c0.229,0.104,0.418,0.188,0.644,0.208c0.274,0.012,0.531,0.05,0.798,0.076     c1.047,0.169,2.076,0.431,3.006,0.777c0.479,0.137,0.896,0.387,1.307,0.577c0.416,0.181,0.777,0.422,1.108,0.645     c0.327,0.225,0.649,0.403,0.879,0.623c0.232,0.218,0.435,0.407,0.602,0.563C47.805,27.172,47.993,27.354,47.993,27.354z" fill="#1D1D1B"/></g><g><path d="M46.581,26.185c0,0,0.294-0.101,0.75-0.135c0.228-0.012,0.496-0.048,0.783-0.047     c0.285,0.013,0.588,0.046,0.892,0.078c0.301,0.048,0.606,0.065,0.878,0.17c0.275,0.083,0.524,0.188,0.739,0.264     c0.427,0.167,0.692,0.315,0.692,0.315s-0.317,0.005-0.764-0.043c-0.222-0.032-0.482-0.052-0.753-0.104     c-0.269-0.062-0.567-0.07-0.859-0.106c-0.585-0.09-1.171-0.179-1.609-0.247c-0.225-0.042-0.411-0.077-0.542-0.101     C46.656,26.205,46.581,26.185,46.581,26.185z" fill="#1D1D1B"/></g><g><path d="M31.638,41.375c0,0,0.067,0.102,0.202,0.261c0.114,0.171,0.342,0.369,0.567,0.632     c0.27,0.227,0.542,0.528,0.908,0.767c0.174,0.13,0.353,0.263,0.535,0.398c0.191,0.121,0.396,0.23,0.596,0.347     c0.201,0.112,0.387,0.256,0.598,0.344c0.208,0.093,0.414,0.185,0.612,0.273c0.2,0.088,0.389,0.185,0.569,0.275     c0.19,0.064,0.371,0.126,0.537,0.182c0.667,0.23,1.114,0.426,1.114,0.426s-0.475-0.036-1.19-0.154     c-0.179-0.033-0.372-0.069-0.576-0.107c-0.197-0.064-0.406-0.131-0.619-0.213c-0.214-0.08-0.435-0.163-0.658-0.247     c-0.223-0.088-0.425-0.231-0.64-0.347c-0.208-0.129-0.42-0.25-0.62-0.383c-0.184-0.156-0.364-0.309-0.54-0.457     c-0.182-0.141-0.333-0.302-0.463-0.47c-0.134-0.161-0.26-0.313-0.377-0.453c-0.203-0.306-0.354-0.567-0.438-0.765     C31.664,41.492,31.638,41.375,31.638,41.375z" fill="#1D1D1B"/></g></g><g><path d="M50.833,26c0,0-0.029,0.615-0.084,1.767c0,0.579-0.1,1.283-0.233,2.11c-0.068,0.412-0.113,0.861-0.215,1.33    c-0.117,0.465-0.243,0.959-0.376,1.481c-0.58,2.064-1.486,4.563-3.161,7.068c-1.643,2.508-3.957,5.079-7.033,7.154    c-3.075,2.056-6.896,3.589-11.12,4.106c-0.524,0.085-1.063,0.073-1.599,0.114c-0.54,0.012-1.074,0.095-1.628,0.05    c-1.083-0.065-2.182-0.053-3.288-0.267c-2.229-0.262-4.419-0.965-6.558-1.858c-2.138-0.916-4.13-2.219-5.997-3.708    c-1.834-1.539-3.447-3.367-4.839-5.373c-1.354-2.037-2.392-4.289-3.156-6.641c-0.717-2.378-1.047-4.838-1.112-7.348    c0.061-2.443,0.394-4.958,1.111-7.322c0.763-2.352,1.802-4.604,3.156-6.641c1.392-2.006,3.004-3.834,4.839-5.374    c1.867-1.49,3.858-2.792,5.997-3.708c4.253-1.866,8.865-2.444,13.067-1.961C32.84,1.5,36.653,3.033,39.731,5.088    c3.075,2.076,5.39,4.647,7.032,7.154c1.675,2.506,2.581,5.004,3.162,7.069c0.132,0.522,0.258,1.017,0.375,1.481    c0.102,0.468,0.146,0.918,0.215,1.33c0.134,0.827,0.233,1.531,0.233,2.11C50.804,25.385,50.833,26,50.833,26z M50.833,26    c0,0-0.033-0.614-0.095-1.766c-0.005-0.579-0.108-1.282-0.247-2.107c-0.071-0.412-0.118-0.86-0.223-1.327    c-0.121-0.463-0.249-0.956-0.385-1.477c-0.593-2.057-1.513-4.543-3.197-7.03c-1.652-2.487-3.973-5.032-7.043-7.075    c-3.066-2.023-6.877-3.52-11.054-4.005c-4.188-0.454-8.731,0.15-12.923,2.019c-2.105,0.917-4.062,2.217-5.893,3.696    c-1.799,1.529-3.375,3.34-4.732,5.322c-1.319,2.013-2.325,4.233-3.061,6.547c-0.69,2.343-0.993,4.738-1.048,7.216    c0.051,2.411,0.357,4.862,1.046,7.191c0.735,2.313,1.741,4.534,3.061,6.547c1.357,1.981,2.933,3.793,4.732,5.322    c1.831,1.479,3.788,2.778,5.893,3.695c2.102,0.895,4.273,1.606,6.461,1.876c1.08,0.219,2.188,0.214,3.269,0.285    c0.53,0.049,1.073-0.03,1.604-0.039c0.531-0.037,1.064-0.022,1.585-0.103c4.188-0.487,7.99-1.982,11.06-4.006    c3.069-2.044,5.39-4.588,7.042-7.076c1.685-2.485,2.605-4.972,3.197-7.029c0.136-0.521,0.264-1.013,0.385-1.477    c0.104-0.467,0.151-0.915,0.223-1.327c0.139-0.824,0.242-1.528,0.247-2.106C50.8,26.614,50.833,26,50.833,26z"/></g></g></svg>