<?xml version="1.0" ?><!DOCTYPE svg  PUBLIC '-//W3C//DTD SVG 1.1//EN'  'http://www.w3.org/Graphics/SVG/1.1/DTD/svg11.dtd'><svg enable-background="new 0 0 52 52" height="52px" id="Слой_1" version="1.1" viewBox="0 0 52 52" width="52px" xml:space="preserve" xmlns="http://www.w3.org/2000/svg" xmlns:xlink="http://www.w3.org/1999/xlink"><g><g><path d="M18.335,24.476" fill="#FFFFFF"/></g><g><path d="M19.009,26.79" fill="#FFFFFF"/></g><g><path d="M19.651,26" fill="#FFFFFF"/></g><g><path d="M33.708,16.927l-0.191,0.525c-0.066,0.174-0.19,0.32-0.284,0.481c-0.089,0.167-0.225,0.296-0.354,0.432    c-0.132,0.132-0.246,0.284-0.404,0.386c-0.293,0.234-0.595,0.455-0.933,0.62c-0.318,0.2-0.676,0.318-1.021,0.461    c-0.345,0.147-0.717,0.211-1.073,0.325c-0.362,0.094-0.735,0.143-1.103,0.216c-0.379,0.034-0.59,0.33-0.85,0.604    c-0.126,0.139-0.258,0.276-0.407,0.403c-0.154,0.111-0.354,0.249-0.592,0.187c-0.435-0.15-0.617-0.522-0.871-0.774    c-0.119-0.123-0.256-0.275-0.372-0.294c-0.154-0.043-0.361-0.056-0.539-0.085c-0.37-0.05-0.738-0.093-1.109-0.199    c-0.371-0.088-0.744-0.175-1.096-0.32c-0.362-0.118-0.713-0.265-1.05-0.45c-0.353-0.152-0.66-0.39-0.979-0.606    c-0.298-0.242-0.602-0.494-0.843-0.806c-0.115-0.162-0.25-0.308-0.346-0.483l-0.254-0.553l-0.014-0.03l0.003-0.039l0.136-1.451    c0.12-0.469,0.271-0.934,0.418-1.396c0.211-0.436,0.462-0.855,0.693-1.282c0.296-0.383,0.618-0.749,0.927-1.122l1.125-0.919    c0.427-0.229,0.854-0.461,1.286-0.674l1.391-0.402l1.438-0.119c0.485,0.013,0.944,0.065,1.426,0.173    c0.467,0.114,0.919,0.269,1.353,0.469c0.864,0.403,1.642,0.975,2.296,1.657c0.657,0.679,1.203,1.466,1.587,2.328    c0.192,0.431,0.34,0.88,0.448,1.338C33.652,15.987,33.699,16.456,33.708,16.927z M33.708,16.927    c-0.016-0.471-0.068-0.938-0.177-1.396c-0.115-0.456-0.269-0.9-0.466-1.326c-0.396-0.85-0.943-1.628-1.611-2.284    c-0.671-0.651-1.456-1.183-2.312-1.543c-0.429-0.179-0.874-0.313-1.324-0.406c-0.44-0.084-0.92-0.122-1.375-0.116l-1.37,0.164    l-1.305,0.43l-1.198,0.666l-1.046,0.88c-0.283,0.357-0.581,0.703-0.854,1.064c-0.208,0.404-0.438,0.798-0.631,1.208    c-0.123,0.438-0.28,0.865-0.398,1.302l-0.147,1.357l-0.011-0.069l0.208,0.466c0.078,0.151,0.201,0.284,0.298,0.427    c0.208,0.28,0.486,0.517,0.757,0.745c0.295,0.207,0.58,0.428,0.908,0.587c0.312,0.188,0.642,0.34,0.986,0.466    c0.334,0.153,0.686,0.247,1.037,0.345c0.344,0.115,0.715,0.173,1.083,0.236c0.188,0.039,0.358,0.051,0.561,0.111    c0.252,0.08,0.355,0.252,0.491,0.391c0.245,0.281,0.448,0.636,0.732,0.736c0.282,0.076,0.583-0.258,0.832-0.503    c0.242-0.249,0.548-0.599,0.954-0.614c0.365-0.06,0.737-0.093,1.1-0.174c0.355-0.101,0.726-0.164,1.07-0.304    c0.345-0.137,0.701-0.25,1.021-0.444c0.338-0.159,0.641-0.374,0.935-0.602c0.159-0.1,0.274-0.249,0.407-0.378    c0.13-0.133,0.268-0.26,0.358-0.424c0.094-0.159,0.221-0.302,0.289-0.475L33.708,16.927z" fill="#1D1D1B"/></g><g><g><path d="M19.013,26.794l-0.467-0.701l-0.002-0.003l-0.002-0.007c-0.223-0.691-0.318-1.41-0.394-2.121     c-0.078-0.71-0.136-1.423-0.25-2.115c-0.037-0.353-0.12-0.684-0.199-1.016c-0.054-0.154-0.127-0.292-0.186-0.44     c-0.051-0.076-0.219-0.28-0.329-0.331c-0.221-0.172-0.566-0.348-0.868-0.499l-0.962-0.458c-0.163-0.085-0.324-0.158-0.491-0.26     c-0.176-0.098-0.334-0.228-0.459-0.335c-0.276-0.212-0.546-0.5-0.795-0.764c-0.244-0.272-0.475-0.555-0.686-0.853     c-0.212-0.296-0.406-0.606-0.57-0.935c-0.17-0.323-0.317-0.663-0.412-1.026c-0.092-0.377-0.131-0.705-0.178-1.072     c-0.019-0.18-0.035-0.359-0.039-0.542c0.019-0.184-0.052-0.365,0.13-0.575c0.18-0.054,0.227,0.076,0.295,0.128     c0.06,0.072,0.112,0.146,0.16,0.222c0.096,0.153,0.177,0.313,0.258,0.472c-0.102-0.146-0.204-0.294-0.317-0.43     c-0.092-0.121-0.272-0.31-0.33-0.284c-0.087,0.221,0.014,0.652,0.074,0.973c0.075,0.335,0.139,0.716,0.24,1.025     c0.105,0.32,0.262,0.633,0.443,0.929c0.169,0.302,0.386,0.581,0.589,0.862c0.208,0.281,0.434,0.546,0.671,0.801     c0.247,0.247,0.466,0.483,0.76,0.702c0.148,0.122,0.268,0.215,0.408,0.287c0.139,0.082,0.305,0.154,0.459,0.231     c0.323,0.146,0.646,0.3,0.968,0.467c0.329,0.178,0.631,0.32,0.968,0.594c0.188,0.143,0.254,0.226,0.401,0.437     c0.075,0.182,0.163,0.366,0.221,0.548c0.081,0.364,0.161,0.727,0.191,1.086c0.074,0.722,0.088,1.436,0.123,2.148     c0.022,0.354,0.031,0.711,0.062,1.063c0.015,0.357,0.077,0.7,0.141,1.049l-0.004-0.01L19.013,26.794z" fill="#1D1D1B"/></g><g><path d="M14.464,14.002L13.437,12.5c-0.362-0.487-0.572-1.074-0.868-1.613c-0.146-0.272-0.201-0.579-0.301-0.87     c-0.091-0.294-0.183-0.589-0.223-0.892c-0.05-0.305-0.118-0.591-0.153-0.912c-0.016-0.328-0.008-0.624,0.021-0.941     c0.022-0.163,0.02-0.302,0.116-0.511c0.047-0.065,0.134-0.191,0.324-0.114c0.103,0.06,0.105,0.101,0.154,0.157     c0.035,0.078,0.083,0.164,0.104,0.237c0.056,0.152,0.098,0.303,0.138,0.452c0.028,0.114,0.1,0.276,0.147,0.412l0.161,0.425     l0.212,0.378c0.134,0.251,0.28,0.501,0.463,0.741c0.332,0.492,0.717,0.953,1.115,1.399c0.395,0.449,0.824,0.876,1.255,1.281     l-0.39,0.23l-0.229-0.941l-0.146-0.604l0.518,0.347l1.078,0.723l-0.058-0.029c0.337,0.131,0.658,0.312,0.919,0.553     c0.267,0.235,0.494,0.507,0.676,0.8c0.193,0.287,0.344,0.596,0.475,0.908c0.137,0.311,0.241,0.631,0.34,0.952     c0.373,1.289,0.543,2.612,0.624,3.931c0.134,2.642-0.007,5.28-0.373,7.887l-0.001-0.014c0.023,0.114,0.047,0.228,0.057,0.346     c0.003,0.059,0.012,0.117-0.012,0.185c-0.066,0.091-0.146-0.006-0.177-0.032c-0.158-0.176-0.271-0.377-0.391-0.575     c0.129,0.19,0.257,0.387,0.418,0.546c0.039,0.036,0.097,0.074,0.104,0.041c0.013-0.043,0.005-0.104-0.002-0.158     c-0.016-0.111-0.046-0.223-0.075-0.333l-0.002-0.006l0.001-0.008c0.112-1.307,0.142-2.62,0.17-3.929     c0.018-1.31-0.013-2.62-0.127-3.919c-0.108-1.297-0.281-2.596-0.655-3.828c-0.098-0.305-0.2-0.61-0.332-0.898     c-0.125-0.291-0.269-0.575-0.445-0.83c-0.166-0.264-0.369-0.498-0.596-0.694c-0.223-0.205-0.489-0.338-0.759-0.453l-0.042-0.018     l-0.017-0.012l-1.07-0.734l0.371-0.256l0.219,0.943l0.179,0.774l-0.569-0.544c-0.449-0.429-0.875-0.864-1.277-1.33     c-0.403-0.462-0.793-0.938-1.134-1.455c-0.183-0.246-0.342-0.52-0.489-0.806c-0.074-0.141-0.157-0.28-0.221-0.422l-0.147-0.43     c-0.047-0.152-0.101-0.268-0.144-0.45c-0.033-0.145-0.069-0.288-0.113-0.422c-0.019-0.073-0.049-0.12-0.071-0.182     c-0.001,0.001-0.033-0.038,0.006-0.011c0.111,0.031,0.142-0.025,0.145-0.031c-0.036,0.066-0.068,0.235-0.085,0.372     c-0.036,0.285-0.053,0.597-0.049,0.875c0.021,0.282,0.081,0.591,0.12,0.886c0.031,0.302,0.111,0.589,0.19,0.877     c0.089,0.284,0.119,0.59,0.248,0.86c0.258,0.538,0.427,1.124,0.762,1.634L14.464,14.002z" fill="#1D1D1B"/></g><g><path d="M12.451,10.182c0,0-0.067-0.097-0.184-0.265c-0.055-0.086-0.129-0.184-0.212-0.292     c-0.044-0.042-0.094-0.118-0.139-0.137l-0.03-0.023c0,0.01,0.031,0.021,0.044,0.005c0.013,0,0.035-0.002,0.037-0.019     l-0.003,0.034c-0.013,0.124,0.01,0.321,0.039,0.508c0.035,0.193,0.071,0.396,0.108,0.607c0.041,0.209,0.08,0.452,0.098,0.671     c0.027,0.223,0.04,0.467,0.08,0.68c0.045,0.21,0.048,0.431,0.122,0.632c0.093,0.196,0.171,0.396,0.254,0.587     c0.139,0.39,0.371,0.742,0.518,1.051c0.315,0.619,0.493,1.057,0.493,1.057s-0.313-0.349-0.734-0.912     c-0.191-0.297-0.484-0.582-0.673-1.003c-0.102-0.203-0.208-0.413-0.315-0.627c-0.087-0.222-0.105-0.478-0.159-0.718     c-0.039-0.244-0.042-0.466-0.064-0.697c-0.019-0.236-0.024-0.44-0.054-0.661c-0.025-0.219-0.034-0.433-0.035-0.639     c0.003-0.209-0.005-0.394,0.052-0.611c0.012-0.031,0.015-0.053,0.035-0.088c0.032-0.043,0.078-0.09,0.125-0.104     c0.053-0.007,0.126,0.007,0.164,0.029l0.058,0.059c0.08,0.082,0.092,0.149,0.136,0.217c0.06,0.135,0.11,0.252,0.143,0.348     C12.416,10.07,12.451,10.182,12.451,10.182z" fill="#1D1D1B"/></g></g><g><path d="M24.182,22.096c-0.057,0.147-0.134,0.276-0.257,0.402c-0.121,0.112-0.26,0.213-0.423,0.271    c-0.323,0.112-0.708,0.096-1.031-0.072l-0.209-0.138c-0.07-0.062-0.143-0.136-0.211-0.208c-0.114-0.148-0.193-0.315-0.248-0.493    c-0.043-0.181-0.06-0.367-0.033-0.552c0.032-0.185,0.098-0.357,0.188-0.519l0.301,0.344c0.104-0.034,0.121-0.155,0.116-0.189    c-0.02-0.062-0.004-0.028-0.016-0.042c0.017,0.017,0.028,0.041,0.065,0.069c0.057,0.055,0.141,0.108,0.215,0.163l0.251,0.144    l0.263,0.154C23.506,21.63,23.85,21.852,24.182,22.096z M24.182,22.096c-0.402-0.103-0.794-0.227-1.175-0.372l-0.288-0.105    l-0.144-0.053c-0.054-0.02-0.082-0.029-0.155-0.063c-0.095-0.057-0.189-0.103-0.288-0.18c-0.047-0.03-0.102-0.084-0.154-0.141    c-0.031-0.06-0.06-0.063-0.08-0.178c-0.022-0.084,0.026-0.258,0.172-0.317l0.588-0.237l-0.287,0.581    c-0.055,0.111-0.094,0.224-0.113,0.344c-0.008,0.121-0.006,0.24,0.018,0.36c0.032,0.118,0.085,0.227,0.149,0.33l0.101,0.129    l0.162,0.132c0.109,0.063,0.219,0.125,0.347,0.16c0.128,0.028,0.26,0.034,0.397,0.018c0.132-0.03,0.269-0.061,0.398-0.128    C23.95,22.309,24.071,22.207,24.182,22.096z" fill="#1D1D1B"/></g><g><path d="M26.914,28.143c-0.525,0.094-1.05,0.11-1.575,0.122h0.009c-0.17-0.007-0.335-0.041-0.466-0.076    l-0.105-0.025c-0.051-0.013-0.048-0.013-0.089-0.009c-0.074,0.003-0.147,0.009-0.22,0.006c-0.263,0.039-0.555,0.084-0.851,0.133    c0.262-0.141,0.537-0.253,0.85-0.333c0.074-0.013,0.147-0.017,0.22-0.024c0.033-0.008,0.108-0.003,0.128,0.006l0.111,0.021    c0.155,0.036,0.282,0.035,0.404,0.059h0.009C25.864,28.032,26.389,28.049,26.914,28.143z" fill="#1D1D1B"/></g><g><path d="M26.514,28.694c0,0-0.211,0.036-0.528,0.07c-0.159,0.01-0.343,0.033-0.542,0.038    c-0.098,0.008-0.217-0.008-0.313-0.017c-0.104-0.005-0.209-0.026-0.316-0.047c-0.097-0.016-0.232-0.074-0.294-0.054    c-0.103,0.005-0.205,0.011-0.303,0.016c-0.181,0.043-0.354,0.053-0.508,0.088c-0.312,0.056-0.524,0.089-0.524,0.089    s0.188-0.103,0.485-0.224c0.149-0.056,0.34-0.118,0.543-0.17c0.099-0.011,0.202-0.021,0.305-0.032    c0.147-0.019,0.214,0.027,0.325,0.039c0.1,0.025,0.2,0.052,0.305,0.063c0.111,0.015,0.193,0.034,0.295,0.031    c0.198,0.005,0.383,0.028,0.542,0.038C26.303,28.658,26.514,28.694,26.514,28.694z" fill="#1D1D1B"/></g><g><path d="M19.288,16.927l0.199,0.523c0.069,0.173,0.195,0.316,0.29,0.475c0.09,0.164,0.229,0.291,0.358,0.424    c0.133,0.129,0.249,0.279,0.407,0.378c0.294,0.228,0.597,0.443,0.935,0.602c0.319,0.194,0.675,0.307,1.02,0.444    c0.345,0.14,0.715,0.202,1.071,0.306c0.362,0.08,0.734,0.114,1.1,0.174c0.405,0.015,0.709,0.365,0.952,0.614    c0.248,0.246,0.548,0.581,0.834,0.504c0.287-0.101,0.49-0.457,0.734-0.737c0.137-0.138,0.239-0.31,0.49-0.389    c0.201-0.06,0.372-0.072,0.56-0.111c0.368-0.063,0.738-0.121,1.083-0.236c0.352-0.097,0.703-0.191,1.037-0.344    c0.345-0.126,0.676-0.279,0.987-0.466c0.33-0.158,0.61-0.386,0.907-0.591c0.271-0.228,0.55-0.464,0.758-0.744    c0.098-0.144,0.22-0.276,0.299-0.428l0.208-0.466l-0.011,0.068c-0.057-0.469-0.078-0.944-0.16-1.406    c-0.153-0.446-0.23-0.919-0.44-1.341c-0.23-0.409-0.365-0.877-0.684-1.233c-0.279-0.38-0.545-0.774-0.916-1.074l-0.517-0.486    L30.193,11c-0.38-0.292-0.828-0.451-1.264-0.638c-0.424-0.229-0.91-0.256-1.369-0.382c-0.135-0.04-0.189-0.023-0.392-0.108    c-0.051-0.019-0.143-0.112-0.199-0.177L26.859,9.53c-0.125-0.203-0.254-0.457-0.369-0.545c-0.048-0.043-0.231,0.132-0.366,0.328    c-0.157,0.186-0.252,0.419-0.557,0.571c-0.483,0.146-0.96,0.223-1.42,0.378c-0.423,0.218-0.89,0.36-1.285,0.641    c-0.385,0.289-0.827,0.514-1.151,0.881c-0.355,0.333-0.701,0.675-0.965,1.086c-0.14,0.198-0.294,0.389-0.423,0.594l-0.329,0.652    c-0.254,0.421-0.35,0.905-0.502,1.367C19.347,15.947,19.361,16.445,19.288,16.927z M19.288,16.927    c0.066-0.481,0.045-0.981,0.184-1.45c0.146-0.465,0.236-0.954,0.485-1.38l0.322-0.661c0.127-0.208,0.278-0.402,0.417-0.604    c0.258-0.421,0.609-0.764,0.954-1.115c0.315-0.383,0.751-0.627,1.135-0.936c0.392-0.299,0.872-0.468,1.308-0.708    c0.455-0.171,0.948-0.272,1.392-0.424c0.136-0.068,0.28-0.303,0.416-0.497c0.071-0.104,0.141-0.203,0.248-0.311    c0.063-0.05,0.156-0.13,0.206-0.134c0.046-0.012,0.019-0.014,0.126-0.033c0.053,0.01,0.111,0.028,0.162,0.052    c0.274,0.21,0.345,0.431,0.491,0.626l0.098,0.136c0.034,0.015,0.003,0.042,0.067,0.069c0.014,0.032,0.215,0.048,0.313,0.073    c0.485,0.112,1.001,0.128,1.457,0.351c0.47,0.176,0.944,0.35,1.354,0.649l0.639,0.402l0.558,0.508    c0.398,0.316,0.689,0.729,0.994,1.132c0.342,0.378,0.499,0.873,0.749,1.31c0.222,0.454,0.3,0.963,0.453,1.441    c0.082,0.496,0.1,1.003,0.15,1.503l0.004,0.038l-0.015,0.031l-0.254,0.552c-0.096,0.176-0.231,0.322-0.346,0.483    c-0.24,0.312-0.544,0.564-0.843,0.806c-0.317,0.219-0.627,0.451-0.979,0.604c-0.336,0.186-0.688,0.332-1.05,0.451    c-0.351,0.145-0.724,0.232-1.095,0.32c-0.37,0.107-0.739,0.15-1.108,0.2c-0.178,0.03-0.385,0.043-0.539,0.086    c-0.118,0.021-0.255,0.173-0.374,0.295c-0.253,0.252-0.436,0.625-0.868,0.773c-0.237,0.062-0.437-0.075-0.59-0.186    c-0.149-0.127-0.281-0.264-0.407-0.403c-0.259-0.275-0.472-0.571-0.852-0.605c-0.368-0.073-0.74-0.121-1.102-0.215    c-0.357-0.111-0.729-0.177-1.074-0.323c-0.346-0.143-0.703-0.261-1.021-0.461c-0.338-0.165-0.639-0.386-0.932-0.619    c-0.158-0.103-0.273-0.254-0.405-0.386c-0.128-0.136-0.265-0.265-0.354-0.433c-0.093-0.161-0.217-0.307-0.284-0.481L19.288,16.927    z" fill="#1D1D1B"/></g><g><path d="M28.814,22.096c0.11,0.111,0.231,0.213,0.351,0.28c0.13,0.067,0.267,0.098,0.398,0.128    c0.137,0.016,0.27,0.01,0.397-0.018c0.128-0.034,0.238-0.097,0.348-0.16l0.161-0.132l0.101-0.129    c0.064-0.103,0.117-0.212,0.149-0.33c0.023-0.12,0.026-0.239,0.018-0.36c-0.019-0.121-0.058-0.233-0.112-0.344l-0.287-0.581    l0.588,0.237c0.146,0.059,0.194,0.233,0.172,0.317c-0.02,0.114-0.048,0.118-0.079,0.178c-0.052,0.057-0.107,0.111-0.154,0.141    c-0.099,0.077-0.192,0.123-0.287,0.18c-0.074,0.035-0.102,0.043-0.156,0.063l-0.144,0.053l-0.288,0.105    C29.608,21.869,29.217,21.993,28.814,22.096z M28.814,22.096c0.332-0.244,0.675-0.466,1.028-0.667l0.264-0.154l0.251-0.144    c0.075-0.055,0.159-0.108,0.216-0.163c0.037-0.028,0.049-0.052,0.065-0.069c-0.012,0.014,0.004-0.02-0.016,0.042    c-0.005,0.034,0.012,0.155,0.115,0.189l0.301-0.344c0.091,0.162,0.156,0.334,0.188,0.519c0.027,0.185,0.011,0.372-0.033,0.552    c-0.055,0.178-0.133,0.345-0.248,0.493c-0.067,0.072-0.141,0.146-0.21,0.208l-0.21,0.138c-0.323,0.168-0.708,0.185-1.031,0.072    c-0.163-0.058-0.303-0.158-0.423-0.271C28.949,22.372,28.871,22.243,28.814,22.096z" fill="#1D1D1B"/></g><g><path d="M24.359,28.293" fill="none"/></g><g><path d="M23.929,28.878" fill="none"/></g><g><path d="M26.059,22.495c-0.222,0.293-0.333,0.646-0.307,0.984c0.009,0.17,0.044,0.333,0.102,0.492    c0.019,0.075,0.062,0.188,0.087,0.264c0.033,0.072,0.056,0.198,0.064,0.327c-0.003,0.068-0.051,0.212-0.128,0.255    c-0.1,0.065-0.155,0.072-0.191,0.083c-0.07,0.024-0.052,0.038-0.072,0.062c-0.004,0.029-0.01,0.056-0.018,0.083l-0.006,0.02    l-0.002,0.005c0-0.008-0.003,0.022,0.001-0.018l0,0.004l0,0.017l-0.003,0.068c-0.003,0.124,0.005,0.088,0.022,0.117    c0.034,0.045,0.24,0.167,0.383,0.282c0.157,0.121,0.295,0.258,0.432,0.397l-0.183-0.081h0.483l-0.183,0.081    c0.137-0.139,0.275-0.276,0.432-0.397c0.143-0.114,0.349-0.237,0.383-0.282c0.02-0.013,0.026-0.04,0.022-0.118l-0.002-0.052    v-0.013v-0.003c0.019,0.073,0.005,0.018,0.008,0.033l-0.002-0.008l-0.009-0.033l-0.036-0.132c-0.025-0.003,0.021,0.003-0.06-0.031    c-0.036-0.011-0.091-0.019-0.19-0.084c-0.078-0.042-0.126-0.188-0.129-0.255c0.009-0.123,0.027-0.243,0.063-0.325    c0.033-0.104,0.062-0.168,0.086-0.257c0.063-0.18,0.096-0.349,0.104-0.503c0.025-0.333-0.086-0.689-0.307-0.981    c0.3,0.221,0.487,0.583,0.54,0.977c0.025,0.213-0.005,0.402-0.04,0.575c-0.013,0.09-0.042,0.199-0.056,0.271    c-0.026,0.09-0.019,0.153-0.022,0.212c0.038-0.004-0.09-0.051,0.055-0.018c0.044,0.008,0.133,0.039,0.195,0.076    c0.066,0.053,0.143,0.15,0.167,0.207l0.044,0.129l0.011,0.032l0.003,0.008l0.011,0.047l0.003,0.021l0.009,0.084    c0.011,0.097,0.013,0.273-0.087,0.403c-0.193,0.24-0.331,0.279-0.464,0.4c-0.131,0.104-0.248,0.227-0.366,0.35l-0.078,0.081    h-0.105h-0.483h-0.105l-0.078-0.081c-0.118-0.123-0.235-0.245-0.365-0.35c-0.133-0.121-0.271-0.161-0.464-0.4    c-0.101-0.113-0.099-0.353-0.086-0.404l0.007-0.068l0.001-0.017L25.154,25l0.003-0.011l0.014-0.045l0.062-0.178    c0.069-0.138,0.235-0.241,0.35-0.253c0.145-0.032,0.017,0.012,0.055,0.018c-0.004-0.053,0.008-0.109-0.022-0.21l-0.054-0.265    c-0.042-0.194-0.069-0.389-0.042-0.586C25.572,23.081,25.759,22.715,26.059,22.495z" fill="#1D1D1B"/></g><g><path d="M27.804,18.25c0,0,0.43-0.106,1.079-0.246c0.317-0.087,0.678-0.217,1.069-0.327    c0.371-0.17,0.798-0.289,1.168-0.518c0.191-0.104,0.389-0.197,0.572-0.305c0.175-0.122,0.347-0.243,0.514-0.359    c0.175-0.107,0.301-0.259,0.446-0.377c0.141-0.123,0.274-0.239,0.365-0.375c0.103-0.126,0.197-0.243,0.281-0.346    c0.072-0.111,0.118-0.218,0.166-0.301c0.09-0.171,0.142-0.27,0.142-0.27s-0.037,0.104-0.104,0.286    c-0.052,0.192-0.172,0.444-0.374,0.717c-0.085,0.149-0.213,0.279-0.348,0.417c-0.14,0.132-0.262,0.306-0.441,0.418    c-0.169,0.125-0.345,0.254-0.522,0.386c-0.188,0.117-0.387,0.219-0.583,0.33c-0.39,0.226-0.829,0.338-1.214,0.501    c-0.407,0.106-0.79,0.193-1.115,0.26C28.245,18.215,27.804,18.25,27.804,18.25z" fill="#1D1D1B"/></g><g><path d="M27.804,18.25" fill="none"/></g><g><path d="M19.571,14.826c0,0,0.043,0.096,0.118,0.265c0.038,0.084,0.083,0.186,0.135,0.303    c0.072,0.103,0.153,0.219,0.242,0.346c0.081,0.129,0.178,0.262,0.314,0.379c0.13,0.12,0.25,0.263,0.399,0.384    c0.154,0.115,0.313,0.234,0.476,0.355c0.162,0.12,0.355,0.202,0.532,0.305c0.344,0.229,0.75,0.342,1.101,0.507    c0.372,0.111,0.716,0.233,1.017,0.32c0.609,0.137,1.02,0.244,1.02,0.244s-0.417-0.033-1.05-0.106    c-0.309-0.067-0.673-0.146-1.057-0.252c-0.365-0.16-0.785-0.264-1.15-0.493c-0.182-0.113-0.377-0.203-0.544-0.333    c-0.166-0.131-0.329-0.26-0.486-0.385c-0.155-0.127-0.269-0.292-0.393-0.427c-0.129-0.132-0.222-0.282-0.298-0.427    c-0.183-0.275-0.255-0.525-0.296-0.706C19.6,14.927,19.571,14.826,19.571,14.826z" fill="#1D1D1B"/></g><g><path d="M34.047,26.795" fill="#FFFFFF"/></g><g><path d="M33.404,26.005" fill="#FFFFFF"/></g><g><path d="M19.651,19.305c0,0,0.056,2.1,0.14,5.25c0.006,0.394,0.013,0.804,0.02,1.229    c0.005,0.207,0.009,0.417,0.014,0.629c0.033,0.213,0.037,0.453,0.12,0.635c0.253,0.791,0.844,1.559,1.528,2.222    c0.686,0.663,1.547,1.233,2.324,1.924c0.394,0.323,0.792,0.626,1.242,0.761c0.437,0.148,0.956,0.096,1.49,0.105l0.766,0.004    c0.269-0.013,0.527-0.037,0.727-0.106c0.44-0.132,0.845-0.437,1.236-0.759c0.768-0.684,1.651-1.271,2.324-1.925    c0.686-0.667,1.271-1.42,1.53-2.232c0.139-0.395,0.124-0.818,0.131-1.252c0.007-0.424,0.014-0.834,0.021-1.229    c0.084-3.15,0.141-5.25,0.141-5.25s0.057,2.1,0.141,5.25c0.007,0.394,0.014,0.804,0.021,1.229    c0.006,0.409,0.039,0.885-0.103,1.352c-0.263,0.924-0.862,1.741-1.578,2.443c-0.738,0.725-1.559,1.271-2.328,1.973    c-0.4,0.332-0.836,0.687-1.4,0.865c-0.301,0.096-0.564,0.115-0.821,0.132l-0.808,0.005c-0.508-0.018-1.066,0.042-1.632-0.144    c-0.556-0.176-0.998-0.532-1.396-0.864c-0.761-0.693-1.603-1.258-2.328-1.972c-0.717-0.707-1.312-1.51-1.581-2.454    c-0.086-0.243-0.077-0.456-0.104-0.676c-0.008-0.254,0.004-0.445,0.005-0.665c0.007-0.424,0.014-0.834,0.02-1.229    C19.595,21.405,19.651,19.305,19.651,19.305z" fill="#1D1D1B"/></g><g><g><path d="M34.043,26.799l0.377-0.752l-0.005,0.01c0.064-0.349,0.127-0.692,0.141-1.049     c0.032-0.351,0.04-0.708,0.063-1.063c0.034-0.712,0.049-1.426,0.123-2.148c0.029-0.359,0.11-0.723,0.19-1.086     c0.059-0.182,0.146-0.366,0.222-0.548c0.146-0.211,0.212-0.294,0.4-0.437c0.337-0.274,0.64-0.416,0.968-0.594     c0.323-0.167,0.646-0.321,0.968-0.467c0.154-0.077,0.321-0.149,0.46-0.231c0.14-0.072,0.26-0.166,0.408-0.287     c0.294-0.219,0.514-0.455,0.76-0.702c0.238-0.255,0.464-0.52,0.672-0.801c0.203-0.281,0.419-0.56,0.589-0.862     c0.181-0.296,0.338-0.609,0.442-0.929c0.102-0.31,0.166-0.69,0.241-1.025c0.06-0.32,0.161-0.751,0.073-0.973     c-0.058-0.026-0.238,0.163-0.33,0.284c-0.112,0.136-0.214,0.284-0.316,0.43c0.082-0.159,0.163-0.319,0.258-0.472     c0.048-0.077,0.101-0.15,0.16-0.222c0.068-0.052,0.116-0.182,0.295-0.128c0.182,0.209,0.111,0.391,0.131,0.575     c-0.004,0.183-0.021,0.363-0.039,0.542c-0.047,0.368-0.086,0.695-0.178,1.072c-0.095,0.363-0.241,0.703-0.412,1.026     c-0.164,0.328-0.357,0.639-0.57,0.935c-0.21,0.298-0.441,0.58-0.686,0.853c-0.249,0.264-0.52,0.552-0.795,0.764     c-0.126,0.108-0.283,0.238-0.46,0.335c-0.167,0.102-0.327,0.174-0.49,0.26l-0.962,0.458c-0.303,0.15-0.646,0.326-0.868,0.499     c-0.11,0.051-0.278,0.255-0.329,0.331c-0.059,0.148-0.131,0.286-0.186,0.44c-0.079,0.332-0.162,0.664-0.199,1.016     c-0.113,0.692-0.172,1.405-0.25,2.115c-0.076,0.711-0.171,1.429-0.394,2.121l-0.003,0.007l-0.002,0.003L34.043,26.799z" fill="#1D1D1B"/></g><g><path d="M38.592,14.007c0.328-0.51,0.674-1.011,0.961-1.544c0.303-0.522,0.563-1.072,0.772-1.635     c0.207-0.564,0.355-1.147,0.438-1.744c0.044-0.291,0.089-0.611,0.115-0.886c0.006-0.292-0.01-0.596-0.045-0.887     c-0.018-0.138-0.046-0.306-0.088-0.384c-0.031-0.022,0.043,0.047,0.104,0.016c0.027-0.021,0,0.005-0.01,0.026     c-0.026,0.054-0.053,0.117-0.074,0.186c-0.087,0.265-0.147,0.583-0.24,0.871c-0.206,0.611-0.518,1.144-0.86,1.658     c-0.695,1.021-1.509,1.938-2.406,2.784l-0.52,0.491l0.163-0.701l0.22-0.943l0.339,0.233l-1.071,0.732l-0.024,0.017l-0.029,0.01     c-0.563,0.198-1.021,0.637-1.357,1.16c-0.339,0.525-0.573,1.125-0.758,1.738c-0.359,1.234-0.523,2.532-0.628,3.828     c-0.185,2.598-0.087,5.23,0.177,7.825l0.005,0.04l-0.009,0.037c-0.025,0.106-0.052,0.217-0.063,0.312     c-0.012,0.037,0.001,0.113-0.014,0.064c-0.01-0.038-0.066-0.08-0.116-0.093c-0.078-0.008-0.09,0.011-0.093,0.008     c-0.02,0.014,0.008-0.006,0.016-0.015c0.127-0.128,0.261-0.332,0.381-0.517l0.087-0.135l0.135,0.05     c0.414,0.154,0.718,0.406,0.981,0.709c0.254,0.304,0.454,0.651,0.577,1.021c0.263,0.737,0.284,1.518,0.226,2.269l-0.059,0.55     c-0.018,0.164,0.05,0.253,0.187,0.354c0.279,0.173,0.662,0.226,1.022,0.257c0.733,0.053,1.48,0.002,2.218-0.086     c-0.73,0.14-1.472,0.244-2.225,0.243c-0.376-0.011-0.763-0.021-1.139-0.213c-0.187-0.082-0.358-0.346-0.327-0.563l0.045-0.561     c0.038-0.727-0.006-1.468-0.264-2.132c-0.12-0.335-0.309-0.638-0.536-0.896c-0.225-0.255-0.528-0.474-0.816-0.571l0.222-0.085     c-0.128,0.203-0.236,0.396-0.429,0.604c-0.034,0.029-0.048,0.053-0.12,0.091c-0.027,0.013-0.066,0.041-0.174,0.026     c-0.082-0.006-0.151-0.088-0.179-0.144c-0.052-0.159-0.023-0.202-0.023-0.278c0.014-0.136,0.042-0.25,0.068-0.368L33.35,26.91     c-0.288-2.627-0.407-5.266-0.242-7.911c0.089-1.32,0.262-2.646,0.651-3.933c0.198-0.641,0.45-1.276,0.829-1.854     c0.373-0.573,0.912-1.096,1.601-1.331l-0.053,0.026l1.077-0.724l0.472-0.317l-0.133,0.55l-0.228,0.941l-0.356-0.21     c0.868-0.816,1.697-1.705,2.393-2.673c0.342-0.484,0.656-1.005,0.852-1.542c0.101-0.288,0.157-0.568,0.266-0.877     c0.025-0.075,0.059-0.152,0.102-0.233c0.03-0.042,0.042-0.086,0.137-0.144c0.033-0.031,0.16-0.031,0.197,0.008     C40.974,6.726,40.977,6.75,41,6.781c0.091,0.196,0.092,0.338,0.114,0.499c0.029,0.312,0.038,0.616,0.024,0.931     c-0.036,0.327-0.086,0.608-0.148,0.914c-0.108,0.602-0.286,1.196-0.521,1.76c-0.237,0.564-0.522,1.105-0.851,1.618     C39.307,13.026,38.941,13.51,38.592,14.007z" fill="#1D1D1B"/></g><g><path d="M40.604,10.186c0,0,0.035-0.112,0.097-0.308c0.033-0.096,0.083-0.212,0.143-0.348     c0.045-0.067,0.057-0.136,0.138-0.217l0.058-0.059c0.039-0.022,0.111-0.036,0.165-0.028c0.046,0.015,0.092,0.061,0.123,0.104     c0.02,0.035,0.023,0.057,0.034,0.088c0.058,0.217,0.05,0.401,0.053,0.611c-0.002,0.206-0.011,0.42-0.035,0.638     c-0.05,0.42-0.055,0.886-0.118,1.358c-0.054,0.241-0.072,0.496-0.159,0.718c-0.107,0.213-0.213,0.423-0.315,0.626     c-0.188,0.421-0.482,0.706-0.673,1.003c-0.422,0.563-0.734,0.912-0.734,0.912s0.178-0.438,0.493-1.057     c0.147-0.309,0.379-0.662,0.519-1.051c0.082-0.192,0.16-0.391,0.253-0.587c0.074-0.202,0.077-0.422,0.122-0.632     c0.041-0.213,0.053-0.457,0.08-0.679c0.019-0.22,0.058-0.461,0.099-0.671c0.037-0.21,0.073-0.414,0.107-0.607     c0.029-0.187,0.053-0.384,0.039-0.508l-0.003-0.035c0.002,0.016,0.023,0.02,0.036,0.018c0.013,0.016,0.044,0.007,0.045-0.004     l-0.03,0.023C41.094,9.511,41.045,9.587,41,9.629c-0.083,0.108-0.157,0.205-0.212,0.292     C40.671,10.089,40.604,10.186,40.604,10.186z" fill="#1D1D1B"/></g></g><g><path d="M26.142,28.147c0.525-0.094,1.05-0.11,1.575-0.122h0.009c0.123-0.023,0.249-0.022,0.405-0.059l0.11-0.021    c0.021-0.009,0.096-0.014,0.129-0.006c0.073,0.008,0.146,0.012,0.22,0.024c0.313,0.08,0.588,0.192,0.85,0.333    c-0.296-0.049-0.588-0.094-0.851-0.133c-0.073,0.003-0.146-0.003-0.22-0.006c-0.042-0.004-0.038-0.004-0.09,0.009l-0.105,0.025    c-0.13,0.035-0.296,0.069-0.466,0.076h0.009C27.191,28.258,26.667,28.241,26.142,28.147z" fill="#1D1D1B"/></g><g><path d="M26.542,28.699c0,0,0.211-0.036,0.529-0.07c0.158-0.01,0.343-0.033,0.541-0.038    c0.102,0.003,0.185-0.017,0.295-0.031c0.105-0.012,0.205-0.038,0.305-0.063c0.111-0.012,0.178-0.058,0.325-0.039    c0.104,0.011,0.206,0.021,0.305,0.032c0.204,0.052,0.395,0.114,0.544,0.17c0.297,0.121,0.485,0.224,0.485,0.224    s-0.212-0.033-0.523-0.089c-0.155-0.035-0.328-0.045-0.509-0.088c-0.099-0.005-0.2-0.011-0.304-0.016    c-0.062-0.021-0.197,0.038-0.294,0.054c-0.106,0.021-0.213,0.042-0.315,0.047c-0.096,0.009-0.216,0.024-0.313,0.017    c-0.198-0.005-0.383-0.028-0.541-0.038C26.753,28.735,26.542,28.699,26.542,28.699z" fill="#1D1D1B"/></g><g><path d="M28.696,28.298" fill="none"/></g><g><path d="M29.127,28.883" fill="none"/></g><g><g><g><path d="M11.009,36.102c0,0-0.425,0.086-1.063,0.156c-0.636,0.073-1.496,0.119-2.349,0.108      c-0.427-0.013-0.852-0.02-1.247-0.04c-0.392-0.006-0.762-0.049-1.061-0.002c-0.156,0.006-0.287,0.04-0.408,0.071      c-0.125,0.022-0.229,0.062-0.307,0.11c-0.17,0.079-0.268,0.124-0.268,0.124s0.073-0.077,0.216-0.207      c0.068-0.071,0.162-0.14,0.286-0.199c0.119-0.07,0.259-0.147,0.424-0.175c0.327-0.097,0.708-0.139,1.113-0.163      c0.404-0.021,0.832-0.021,1.257-0.02c0.852,0.006,1.696,0.066,2.338,0.111C10.582,36.028,11.009,36.102,11.009,36.102z" fill="#1D1D1B"/></g></g><g><path d="M26,40.719c0,0-0.329,0.311-0.904,0.854c-0.303,0.254-0.65,0.593-1.091,0.928     c-0.431,0.347-0.931,0.727-1.525,1.07c-0.585,0.356-1.265,0.688-2.045,0.886c-0.771,0.196-1.69,0.228-2.517-0.146     c-0.836-0.344-1.53-0.974-2.115-1.663c-0.592-0.691-1.101-1.453-1.591-2.217c-0.953-1.545-1.85-3.107-2.856-4.452     c-0.511-0.647-0.995-1.355-1.562-1.804c-0.568-0.431-1.313-0.557-1.962-0.561c-1.327,0.016-2.419,0.391-3.151,0.664     c-0.736,0.285-1.139,0.494-1.139,0.494s0.387-0.235,1.106-0.572c0.358-0.172,0.807-0.351,1.335-0.523     c0.529-0.169,1.146-0.324,1.844-0.345c0.689-0.015,1.485,0.065,2.191,0.557c0.667,0.499,1.146,1.156,1.683,1.829     c1.043,1.357,1.971,2.927,2.933,4.446c0.476,0.763,0.966,1.515,1.523,2.183c0.553,0.668,1.19,1.253,1.929,1.565     c0.73,0.332,1.538,0.346,2.268,0.19c0.734-0.155,1.404-0.448,1.987-0.774c0.588-0.319,1.107-0.657,1.557-0.971     c0.459-0.303,0.823-0.613,1.143-0.847C25.651,41.007,26,40.719,26,40.719z" fill="#1D1D1B"/></g><g><path d="M26,40.719c0,0-0.423,0.104-1.174,0.252c-0.376,0.067-0.839,0.144-1.38,0.14     c-0.537-0.001-1.165-0.067-1.786-0.351c-0.621-0.275-1.208-0.744-1.703-1.336c-0.513-0.585-0.88-1.314-1.221-2.074     c-0.289-0.784-0.576-1.552-0.95-2.324c-0.413-0.696-0.916-1.385-1.598-1.874l-0.502-0.372c-0.181-0.102-0.375-0.185-0.56-0.278     c-0.363-0.211-0.778-0.294-1.173-0.417c-0.398-0.117-0.819-0.132-1.221-0.203c-0.411-0.008-0.817-0.026-1.217-0.015     c-0.801,0.052-1.574,0.151-2.301,0.301c-0.726,0.154-1.4,0.349-2.019,0.55c-1.227,0.428-2.231,0.849-2.912,1.192     c-0.68,0.343-1.059,0.562-1.059,0.562s0.362-0.244,1.02-0.635c0.661-0.383,1.626-0.909,2.856-1.384     c0.619-0.229,1.297-0.453,2.032-0.641c0.736-0.182,1.528-0.323,2.36-0.378c0.416-0.019,0.842-0.006,1.272-0.001     c0.427,0.067,0.869,0.079,1.296,0.197c0.425,0.125,0.869,0.21,1.268,0.433c0.203,0.098,0.413,0.187,0.611,0.295l0.554,0.398     c0.733,0.544,1.275,1.294,1.718,2.08c0.364,0.773,0.661,1.599,0.926,2.351c0.326,0.729,0.642,1.445,1.103,2.01     c0.443,0.574,0.971,1.029,1.538,1.31c1.155,0.543,2.293,0.467,3.036,0.382C25.569,40.794,26,40.719,26,40.719z" fill="#1D1D1B"/></g></g><g><g><g><path d="M41.249,36.101c0,0,0.427-0.073,1.067-0.124c0.643-0.045,1.487-0.105,2.339-0.111      c0.424-0.002,0.853-0.002,1.256,0.02c0.405,0.024,0.786,0.066,1.113,0.163c0.165,0.027,0.305,0.105,0.424,0.176      c0.124,0.059,0.218,0.127,0.286,0.198c0.143,0.13,0.216,0.207,0.216,0.207s-0.098-0.045-0.268-0.124      c-0.078-0.049-0.182-0.088-0.307-0.11c-0.12-0.031-0.252-0.065-0.408-0.071c-0.298-0.046-0.668-0.004-1.061,0.002      c-0.396,0.021-0.819,0.027-1.247,0.04c-0.853,0.011-1.712-0.035-2.348-0.108C41.674,36.187,41.249,36.101,41.249,36.101z" fill="#1D1D1B"/></g></g><g><path d="M26.258,40.718c0,0,0.349,0.288,0.959,0.791c0.32,0.233,0.685,0.544,1.144,0.847     c0.449,0.313,0.968,0.651,1.556,0.971c0.583,0.326,1.253,0.619,1.987,0.774c0.73,0.155,1.537,0.142,2.268-0.19     c0.739-0.313,1.377-0.897,1.93-1.565c0.557-0.668,1.048-1.42,1.522-2.183c0.963-1.52,1.891-3.088,2.934-4.446     c0.537-0.673,1.016-1.329,1.683-1.829c0.707-0.491,1.502-0.571,2.191-0.557c0.697,0.021,1.315,0.176,1.844,0.345     c0.528,0.173,0.978,0.352,1.336,0.523c0.719,0.337,1.105,0.572,1.105,0.572s-0.402-0.209-1.139-0.494     c-0.731-0.273-1.823-0.648-3.151-0.664c-0.649,0.004-1.394,0.13-1.961,0.562c-0.566,0.448-1.051,1.155-1.562,1.803     c-1.008,1.346-1.904,2.907-2.857,4.452c-0.489,0.764-0.999,1.525-1.591,2.217c-0.585,0.689-1.279,1.319-2.115,1.663     c-0.827,0.374-1.746,0.343-2.517,0.146c-0.78-0.197-1.46-0.529-2.045-0.886c-0.595-0.344-1.095-0.724-1.525-1.07     c-0.441-0.335-0.788-0.674-1.091-0.928C26.586,41.028,26.258,40.718,26.258,40.718z" fill="#1D1D1B"/></g><g><path d="M26.258,40.718c0,0,0.431,0.075,1.187,0.169c0.743,0.085,1.882,0.161,3.036-0.382     c0.567-0.28,1.095-0.735,1.538-1.31c0.461-0.564,0.777-1.281,1.103-2.01c0.266-0.752,0.563-1.577,0.926-2.351     c0.443-0.786,0.984-1.536,1.718-2.08l0.555-0.398c0.198-0.108,0.408-0.196,0.611-0.295c0.398-0.222,0.842-0.308,1.268-0.433     c0.428-0.118,0.869-0.13,1.296-0.197c0.43-0.005,0.856-0.018,1.272,0c0.832,0.056,1.623,0.197,2.359,0.379     c0.735,0.187,1.414,0.412,2.032,0.641c1.23,0.475,2.195,1.001,2.856,1.384c0.658,0.391,1.02,0.635,1.02,0.635     s-0.379-0.219-1.06-0.562c-0.68-0.344-1.685-0.765-2.911-1.192c-0.618-0.201-1.293-0.396-2.02-0.55     c-0.727-0.149-1.499-0.249-2.3-0.301c-0.4-0.012-0.807,0.006-1.218,0.015c-0.401,0.071-0.822,0.086-1.221,0.203     c-0.395,0.123-0.81,0.206-1.173,0.417c-0.186,0.094-0.379,0.177-0.56,0.278L36.07,33.15c-0.683,0.489-1.185,1.178-1.598,1.874     c-0.374,0.772-0.661,1.54-0.95,2.325c-0.341,0.759-0.708,1.488-1.221,2.073c-0.495,0.592-1.083,1.061-1.703,1.337     c-0.621,0.282-1.25,0.349-1.786,0.35c-0.541,0.004-1.004-0.072-1.38-0.14C26.681,40.822,26.258,40.718,26.258,40.718z" fill="#1D1D1B"/></g></g><g><path d="M21.233,41.945c0,0-0.052,0.037-0.159,0.089c-0.1,0.055-0.32,0.112-0.519-0.056    c-0.352-0.357-0.428-1.057-0.383-1.82c0.025-0.387,0.084-0.805,0.194-1.24c0.12-0.433,0.25-0.897,0.64-1.315    c0.405-0.329,0.722-0.606,0.902-1.013c0.177-0.387,0.074-0.817-0.172-1.215c-0.492-0.807-1.284-1.485-1.903-2.217    c-0.32-0.36-0.604-0.741-0.823-1.137c-0.226-0.401-0.358-0.784-0.478-1.17c-0.221-0.759-0.105-1.479,0.182-1.848    c0.132-0.189,0.281-0.296,0.382-0.359c0.103-0.063,0.164-0.082,0.164-0.082s-0.247,0.118-0.459,0.496    c-0.23,0.375-0.228,1.018,0.011,1.706c0.128,0.331,0.299,0.718,0.523,1.063c0.229,0.35,0.512,0.695,0.824,1.042    c0.616,0.704,1.412,1.336,2.005,2.252c0.289,0.446,0.441,1.12,0.175,1.657c-0.229,0.517-0.701,0.887-1.031,1.143    c-0.271,0.273-0.442,0.716-0.58,1.104c-0.131,0.4-0.217,0.796-0.268,1.163c-0.085,0.724-0.104,1.395,0.165,1.718    c0.138,0.147,0.331,0.142,0.437,0.103C21.176,41.974,21.233,41.945,21.233,41.945z" fill="#1D1D1B"/></g><g><path d="M31.511,29.755c0,0,0.102,0.131,0.211,0.398c0.13,0.261,0.269,0.652,0.375,1.143    c0.082,0.241,0.064,0.515,0.096,0.802c0.009,0.271,0.073,0.623,0.008,0.917c-0.021,0.294-0.11,0.636-0.223,0.964    c-0.124,0.313-0.264,0.615-0.401,0.905c-0.136,0.286-0.258,0.568-0.303,0.851c-0.057,0.274-0.03,0.58,0.011,0.827    c0.079,0.304,0.161,0.577,0.277,0.802c0.097,0.239,0.251,0.46,0.371,0.663c0.535,0.798,1.002,1.27,1.002,1.27    s-0.142-0.085-0.365-0.267c-0.223-0.182-0.539-0.451-0.862-0.835c-0.15-0.202-0.328-0.402-0.472-0.669    c-0.072-0.131-0.156-0.269-0.222-0.407c-0.049-0.14-0.099-0.281-0.149-0.426c-0.081-0.347-0.132-0.68-0.066-1.039    c0.052-0.352,0.188-0.679,0.326-0.982c0.147-0.297,0.285-0.583,0.403-0.865c0.095-0.279,0.2-0.542,0.239-0.858    c0.076-0.308,0.038-0.553,0.063-0.841c-0.001-0.271,0.045-0.535-0.009-0.77c-0.036-0.235-0.059-0.455-0.078-0.652    c-0.027-0.194-0.081-0.355-0.11-0.495C31.574,29.909,31.511,29.755,31.511,29.755z" fill="#1D1D1B"/></g><g><path d="M22.853,38.484c0,0,0.127-0.121,0.324-0.343c0.189-0.218,0.464-0.572,0.517-1.027    c0.049-0.459-0.248-0.954-0.649-1.422c-0.401-0.473-0.901-0.94-1.366-1.456c-0.468-0.509-0.917-1.07-1.188-1.688    c-0.138-0.308-0.247-0.588-0.335-0.894c-0.074-0.297-0.133-0.583-0.12-0.854c0-0.544,0.225-0.973,0.447-1.184    c0.224-0.216,0.396-0.265,0.396-0.265s-0.163,0.078-0.34,0.314c-0.184,0.226-0.339,0.635-0.28,1.126    c0.022,0.244,0.086,0.506,0.176,0.774c0.095,0.255,0.229,0.547,0.378,0.814c0.318,0.529,0.758,1.031,1.223,1.522    c0.468,0.49,0.96,0.974,1.368,1.5c0.409,0.508,0.718,1.171,0.587,1.757c-0.058,0.284-0.195,0.509-0.337,0.676    c-0.142,0.168-0.284,0.291-0.406,0.384C23.008,38.408,22.853,38.484,22.853,38.484z" fill="#1D1D1B"/></g><g><path d="M32.95,28.148c0,0,0.081,0.101,0.178,0.301c0.086,0.202,0.26,0.489,0.337,0.868    c0.048,0.188,0.1,0.393,0.155,0.608c0.019,0.221,0.042,0.456,0.052,0.701c0.007,0.226,0.048,0.526-0.008,0.763l-0.053,0.371    l-0.114,0.396c-0.077,0.269-0.2,0.492-0.303,0.726c-0.109,0.219-0.218,0.435-0.322,0.643c-0.086,0.207-0.181,0.4-0.218,0.596    c-0.049,0.194-0.073,0.383-0.052,0.562c-0.004,0.178,0.018,0.329,0.054,0.49c0.025,0.154,0.054,0.283,0.095,0.382    c0.066,0.21,0.104,0.33,0.104,0.33s-0.07-0.107-0.194-0.296c-0.066-0.096-0.125-0.22-0.182-0.362    c-0.066-0.13-0.137-0.312-0.155-0.515c-0.05-0.197-0.054-0.416-0.028-0.651c0.013-0.233,0.087-0.475,0.171-0.704    c0.093-0.23,0.185-0.46,0.292-0.679c0.091-0.222,0.205-0.448,0.262-0.667l0.106-0.325l0.062-0.37    c0.059-0.251,0.035-0.442,0.045-0.688c0.001-0.229,0.016-0.45,0.026-0.662c-0.024-0.209-0.047-0.407-0.068-0.591    c-0.029-0.182-0.026-0.358-0.068-0.502c-0.032-0.149-0.061-0.279-0.083-0.386C32.992,28.271,32.95,28.148,32.95,28.148z" fill="#1D1D1B"/></g><g><path d="M18.089,26.799c0,0-0.427,0.106-0.979,0.393c-0.277,0.137-0.572,0.344-0.829,0.603    c-0.127,0.133-0.235,0.283-0.334,0.442c-0.087,0.166-0.171,0.337-0.211,0.525c-0.068,0.179-0.072,0.38-0.096,0.569    c0.007,0.192-0.011,0.387,0.003,0.593c0.013,0.195,0.002,0.399-0.012,0.594c-0.023,0.195-0.03,0.372-0.135,0.573    c-0.022,0.109-0.251,0.2-0.344,0.133c-0.093-0.045-0.146-0.099-0.197-0.146c-0.094-0.093-0.174-0.183-0.23-0.202    c-0.041-0.028-0.083,0.075-0.091,0.112c-0.015,0.049-0.022,0.074-0.022,0.074s-0.001-0.027-0.004-0.078    c0.013-0.033-0.047-0.173,0.125-0.206c0.133,0.013,0.222,0.093,0.335,0.151c0.055,0.03,0.114,0.059,0.159,0.064    c0.039-0.021,0.002,0.021,0.024-0.04c0.03-0.09,0.029-0.271,0.017-0.439c-0.02-0.178-0.041-0.365-0.063-0.56    c-0.025-0.193-0.039-0.413-0.046-0.641c0.02-0.225,0.021-0.461,0.097-0.687c0.057-0.229,0.166-0.442,0.282-0.644    c0.126-0.198,0.283-0.364,0.445-0.511c0.333-0.286,0.709-0.438,1.023-0.542C17.648,26.741,18.089,26.799,18.089,26.799z" fill="#1D1D1B"/></g><g><path d="M18.335,28.036c0,0-0.137,0.048-0.338,0.174c-0.104,0.061-0.221,0.143-0.331,0.263    c-0.131,0.098-0.195,0.276-0.303,0.425c-0.035,0.188-0.141,0.367-0.095,0.594c0.006,0.107,0.012,0.218,0.019,0.33    c0.035,0.112,0.072,0.228,0.108,0.344c0.055,0.232,0.155,0.463,0.273,0.722c0.113,0.238,0.232,0.48,0.363,0.724    c0.493,0.979,1.113,1.941,1.211,2.863c0.013,0.229-0.038,0.47-0.184,0.614c-0.136,0.142-0.292,0.202-0.415,0.229    c-0.259,0.087-0.389-0.044-0.386-0.03c-0.004-0.007,0.148,0.066,0.352-0.061c0.108-0.046,0.226-0.129,0.301-0.251    c0.079-0.121,0.078-0.287,0.053-0.469c-0.069-0.373-0.322-0.791-0.57-1.238c-0.258-0.446-0.54-0.928-0.805-1.426    c-0.127-0.25-0.25-0.51-0.366-0.771c-0.108-0.242-0.198-0.516-0.253-0.797c-0.03-0.136-0.059-0.269-0.088-0.399    c0.008-0.139,0.016-0.274,0.023-0.406c-0.015-0.264,0.133-0.494,0.21-0.704c0.145-0.177,0.267-0.354,0.433-0.435    c0.147-0.106,0.288-0.167,0.408-0.208C18.193,28.038,18.335,28.036,18.335,28.036z" fill="#1D1D1B"/></g><g><path d="M51.074,26c0,0-0.029,0.615-0.084,1.767c0,0.579-0.1,1.283-0.233,2.11c-0.068,0.412-0.113,0.861-0.215,1.33    c-0.117,0.465-0.243,0.959-0.376,1.481c-0.58,2.064-1.486,4.563-3.161,7.068c-1.643,2.508-3.957,5.079-7.033,7.154    c-3.075,2.056-6.896,3.589-11.12,4.106c-0.524,0.085-1.063,0.073-1.599,0.114c-0.54,0.012-1.074,0.095-1.628,0.05    c-1.083-0.065-2.182-0.053-3.288-0.267c-2.229-0.262-4.419-0.965-6.558-1.858c-2.138-0.916-4.13-2.219-5.997-3.708    c-1.834-1.539-3.447-3.367-4.839-5.373c-1.354-2.037-2.392-4.289-3.156-6.641c-0.717-2.378-1.047-4.838-1.112-7.348    c0.061-2.443,0.394-4.958,1.111-7.322c0.763-2.352,1.802-4.604,3.156-6.641c1.392-2.006,3.004-3.834,4.839-5.374    c1.867-1.49,3.858-2.792,5.997-3.708c4.253-1.866,8.865-2.444,13.067-1.961c4.234,0.519,8.048,2.052,11.126,4.107    c3.075,2.076,5.39,4.647,7.032,7.154c1.675,2.506,2.581,5.004,3.162,7.069c0.132,0.522,0.258,1.017,0.375,1.481    c0.102,0.468,0.146,0.918,0.215,1.33c0.134,0.827,0.233,1.531,0.233,2.11C51.045,25.385,51.074,26,51.074,26z M51.074,26    c0,0-0.033-0.614-0.095-1.766c-0.005-0.579-0.108-1.282-0.247-2.107c-0.071-0.412-0.118-0.86-0.223-1.327    c-0.121-0.463-0.249-0.956-0.385-1.477c-0.593-2.057-1.513-4.543-3.197-7.03c-1.652-2.487-3.973-5.032-7.043-7.075    c-3.066-2.023-6.877-3.52-11.054-4.005c-4.188-0.454-8.731,0.15-12.923,2.019c-2.105,0.917-4.062,2.217-5.893,3.696    c-1.799,1.529-3.375,3.34-4.732,5.322c-1.319,2.013-2.325,4.233-3.061,6.547c-0.69,2.343-0.993,4.738-1.048,7.216    c0.051,2.411,0.357,4.862,1.046,7.191c0.735,2.313,1.741,4.534,3.061,6.547c1.357,1.981,2.933,3.793,4.732,5.322    c1.831,1.479,3.788,2.778,5.893,3.695c2.102,0.895,4.273,1.606,6.461,1.876c1.08,0.219,2.188,0.214,3.269,0.285    c0.53,0.049,1.073-0.03,1.604-0.039c0.531-0.037,1.064-0.022,1.585-0.103c4.188-0.487,7.99-1.982,11.06-4.006    c3.069-2.044,5.39-4.588,7.042-7.076c1.685-2.485,2.605-4.972,3.197-7.029c0.136-0.521,0.264-1.013,0.385-1.477    c0.104-0.467,0.151-0.915,0.223-1.327c0.139-0.824,0.242-1.528,0.247-2.106C51.041,26.614,51.074,26,51.074,26z"/></g></g></svg>