<?xml version="1.0" ?><!DOCTYPE svg  PUBLIC '-//W3C//DTD SVG 1.1//EN'  'http://www.w3.org/Graphics/SVG/1.1/DTD/svg11.dtd'><svg enable-background="new 0 0 52 52" height="52px" id="Слой_1" version="1.1" viewBox="0 0 52 52" width="52px" xml:space="preserve" xmlns="http://www.w3.org/2000/svg" xmlns:xlink="http://www.w3.org/1999/xlink"><g><g><g><g><path d="M22.937,20.449" fill="none"/></g></g></g><g><path d="M23.235,26.246" fill="none"/></g><g><path d="M24.319,20.756c-0.236,0.236-0.528,0.411-0.842,0.554c-0.166,0.05-0.331,0.111-0.512,0.122    c-0.089,0.012-0.179,0.027-0.271,0.012c-0.102-0.012-0.164-0.008-0.302-0.037c-0.158-0.057-0.301-0.093-0.474-0.219    c-0.179-0.106-0.297-0.232-0.428-0.36c-0.232-0.275-0.425-0.558-0.564-0.899l-0.113-0.277l0.283-0.054    c0.321-0.061,0.613-0.075,0.919-0.047c0.152-0.001,0.3,0.035,0.448,0.069l0.22,0.056c0.078,0.025,0.134,0.024,0.229,0.071    c0.254,0.136,0.52,0.22,0.762,0.418C23.918,20.342,24.137,20.53,24.319,20.756z M24.319,20.756c-0.25-0.145-0.495-0.29-0.75-0.387    c-0.124-0.054-0.239-0.12-0.383-0.154l-0.409-0.128c-0.035-0.016-0.126-0.016-0.186-0.024l-0.2-0.022    c-0.131-0.021-0.262-0.043-0.397-0.031c-0.263,0.001-0.542,0.016-0.78,0.069l0.17-0.331c0.122,0.26,0.279,0.538,0.468,0.765    c0.103,0.101,0.199,0.227,0.302,0.294c0.079,0.092,0.256,0.151,0.395,0.231l0.183,0.043c0.068,0.024,0.143,0.022,0.217,0.023    c0.148,0.015,0.3-0.018,0.454-0.038C23.713,21.008,24.018,20.894,24.319,20.756z" fill="#1D1D1B"/></g><g><path d="M28.266,30.527c0,0-0.256,0.163-0.657,0.352c-0.195,0.101-0.443,0.185-0.738,0.227    c-0.145,0.023-0.294,0.055-0.448,0.073c-0.142,0.026-0.315,0.015-0.46,0.008c-0.285-0.013-0.59-0.063-0.877-0.152    c-0.287-0.067-0.511-0.212-0.722-0.293c-0.203-0.098-0.351-0.223-0.462-0.288c-0.108-0.074-0.166-0.123-0.166-0.123    s0.303,0.046,0.724,0.146c0.212,0.036,0.462,0.097,0.716,0.127c0.248,0.039,0.52,0.081,0.822,0.085    c0.088,0.006,0.125,0.017,0.201,0.016c0.074,0.003,0.145,0.002,0.209-0.008c0.132-0.016,0.264-0.017,0.392-0.024    c0.127-0.01,0.254-0.004,0.377-0.003c0.123-0.009,0.241-0.041,0.35-0.059C27.963,30.538,28.266,30.527,28.266,30.527z" fill="#1D1D1B"/></g><g><path d="M29.217,26.244" fill="none"/></g><g><path d="M18.255,21.33l0.614,3.05l0.31,1.523c0.092,0.517,0.226,0.989,0.334,1.479    c0.089,0.2,0.256,0.438,0.38,0.655c0.124,0.232,0.281,0.43,0.448,0.612c0.307,0.386,0.666,0.747,1.032,1.106l0.569,0.521    c0.165,0.151,0.407,0.311,0.593,0.397c0.432,0.209,0.935,0.347,1.415,0.437l-0.271,0.273c-0.235-1.279-0.469-2.56-0.681-3.843    l-0.003-0.023V27.5l0.008-1.254l0.344,0.203c0.007,0.006-0.007,0.005-0.033,0.051c-0.023,0.026-0.044,0.079-0.067,0.12    c-0.043,0.09-0.084,0.189-0.121,0.292c-0.075,0.203-0.14,0.416-0.2,0.63c-0.121,0.429-0.225,0.868-0.318,1.304l-0.074,0.348    l-0.266-0.218c-0.254-0.208-0.492-0.413-0.707-0.653c-0.219-0.232-0.423-0.483-0.595-0.76c-0.078-0.146-0.185-0.269-0.234-0.433    c-0.05-0.161-0.143-0.303-0.154-0.478c-0.017-0.163-0.04-0.367-0.043-0.493l-0.016-0.465c-0.014-0.309-0.008-0.623-0.057-0.923    l-0.106-0.913c-0.078-0.611-0.165-1.227-0.267-1.837l0.016,0.028l-1.125-1.101l1.196,1.024l0.012,0.01l0.004,0.018    c0.144,0.605,0.271,1.212,0.392,1.825l0.152,0.93c0.062,0.312,0.067,0.621,0.092,0.93l0.033,0.464    c0.009,0.184,0.04,0.286,0.054,0.433c0.009,0.137,0.102,0.265,0.146,0.397c0.042,0.136,0.15,0.25,0.222,0.375    c0.164,0.243,0.362,0.471,0.576,0.681c0.209,0.213,0.44,0.416,0.669,0.597l-0.34,0.13c0.09-0.451,0.19-0.894,0.309-1.338    c0.06-0.223,0.124-0.444,0.203-0.666c0.038-0.111,0.082-0.223,0.135-0.337c0.031-0.059,0.051-0.113,0.097-0.177    c0.03-0.055,0.096-0.134,0.192-0.2l0.342-0.234l0.002,0.438l0.008,1.254l-0.003-0.042c0.24,1.279,0.458,2.562,0.673,3.845    l0.057,0.34l-0.328-0.066c-0.536-0.107-1.042-0.25-1.542-0.498c-0.278-0.146-0.469-0.275-0.688-0.474l-0.57-0.536l-0.551-0.565    c-0.185-0.188-0.339-0.419-0.508-0.626c-0.174-0.21-0.33-0.425-0.442-0.656c-0.123-0.236-0.258-0.432-0.372-0.702    c-0.104-0.524-0.23-1.057-0.3-1.564l-0.235-1.539L18.255,21.33z" fill="#1D1D1B"/></g><g><path d="M26.827,12.449l-0.456-0.068c-0.158-0.019-0.294-0.058-0.45-0.049c-0.309-0.006-0.606,0.011-0.891,0.103    c-0.146,0.032-0.284,0.082-0.41,0.159c-0.133,0.062-0.26,0.132-0.361,0.239c-0.104,0.099-0.229,0.177-0.298,0.308    c-0.077,0.122-0.173,0.23-0.235,0.36c-0.091,0.278-0.23,0.535-0.245,0.838l-0.063,0.437c-0.015,0.112,0.005,0.295,0.006,0.439    c0.022,0.299-0.007,0.629,0.059,0.902l0.069,0.422c0.04,0.104,0.097,0.297,0.12,0.327L24,17.287l-0.498-0.057    c-0.227-0.026-0.409-0.08-0.596-0.162c-0.194-0.062-0.349-0.194-0.52-0.298c-0.165-0.113-0.286-0.277-0.429-0.415    c-0.143-0.141-0.212-0.331-0.319-0.496c-0.113-0.166-0.177-0.348-0.225-0.535l-0.167-0.555l-0.105-1.132l0.481,0.093    c-0.11,0.358-0.271,0.7-0.342,1.072c-0.099,0.364-0.166,0.736-0.218,1.111c-0.099,0.748-0.135,1.52-0.084,2.264l0.042,0.612    l-0.407-0.442l-1.527-1.659l0.271-0.056c-0.056,0.162-0.094,0.342-0.12,0.53c-0.027,0.185-0.071,0.368-0.085,0.556l-0.056,1.139    c-0.021,0.19,0.001,0.381,0.012,0.571l0.035,0.573l0.061,1.151l-0.169-1.141l-0.08-0.573c-0.025-0.191-0.062-0.382-0.057-0.576    l-0.018-1.165c0.006-0.194,0.042-0.39,0.062-0.585c0.018-0.194,0.048-0.391,0.109-0.596l0.076-0.25l0.196,0.195l1.598,1.59    l-0.365,0.17c-0.067-0.799-0.041-1.581,0.05-2.367c0.048-0.392,0.112-0.782,0.21-1.167c0.068-0.391,0.232-0.761,0.345-1.143    l0.374-1.26l0.107,1.353l0.083,1.043l0.141,0.492c0.039,0.169,0.091,0.33,0.187,0.468c0.09,0.138,0.143,0.309,0.261,0.424    c0.118,0.112,0.213,0.254,0.348,0.348c0.139,0.083,0.262,0.2,0.419,0.249c0.144,0.07,0.315,0.117,0.449,0.136l-0.17,0.365    c-0.158-0.221-0.146-0.345-0.219-0.523l-0.066-0.487c-0.054-0.33-0.008-0.62-0.017-0.931c0.007-0.162-0.008-0.288,0.018-0.479    l0.09-0.469c0.032-0.156,0.049-0.314,0.125-0.46l0.189-0.444c0.076-0.141,0.19-0.264,0.284-0.395    c0.085-0.141,0.23-0.227,0.358-0.326c0.123-0.109,0.269-0.177,0.42-0.233c0.145-0.073,0.297-0.115,0.455-0.137    c0.306-0.074,0.634-0.065,0.933-0.036c0.153,0.001,0.313,0.061,0.456,0.093L26.827,12.449z" fill="#1D1D1B"/></g><g><path d="M20.724,17.521c0,0,0.097-0.009,0.266-0.014c0.084-0.006,0.184-0.006,0.305,0.04    c0.118,0.037,0.277,0.069,0.393,0.164c0.264,0.156,0.534,0.394,0.77,0.672c0.114,0.137,0.231,0.278,0.351,0.422    c0.106,0.142,0.244,0.275,0.324,0.337l0.248,0.139l0.22,0.076c0.16,0.042,0.33,0.099,0.498,0.125    c0.17,0.031,0.334,0.061,0.49,0.09c0.15,0.02,0.292,0.039,0.422,0.056c0.161-0.018,0.231-0.017,0.314-0.075    c0.079-0.051,0.133-0.128,0.158-0.2c0.056-0.145,0.033-0.248,0.033-0.248c-0.008,0,0.069,0.081,0.062,0.267    c-0.003,0.091-0.037,0.207-0.125,0.316c-0.077,0.118-0.272,0.193-0.391,0.216c-0.195,0.021-0.318,0.024-0.497,0.032    c-0.168,0.001-0.347,0.006-0.532-0.019c-0.186-0.017-0.375-0.046-0.576-0.1l-0.315-0.106l-0.253-0.132    c-0.224-0.165-0.341-0.319-0.459-0.476c-0.12-0.151-0.213-0.312-0.317-0.45c-0.2-0.284-0.381-0.545-0.587-0.714    c-0.096-0.104-0.193-0.147-0.282-0.214c-0.083-0.072-0.183-0.104-0.266-0.122C20.815,17.556,20.724,17.521,20.724,17.521z" fill="#1D1D1B"/></g><g><path d="M28.135,27.377c-0.253-0.066-0.514-0.1-0.761-0.145c-0.119,0.001-0.221-0.017-0.353,0.037    c-0.117,0.042-0.263,0.062-0.413,0.077l0.009,0.001c-0.463,0.015-0.925,0.016-1.388,0l0.009-0.001    c-0.152-0.016-0.301-0.035-0.414-0.077l-0.092-0.027c-0.034-0.013-0.031-0.013-0.079-0.011l-0.194,0.002    c-0.233,0.045-0.494,0.077-0.749,0.144c0.235-0.11,0.473-0.226,0.748-0.293l0.194-0.026c0.018-0.009,0.085-0.006,0.114,0.002    l0.098,0.017c0.139,0.026,0.249,0.037,0.355,0.05l0.009-0.001c0.463-0.016,0.925-0.015,1.388,0l0.009,0.001    c0.109-0.013,0.22-0.024,0.355-0.049c0.12-0.036,0.278-0.013,0.418,0.008C27.66,27.152,27.899,27.266,28.135,27.377z" fill="#1D1D1B"/></g><g><g><path d="M25.258,22.762c0,0-0.007,0.054-0.019,0.148c-0.02,0.091-0.07,0.219-0.138,0.376     c-0.065,0.164-0.17,0.325-0.295,0.487c-0.121,0.155-0.241,0.34-0.177,0.446c0.027,0.056,0.097,0.133,0.174,0.215     c0.07,0.066,0.096,0.085,0.195,0.082c0.058,0.002,0.082-0.011,0.165,0.003c0.043,0.006,0.097,0.021,0.157,0.053     c0.105,0.056,0.164,0.114,0.229,0.167c0.123,0.104,0.221,0.185,0.308,0.223c0.086,0.031,0.141,0.043,0.141,0.043     s-0.053,0.003-0.152-0.003c-0.095-0.017-0.239-0.06-0.378-0.149c-0.067-0.04-0.149-0.091-0.213-0.111     c-0.023-0.013-0.061-0.021-0.116-0.02l-0.133,0.01c-0.042,0.008-0.133-0.005-0.197-0.019c-0.056-0.033-0.135-0.078-0.169-0.115     c-0.07-0.072-0.16-0.142-0.237-0.279c-0.057-0.142-0.029-0.315,0.04-0.412c0.059-0.109,0.131-0.191,0.197-0.271     c0.13-0.153,0.269-0.284,0.34-0.418c0.08-0.13,0.18-0.232,0.222-0.319C25.236,22.812,25.258,22.762,25.258,22.762z" fill="#1D1D1B"/></g><g><path d="M26.663,22.762c0,0,0.021,0.05,0.06,0.139c0.041,0.087,0.142,0.188,0.222,0.319     c0.072,0.133,0.21,0.266,0.34,0.418c0.065,0.08,0.137,0.162,0.196,0.271c0.068,0.097,0.096,0.271,0.039,0.412     c-0.077,0.137-0.167,0.207-0.237,0.278c-0.033,0.037-0.112,0.082-0.169,0.115c-0.063,0.014-0.155,0.027-0.196,0.019l-0.133-0.01     c-0.055-0.001-0.093,0.007-0.116,0.02c-0.064,0.021-0.146,0.071-0.213,0.111c-0.139,0.09-0.283,0.132-0.378,0.149     c-0.099,0.006-0.152,0.003-0.152,0.003s0.055-0.013,0.141-0.043c0.086-0.038,0.185-0.119,0.308-0.223     c0.065-0.052,0.124-0.11,0.229-0.167c0.06-0.033,0.113-0.048,0.157-0.054c0.082-0.014,0.106-0.001,0.164-0.003     c0.099,0.003,0.124-0.016,0.194-0.082c0.078-0.082,0.147-0.16,0.175-0.215c0.063-0.105-0.057-0.291-0.178-0.446     c-0.125-0.163-0.229-0.323-0.294-0.487c-0.069-0.157-0.119-0.285-0.139-0.375C26.669,22.815,26.663,22.762,26.663,22.762z" fill="#1D1D1B"/></g></g><g><g><g><path d="M28.955,20.449" fill="none"/></g></g></g><g><path d="M28.656,26.246" fill="none"/></g><g><path d="M27.572,20.756c0.302,0.138,0.605,0.252,0.915,0.31c0.154,0.021,0.306,0.053,0.455,0.038    c0.074-0.001,0.148,0.001,0.216-0.023l0.184-0.043c0.14-0.08,0.316-0.139,0.395-0.231c0.103-0.067,0.199-0.193,0.302-0.294    c0.189-0.227,0.347-0.505,0.469-0.765l0.17,0.331c-0.238-0.053-0.518-0.068-0.78-0.069c-0.135-0.013-0.266,0.01-0.397,0.031    L29.3,20.062c-0.06,0.009-0.151,0.009-0.187,0.025l-0.408,0.128c-0.144,0.035-0.259,0.1-0.383,0.154    C28.067,20.466,27.822,20.611,27.572,20.756z M27.572,20.756c0.183-0.226,0.401-0.414,0.646-0.591    c0.242-0.198,0.508-0.282,0.762-0.418c0.095-0.047,0.151-0.046,0.229-0.072l0.22-0.055c0.148-0.034,0.297-0.07,0.448-0.069    c0.306-0.028,0.599-0.013,0.919,0.047l0.283,0.054l-0.113,0.277c-0.14,0.341-0.333,0.624-0.564,0.899    c-0.131,0.127-0.249,0.253-0.428,0.359c-0.173,0.126-0.316,0.162-0.474,0.219c-0.138,0.029-0.2,0.024-0.302,0.037    c-0.093,0.015-0.183,0.001-0.271-0.011c-0.182-0.011-0.347-0.072-0.513-0.122C28.1,21.167,27.809,20.992,27.572,20.756z" fill="#1D1D1B"/></g><g><path d="M33.508,21.584c0.192-0.343,0.349-0.708,0.571-1.033c0.213-0.333,0.437-0.659,0.693-0.959    c0.244-0.311,0.521-0.596,0.805-0.87c0.285-0.275,0.588-0.529,0.916-0.759l-0.011,0.009c0.468-0.554,0.862-1.176,1.185-1.826    c0.339-0.646,0.547-1.346,0.703-2.051c0.246-1.434,0.357-2.9,0.425-4.359c0.015-0.365,0.023-0.73,0.022-1.094    c-0.002-0.181-0.005-0.364-0.021-0.535c-0.005-0.039-0.012-0.087-0.018-0.103c-0.005-0.019,0.003,0.018,0.028,0.034    c0.008-0.001,0.021,0.022,0.087,0.028c0.063-0.002,0.094-0.053,0.085-0.038c0.011-0.008,0.006-0.01-0.001,0.015    c-0.026,0.079-0.064,0.175-0.116,0.27c-0.387,0.663-0.868,1.213-1.334,1.785l-1.411,1.684l-0.162,0.213    c-0.046,0.043-0.115,0.206-0.104,0.129c-0.009-0.055-0.037-0.105-0.114-0.131c-0.09,0-0.026-0.003-0.047-0.003l-0.001,0    c0.027-0.015-0.037,0.022-0.027,0.016L35.668,12l0.027-0.021c0.03-0.041-0.008,0.004,0.02-0.046    c0.026-0.058,0.045-0.145,0.059-0.226c0.053-0.338,0.053-0.706,0.046-1.065c-0.019-0.725-0.082-1.454-0.165-2.178    c-0.043-0.358-0.087-0.731-0.155-1.069l-0.012-0.047c-0.006-0.021,0.005,0.03,0.046,0.064c0.052,0.022,0.048,0.056,0.192,0.028    c0.068-0.028,0.1-0.095,0.103-0.124c0.002-0.015,0.001-0.002,0.001-0.004V7.32c-0.003,0.031,0.005,0.049-0.003,0.139    c0.009,0.062-0.061,0.273-0.124,0.343c-0.137,0.191-0.308,0.305-0.476,0.408c-0.684,0.384-1.409,0.565-2.138,0.723    c-0.366,0.074-0.732,0.135-1.113,0.166c-0.097,0.007-0.191,0.012-0.297,0.009c-0.058-0.004-0.099,0-0.186-0.023    c-0.018-0.014-0.136-0.007-0.197-0.185c-0.014-0.054-0.001-0.122,0.014-0.152l0.031-0.046c0.02-0.027,0.059-0.064,0.066-0.067    c0.206-0.128,0.291-0.185,0.417-0.312c0.458-0.473,0.701-1.19,0.773-1.862l0.005-0.119l-0.002-0.044    c0,0.001-0.002-0.021,0.001-0.001l0.007,0.017c-0.007,0.002,0.063,0.102,0.12,0.104c0.05,0.035,0.194-0.011,0.208-0.047    l0.018-0.019c0.013-0.024,0.003-0.003,0.004-0.003L32.943,6.39l-0.029,0.118L32.9,6.57c-0.036,0.112-0.026,0.067-0.042,0.108    l-0.058,0.125c-0.036,0.083-0.15,0.188-0.231,0.273c-0.347,0.276-0.694,0.424-1.056,0.545c-1.439,0.471-2.906,0.646-4.383,0.789    l-0.007,0h-0.011l-2.334,0.001h-0.011l-0.007,0c-1.477-0.143-2.942-0.317-4.382-0.789c-0.358-0.118-0.717-0.276-1.048-0.538    C19.254,7,19.163,6.944,19.105,6.831c-0.052-0.109-0.122-0.247-0.128-0.324l-0.03-0.116l-0.014-0.042    c0.001,0.001-0.009-0.021,0.003,0.003l0.018,0.019c0.006,0.029,0.151,0.085,0.204,0.049c0.058-0.002,0.128-0.095,0.125-0.105    l0.007-0.018c0.003-0.021,0.001,0.002,0.001,0L19.29,6.342l0.005,0.119c0.072,0.671,0.314,1.388,0.772,1.861    c0.124,0.125,0.226,0.194,0.406,0.304c-0.001-0.003,0.05,0.037,0.072,0.068c0.014,0.017,0.026,0.035,0.036,0.052    c0.014,0.027,0.028,0.096,0.015,0.15c-0.06,0.183-0.18,0.175-0.197,0.189c-0.087,0.023-0.128,0.02-0.186,0.023    c-0.105,0.003-0.201-0.002-0.297-0.009c-0.381-0.03-0.747-0.091-1.113-0.165c-0.729-0.159-1.455-0.339-2.138-0.724    c-0.168-0.103-0.339-0.217-0.476-0.408c-0.065-0.095-0.124-0.217-0.126-0.355c-0.006-0.055,0.001-0.112-0.002-0.13V7.311    c0,0.001,0-0.006,0.001,0.001c0.002,0.028,0.029,0.094,0.097,0.125c0.148,0.035,0.147-0.003,0.198-0.023    c0.042-0.032,0.054-0.088,0.048-0.066l-0.012,0.047c-0.068,0.337-0.112,0.71-0.155,1.069c-0.083,0.724-0.146,1.453-0.165,2.177    c-0.007,0.36-0.007,0.728,0.046,1.065c0.014,0.082,0.032,0.168,0.059,0.226c0.01,0.035,0.029,0.052,0.031,0.055h-0.003    l-0.001,0.001c0.004,0.002-0.045-0.015-0.02-0.006l0.016,0.005c-0.015,0,0.08,0.017-0.025,0.001    c-0.103,0.023-0.125,0.084-0.134,0.134c0.009,0.08-0.011-0.006-0.031-0.024l-0.072-0.104l-0.163-0.213l-1.411-1.684    c-0.466-0.572-0.947-1.122-1.334-1.785c-0.044-0.078-0.092-0.197-0.116-0.271c-0.01-0.034-0.016-0.03-0.001-0.015    c-0.008-0.013,0.023,0.037,0.086,0.04c0.066-0.005,0.079-0.029,0.086-0.028c0.026-0.016,0.034-0.053,0.029-0.034    c-0.005,0.015-0.013,0.064-0.017,0.103c-0.017,0.17-0.02,0.354-0.022,0.535c-0.001,0.363,0.008,0.729,0.022,1.094    c0.067,1.459,0.178,2.925,0.424,4.359c0.157,0.708,0.366,1.409,0.703,2.051c0.322,0.65,0.716,1.272,1.184,1.826l-0.011-0.009    c0.328,0.23,0.631,0.484,0.916,0.759c0.285,0.274,0.561,0.559,0.805,0.87c0.257,0.301,0.48,0.626,0.693,0.959    c0.224,0.325,0.379,0.691,0.572,1.034c-0.201-0.339-0.365-0.699-0.596-1.019c-0.22-0.327-0.45-0.645-0.712-0.938    c-0.25-0.303-0.531-0.58-0.819-0.844c-0.288-0.265-0.598-0.511-0.919-0.726l-0.007-0.004l-0.004-0.005    c-0.493-0.556-0.904-1.173-1.249-1.828c-0.361-0.653-0.592-1.364-0.769-2.083c-0.295-1.452-0.402-2.92-0.486-4.39    c-0.018-0.368-0.03-0.736-0.032-1.106c0.001-0.186,0.001-0.37,0.02-0.564c0.007-0.052,0.008-0.096,0.031-0.168    c-0.002-0.004,0.021-0.059,0.06-0.094c0.012-0.013,0.035-0.038,0.113-0.038c0.074,0.006,0.118,0.056,0.114,0.055    c0.041,0.053,0.056,0.098,0.059,0.108c0.035,0.101,0.058,0.151,0.102,0.233c0.358,0.604,0.85,1.166,1.314,1.724l1.429,1.679    l0.173,0.223l0.085,0.121c0.025,0.061,0.062,0.053,0.084,0.223c-0.005,0.078-0.038,0.155-0.17,0.178    c-0.127-0.005-0.054-0.007-0.091-0.011l-0.017-0.005c0.019,0.007-0.035-0.012-0.035-0.014l-0.015-0.009l-0.058-0.042    c-0.063-0.058-0.098-0.121-0.118-0.172c-0.049-0.109-0.066-0.206-0.084-0.304c-0.063-0.387-0.063-0.758-0.06-1.13    c0.013-0.742,0.071-1.478,0.149-2.212c0.042-0.37,0.08-0.727,0.153-1.109l0.022-0.086c-0.005,0.01,0.015-0.055,0.062-0.097    c0.056-0.032,0.061-0.081,0.214-0.028c0.071,0.036,0.099,0.108,0.104,0.141l0.002,0.018l0.002,0.028    c0.006,0.073-0.002,0.109,0.004,0.145c0,0.046,0.022,0.098,0.06,0.152c0.077,0.11,0.215,0.21,0.36,0.295    c0.601,0.334,1.32,0.516,2.021,0.66c0.353,0.068,0.712,0.125,1.063,0.149c0.087,0.006,0.175,0.01,0.253,0.006    c0.033-0.001,0.085-0.006,0.086-0.008c0.024,0.006-0.04-0.022-0.092,0.119c-0.013,0.043,0.004,0.1,0.015,0.116    c0.002,0.009,0.007,0.019,0.013,0.027c0.007,0.015,0.045,0.034,0.023,0.021c-0.134-0.078-0.34-0.213-0.472-0.353    c-0.568-0.591-0.817-1.349-0.912-2.121l-0.008-0.156c0.001-0.032,0-0.053,0.004-0.093c0.004-0.023,0-0.025,0.012-0.067    l0.017-0.051c0.001-0.021,0.083-0.12,0.147-0.131c0.062-0.035,0.22,0.027,0.234,0.062l0.037,0.047    c0.027,0.042,0.022,0.043,0.034,0.064c0.017,0.038,0.021,0.059,0.032,0.088l0.04,0.15c0.046,0.169,0.088,0.221,0.214,0.336    c0.244,0.188,0.566,0.34,0.904,0.445c1.356,0.434,2.831,0.603,4.27,0.729l-0.018,0l2.334,0.001l-0.018,0    c1.438-0.125,2.913-0.295,4.27-0.729c0.335-0.102,0.669-0.265,0.897-0.438c0.037-0.051,0.094-0.047,0.134-0.132l0.059-0.125    c0.003,0,0.036-0.086,0.014-0.017l0.017-0.071l0.039-0.149c0.01-0.028,0.015-0.05,0.031-0.087    c0.011-0.021,0.007-0.023,0.034-0.065l0.037-0.047c0.022-0.042,0.18-0.094,0.238-0.059c0.064,0.012,0.145,0.118,0.142,0.13    l0.017,0.051c0.011,0.041,0.008,0.043,0.012,0.066l0.004,0.093l-0.008,0.156c-0.095,0.771-0.344,1.529-0.912,2.12    c-0.13,0.138-0.353,0.285-0.461,0.345c-0.013,0.007,0.014-0.009,0.018-0.02l0.008-0.021c0.013-0.02,0.028-0.075,0.014-0.118    c-0.052-0.136-0.114-0.11-0.09-0.115c0.001,0.002,0.053,0.008,0.086,0.009c0.079,0.003,0.167,0,0.254-0.006    c0.351-0.025,0.71-0.081,1.063-0.15c0.701-0.144,1.421-0.326,2.021-0.66c0.145-0.084,0.283-0.185,0.36-0.295    c0.04-0.079,0.05-0.042,0.061-0.166c0.005,0-0.002-0.075,0.004-0.135l0.002-0.026l0.003-0.021c0.006-0.035,0.039-0.107,0.11-0.14    c0.149-0.046,0.151,0,0.208,0.033c0.048,0.043,0.064,0.104,0.061,0.095l0.022,0.086c0.073,0.382,0.111,0.74,0.153,1.11    c0.078,0.734,0.135,1.469,0.148,2.212c0.003,0.372,0.003,0.743-0.06,1.13c-0.019,0.098-0.036,0.194-0.085,0.303    c-0.003,0.035-0.095,0.16-0.129,0.181l-0.028,0.021l-0.007,0.005c0.006-0.002-0.063,0.037-0.043,0.023l-0.033,0.011    c-0.042,0.003,0,0.02-0.112,0.009c-0.106-0.026-0.145-0.094-0.149-0.175c0.021-0.168,0.058-0.162,0.083-0.222l0.085-0.121    l0.174-0.223l1.43-1.679c0.465-0.559,0.956-1.121,1.314-1.724c0.037-0.066,0.069-0.14,0.103-0.235    c0.005-0.02,0.021-0.062,0.059-0.107c-0.005,0.001,0.039-0.049,0.113-0.054c0.078,0,0.101,0.025,0.112,0.038    c0.039,0.035,0.062,0.089,0.06,0.094c0.022,0.072,0.023,0.115,0.031,0.167c0.018,0.195,0.019,0.378,0.019,0.565    c-0.002,0.37-0.015,0.738-0.032,1.106c-0.083,1.47-0.191,2.938-0.486,4.39c-0.178,0.721-0.409,1.434-0.769,2.083    c-0.345,0.655-0.756,1.272-1.249,1.828l-0.004,0.004l-0.007,0.005c-0.322,0.215-0.632,0.46-0.919,0.726    c-0.288,0.265-0.569,0.541-0.819,0.844c-0.263,0.293-0.492,0.611-0.712,0.938C33.873,20.884,33.709,21.246,33.508,21.584z" fill="#1D1D1B"/></g><g><path d="M33.637,21.33l-0.411,3.085l-0.234,1.539c-0.07,0.507-0.196,1.041-0.301,1.565    c-0.113,0.27-0.248,0.465-0.372,0.701c-0.111,0.231-0.268,0.447-0.441,0.656c-0.169,0.207-0.324,0.438-0.509,0.626l-0.551,0.565    l-0.57,0.537c-0.219,0.198-0.41,0.328-0.688,0.474c-0.5,0.247-1.007,0.39-1.542,0.497l-0.329,0.066l0.058-0.34    c0.216-1.283,0.434-2.565,0.674-3.845L28.416,27.5l0.008-1.254l0.003-0.438l0.342,0.234c0.096,0.066,0.163,0.145,0.192,0.2    c0.046,0.064,0.066,0.119,0.097,0.177c0.054,0.114,0.098,0.226,0.136,0.337c0.079,0.223,0.143,0.444,0.202,0.667    c0.12,0.444,0.22,0.887,0.31,1.338l-0.341-0.13c0.229-0.181,0.461-0.384,0.669-0.597c0.215-0.21,0.413-0.438,0.576-0.681    c0.072-0.125,0.181-0.239,0.223-0.375c0.044-0.133,0.137-0.261,0.146-0.397c0.015-0.146,0.045-0.248,0.054-0.433l0.033-0.464    c0.025-0.31,0.031-0.619,0.093-0.93l0.152-0.93c0.12-0.613,0.247-1.22,0.391-1.825l0.005-0.018l0.012-0.01l1.197-1.023    l-1.127,1.101l0.017-0.028c-0.103,0.61-0.189,1.227-0.268,1.837L31.43,24.77c-0.049,0.301-0.044,0.614-0.058,0.923l-0.016,0.465    c-0.003,0.125-0.026,0.33-0.043,0.492c-0.012,0.175-0.104,0.317-0.154,0.479c-0.049,0.164-0.156,0.287-0.233,0.432    c-0.172,0.277-0.376,0.528-0.595,0.761c-0.215,0.24-0.453,0.445-0.707,0.653l-0.267,0.218l-0.074-0.348    c-0.093-0.436-0.198-0.875-0.318-1.304c-0.061-0.214-0.125-0.427-0.2-0.63c-0.036-0.102-0.077-0.201-0.121-0.292    c-0.022-0.041-0.044-0.093-0.066-0.12c-0.026-0.046-0.04-0.045-0.033-0.051l0.345-0.203l0.008,1.254v0.019l-0.004,0.023    c-0.212,1.283-0.446,2.563-0.682,3.843l-0.271-0.273c0.479-0.09,0.982-0.227,1.415-0.437c0.187-0.087,0.428-0.245,0.593-0.396    l0.569-0.522c0.365-0.358,0.725-0.72,1.031-1.106c0.167-0.183,0.324-0.379,0.448-0.612c0.124-0.217,0.292-0.454,0.381-0.654    c0.108-0.49,0.242-0.962,0.335-1.48l0.31-1.522L33.637,21.33z" fill="#1D1D1B"/></g><g><path d="M25.065,12.449l0.445-0.115c0.143-0.032,0.303-0.092,0.456-0.093c0.299-0.029,0.627-0.038,0.933,0.036    c0.158,0.022,0.311,0.064,0.455,0.137c0.151,0.056,0.298,0.124,0.42,0.233c0.128,0.099,0.273,0.185,0.358,0.326    c0.094,0.131,0.207,0.254,0.283,0.395l0.189,0.444c0.076,0.146,0.093,0.304,0.125,0.46l0.09,0.469    c0.024,0.19,0.01,0.317,0.018,0.479c-0.009,0.312,0.037,0.601-0.018,0.931l-0.065,0.487c-0.073,0.178-0.062,0.302-0.22,0.523    l-0.17-0.365c0.135-0.02,0.306-0.066,0.449-0.136c0.157-0.049,0.28-0.166,0.42-0.249c0.134-0.093,0.229-0.235,0.348-0.348    c0.117-0.115,0.171-0.286,0.261-0.424c0.096-0.138,0.148-0.299,0.188-0.468l0.141-0.492l0.083-1.043l0.106-1.353l0.374,1.26    c0.113,0.382,0.276,0.751,0.346,1.143c0.098,0.385,0.162,0.775,0.21,1.167c0.091,0.787,0.117,1.568,0.05,2.367l-0.365-0.17    l1.598-1.59l0.196-0.195l0.075,0.25c0.062,0.205,0.091,0.402,0.109,0.596c0.02,0.195,0.056,0.391,0.062,0.585l-0.019,1.165    c0.006,0.194-0.031,0.385-0.057,0.576l-0.08,0.573l-0.169,1.141l0.061-1.151l0.035-0.573c0.01-0.19,0.032-0.381,0.012-0.571    l-0.056-1.139c-0.015-0.188-0.059-0.371-0.086-0.556c-0.025-0.188-0.063-0.368-0.119-0.53l0.271,0.056l-1.527,1.659l-0.407,0.443    l0.042-0.612c0.051-0.744,0.015-1.516-0.084-2.264c-0.053-0.375-0.12-0.747-0.219-1.111c-0.07-0.373-0.231-0.714-0.342-1.072    l0.48-0.093l-0.105,1.132l-0.166,0.555c-0.048,0.188-0.111,0.369-0.225,0.535c-0.108,0.165-0.177,0.354-0.319,0.496    c-0.144,0.138-0.265,0.302-0.43,0.415c-0.171,0.104-0.326,0.236-0.52,0.298c-0.188,0.082-0.369,0.136-0.597,0.162l-0.499,0.057    l0.329-0.421c0.022-0.03,0.08-0.222,0.12-0.327l0.069-0.422c0.065-0.273,0.036-0.603,0.059-0.902    c0.001-0.144,0.021-0.326,0.006-0.439l-0.063-0.437c-0.015-0.302-0.153-0.56-0.245-0.838c-0.063-0.129-0.158-0.238-0.234-0.36    c-0.069-0.131-0.193-0.209-0.298-0.308c-0.102-0.107-0.228-0.177-0.361-0.238c-0.126-0.077-0.264-0.127-0.41-0.159    c-0.284-0.091-0.582-0.108-0.891-0.103c-0.155-0.008-0.292,0.031-0.45,0.049L25.065,12.449z" fill="#1D1D1B"/></g><g><path d="M31.123,17.521c0,0-0.092,0.034-0.253,0.082c-0.083,0.018-0.183,0.049-0.266,0.122    c-0.088,0.066-0.186,0.11-0.281,0.214c-0.207,0.169-0.388,0.431-0.588,0.714c-0.104,0.138-0.196,0.298-0.317,0.45    c-0.118,0.157-0.234,0.312-0.459,0.476l-0.253,0.132l-0.315,0.106c-0.201,0.054-0.391,0.083-0.576,0.1    c-0.185,0.025-0.363,0.02-0.531,0.019c-0.179-0.007-0.302-0.01-0.498-0.032c-0.118-0.023-0.313-0.099-0.39-0.217    c-0.088-0.108-0.121-0.225-0.125-0.315c-0.007-0.187,0.07-0.267,0.062-0.267c0,0-0.022,0.103,0.034,0.248    c0.024,0.072,0.079,0.149,0.158,0.2c0.083,0.059,0.154,0.057,0.314,0.075c0.13-0.018,0.272-0.036,0.422-0.056    c0.155-0.029,0.319-0.059,0.489-0.09c0.168-0.026,0.339-0.084,0.498-0.125l0.22-0.076l0.248-0.139    c0.08-0.063,0.217-0.195,0.323-0.337c0.119-0.144,0.237-0.285,0.351-0.422c0.236-0.278,0.506-0.516,0.77-0.672    c0.116-0.095,0.275-0.127,0.394-0.164c0.121-0.046,0.22-0.046,0.305-0.04C31.026,17.512,31.123,17.521,31.123,17.521z" fill="#1D1D1B"/></g><g><path d="M24.735,22.922c0,0-0.075,0.049-0.18,0.157c-0.106,0.104-0.241,0.276-0.374,0.493    c-0.064,0.11-0.133,0.229-0.207,0.356c-0.054,0.136-0.111,0.28-0.17,0.428c-0.148,0.284-0.184,0.634-0.283,0.959    c-0.092,0.329-0.111,0.676-0.168,0.993c-0.063,0.317-0.066,0.62-0.084,0.879c-0.04,0.519-0.08,0.868-0.08,0.868    s-0.033-0.346-0.061-0.871c-0.002-0.263-0.046-0.571,0.009-0.898c0.047-0.327,0.055-0.682,0.14-1.025    c0.114-0.336,0.163-0.692,0.327-0.988c0.073-0.149,0.144-0.294,0.21-0.431c0.09-0.125,0.174-0.242,0.252-0.351    c0.158-0.214,0.338-0.354,0.462-0.444C24.656,22.956,24.735,22.922,24.735,22.922z" fill="#1D1D1B"/></g><g><path d="M27.199,22.762c0,0,0.08,0.034,0.206,0.124c0.123,0.09,0.304,0.23,0.462,0.444    c0.078,0.108,0.163,0.226,0.252,0.35c0.067,0.137,0.138,0.282,0.211,0.432c0.164,0.296,0.214,0.651,0.327,0.987    c0.085,0.344,0.093,0.699,0.141,1.025c0.055,0.327,0.011,0.636,0.009,0.899c-0.027,0.525-0.061,0.871-0.061,0.871    s-0.041-0.35-0.08-0.868c-0.019-0.259-0.021-0.562-0.084-0.879c-0.057-0.316-0.076-0.664-0.168-0.993    c-0.1-0.324-0.136-0.675-0.283-0.958c-0.06-0.148-0.116-0.292-0.171-0.428c-0.073-0.126-0.143-0.246-0.207-0.356    c-0.133-0.216-0.268-0.389-0.374-0.493C27.274,22.81,27.199,22.762,27.199,22.762z" fill="#1D1D1B"/></g><g><g><path d="M15.948,49.113c-0.728-0.781-1.435-1.585-2.042-2.479c-0.13-0.241-0.3-0.452-0.387-0.729     c-0.118-0.267-0.156-0.56-0.109-0.845c0.037-0.279,0.091-0.554,0.239-0.825c0.046-0.066,0.074-0.136,0.155-0.196     c0.055-0.035,0.029-0.053,0.152-0.097l0.098-0.019c0.149-0.023,0.392,0.054,0.489,0.106c0.259,0.113,0.491,0.263,0.71,0.343     c0.057,0.025,0.099,0.022,0.147,0.039c0.032,0.027,0.09-0.052,0.031,0.032c0.031-0.046,0.119-0.107,0.104-0.141     c-0.005-0.043,0.007-0.036,0.016-0.105c0.042-0.228,0.041-0.502,0.083-0.785c0.025-0.142,0.039-0.302,0.172-0.478     c0.04-0.045,0.083-0.087,0.128-0.123l0.008-0.007c-0.009,0.001,0.114-0.043,0.064-0.024l0.012-0.002l0.025-0.005l0.049-0.009     c0.048-0.021,0.171-0.007,0.277,0.016c0.354,0.105,0.546,0.248,0.785,0.364c0.109,0.051,0.226,0.105,0.306,0.117     c0.104-0.009,0.02,0.053,0.126-0.081c-0.007-0.037-0.004-0.038,0.009-0.085l0.027-0.176l0.034-0.393     c0.01-0.135,0.028-0.28,0.065-0.436c0.037-0.087,0.04-0.162,0.112-0.256c0.039-0.048,0.083-0.094,0.13-0.134l0.035-0.029     c0.031-0.012-0.057,0.018,0.071-0.028l0.006-0.001l0.012-0.003l0.049-0.009c0.045-0.02,0.17-0.014,0.288,0.013     c0.134,0.027,0.165,0.06,0.245,0.09c0.137,0.06,0.254,0.131,0.369,0.189c0.114,0.062,0.228,0.116,0.318,0.145     c0.033,0.005,0.102,0.031,0.085,0.015c-0.023,0.011,0.051-0.022-0.042,0.043l0.068-0.073c0.034-0.065,0.078-0.356,0.098-0.616     c0.01-0.134,0.028-0.275,0.057-0.426c0.054-0.155,0.046-0.329,0.351-0.521c0.075-0.016,0.104-0.044,0.216-0.049     c0.095-0.005,0.217-0.011,0.281,0.008c0.155,0.021,0.295,0.065,0.434,0.11c0.273,0.104,0.522,0.221,0.775,0.424     c0.134,0.135,0.188,0.212,0.285,0.32l0.237,0.375c0.134,0.254,0.257,0.497,0.353,0.753c0.407,1.014,0.663,2.061,0.879,3.111     c0.213,1.051,0.402,2.104,0.526,3.169l-0.021-0.049l1.822,2.521l-1.989-2.391l-0.016-0.019l-0.006-0.032     c-0.196-1.045-0.401-2.091-0.659-3.122c-0.127-0.516-0.267-1.027-0.422-1.533c-0.161-0.502-0.312-1.01-0.521-1.487     c-0.223-0.487-0.401-0.927-0.771-1.27c-0.335-0.247-0.928-0.504-1.26-0.383c0.083-0.001,0.018-0.01,0.019,0.029     c-0.01,0.048-0.032,0.075-0.041,0.135c-0.02,0.112-0.035,0.234-0.043,0.368c-0.046,0.26,0.023,0.541-0.233,0.928l-0.069,0.072     c-0.141,0.109-0.146,0.063-0.23,0.095c-0.149,0.03-0.209-0.015-0.306-0.031c-0.162-0.054-0.288-0.122-0.407-0.188     c-0.246-0.132-0.463-0.263-0.571-0.254c0.002-0.071-0.109,0.226-0.113,0.471l-0.04,0.404l-0.037,0.22     c-0.018,0.083-0.07,0.204-0.119,0.293c-0.026,0.052-0.047,0.056-0.071,0.086l-0.035,0.036l-0.017,0.019l-0.004,0.004     c-0.107,0.079-0.036,0.024-0.063,0.042l-0.021,0.007c-0.108,0.03-0.259,0.061-0.327,0.027c-0.185-0.034-0.307-0.104-0.439-0.165     c-0.234-0.127-0.497-0.278-0.652-0.331c-0.024-0.005-0.03-0.049-0.114-0.022l-0.049,0.009l-0.024,0.004l-0.012,0.003     c-0.054,0.019,0.065-0.025,0.053-0.02v0.002c-0.001,0.012-0.003,0.019-0.01,0.021c-0.031,0.031-0.068,0.15-0.083,0.268     c-0.043,0.243-0.035,0.508-0.102,0.804c-0.006,0.064-0.061,0.19-0.104,0.275c-0.049,0.1-0.094,0.109-0.141,0.169     c-0.329,0.154-0.44,0.041-0.599,0.003c-0.277-0.117-0.491-0.271-0.718-0.379c-0.222-0.107-0.349-0.164-0.471,0.051     c-0.117,0.193-0.186,0.449-0.225,0.696c-0.124,0.503,0.166,0.948,0.391,1.422C14.624,47.433,15.275,48.286,15.948,49.113z" fill="#1D1D1B"/></g><g><path d="M14.864,44.398l-0.819-1.113c-0.267-0.375-0.56-0.733-0.805-1.123l-1.463-2.354     c-0.47-0.796-0.901-1.61-1.354-2.415c-0.456-0.803-0.882-1.62-1.308-2.438c-0.874-1.626-1.668-3.29-2.487-4.943     c-0.798-1.663-1.593-3.326-2.361-5.005l0.446-0.224c1.789,3.211,3.602,6.413,5.446,9.593l1.376,2.39     c0.465,0.792,0.903,1.604,1.392,2.381l2.875,4.709l-3.083-4.581c-0.514-0.765-0.967-1.565-1.454-2.347L9.829,34.57     c-0.974-1.563-1.883-3.163-2.805-4.755l-2.747-4.79l0.446-0.224c1.505,3.358,3.095,6.683,4.734,9.979     c0.404,0.826,0.81,1.653,1.244,2.465c0.43,0.813,0.845,1.636,1.287,2.441l1.352,2.404c0.228,0.4,0.505,0.771,0.755,1.157     L14.864,44.398z" fill="#1D1D1B"/></g><g><path d="M6.634,24.143c0,0,0.741,1.167,1.819,2.934c0.534,0.886,1.156,1.92,1.823,3.028     c0.646,1.12,1.356,2.301,2.071,3.479c1.389,2.383,2.761,4.774,3.85,6.529c1.064,1.771,1.744,2.979,1.744,2.979     s-0.811-1.114-1.98-2.826c-0.563-0.868-1.298-1.839-1.948-2.957c-0.668-1.108-1.382-2.29-2.096-3.472     c-0.697-1.192-1.389-2.387-2.017-3.518c-0.619-1.137-1.196-2.197-1.691-3.106C7.235,25.387,6.634,24.143,6.634,24.143z" fill="#1D1D1B"/></g><g><path d="M17.002,43.636c0,0-0.213-0.272-0.585-0.749c-0.184-0.24-0.406-0.532-0.662-0.867     c-0.268-0.325-0.522-0.728-0.794-1.172c-0.54-0.887-1.232-1.898-1.835-3.046c-0.626-1.137-1.299-2.348-1.923-3.583     c-1.254-2.468-2.418-4.978-3.244-6.882c-0.831-1.901-1.325-3.194-1.325-3.194s0.632,1.23,1.58,3.075     c0.468,0.925,1.013,2.003,1.598,3.159c0.57,1.162,1.196,2.393,1.836,3.615c0.603,1.242,1.252,2.459,1.858,3.602     c0.586,1.156,1.186,2.192,1.688,3.098c0.253,0.45,0.472,0.872,0.712,1.22c0.229,0.354,0.427,0.664,0.591,0.919     C16.818,43.343,17.002,43.636,17.002,43.636z" fill="#1D1D1B"/></g><g><path d="M8.689,22.926c0,0,0.741,1.167,1.819,2.933c0.534,0.886,1.156,1.92,1.823,3.028     c0.645,1.12,1.356,2.302,2.071,3.48c1.389,2.382,2.761,4.773,3.85,6.528c1.065,1.771,1.744,2.979,1.744,2.979     s-0.811-1.114-1.98-2.826c-0.564-0.868-1.298-1.839-1.948-2.957c-0.669-1.107-1.382-2.289-2.096-3.472     c-0.697-1.191-1.389-2.386-2.017-3.518c-0.619-1.136-1.196-2.197-1.692-3.106C9.29,24.17,8.689,22.926,8.689,22.926z" fill="#1D1D1B"/></g><g><path d="M19.059,42.418c0,0-0.213-0.272-0.585-0.749c-0.184-0.24-0.407-0.532-0.663-0.866     c-0.268-0.326-0.522-0.729-0.795-1.172c-0.54-0.888-1.231-1.899-1.835-3.046c-0.626-1.137-1.299-2.349-1.923-3.583     c-1.254-2.468-2.418-4.978-3.244-6.881c-0.831-1.902-1.325-3.195-1.325-3.195s0.632,1.23,1.58,3.075     c0.468,0.924,1.013,2.003,1.598,3.159c0.57,1.162,1.196,2.393,1.836,3.615c0.603,1.242,1.252,2.459,1.858,3.602     c0.587,1.156,1.186,2.192,1.688,3.097c0.253,0.45,0.472,0.873,0.713,1.221c0.228,0.354,0.427,0.663,0.591,0.918     C18.875,42.125,19.059,42.418,19.059,42.418z" fill="#1D1D1B"/></g></g><g><g><path d="M35.521,48.725c0.673-0.827,1.324-1.68,1.857-2.593c0.226-0.473,0.514-0.92,0.392-1.423     c-0.039-0.247-0.107-0.503-0.225-0.696c-0.122-0.216-0.25-0.159-0.473-0.052c-0.228,0.108-0.44,0.262-0.718,0.379     c-0.158,0.038-0.27,0.15-0.597-0.003c-0.048-0.059-0.093-0.069-0.142-0.168c-0.043-0.084-0.097-0.21-0.104-0.274     c-0.066-0.296-0.061-0.561-0.103-0.805c-0.015-0.117-0.052-0.236-0.082-0.268c-0.007-0.004-0.008-0.011-0.01-0.022v-0.002     c-0.012-0.006,0.107,0.039,0.054,0.02l-0.013-0.002l-0.024-0.004l-0.049-0.009c-0.084-0.026-0.091,0.017-0.115,0.021     c-0.155,0.053-0.418,0.204-0.652,0.331c-0.132,0.062-0.254,0.132-0.438,0.166c-0.068,0.032-0.218,0.004-0.326-0.026l-0.021-0.007     l-0.011-0.003c-0.106-0.079-0.032-0.024-0.057-0.043l-0.018-0.019l-0.034-0.036c-0.024-0.029-0.045-0.034-0.071-0.085     c-0.049-0.09-0.102-0.21-0.119-0.293l-0.037-0.22l-0.041-0.404c-0.003-0.244-0.116-0.545-0.111-0.474     c-0.111-0.009-0.325,0.122-0.572,0.254c-0.119,0.064-0.245,0.134-0.406,0.187c-0.098,0.017-0.155,0.063-0.305,0.032l-0.098-0.021     l-0.047-0.014l-0.011-0.004c-0.029-0.021,0.048,0.04-0.067-0.046l-0.009-0.01l-0.069-0.072c-0.259-0.383-0.189-0.668-0.235-0.927     c-0.009-0.133-0.023-0.256-0.044-0.367c-0.008-0.061-0.03-0.088-0.04-0.135c0.001-0.04-0.063-0.029,0.019-0.029     c-0.33-0.122-0.924,0.135-1.258,0.383c-0.37,0.343-0.548,0.781-0.771,1.269c-0.207,0.478-0.362,0.984-0.518,1.488     c-0.154,0.506-0.295,1.018-0.422,1.533c-0.256,1.031-0.466,2.076-0.654,3.123l-0.006,0.033l-0.018,0.021l-2.167,2.607     l1.986-2.748L27.5,48.323c0.132-1.064,0.316-2.118,0.53-3.17c0.215-1.051,0.476-2.097,0.883-3.11     c0.097-0.256,0.22-0.499,0.354-0.753l0.237-0.375c0.098-0.108,0.15-0.186,0.285-0.32c0.252-0.204,0.502-0.32,0.775-0.425     c0.139-0.045,0.278-0.089,0.435-0.11c0.063-0.018,0.187-0.013,0.281-0.007c0.112,0.005,0.142,0.033,0.217,0.049     c0.304,0.192,0.297,0.366,0.351,0.521c0.029,0.151,0.047,0.293,0.057,0.427c0.02,0.261,0.065,0.549,0.098,0.616l0.068,0.073     c-0.094-0.066-0.021-0.031-0.043-0.044c-0.017,0.019,0.054-0.01,0.086-0.014c0.091-0.029,0.205-0.084,0.319-0.146     c0.114-0.059,0.231-0.13,0.369-0.189c0.078-0.029,0.111-0.063,0.245-0.089c0.118-0.026,0.24-0.031,0.286-0.013l0.05,0.009     l0.012,0.003l0.007,0.001c0.13,0.049,0.041,0.018,0.072,0.03l0.034,0.029c0.047,0.04,0.091,0.086,0.129,0.134     c0.07,0.094,0.075,0.168,0.11,0.255c0.037,0.155,0.055,0.301,0.064,0.436l0.035,0.393l0.026,0.176     c0.013,0.046,0.017,0.048,0.009,0.085c0.107,0.133,0.021,0.072,0.127,0.08c0.081-0.012,0.197-0.066,0.307-0.118     c0.239-0.115,0.431-0.259,0.785-0.363c0.105-0.022,0.229-0.037,0.276-0.017l0.05,0.01l0.024,0.004l0.012,0.003     c-0.049-0.019,0.074,0.025,0.065,0.024l0.008,0.007c0.045,0.036,0.089,0.078,0.128,0.123c0.132,0.176,0.146,0.336,0.171,0.478     c0.042,0.283,0.039,0.557,0.081,0.785c0.009,0.068,0.021,0.063,0.016,0.105c-0.014,0.034,0.073,0.095,0.105,0.141     c-0.06-0.083-0.001-0.004,0.032-0.032c0.049-0.017,0.091-0.013,0.147-0.039c0.221-0.08,0.452-0.229,0.711-0.342     c0.097-0.054,0.339-0.131,0.487-0.107l0.099,0.019c0.123,0.044,0.097,0.063,0.151,0.097c0.081,0.061,0.109,0.13,0.155,0.196     c0.147,0.271,0.202,0.546,0.238,0.825c0.114,0.588-0.233,1.13-0.497,1.572C36.955,47.139,36.249,47.943,35.521,48.725z" fill="#1D1D1B"/></g><g><path d="M36.605,44.009l0.77-1.149c0.25-0.387,0.527-0.757,0.755-1.157l1.352-2.404     c0.442-0.806,0.857-1.629,1.287-2.441c0.434-0.812,0.84-1.639,1.244-2.465c1.639-3.297,3.229-6.621,4.734-9.979l0.445,0.224     l-2.747,4.79c-0.922,1.592-1.831,3.192-2.805,4.755l-1.438,2.357c-0.486,0.781-0.94,1.582-1.454,2.347l-3.083,4.581l2.875-4.71     c0.489-0.776,0.926-1.588,1.392-2.38l1.377-2.391c1.845-3.18,3.657-6.381,5.447-9.592l0.445,0.224     c-0.769,1.679-1.563,3.342-2.361,5.005c-0.818,1.653-1.613,3.317-2.487,4.943c-0.426,0.818-0.852,1.636-1.308,2.438     c-0.452,0.805-0.884,1.619-1.354,2.415l-1.463,2.354c-0.245,0.391-0.538,0.748-0.806,1.123L36.605,44.009z" fill="#1D1D1B"/></g><g><path d="M44.836,23.754c0,0-0.602,1.244-1.575,3.071c-0.495,0.91-1.073,1.97-1.692,3.106     c-0.627,1.132-1.319,2.326-2.017,3.519c-0.713,1.182-1.427,2.363-2.096,3.471c-0.65,1.119-1.385,2.089-1.948,2.957     c-1.17,1.712-1.98,2.826-1.98,2.826s0.68-1.208,1.744-2.979c1.089-1.755,2.462-4.146,3.851-6.528     c0.715-1.179,1.426-2.359,2.071-3.48c0.667-1.107,1.289-2.142,1.823-3.028C44.096,24.92,44.836,23.754,44.836,23.754z" fill="#1D1D1B"/></g><g><path d="M34.467,43.246c0,0,0.185-0.293,0.507-0.806c0.164-0.255,0.362-0.563,0.591-0.919     c0.24-0.347,0.459-0.77,0.712-1.22c0.502-0.905,1.101-1.94,1.688-3.097c0.605-1.144,1.255-2.359,1.858-3.603     c0.641-1.222,1.267-2.452,1.836-3.615c0.585-1.155,1.13-2.234,1.598-3.159c0.948-1.845,1.58-3.075,1.58-3.075     s-0.495,1.293-1.325,3.195c-0.826,1.903-1.99,4.414-3.244,6.881c-0.624,1.234-1.296,2.445-1.923,3.583     c-0.604,1.146-1.295,2.158-1.835,3.046c-0.272,0.443-0.526,0.846-0.794,1.171c-0.256,0.335-0.479,0.627-0.663,0.867     C34.68,42.974,34.467,43.246,34.467,43.246z" fill="#1D1D1B"/></g><g><path d="M42.781,22.536c0,0-0.602,1.244-1.575,3.071c-0.496,0.909-1.073,1.97-1.692,3.107     c-0.628,1.131-1.319,2.325-2.017,3.518c-0.714,1.182-1.427,2.363-2.096,3.472c-0.65,1.118-1.385,2.089-1.949,2.957     c-1.169,1.712-1.979,2.826-1.979,2.826s0.679-1.208,1.744-2.979c1.089-1.755,2.461-4.146,3.85-6.529     c0.716-1.179,1.427-2.359,2.072-3.479c0.667-1.108,1.289-2.143,1.823-3.029C42.04,23.703,42.781,22.536,42.781,22.536z" fill="#1D1D1B"/></g><g><path d="M32.41,42.029c0,0,0.185-0.293,0.507-0.806c0.164-0.255,0.363-0.563,0.591-0.918     c0.241-0.348,0.46-0.771,0.713-1.221c0.502-0.905,1.102-1.94,1.688-3.097c0.605-1.144,1.255-2.359,1.857-3.603     c0.641-1.223,1.268-2.453,1.837-3.615c0.585-1.156,1.13-2.234,1.598-3.159c0.948-1.845,1.58-3.075,1.58-3.075     s-0.495,1.293-1.325,3.195c-0.826,1.904-1.99,4.415-3.244,6.882c-0.624,1.234-1.297,2.445-1.923,3.583     c-0.604,1.146-1.296,2.158-1.836,3.046c-0.272,0.443-0.526,0.846-0.795,1.171c-0.256,0.335-0.479,0.627-0.662,0.867     C32.623,41.757,32.41,42.029,32.41,42.029z" fill="#1D1D1B"/></g></g><g><g><g><path d="M16.802,33.103c0,0-0.938-0.038-2.315,0.122c-0.688,0.077-1.484,0.217-2.314,0.438      c-0.419,0.096-0.833,0.26-1.263,0.389c-0.409,0.185-0.852,0.314-1.244,0.546c-0.406,0.205-0.813,0.411-1.173,0.679      c-0.183,0.128-0.375,0.241-0.551,0.372c-0.167,0.142-0.333,0.282-0.495,0.42c-0.339,0.262-0.616,0.567-0.883,0.856      c-0.134,0.144-0.264,0.284-0.39,0.42c-0.107,0.151-0.21,0.298-0.309,0.438c-0.189,0.286-0.401,0.528-0.54,0.772      c-0.135,0.248-0.253,0.464-0.35,0.642c-0.202,0.355-0.317,0.559-0.317,0.559s0.083-0.218,0.229-0.6      c0.076-0.191,0.169-0.423,0.275-0.689c0.109-0.266,0.292-0.535,0.47-0.841c0.092-0.152,0.187-0.311,0.286-0.475      c0.119-0.149,0.243-0.305,0.37-0.464c0.254-0.319,0.518-0.663,0.866-0.946c0.323-0.31,0.669-0.617,1.069-0.865      c0.376-0.284,0.797-0.507,1.221-0.726c0.416-0.236,0.877-0.368,1.306-0.553c0.447-0.134,0.886-0.275,1.321-0.361      c0.866-0.196,1.694-0.256,2.397-0.29C15.88,32.903,16.802,33.103,16.802,33.103z" fill="#1D1D1B"/></g></g><g><g><path d="M20.232,29.319c0,0-0.039,0.477-0.154,1.176c-0.031,0.175-0.064,0.363-0.1,0.563l-0.027,0.151      l-0.007,0.039l-0.016,0.059l-0.022,0.076c-0.019,0.098-0.073,0.209-0.151,0.332c-0.28,0.452-0.71,0.727-1.142,0.961      c-0.877,0.451-1.823,0.644-2.526,0.756c-0.707,0.107-1.185,0.105-1.185,0.105s0.452-0.156,1.12-0.379      c0.665-0.225,1.558-0.517,2.362-0.926c0.398-0.198,0.783-0.46,0.998-0.748c0.052-0.058,0.1-0.137,0.143-0.245l0.034-0.072      l0.008-0.018c-0.011,0.035,0-0.001,0,0.002l0.013-0.037l0.048-0.146c0.064-0.192,0.125-0.374,0.181-0.542      C20.039,29.756,20.232,29.319,20.232,29.319z" fill="#1D1D1B"/></g></g></g><g><path d="M35.443,32.528c0,0,0.875-0.192,2.217-0.165c0.669,0.025,1.454,0.072,2.28,0.243    c0.414,0.074,0.834,0.199,1.262,0.315c0.412,0.163,0.852,0.28,1.255,0.487c0.407,0.196,0.816,0.39,1.185,0.644    c0.187,0.121,0.372,0.24,0.556,0.359c0.168,0.139,0.334,0.276,0.498,0.412c0.341,0.254,0.616,0.559,0.871,0.853    c0.129,0.144,0.255,0.283,0.376,0.418c0.104,0.149,0.204,0.294,0.3,0.433c0.188,0.279,0.371,0.528,0.496,0.771    c0.116,0.246,0.218,0.46,0.302,0.637c0.159,0.354,0.251,0.556,0.251,0.556s-0.122-0.186-0.337-0.509    c-0.104-0.162-0.229-0.359-0.373-0.585c-0.153-0.219-0.364-0.438-0.562-0.697c-0.104-0.127-0.21-0.259-0.321-0.395    c-0.127-0.121-0.259-0.247-0.395-0.375c-0.266-0.263-0.553-0.529-0.886-0.763c-0.16-0.123-0.324-0.248-0.489-0.375    c-0.178-0.108-0.358-0.218-0.54-0.328c-0.354-0.238-0.748-0.416-1.14-0.601c-0.382-0.203-0.803-0.32-1.196-0.483    c-0.412-0.112-0.808-0.261-1.207-0.345c-0.793-0.196-1.549-0.324-2.203-0.393C36.334,32.496,35.443,32.528,35.443,32.528z" fill="#1D1D1B"/></g><g><path d="M32.014,28.745c0,0,0.193,0.437,0.426,1.106c0.056,0.168,0.116,0.351,0.181,0.543l0.049,0.146l0.012,0.037    c-0.001-0.003,0.011,0.033,0-0.002l0.009,0.018l0.033,0.072c0.042,0.107,0.091,0.188,0.143,0.245    c0.215,0.288,0.6,0.55,0.997,0.747c0.805,0.409,1.697,0.702,2.362,0.927c0.668,0.223,1.119,0.379,1.119,0.379    s-0.479,0.002-1.185-0.105c-0.703-0.112-1.648-0.305-2.526-0.756c-0.432-0.234-0.862-0.51-1.142-0.961    c-0.078-0.123-0.132-0.234-0.151-0.332l-0.022-0.076l-0.016-0.06l-0.007-0.038l-0.027-0.151c-0.035-0.2-0.068-0.389-0.1-0.563    C32.053,29.222,32.014,28.745,32.014,28.745z" fill="#1D1D1B"/></g><g><path d="M51.074,25.89c0,0-0.029,0.615-0.084,1.767c0,0.579-0.1,1.283-0.233,2.11c-0.068,0.412-0.113,0.861-0.215,1.33    c-0.117,0.465-0.243,0.959-0.376,1.481c-0.58,2.064-1.486,4.563-3.161,7.068c-1.643,2.508-3.957,5.079-7.032,7.154    c-3.076,2.056-6.897,3.589-11.121,4.106c-0.524,0.085-1.063,0.073-1.599,0.114c-0.54,0.012-1.074,0.095-1.628,0.05    c-1.083-0.065-2.182-0.053-3.288-0.267c-2.229-0.262-4.419-0.965-6.558-1.858c-2.138-0.916-4.13-2.219-5.997-3.708    c-1.834-1.539-3.447-3.367-4.839-5.373c-1.354-2.037-2.392-4.289-3.156-6.641c-0.717-2.378-1.047-4.838-1.112-7.348    c0.061-2.443,0.394-4.958,1.111-7.322c0.763-2.352,1.802-4.604,3.156-6.641C6.335,9.908,7.948,8.079,9.783,6.54    c1.867-1.49,3.858-2.792,5.997-3.708c4.253-1.866,8.865-2.444,13.067-1.961c4.234,0.519,8.048,2.051,11.126,4.107    c3.075,2.076,5.39,4.647,7.032,7.154c1.675,2.506,2.581,5.004,3.162,7.069c0.132,0.522,0.258,1.017,0.375,1.481    c0.102,0.468,0.146,0.918,0.215,1.33c0.134,0.827,0.233,1.531,0.233,2.11C51.045,25.275,51.074,25.89,51.074,25.89z M51.074,25.89    c0,0-0.033-0.614-0.095-1.766c-0.005-0.579-0.108-1.282-0.247-2.107c-0.071-0.412-0.118-0.86-0.223-1.327    c-0.121-0.463-0.249-0.956-0.385-1.477c-0.593-2.057-1.513-4.543-3.197-7.03c-1.652-2.487-3.973-5.032-7.042-7.075    c-3.067-2.023-6.878-3.52-11.055-4.005c-4.188-0.454-8.731,0.15-12.923,2.019c-2.105,0.918-4.062,2.217-5.893,3.696    c-1.799,1.529-3.375,3.34-4.732,5.322c-1.319,2.013-2.325,4.233-3.061,6.547c-0.69,2.343-0.993,4.738-1.048,7.216    c0.051,2.411,0.357,4.862,1.046,7.191c0.735,2.313,1.741,4.534,3.061,6.547c1.357,1.981,2.933,3.793,4.732,5.322    c1.831,1.479,3.788,2.778,5.893,3.695c2.102,0.895,4.273,1.605,6.461,1.876c1.079,0.219,2.188,0.214,3.269,0.285    c0.53,0.049,1.073-0.03,1.604-0.039c0.531-0.037,1.064-0.022,1.585-0.103c4.188-0.486,7.99-1.982,11.06-4.006    c3.069-2.044,5.39-4.588,7.042-7.076c1.685-2.485,2.605-4.972,3.197-7.029c0.136-0.521,0.264-1.013,0.385-1.477    c0.104-0.467,0.151-0.915,0.223-1.327c0.139-0.824,0.242-1.528,0.247-2.106C51.041,26.504,51.074,25.89,51.074,25.89z"/></g></g></svg>