<?xml version="1.0" ?><!DOCTYPE svg  PUBLIC '-//W3C//DTD SVG 1.1//EN'  'http://www.w3.org/Graphics/SVG/1.1/DTD/svg11.dtd'><svg enable-background="new 0 0 52 52" height="52px" id="Слой_1" version="1.1" viewBox="0 0 52 52" width="52px" xml:space="preserve" xmlns="http://www.w3.org/2000/svg" xmlns:xlink="http://www.w3.org/1999/xlink"><g><path d="M51.074,26c0,0-0.029,0.615-0.084,1.767c0,0.579-0.1,1.283-0.233,2.11c-0.068,0.412-0.113,0.861-0.215,1.33   c-0.117,0.465-0.243,0.959-0.376,1.481c-0.58,2.064-1.486,4.563-3.161,7.068c-1.643,2.508-3.957,5.079-7.033,7.154   c-3.075,2.056-6.896,3.589-11.12,4.106c-0.524,0.085-1.063,0.073-1.599,0.114c-0.54,0.012-1.074,0.095-1.628,0.05   c-1.083-0.065-2.182-0.053-3.288-0.267c-2.229-0.262-4.419-0.965-6.558-1.858c-2.138-0.916-4.13-2.219-5.997-3.708   c-1.834-1.539-3.447-3.367-4.839-5.373c-1.354-2.037-2.392-4.289-3.156-6.641c-0.717-2.378-1.047-4.838-1.112-7.348   c0.061-2.443,0.394-4.958,1.111-7.322c0.763-2.352,1.802-4.604,3.156-6.641c1.392-2.006,3.004-3.834,4.839-5.374   c1.867-1.49,3.858-2.792,5.997-3.708c4.253-1.866,8.865-2.444,13.067-1.961c4.234,0.519,8.048,2.052,11.126,4.107   c3.075,2.076,5.39,4.647,7.032,7.154c1.675,2.506,2.581,5.004,3.162,7.069c0.132,0.522,0.258,1.017,0.375,1.481   c0.102,0.468,0.146,0.918,0.215,1.33c0.134,0.827,0.233,1.531,0.233,2.11C51.045,25.385,51.074,26,51.074,26z M51.074,26   c0,0-0.033-0.614-0.095-1.766c-0.005-0.579-0.108-1.282-0.247-2.107c-0.071-0.412-0.118-0.86-0.223-1.327   c-0.121-0.463-0.249-0.956-0.385-1.477c-0.593-2.057-1.513-4.543-3.197-7.03c-1.652-2.487-3.973-5.032-7.043-7.075   c-3.066-2.023-6.877-3.52-11.054-4.005c-4.188-0.454-8.731,0.15-12.923,2.019c-2.105,0.917-4.062,2.217-5.893,3.696   c-1.799,1.529-3.375,3.34-4.732,5.322c-1.319,2.013-2.325,4.233-3.061,6.547c-0.69,2.343-0.993,4.738-1.048,7.216   c0.051,2.411,0.357,4.862,1.046,7.191c0.735,2.313,1.741,4.534,3.061,6.547c1.357,1.981,2.933,3.793,4.732,5.322   c1.831,1.479,3.788,2.778,5.893,3.695c2.102,0.895,4.273,1.606,6.461,1.876c1.08,0.219,2.188,0.214,3.269,0.285   c0.53,0.049,1.073-0.03,1.604-0.039c0.531-0.037,1.064-0.022,1.585-0.103c4.188-0.487,7.99-1.982,11.06-4.006   c3.069-2.044,5.39-4.588,7.042-7.076c1.685-2.485,2.605-4.972,3.197-7.029c0.136-0.521,0.264-1.013,0.385-1.477   c0.104-0.467,0.151-0.915,0.223-1.327c0.139-0.824,0.242-1.528,0.247-2.106C51.041,26.614,51.074,26,51.074,26z"/></g><g><g><path d="M25.978,28.259c0,0-0.117-0.003-0.336-0.01c-0.216,0.005-0.545-0.053-0.943-0.168    c-0.396-0.12-0.871-0.301-1.375-0.583c-0.514-0.268-1.06-0.631-1.612-1.083c-0.558-0.445-1.11-0.992-1.641-1.622    c-0.52-0.635-1.041-1.361-1.317-2.271c-0.16-0.439-0.17-0.99-0.171-1.411c-0.004-0.451-0.008-0.907-0.012-1.367    c-0.008-0.92-0.017-1.855-0.025-2.79c0.01-0.938,0.021-1.875,0.031-2.797c0.017-0.916,0.099-1.867,0.29-2.743    c0.182-0.885,0.504-1.725,0.967-2.432c0.454-0.714,1.073-1.259,1.703-1.621c0.622-0.389,1.269-0.567,1.832-0.699    c0.285-0.047,0.552-0.091,0.799-0.132c0.248-0.018,0.476-0.034,0.682-0.049c0.41-0.04,0.735,0.003,0.954-0.002    c0.22,0.005,0.336,0.008,0.336,0.008S26.021,6.5,25.802,6.521c-0.217,0.029-0.539,0.036-0.94,0.107    c-0.2,0.032-0.422,0.068-0.663,0.108c-0.235,0.061-0.49,0.127-0.762,0.198c-0.529,0.178-1.121,0.403-1.676,0.785    c-0.562,0.366-1.09,0.885-1.463,1.553c-0.383,0.662-0.627,1.443-0.795,2.273c-0.165,0.841-0.227,1.704-0.227,2.627    c0.006,0.917,0.012,1.85,0.018,2.782c-0.008,0.935-0.017,1.869-0.025,2.79c0.024,0.908-0.105,1.873,0.108,2.595    c0.23,0.773,0.661,1.492,1.123,2.117c0.471,0.625,0.973,1.182,1.487,1.64c0.514,0.458,1.007,0.859,1.479,1.162    c0.464,0.318,0.907,0.533,1.281,0.686c0.375,0.14,0.677,0.245,0.899,0.265C25.862,28.241,25.978,28.259,25.978,28.259z" fill="#1D1D1B"/></g><g><g><g><g><path d="M19.734,12.975c-0.068,1.132-0.055,2.253,0.09,3.355c0.141,1.095,0.43,2.185,0.956,3.102       c0.266,0.445,0.603,0.865,1.014,1.061c0.4,0.221,0.851,0.174,1.263-0.069c0.838-0.499,1.422-1.501,1.906-2.462l0.248,0.496       c-0.696-0.181-1.321-0.436-1.935-0.757c-0.604-0.33-1.17-0.729-1.676-1.193c-0.255-0.231-0.487-0.485-0.703-0.752       c-0.119-0.124-0.2-0.279-0.296-0.42c-0.094-0.143-0.188-0.285-0.258-0.442c-0.164-0.3-0.293-0.613-0.392-0.938       C19.824,13.643,19.808,13.296,19.734,12.975z M19.734,12.975c0.126,0.312,0.206,0.633,0.363,0.924       c0.134,0.301,0.295,0.584,0.487,0.849c0.083,0.14,0.19,0.263,0.295,0.386c0.11,0.119,0.198,0.255,0.317,0.365       c0.222,0.234,0.456,0.455,0.71,0.652c0.506,0.397,1.063,0.728,1.648,0.992c0.578,0.267,1.202,0.495,1.8,0.623l0.435,0.093       l-0.187,0.403c-0.243,0.526-0.521,1.041-0.859,1.53c-0.344,0.482-0.748,0.958-1.322,1.277       c-0.276,0.169-0.617,0.269-0.962,0.292c-0.35,0.027-0.705-0.072-0.999-0.23c-0.604-0.323-0.966-0.861-1.256-1.381       c-0.56-1.071-0.73-2.243-0.802-3.383C19.349,15.22,19.481,14.074,19.734,12.975z" fill="#1D1D1B"/></g></g></g></g></g><g><g><path d="M26.181,18.438c0,0-0.052-0.75-0.13-1.874c-0.083-1.123-0.183-2.621-0.346-4.11    c-0.145-1.491-0.355-2.977-0.625-4.064C25,8.122,24.927,7.875,24.863,7.658c-0.09-0.208-0.168-0.39-0.233-0.54    c-0.179-0.268-0.301-0.416-0.301-0.416s0.13,0.134,0.337,0.394c0.078,0.146,0.173,0.324,0.281,0.528    c0.081,0.215,0.179,0.457,0.267,0.728c0.156,0.544,0.321,1.186,0.438,1.884c0.117,0.697,0.221,1.444,0.301,2.192    c0.146,1.499,0.223,3.002,0.238,4.13C26.206,17.687,26.181,18.438,26.181,18.438z" fill="#1D1D1B"/></g><g><path d="M20.997,7.969c0,0,0.493,0.546,1.131,1.449c0.291,0.468,0.676,0.989,0.999,1.6    c0.347,0.597,0.695,1.246,1.008,1.913c0.33,0.659,0.609,1.34,0.863,1.981c0.267,0.636,0.486,1.241,0.645,1.77    c0.322,1.054,0.538,1.756,0.538,1.756s-0.268-0.683-0.67-1.708c-0.178-0.52-0.439-1.105-0.713-1.735    c-0.262-0.634-0.551-1.306-0.888-1.956c-0.301-0.667-0.636-1.317-0.971-1.916c-0.313-0.611-0.655-1.152-0.928-1.629    c-0.301-0.458-0.529-0.857-0.72-1.115C21.111,8.113,20.997,7.969,20.997,7.969z" fill="#1D1D1B"/></g><g><path d="M26.181,18.438c0,0-0.124-0.112-0.34-0.308c-0.209-0.203-0.541-0.46-0.881-0.828    c-0.333-0.374-0.749-0.792-1.146-1.277c-0.39-0.491-0.826-0.999-1.225-1.534c-0.799-1.071-1.567-2.163-2.105-3.009    c-0.543-0.841-0.877-1.419-0.877-1.419s0.397,0.536,0.993,1.34c0.593,0.805,1.379,1.881,2.188,2.938    c0.794,1.07,1.632,2.1,2.271,2.864c0.322,0.381,0.617,0.679,0.811,0.896C26.067,18.316,26.181,18.438,26.181,18.438z" fill="#1D1D1B"/></g><g><path d="M16.745,47.208c-0.021-0.934-0.009-1.868,0.04-2.803c0.018-0.467,0.064-0.933,0.114-1.399    c0.079-0.463,0.13-0.932,0.313-1.379c0.156-0.458,0.47-0.824,0.8-1.166c0.325-0.345,0.69-0.642,1.054-0.937    c0.736-0.583,1.509-1.11,2.263-1.657c0.752-0.548,1.504-1.105,2.139-1.771c0.305-0.357,0.588-0.669,0.724-1.134    c0.113-0.421,0.171-0.884,0.203-1.344c0.099-1.849-0.082-3.719-0.316-5.563l-0.003-0.023l0.009-0.027    c0.274-0.77,0.632-1.512,0.833-2.309c0.251-0.781,0.442-1.578,0.612-2.381c0.102-0.397,0.146-0.807,0.228-1.209    c0.08-0.403,0.14-0.809,0.19-1.216c0.121-0.812,0.189-1.632,0.233-2.453c-0.019,0.821-0.062,1.645-0.159,2.462    c-0.039,0.41-0.086,0.818-0.154,1.225c-0.066,0.406-0.111,0.817-0.208,1.218c-0.162,0.808-0.346,1.611-0.59,2.4    c-0.194,0.804-0.546,1.557-0.816,2.337l0.006-0.051c0.255,1.854,0.458,3.72,0.377,5.605c-0.026,0.472-0.082,0.94-0.222,1.42    c-0.128,0.443-0.476,0.861-0.782,1.198c-0.664,0.681-1.428,1.232-2.188,1.775c-0.763,0.541-1.54,1.06-2.274,1.629    c-0.363,0.289-0.728,0.579-1.048,0.911c-0.317,0.318-0.634,0.685-0.782,1.112c-0.177,0.419-0.236,0.888-0.317,1.343    c-0.061,0.461-0.123,0.922-0.154,1.388C16.792,45.341,16.753,46.274,16.745,47.208z" fill="#1D1D1B"/></g><g><path d="M26.181,18.438l-0.227,1.146c-0.053,0.387-0.219,0.747-0.33,1.121c-0.108,0.377-0.267,0.735-0.44,1.085    c-0.157,0.359-0.332,0.709-0.549,1.036c-0.393,0.676-0.864,1.306-1.355,1.911l-1.488,1.798l0.018-0.069    c0.158,0.961,0.284,1.924,0.373,2.893c0.087,0.969,0.144,1.942,0.109,2.92c-0.011,0.488-0.063,0.979-0.164,1.466    c-0.101,0.473-0.342,0.993-0.699,1.313c-0.381,0.354-0.803,0.604-1.238,0.833c-0.438,0.222-0.887,0.413-1.341,0.59l-2.733,1.001    c-0.453,0.169-0.896,0.358-1.332,0.564c-0.423,0.224-0.85,0.456-1.19,0.786c-0.148,0.169-0.302,0.374-0.443,0.564l-0.363,0.617    c-0.224,0.427-0.456,0.853-0.656,1.293c-0.416,0.875-0.794,1.769-1.148,2.672c0.326-0.913,0.678-1.818,1.069-2.708    c0.188-0.447,0.403-0.884,0.624-1.318l0.369-0.64c0.146-0.198,0.28-0.387,0.449-0.582c0.357-0.352,0.79-0.592,1.22-0.825    c0.439-0.214,0.886-0.41,1.34-0.585l2.721-1.027c0.887-0.357,1.798-0.768,2.479-1.388c0.364-0.347,0.522-0.744,0.633-1.216    c0.09-0.465,0.155-0.94,0.168-1.421c0.044-0.961-0.002-1.929-0.079-2.892c-0.079-0.964-0.194-1.927-0.341-2.881l-0.006-0.042    l0.024-0.029l1.508-1.785c0.496-0.597,0.968-1.215,1.364-1.881c0.216-0.323,0.399-0.663,0.566-1.013    c0.183-0.343,0.351-0.692,0.468-1.063c0.121-0.368,0.297-0.72,0.362-1.106L26.181,18.438z" fill="#1D1D1B"/></g><g><path d="M20.351,23.913c0,0,0.462-0.241,1.129-0.641c0.667-0.397,1.551-0.94,2.35-1.589    c0.406-0.314,0.795-0.653,1.117-1.008c0.172-0.169,0.309-0.355,0.45-0.524c0.15-0.164,0.236-0.354,0.345-0.513    c0.113-0.158,0.157-0.33,0.23-0.468c0.074-0.14,0.107-0.272,0.128-0.383c0.051-0.222,0.081-0.348,0.081-0.348    s-0.014,0.129-0.039,0.356c-0.008,0.116-0.026,0.254-0.084,0.405c-0.056,0.149-0.084,0.337-0.191,0.505    c-0.1,0.169-0.179,0.375-0.321,0.553c-0.133,0.184-0.262,0.389-0.438,0.563c-0.324,0.374-0.715,0.729-1.123,1.058    c-0.827,0.649-1.734,1.177-2.438,1.518C20.842,23.738,20.351,23.913,20.351,23.913z" fill="#1D1D1B"/></g><g><path d="M26,13.587c-0.098,0.09-0.213,0.154-0.327,0.228c-0.111,0.081-0.245,0.108-0.369,0.165    c-0.251,0.12-0.537,0.074-0.811,0.116l0.103-0.062c-0.085,0.149-0.141,0.324-0.272,0.444l-0.195,0.184l-0.24,0.123    c-0.079,0.043-0.17,0.047-0.255,0.072c-0.086,0.026-0.174,0.021-0.261,0.026c-0.176,0.002-0.342-0.028-0.517-0.079l0.152-0.087    c-0.103,0.416-0.22,0.824-0.41,1.211c-0.093,0.191-0.196,0.387-0.357,0.542c-0.075,0.079-0.182,0.144-0.296,0.151    c-0.12,0.006-0.21-0.067-0.284-0.14c0.086,0.063,0.182,0.112,0.279,0.089c0.092-0.023,0.171-0.086,0.227-0.17    c0.115-0.161,0.208-0.345,0.277-0.54c0.137-0.387,0.25-0.791,0.335-1.193l0.025-0.119l0.127,0.032    c0.137,0.034,0.294,0.059,0.441,0.052c0.074-0.003,0.15,0.005,0.221-0.016c0.07-0.02,0.148-0.018,0.212-0.053l0.197-0.092    l0.161-0.146c0.115-0.092,0.156-0.249,0.25-0.367l0.045-0.057l0.058-0.005c0.246-0.021,0.511,0.052,0.755-0.041    c0.122-0.036,0.259-0.041,0.375-0.1C25.763,13.706,25.889,13.661,26,13.587z" fill="#1D1D1B"/></g><g><path d="M20.221,14.47c0.088,0.069,0.186,0.133,0.292,0.139c0.108,0.017,0.205-0.042,0.286-0.104    c0.156-0.144,0.249-0.348,0.332-0.546c0.152-0.407,0.228-0.852,0.215-1.274l-0.003-0.111l0.118-0.001    c0.334-0.003,0.686-0.153,0.991-0.335c0.156-0.092,0.293-0.206,0.432-0.319c0.13-0.122,0.243-0.254,0.334-0.4l0.044-0.07    l0.073,0.009c0.414,0.051,0.825,0.098,1.228,0.072c0.201-0.012,0.396-0.052,0.583-0.121c0.089-0.04,0.172-0.094,0.26-0.14    l0.222-0.199l0.026-0.023l0.02,0.001l1.017,0.058l-1.017,0.06l0.045-0.021l-0.228,0.237c-0.093,0.058-0.183,0.125-0.28,0.175    c-0.202,0.09-0.414,0.147-0.63,0.175c-0.432,0.049-0.858,0-1.273-0.04l0.116-0.061c-0.104,0.178-0.231,0.332-0.374,0.47    c-0.147,0.13-0.307,0.245-0.476,0.343c-0.339,0.188-0.705,0.348-1.126,0.344l0.114-0.112c0.005,0.473-0.121,0.918-0.302,1.338    c-0.097,0.206-0.221,0.411-0.414,0.552c-0.1,0.061-0.22,0.113-0.338,0.081C20.387,14.624,20.3,14.547,20.221,14.47z" fill="#1D1D1B"/></g><g><path d="M19.56,12.302c0.14,0.043,0.265-0.05,0.333-0.16c0.073-0.112,0.117-0.241,0.153-0.37    c0.069-0.259,0.104-0.531,0.104-0.792v-0.057l0.075-0.014c0.102-0.018,0.204-0.012,0.302-0.06c0.102-0.03,0.198-0.073,0.288-0.133    c0.185-0.103,0.356-0.241,0.489-0.405c0.076-0.075,0.142-0.157,0.191-0.251c0.055-0.089,0.118-0.176,0.144-0.278    c0.027-0.101,0.087-0.193,0.09-0.299l0.035-0.311l0.015-0.135l0.13,0.021l0.458,0.076c0.152,0.036,0.306,0.023,0.459,0.032    c0.154,0.015,0.306,0.008,0.457-0.018c0.152-0.013,0.303-0.033,0.446-0.086c0.148-0.038,0.291-0.086,0.42-0.165    c0.14-0.06,0.261-0.148,0.374-0.248c0.128-0.083,0.208-0.213,0.31-0.324c0.099-0.114,0.151-0.26,0.23-0.389l0.054-0.088    l0.08,0.049c0.158,0.097,0.314,0.201,0.475,0.294c0.176,0.046,0.344,0.153,0.53,0.148c0.091,0.003,0.186,0.033,0.276,0.006    c0.088-0.022,0.189-0.016,0.271-0.063c0.177-0.063,0.338-0.173,0.468-0.315c-0.115,0.153-0.268,0.281-0.446,0.365    c-0.083,0.057-0.186,0.061-0.28,0.093c-0.095,0.038-0.196,0.017-0.295,0.022c-0.206,0.024-0.387-0.081-0.582-0.123    c-0.176-0.088-0.346-0.189-0.52-0.285L25.228,8c-0.077,0.146-0.129,0.309-0.23,0.441c-0.103,0.13-0.195,0.275-0.333,0.371    c-0.125,0.113-0.257,0.213-0.41,0.283c-0.143,0.089-0.298,0.146-0.458,0.189c-0.156,0.061-0.319,0.085-0.483,0.103    c-0.164,0.03-0.327,0.04-0.491,0.027c-0.331,0.008-0.647-0.074-0.967-0.129l0.145-0.114l-0.045,0.355    c-0.007,0.12-0.073,0.226-0.108,0.339c-0.034,0.116-0.104,0.212-0.167,0.312c-0.059,0.104-0.133,0.194-0.219,0.276    c-0.158,0.173-0.352,0.313-0.561,0.416c-0.101,0.059-0.211,0.101-0.327,0.129c-0.108,0.045-0.237,0.038-0.355,0.049l0.074-0.07    c-0.011,0.285-0.077,0.555-0.172,0.816c-0.05,0.129-0.108,0.257-0.195,0.368C19.844,12.274,19.691,12.359,19.56,12.302z" fill="#1D1D1B"/></g><g><path d="M27.115,24.891c-0.3-0.169-0.63-0.306-0.966-0.324c-0.083-0.016-0.164,0.01-0.245,0.01    c-0.084-0.004-0.156,0.033-0.227,0.067c-0.072,0.032-0.148,0.055-0.194,0.126l-0.16,0.172l-0.12,0.128l-0.046-0.156    c-0.083-0.283-0.36-0.409-0.667-0.395c-0.302,0.007-0.618,0.091-0.902,0.206l-0.125,0.05l-0.04-0.136    c-0.1-0.339-0.247-0.69-0.476-0.96c-0.058-0.066-0.129-0.117-0.192-0.177c-0.059-0.069-0.145-0.089-0.22-0.128    c-0.147-0.103-0.332-0.064-0.5-0.097l-0.095-0.018l-0.014-0.049c-0.224-0.8-0.438-1.601-0.629-2.403    c0.294,0.774,0.564,1.551,0.826,2.329l-0.108-0.067c0.203,0.023,0.424-0.012,0.608,0.102c0.094,0.045,0.199,0.074,0.271,0.15    c0.076,0.068,0.162,0.13,0.229,0.205c0.269,0.31,0.438,0.671,0.537,1.062l-0.165-0.085c0.32-0.12,0.646-0.201,0.995-0.204    c0.172-0.001,0.357,0.027,0.523,0.123c0.168,0.094,0.278,0.271,0.322,0.447l-0.165-0.028l0.205-0.199    c0.061-0.077,0.154-0.104,0.243-0.138c0.088-0.036,0.176-0.071,0.271-0.062c0.091,0.004,0.186-0.018,0.273,0.01    C26.521,24.513,26.834,24.69,27.115,24.891z" fill="#1D1D1B"/></g><g><path d="M19.693,17.872c0.276,0.981,0.521,1.974,0.687,2.985c0.09,0.504,0.147,1.015,0.17,1.529    c0.036,0.513,0.007,1.034-0.078,1.553l-0.179-0.137c0.134-0.061,0.278-0.101,0.434-0.094c0.152,0.019,0.295,0.072,0.411,0.155    c0.234,0.166,0.392,0.388,0.528,0.612c0.265,0.452,0.44,0.945,0.612,1.413l-0.129-0.046c0.16-0.062,0.278-0.04,0.409-0.04    c0.126,0.01,0.25,0.027,0.373,0.051c0.245,0.048,0.485,0.112,0.718,0.198c0.23,0.092,0.457,0.199,0.657,0.349    c0.098,0.075,0.195,0.16,0.254,0.271c0.076,0.104,0.075,0.24,0.047,0.357c0.018-0.12,0.008-0.248-0.072-0.341    c-0.064-0.1-0.164-0.174-0.263-0.239c-0.204-0.128-0.431-0.214-0.661-0.285c-0.231-0.068-0.467-0.123-0.704-0.157    c-0.228-0.032-0.501-0.056-0.671,0.003l-0.095,0.033l-0.034-0.079c-0.208-0.476-0.375-0.948-0.634-1.372    c-0.13-0.208-0.281-0.405-0.467-0.532c-0.092-0.064-0.193-0.096-0.294-0.11c-0.103-0.001-0.204,0.027-0.304,0.073l-0.225,0.102    l0.045-0.239c0.186-0.974,0.08-2-0.039-3.002C20.059,19.878,19.879,18.875,19.693,17.872z" fill="#1D1D1B"/></g></g><g><g><path d="M26.181,6.487" fill="none"/></g></g><g><path d="M20.2,24.687c-0.017,0.565-0.05,1.128-0.084,1.691c-0.031,0.563-0.058,1.126-0.146,1.688   c-0.149,1.123-0.284,2.254-0.448,3.383l-0.018,0.125l-0.142,0.081c-1.727,0.983-3.466,1.943-5.222,2.872l-0.066,0.035l-0.079,0.008   c-0.359,0.037-0.745,0.094-1.117,0.167c-0.377,0.061-0.75,0.144-1.12,0.244c-0.374,0.083-0.741,0.192-1.104,0.313   c-0.363,0.121-0.741,0.212-1.088,0.375L8.5,36.113l-1.019,0.546c-0.17,0.092-0.346,0.176-0.514,0.273l-0.475,0.334   c-0.315,0.225-0.641,0.441-0.968,0.661c0.283-0.268,0.568-0.537,0.863-0.799l0.44-0.397c0.157-0.119,0.323-0.226,0.484-0.339   c0.324-0.227,0.654-0.447,0.99-0.657l1.06-0.539c0.349-0.195,0.727-0.317,1.094-0.471c0.366-0.159,0.744-0.281,1.129-0.384   c0.38-0.119,0.765-0.221,1.157-0.3c0.391-0.095,0.779-0.148,1.195-0.199l-0.144,0.043c1.737-0.964,3.492-1.896,5.259-2.804   l-0.16,0.206c0.208-1.093,0.444-2.183,0.667-3.281C19.808,26.914,19.959,25.79,20.2,24.687z" fill="#1D1D1B"/></g><g><path d="M20.351,23.913c-0.009-0.056-0.01,0.079-0.006,0.244c0.005,0.177,0.013,0.437,0.022,0.768   c0.018,0.662,0.064,1.607,0.079,2.743c0.012,1.136,0.042,2.459-0.018,3.884c-0.01,0.178-0.021,0.357-0.046,0.542   c-0.021,0.094-0.01,0.182-0.1,0.307l-0.178,0.207c-0.235,0.275-0.564,0.521-0.878,0.717c-0.645,0.399-1.354,0.693-2.066,0.959   c-1.437,0.503-2.906,0.874-4.238,1.344c-0.664,0.235-1.303,0.491-1.829,0.852c-0.469,0.418-0.949,0.833-1.321,1.251   c-0.757,0.834-1.391,1.536-1.811,2.049c-0.425,0.509-0.667,0.799-0.667,0.799s0.231-0.3,0.635-0.825   c0.405-0.522,0.99-1.269,1.752-2.121c0.377-0.433,0.828-0.835,1.32-1.283c0.545-0.384,1.189-0.65,1.857-0.897   c1.338-0.493,2.803-0.886,4.218-1.401c0.707-0.253,1.408-0.533,2.036-0.91c0.316-0.194,0.595-0.39,0.839-0.664l0.181-0.204   c0.024-0.02,0.045-0.126,0.057-0.205c0.026-0.173,0.04-0.35,0.052-0.525c0.079-1.41,0.068-2.737,0.072-3.871   c0.006-1.135,0.011-2.082,0.014-2.744c0.003-0.331,0.006-0.591,0.008-0.769C20.337,23.992,20.341,23.856,20.351,23.913z" fill="#1D1D1B"/></g><g><path d="M25.854,42.233c-0.474,0.085-0.949,0.11-1.423,0.12l-0.183,0.003l0.073-0.171   c0.234-0.547,0.481-1.089,0.821-1.59c-0.135,0.59-0.361,1.141-0.601,1.686l-0.11-0.168C24.905,42.123,25.379,42.148,25.854,42.233z   " fill="#1D1D1B"/></g><g><path d="M25.771,42.741c-0.894,0.091-1.788,0.11-2.682,0.121l-0.222,0.003l0.119-0.188   c0.558-0.884,1.122-1.763,1.771-2.589c-0.463,0.942-1.011,1.832-1.566,2.718l-0.103-0.186   C23.983,42.631,24.877,42.65,25.771,42.741z" fill="#1D1D1B"/></g><g><path d="M25.771,43.143c-0.437,0.026-0.874,0.066-1.311,0.076l0.052-0.02c-0.705,0.711-1.433,1.397-2.175,2.068   l0.029-0.129c0.362,0.922,0.695,1.854,0.992,2.802c-0.437-0.892-0.837-1.798-1.209-2.716l-0.03-0.073l0.059-0.056   c0.726-0.688,1.466-1.361,2.229-2.009l0.025-0.021l0.027,0.001C24.897,43.076,25.334,43.116,25.771,43.143z" fill="#1D1D1B"/></g><g><path d="M25.592,43.604c-0.488,1.035-1.061,2.02-1.655,2.99l0.014-0.083c0.151,0.798,0.275,1.601,0.355,2.412   c-0.233-0.781-0.423-1.571-0.586-2.367l-0.009-0.043l0.023-0.04C24.311,45.491,24.909,44.522,25.592,43.604z" fill="#1D1D1B"/></g><path d="M26.586,41.84" fill="#1D1D1B"/><g><path d="M29.279,47.94" fill="none"/></g><g><path d="M28.34,48.879" fill="none"/></g><g><g><path d="M26.137,6.488c0,0,0.119-0.003,0.341-0.008c0.223,0.006,0.549-0.039,0.966,0.004    c0.21,0.016,0.441,0.033,0.694,0.052c0.25,0.042,0.521,0.087,0.811,0.135c0.568,0.142,1.227,0.318,1.855,0.717    c0.632,0.375,1.265,0.922,1.724,1.648c0.467,0.719,0.794,1.571,0.976,2.47c0.185,0.898,0.276,1.839,0.284,2.788    c0.01,0.935,0.02,1.885,0.03,2.835c-0.009,0.949-0.017,1.897-0.025,2.832c-0.047,0.934,0.104,1.832-0.241,2.825    c-0.319,0.9-0.849,1.638-1.402,2.265c-0.56,0.625-1.156,1.142-1.734,1.579c-1.174,0.858-2.314,1.315-3.131,1.505    c-0.413,0.084-0.739,0.129-0.964,0.12c-0.223,0.003-0.342,0.005-0.342,0.005s0.118-0.016,0.338-0.046    c0.222-0.014,0.535-0.108,0.929-0.22c0.388-0.136,0.85-0.324,1.343-0.611c0.499-0.275,1.019-0.656,1.567-1.086    c1.054-0.89,2.22-2.138,2.78-3.719c0.267-0.707,0.14-1.697,0.158-2.617c-0.009-0.934-0.017-1.883-0.025-2.832    c-0.01-1.901,0.137-3.804-0.201-5.494c-0.168-0.843-0.413-1.638-0.802-2.312c-0.38-0.68-0.921-1.201-1.486-1.58    c-0.562-0.393-1.165-0.616-1.7-0.804c-0.276-0.071-0.534-0.138-0.773-0.2c-0.244-0.04-0.469-0.077-0.672-0.11    c-0.405-0.074-0.736-0.079-0.957-0.108C26.255,6.5,26.137,6.488,26.137,6.488z" fill="#1D1D1B"/></g><g><g><g><path d="M32.629,12.974c0.253,1.1,0.386,2.246,0.33,3.392c-0.071,1.14-0.241,2.313-0.801,3.383      c-0.29,0.52-0.651,1.058-1.256,1.381c-0.295,0.159-0.649,0.258-1,0.23c-0.345-0.023-0.686-0.123-0.961-0.292      c-0.575-0.319-0.979-0.795-1.322-1.277c-0.338-0.489-0.615-1.004-0.859-1.53l-0.187-0.403l0.435-0.093      c0.597-0.127,1.222-0.355,1.799-0.623c0.586-0.264,1.143-0.595,1.648-0.992c0.255-0.198,0.489-0.418,0.711-0.652      c0.119-0.11,0.207-0.246,0.316-0.365c0.105-0.123,0.213-0.246,0.296-0.386c0.191-0.265,0.354-0.547,0.487-0.849      C32.424,13.607,32.503,13.285,32.629,12.974z M32.629,12.974c-0.074,0.322-0.09,0.668-0.218,0.981      c-0.099,0.324-0.229,0.637-0.393,0.938c-0.069,0.157-0.163,0.299-0.258,0.442c-0.097,0.141-0.177,0.296-0.296,0.42      c-0.216,0.267-0.447,0.521-0.702,0.752c-0.507,0.465-1.073,0.863-1.677,1.193c-0.613,0.321-1.237,0.576-1.934,0.757L27.4,17.96      c0.483,0.961,1.068,1.964,1.906,2.462c0.411,0.243,0.862,0.29,1.263,0.069c0.411-0.196,0.748-0.616,1.014-1.061      c0.526-0.917,0.815-2.007,0.956-3.102C32.684,15.227,32.697,14.105,32.629,12.974z" fill="#1D1D1B"/></g></g></g></g><g><g><path d="M26.181,18.438c0,0-0.025-0.752-0.01-1.88c0.015-1.128,0.092-2.631,0.238-4.13    c0.081-0.749,0.185-1.495,0.302-2.192c0.116-0.698,0.281-1.339,0.438-1.884c0.087-0.27,0.186-0.512,0.267-0.727    c0.108-0.204,0.203-0.382,0.281-0.528c0.207-0.26,0.337-0.394,0.337-0.394s-0.121,0.148-0.301,0.416    c-0.064,0.149-0.144,0.331-0.233,0.54c-0.064,0.218-0.137,0.464-0.216,0.732c-0.27,1.087-0.48,2.573-0.625,4.064    c-0.163,1.49-0.263,2.987-0.346,4.11C26.233,17.688,26.181,18.438,26.181,18.438z" fill="#1D1D1B"/></g><g><path d="M31.365,7.968c0,0-0.113,0.145-0.293,0.411c-0.191,0.257-0.419,0.657-0.721,1.115    c-0.272,0.477-0.614,1.018-0.928,1.629c-0.335,0.599-0.67,1.248-0.971,1.916c-0.337,0.65-0.626,1.322-0.889,1.956    c-0.273,0.629-0.535,1.215-0.713,1.735c-0.402,1.025-0.67,1.708-0.67,1.708s0.215-0.703,0.538-1.756    c0.159-0.528,0.377-1.134,0.645-1.77c0.254-0.642,0.533-1.322,0.863-1.981c0.313-0.667,0.661-1.316,1.008-1.913    c0.323-0.61,0.708-1.132,0.999-1.599C30.872,8.514,31.365,7.968,31.365,7.968z" fill="#1D1D1B"/></g><g><path d="M26.181,18.438c0,0,0.113-0.123,0.311-0.337c0.194-0.218,0.489-0.516,0.812-0.896    c0.639-0.764,1.477-1.793,2.271-2.864c0.81-1.057,1.596-2.132,2.188-2.938c0.596-0.804,0.993-1.34,0.993-1.34    s-0.335,0.578-0.877,1.42c-0.538,0.845-1.306,1.938-2.105,3.008c-0.398,0.536-0.835,1.044-1.224,1.534    c-0.397,0.485-0.814,0.903-1.146,1.277c-0.341,0.368-0.672,0.625-0.882,0.828C26.305,18.326,26.181,18.438,26.181,18.438z" fill="#1D1D1B"/></g><g><path d="M35.617,47.207c-0.008-0.934-0.048-1.867-0.124-2.797c-0.031-0.466-0.094-0.927-0.154-1.388    c-0.082-0.455-0.141-0.924-0.318-1.343c-0.147-0.428-0.464-0.794-0.781-1.112c-0.32-0.332-0.686-0.623-1.048-0.911    c-0.735-0.57-1.512-1.088-2.274-1.629c-0.761-0.543-1.525-1.094-2.189-1.775c-0.306-0.336-0.654-0.754-0.782-1.198    c-0.14-0.479-0.195-0.948-0.222-1.42c-0.08-1.885,0.122-3.751,0.376-5.605l0.007,0.051c-0.27-0.78-0.621-1.534-0.815-2.337    c-0.244-0.789-0.428-1.592-0.59-2.4c-0.097-0.4-0.141-0.812-0.208-1.218c-0.067-0.406-0.115-0.815-0.154-1.225    c-0.097-0.817-0.14-1.641-0.159-2.462c0.044,0.821,0.112,1.64,0.233,2.453c0.051,0.408,0.111,0.813,0.19,1.216    c0.082,0.402,0.126,0.811,0.228,1.209c0.169,0.803,0.36,1.6,0.611,2.381c0.201,0.796,0.559,1.539,0.833,2.309l0.01,0.027    l-0.003,0.023c-0.234,1.844-0.415,3.714-0.316,5.563c0.032,0.459,0.09,0.923,0.202,1.343c0.136,0.465,0.42,0.777,0.725,1.134    c0.634,0.665,1.387,1.223,2.139,1.771c0.755,0.547,1.527,1.074,2.263,1.656c0.364,0.296,0.73,0.593,1.055,0.937    c0.33,0.343,0.645,0.709,0.801,1.167c0.183,0.447,0.233,0.916,0.313,1.379c0.049,0.467,0.097,0.933,0.114,1.399    C35.626,45.339,35.638,46.273,35.617,47.207z" fill="#1D1D1B"/></g><g><path d="M26.181,18.438l0.261,1.139c0.064,0.386,0.241,0.738,0.362,1.106c0.117,0.37,0.285,0.72,0.468,1.063    c0.167,0.351,0.35,0.691,0.566,1.014c0.396,0.666,0.868,1.284,1.364,1.881l1.509,1.785l0.023,0.029l-0.006,0.042    c-0.147,0.955-0.263,1.917-0.342,2.881c-0.076,0.963-0.122,1.931-0.079,2.892c0.014,0.481,0.078,0.957,0.168,1.421    c0.111,0.472,0.27,0.869,0.634,1.216c0.681,0.62,1.591,1.03,2.479,1.388l2.721,1.027c0.454,0.175,0.9,0.371,1.34,0.585    c0.43,0.233,0.863,0.474,1.22,0.825c0.168,0.195,0.303,0.384,0.448,0.582l0.369,0.64c0.221,0.436,0.436,0.871,0.624,1.319    c0.391,0.889,0.743,1.794,1.069,2.707c-0.354-0.903-0.733-1.796-1.148-2.671c-0.2-0.441-0.433-0.867-0.655-1.294l-0.364-0.617    c-0.142-0.19-0.294-0.396-0.443-0.564c-0.34-0.33-0.767-0.563-1.189-0.786c-0.436-0.206-0.879-0.396-1.332-0.564l-2.733-1.001    c-0.453-0.177-0.902-0.368-1.341-0.59c-0.436-0.229-0.856-0.478-1.238-0.832c-0.357-0.321-0.598-0.842-0.699-1.314    c-0.101-0.486-0.152-0.977-0.164-1.466c-0.034-0.978,0.022-1.951,0.109-2.92c0.089-0.969,0.215-1.932,0.373-2.893l0.018,0.069    l-1.488-1.798c-0.492-0.604-0.962-1.234-1.355-1.911c-0.217-0.327-0.392-0.676-0.549-1.036c-0.174-0.351-0.333-0.708-0.44-1.085    c-0.11-0.375-0.277-0.733-0.33-1.121L26.181,18.438z" fill="#1D1D1B"/></g><g><path d="M32.012,23.912c0,0-0.491-0.175-1.196-0.517c-0.704-0.341-1.611-0.869-2.438-1.517    c-0.408-0.33-0.799-0.685-1.124-1.059c-0.175-0.174-0.304-0.38-0.437-0.563c-0.142-0.177-0.221-0.384-0.321-0.553    c-0.107-0.167-0.135-0.356-0.191-0.505c-0.058-0.15-0.076-0.289-0.084-0.404c-0.025-0.227-0.039-0.356-0.039-0.356    s0.029,0.126,0.081,0.348c0.021,0.111,0.054,0.243,0.128,0.383c0.073,0.139,0.118,0.311,0.23,0.469    c0.109,0.158,0.194,0.349,0.345,0.512c0.141,0.169,0.278,0.355,0.45,0.524c0.321,0.355,0.711,0.694,1.117,1.008    c0.8,0.649,1.684,1.192,2.351,1.589C31.55,23.671,32.012,23.912,32.012,23.912z" fill="#1D1D1B"/></g><g><path d="M26.362,13.586c0.111,0.074,0.237,0.119,0.355,0.171c0.115,0.059,0.253,0.064,0.375,0.1    c0.243,0.093,0.509,0.02,0.755,0.041l0.058,0.005l0.045,0.057c0.094,0.118,0.136,0.274,0.25,0.367l0.161,0.146l0.197,0.092    c0.063,0.035,0.142,0.033,0.211,0.053c0.07,0.021,0.147,0.012,0.222,0.016c0.146,0.007,0.305-0.018,0.441-0.052l0.127-0.032    l0.025,0.119c0.085,0.403,0.198,0.806,0.335,1.193c0.068,0.195,0.162,0.378,0.276,0.54c0.057,0.083,0.135,0.146,0.228,0.17    c0.097,0.022,0.192-0.027,0.278-0.089c-0.074,0.073-0.165,0.146-0.284,0.14c-0.115-0.008-0.222-0.073-0.296-0.151    c-0.162-0.155-0.265-0.351-0.358-0.542c-0.189-0.387-0.307-0.795-0.409-1.211l0.152,0.087c-0.175,0.051-0.341,0.081-0.517,0.079    c-0.088-0.004-0.175,0-0.262-0.026c-0.085-0.024-0.176-0.028-0.255-0.072l-0.239-0.123l-0.195-0.184    c-0.132-0.121-0.187-0.295-0.272-0.444l0.103,0.062c-0.273-0.042-0.56,0.004-0.811-0.116c-0.125-0.056-0.258-0.084-0.369-0.165    C26.575,13.74,26.459,13.676,26.362,13.586z" fill="#1D1D1B"/></g><g><path d="M32.141,14.469c-0.079,0.078-0.165,0.155-0.285,0.18c-0.119,0.033-0.241-0.018-0.343-0.079    c-0.197-0.139-0.317-0.348-0.416-0.554c-0.188-0.419-0.309-0.867-0.301-1.34l0.118,0.116c-0.422,0.003-0.789-0.153-1.128-0.344    c-0.167-0.102-0.32-0.222-0.469-0.352c-0.142-0.138-0.269-0.292-0.371-0.469l0.108,0.057c-0.415,0.045-0.843,0.072-1.271,0.019    c-0.214-0.025-0.423-0.087-0.616-0.183c-0.094-0.053-0.179-0.121-0.267-0.179l-0.212-0.235l0.238,0.202    c0.093,0.046,0.181,0.099,0.274,0.137c0.195,0.063,0.395,0.098,0.598,0.112c0.408,0.023,0.817-0.046,1.231-0.092l0.069-0.007    l0.04,0.064c0.092,0.147,0.205,0.279,0.336,0.401c0.139,0.114,0.281,0.221,0.438,0.311c0.306,0.179,0.654,0.331,0.987,0.334    l0.122,0.001l-0.003,0.116c-0.01,0.421,0.071,0.864,0.217,1.271c0.08,0.2,0.178,0.399,0.329,0.544    c0.08,0.062,0.175,0.121,0.282,0.105C31.954,14.6,32.052,14.537,32.141,14.469z" fill="#1D1D1B"/></g><g><path d="M32.803,12.301c-0.131,0.06-0.287-0.024-0.369-0.134c-0.089-0.11-0.149-0.239-0.201-0.368    c-0.103-0.261-0.156-0.534-0.174-0.82l0.087,0.082c-0.12-0.01-0.251-0.002-0.36-0.046c-0.117-0.028-0.229-0.07-0.331-0.128    c-0.209-0.107-0.401-0.251-0.558-0.426c-0.086-0.082-0.161-0.173-0.22-0.277c-0.064-0.1-0.135-0.197-0.169-0.313    c-0.035-0.114-0.102-0.22-0.109-0.34l-0.04-0.357l0.15,0.119c-0.318,0.06-0.634,0.132-0.963,0.146    c-0.162,0.024-0.329,0.004-0.494-0.006c-0.167,0.003-0.327-0.068-0.487-0.109c-0.16-0.046-0.297-0.152-0.444-0.225    c-0.122-0.11-0.257-0.208-0.364-0.331c-0.212-0.249-0.38-0.521-0.539-0.798c0.191,0.256,0.391,0.504,0.621,0.718    c0.116,0.104,0.244,0.191,0.365,0.285c0.143,0.057,0.271,0.146,0.419,0.178c0.15,0.027,0.293,0.079,0.448,0.071    c0.153,0.006,0.305,0.021,0.46-0.005c0.309-0.019,0.615-0.097,0.921-0.162l0.133-0.028l0.019,0.147l0.039,0.309    c0.002,0.105,0.062,0.197,0.089,0.297c0.025,0.102,0.087,0.188,0.142,0.277c0.049,0.094,0.114,0.176,0.19,0.25    c0.135,0.161,0.308,0.295,0.491,0.395c0.089,0.06,0.185,0.103,0.284,0.133c0.098,0.048,0.197,0.042,0.298,0.062l0.089,0.017    l-0.002,0.065c-0.005,0.26,0.041,0.531,0.104,0.79c0.034,0.128,0.076,0.257,0.147,0.37C32.541,12.248,32.662,12.342,32.803,12.301    z" fill="#1D1D1B"/></g><g><path d="M31.064,20.807c-0.182,0.809-0.384,1.61-0.621,2.401l-0.018,0.059l-0.101,0.019    c-0.168,0.032-0.35-0.004-0.495,0.097c-0.075,0.04-0.16,0.059-0.218,0.128c-0.063,0.06-0.136,0.107-0.194,0.172    c-0.234,0.263-0.396,0.61-0.494,0.953l-0.036,0.128l-0.114-0.056c-0.281-0.137-0.596-0.251-0.91-0.269    c-0.155-0.005-0.317,0.001-0.454,0.081c-0.139,0.076-0.233,0.215-0.294,0.37c0.037-0.16,0.112-0.323,0.255-0.43    c0.141-0.109,0.322-0.153,0.494-0.156c0.35-0.006,0.683,0.08,1.002,0.213l-0.149,0.072c0.1-0.387,0.255-0.752,0.518-1.068    c0.066-0.076,0.149-0.142,0.228-0.209c0.071-0.076,0.178-0.106,0.272-0.151c0.186-0.114,0.407-0.077,0.612-0.101l-0.118,0.078    C30.477,22.351,30.761,21.576,31.064,20.807z" fill="#1D1D1B"/></g><g><path d="M32.668,17.871c-0.2,1-0.372,2.004-0.518,3.009c-0.127,1.002-0.222,2.032-0.033,3.009l0.039,0.202    l-0.194-0.083c-0.104-0.044-0.206-0.072-0.312-0.067c-0.103,0.016-0.204,0.051-0.295,0.118c-0.185,0.13-0.331,0.331-0.456,0.54    c-0.259,0.423-0.433,0.891-0.633,1.372l-0.038,0.093l-0.11-0.041c-0.154-0.057-0.418-0.031-0.636,0.008    c-0.227,0.041-0.451,0.104-0.667,0.185c-0.414,0.16-0.892,0.406-0.985,0.823l-0.021,0.09l-0.081-0.027    c-0.503-0.167-1.032-0.285-1.563-0.334c-0.133-0.024-0.266-0.011-0.4-0.016c-0.134-0.005-0.268-0.004-0.398,0.027    c-0.129,0.03-0.271,0.026-0.391,0.085l-0.368,0.167l0.359-0.191c0.12-0.068,0.261-0.072,0.391-0.112    c0.132-0.04,0.268-0.049,0.404-0.054c0.136-0.003,0.274-0.025,0.409-0.01c0.549,0.011,1.083,0.137,1.608,0.292l-0.102,0.062    c0.042-0.273,0.233-0.475,0.426-0.624c0.198-0.152,0.419-0.26,0.645-0.352c0.226-0.09,0.458-0.161,0.697-0.21    c0.245-0.037,0.472-0.101,0.771-0.003l-0.147,0.052c0.182-0.462,0.351-0.959,0.616-1.413c0.141-0.222,0.303-0.442,0.539-0.604    c0.117-0.082,0.261-0.132,0.411-0.148c0.153-0.004,0.295,0.038,0.426,0.099l-0.155,0.119c-0.176-1.037-0.052-2.067,0.097-3.076    C32.153,19.847,32.406,18.855,32.668,17.871z" fill="#1D1D1B"/></g></g><g><g><path d="M26.485,6.487" fill="none"/></g></g><g><path d="M32.162,24.686c0.24,1.103,0.393,2.227,0.641,3.32c0.223,1.099,0.459,2.188,0.666,3.281l-0.16-0.206   c1.769,0.908,3.523,1.84,5.262,2.804l-0.145-0.043c0.416,0.051,0.804,0.104,1.195,0.199c0.392,0.079,0.776,0.181,1.157,0.3   c0.384,0.103,0.763,0.225,1.128,0.385c0.367,0.153,0.746,0.274,1.095,0.47l1.06,0.539c0.336,0.21,0.666,0.432,0.99,0.657   c0.161,0.113,0.327,0.22,0.483,0.34l0.44,0.396c0.295,0.262,0.58,0.531,0.863,0.799c-0.327-0.22-0.652-0.436-0.968-0.661   l-0.476-0.334c-0.167-0.098-0.343-0.182-0.514-0.272l-1.019-0.547l-1.065-0.444c-0.348-0.163-0.725-0.253-1.088-0.374   c-0.364-0.122-0.73-0.231-1.104-0.314c-0.37-0.101-0.743-0.184-1.12-0.244c-0.372-0.072-0.758-0.13-1.117-0.167l-0.079-0.008   l-0.065-0.035c-1.757-0.929-3.496-1.889-5.223-2.872l-0.143-0.081l-0.019-0.125c-0.163-1.129-0.298-2.26-0.446-3.383   c-0.089-0.562-0.115-1.125-0.146-1.688C32.212,25.813,32.179,25.25,32.162,24.686z" fill="#1D1D1B"/></g><g><path d="M32.012,23.912c0.009-0.057,0.014,0.079,0.018,0.244c0.002,0.177,0.005,0.438,0.008,0.769   c0.004,0.662,0.009,1.608,0.015,2.744c0.004,1.134-0.008,2.461,0.07,3.871c0.012,0.176,0.026,0.354,0.052,0.525   c0.013,0.08,0.033,0.187,0.058,0.205l0.181,0.205c0.244,0.273,0.522,0.469,0.84,0.663c0.627,0.377,1.328,0.657,2.035,0.91   c1.416,0.516,2.881,0.908,4.219,1.401c0.667,0.246,1.313,0.513,1.857,0.897c0.492,0.448,0.942,0.851,1.32,1.283   c0.763,0.853,1.347,1.599,1.752,2.121c0.404,0.525,0.635,0.825,0.635,0.825s-0.243-0.29-0.667-0.799   c-0.421-0.512-1.055-1.215-1.812-2.049c-0.372-0.418-0.852-0.833-1.321-1.251c-0.525-0.36-1.165-0.616-1.829-0.852   c-1.332-0.47-2.802-0.841-4.238-1.344c-0.712-0.266-1.421-0.56-2.066-0.959c-0.314-0.194-0.644-0.441-0.878-0.717l-0.179-0.207   c-0.09-0.124-0.078-0.212-0.1-0.306c-0.024-0.185-0.036-0.364-0.046-0.543c-0.06-1.425-0.029-2.748-0.018-3.884   c0.015-1.136,0.062-2.081,0.079-2.743c0.009-0.331,0.017-0.591,0.021-0.768C32.021,23.991,32.021,23.856,32.012,23.912z" fill="#1D1D1B"/></g><g><path d="M26.812,42.233c0.475-0.086,0.95-0.11,1.424-0.12l-0.11,0.168c-0.24-0.545-0.466-1.096-0.601-1.686   c0.339,0.501,0.587,1.043,0.82,1.59l0.073,0.171l-0.183-0.003C27.762,42.344,27.287,42.319,26.812,42.233z" fill="#1D1D1B"/></g><g><path d="M26.895,42.741c0.894-0.091,1.788-0.11,2.681-0.121l-0.103,0.186c-0.555-0.886-1.103-1.775-1.565-2.718   c0.648,0.826,1.213,1.705,1.771,2.589l0.119,0.188l-0.222-0.003C28.683,42.852,27.789,42.832,26.895,42.741z" fill="#1D1D1B"/></g><g><path d="M26.895,43.143c0.437-0.026,0.875-0.066,1.312-0.076l0.027-0.001l0.024,0.021   c0.763,0.647,1.504,1.32,2.229,2.009l0.059,0.056l-0.029,0.073c-0.372,0.918-0.771,1.824-1.208,2.716   c0.297-0.947,0.63-1.88,0.991-2.802l0.029,0.129c-0.742-0.671-1.47-1.357-2.174-2.068l0.052,0.02   C27.77,43.209,27.332,43.169,26.895,43.143z" fill="#1D1D1B"/></g><g><path d="M27.074,43.604c0.683,0.918,1.28,1.887,1.856,2.869l0.023,0.04l-0.009,0.043   c-0.163,0.796-0.353,1.586-0.586,2.367c0.081-0.812,0.205-1.614,0.355-2.412l0.015,0.083C28.135,45.624,27.563,44.64,27.074,43.604   z" fill="#1D1D1B"/></g><polyline fill="#1D1D1B" points="26.318,46.128 25.543,44.579 25.841,42.853 26.05,41.84 25.782,40.947 26.318,40.947   26.348,40.947 26.884,40.947 26.617,41.84 26.825,42.853 27.123,44.579 26.348,46.128 "/><path d="M26.08,41.84" fill="#1D1D1B"/><g><path d="M19.207,31.368c0.08,0.299,0.101,0.609,0.105,0.918c0.015,0.155-0.011,0.309-0.022,0.464l-0.042,0.463   L19.2,33.166l0.411-0.011l0.394,0.117l0.35,0.213l0.296,0.282c0.087,0.104,0.159,0.221,0.238,0.332   c0.072,0.114,0.112,0.249,0.169,0.374c0.048,0.128,0.049,0.272,0.075,0.408c0.002,0.139-0.041,0.28-0.062,0.42l-0.116-0.096   l0.367-0.172c0.122-0.059,0.263-0.059,0.395-0.09c0.133-0.039,0.27,0.001,0.405,0.002c0.138-0.004,0.264,0.055,0.395,0.089   c0.134,0.028,0.248,0.105,0.368,0.167c0.125,0.055,0.222,0.153,0.329,0.236c0.113,0.076,0.185,0.199,0.276,0.301   c0.088,0.105,0.131,0.245,0.197,0.367L23.5,36.086l0.243-0.336c0.097-0.098,0.204-0.188,0.306-0.28   c0.227-0.158,0.474-0.28,0.735-0.364c0.262-0.074,0.529-0.126,0.799-0.143c0.269-0.016,0.54-0.017,0.805,0.021   c0.533,0.064,1.055,0.202,1.546,0.417c0.244,0.11,0.483,0.236,0.702,0.399c0.221,0.157,0.421,0.36,0.551,0.623l-0.181-0.004   l0.314-0.672c0.112-0.223,0.224-0.449,0.388-0.651c0.064-0.111,0.184-0.188,0.283-0.275c0.045-0.051,0.12-0.061,0.185-0.085   c0.066-0.018,0.132-0.052,0.199-0.052c0.131,0.027,0.28,0.019,0.394,0.083l0.34,0.188l-0.113,0.031   c0.193-0.448,0.324-0.922,0.509-1.389c0.09-0.23,0.215-0.47,0.43-0.627c0.095-0.093,0.24-0.103,0.356-0.155l0.382,0.005   l-0.034,0.017l0.187-0.347c0.059-0.116,0.136-0.227,0.166-0.355c0.09-0.247,0.162-0.503,0.164-0.769   c0.01,0.266-0.051,0.526-0.13,0.78c-0.025,0.133-0.098,0.246-0.152,0.367l-0.174,0.36l-0.008,0.016l-0.027,0.001l-0.358,0.011   c-0.102,0.056-0.229,0.064-0.309,0.152c-0.181,0.145-0.286,0.368-0.373,0.593c-0.171,0.454-0.297,0.938-0.489,1.4l-0.031,0.075   l-0.082-0.044l-0.311-0.165c-0.103-0.058-0.218-0.038-0.325-0.066c-0.054,0-0.103,0.032-0.154,0.045   c-0.049,0.021-0.107,0.021-0.146,0.069c-0.082,0.078-0.18,0.136-0.24,0.242c-0.145,0.185-0.251,0.406-0.357,0.625l-0.302,0.674   l-0.082,0.184L29.005,36.5c-0.109-0.206-0.284-0.388-0.492-0.53c-0.204-0.146-0.434-0.264-0.667-0.365   c-0.473-0.198-0.977-0.322-1.485-0.376c-0.507-0.051-1.026-0.045-1.51,0.097c-0.241,0.074-0.466,0.182-0.673,0.32L23.9,35.892   l-0.222,0.298l-0.101,0.135l-0.087-0.155c-0.058-0.104-0.087-0.221-0.165-0.314c-0.081-0.091-0.139-0.201-0.242-0.271   c-0.096-0.076-0.181-0.168-0.295-0.219c-0.109-0.057-0.211-0.131-0.333-0.157c-0.118-0.031-0.232-0.089-0.356-0.086   c-0.122-0.001-0.246-0.043-0.366-0.007c-0.119,0.027-0.247,0.022-0.358,0.075l-0.337,0.151l-0.136,0.062l0.021-0.157   c0.016-0.121,0.056-0.238,0.057-0.36c-0.023-0.121-0.02-0.249-0.063-0.367c-0.052-0.115-0.085-0.24-0.151-0.349   c-0.074-0.104-0.138-0.215-0.218-0.313l-0.273-0.269l-0.321-0.208l-0.36-0.125l-0.38-0.008l-0.054-0.001l0.006-0.047l0.063-0.455   c0.018-0.151,0.051-0.304,0.042-0.457C19.281,31.979,19.273,31.671,19.207,31.368z" fill="#1D1D1B"/></g><g><path d="M13.966,34.206c-0.103,0.371-0.33,0.701-0.613,0.961c-0.134,0.142-0.303,0.237-0.463,0.347   c-0.166,0.099-0.349,0.166-0.522,0.251l-0.01-0.053c0.359,0.003,0.72-0.036,1.079,0.002c0.18,0.019,0.361,0.021,0.54,0.052   c0.177,0.041,0.356,0.077,0.532,0.124l0.252,0.113c0.081,0.044,0.176,0.063,0.242,0.131l0.217,0.178   c0.081,0.052,0.115,0.146,0.171,0.22c0.044,0.082,0.119,0.15,0.137,0.243l0.084,0.267c0.052,0.179,0.046,0.364,0.071,0.547   l-0.092-0.063c0.415-0.148,0.85-0.252,1.296-0.256c0.443-0.004,0.902,0.1,1.277,0.359c0.188,0.125,0.354,0.291,0.473,0.485   c0.128,0.19,0.197,0.412,0.243,0.635c0.068,0.453-0.034,0.911-0.218,1.316l-0.126-0.113l0.966-0.512l0.509-0.202   c0.171-0.063,0.335-0.147,0.515-0.185l0.531-0.141c0.175-0.058,0.361-0.061,0.542-0.091c0.362-0.067,0.732-0.046,1.101-0.045   c0.366,0.043,0.732,0.093,1.085,0.206c0.182,0.038,0.347,0.127,0.52,0.189c0.175,0.061,0.331,0.162,0.496,0.245   c0.645,0.363,1.208,0.852,1.651,1.462l-0.198-0.014c0.232-0.245,0.483-0.44,0.755-0.616c0.257-0.197,0.56-0.314,0.844-0.463   c0.282-0.156,0.605-0.208,0.906-0.317c0.301-0.119,0.624-0.129,0.939-0.178l0.476-0.063c0.158-0.034,0.318,0.002,0.477,0   l0.955,0.044c0.318,0.014,0.623,0.122,0.936,0.179l0.93,0.207l-0.085,0.167c-0.236-0.188-0.438-0.412-0.597-0.669   c-0.158-0.251-0.268-0.567-0.203-0.887c0.034-0.152,0.113-0.313,0.236-0.41c0.106-0.126,0.256-0.172,0.39-0.248   c0.284-0.105,0.578-0.152,0.871-0.173c0.292-0.009,0.586-0.018,0.876,0.008c0.289,0.029,0.58,0.041,0.866,0.094   c0.575,0.076,1.141,0.203,1.707,0.321l-0.081,0.075c-0.002-0.157-0.029-0.315,0.011-0.471c0.016-0.158,0.085-0.305,0.151-0.445   c0.146-0.282,0.39-0.492,0.638-0.669c0.509-0.347,1.095-0.547,1.688-0.67l-0.011,0.059c-0.376-0.244-0.746-0.496-1.104-0.765   c-0.179-0.136-0.355-0.273-0.518-0.428c-0.077-0.08-0.166-0.157-0.199-0.27c-0.009-0.069,0.072-0.087,0.122-0.088   c0.056-0.001,0.111,0.006,0.167,0.014c-0.056-0.007-0.111-0.013-0.167-0.01c-0.051,0.002-0.124,0.021-0.114,0.083   c0.034,0.104,0.124,0.182,0.202,0.259c0.165,0.149,0.345,0.283,0.525,0.414c0.364,0.259,0.739,0.502,1.119,0.735l0.066,0.041   l-0.077,0.018c-0.58,0.135-1.157,0.349-1.639,0.695c-0.236,0.175-0.458,0.381-0.588,0.641c-0.06,0.13-0.122,0.263-0.134,0.407   c-0.037,0.141-0.01,0.286-0.007,0.43l0.001,0.091l-0.082-0.016c-0.564-0.113-1.128-0.235-1.698-0.306   c-0.283-0.051-0.57-0.06-0.855-0.086c-0.285-0.022-0.571-0.012-0.854-0.001c-0.283,0.022-0.562,0.07-0.819,0.168   c-0.114,0.068-0.252,0.111-0.333,0.215c-0.103,0.081-0.157,0.203-0.185,0.323c-0.05,0.249,0.039,0.526,0.188,0.756   c0.147,0.233,0.337,0.442,0.556,0.611l0.328,0.255l-0.413-0.088l-0.915-0.194c-0.307-0.054-0.606-0.158-0.917-0.169l-0.932-0.035   c-0.154,0.003-0.312-0.031-0.464,0.004l-0.461,0.064c-0.305,0.051-0.619,0.062-0.907,0.18c-0.289,0.107-0.601,0.158-0.87,0.313   c-0.271,0.145-0.562,0.259-0.805,0.449c-0.257,0.165-0.499,0.367-0.703,0.576l-0.109,0.111l-0.089-0.125   c-0.401-0.561-0.948-1.05-1.558-1.396c-0.156-0.08-0.305-0.179-0.472-0.237c-0.165-0.062-0.321-0.148-0.495-0.186   c-0.336-0.111-0.686-0.16-1.037-0.206c-0.353-0.002-0.708-0.027-1.059,0.036c-0.175,0.027-0.354,0.028-0.525,0.083l-0.517,0.133   c-0.176,0.034-0.336,0.116-0.504,0.176L19.58,39.61l-0.953,0.494l-0.235,0.122l0.109-0.236c0.176-0.381,0.272-0.805,0.213-1.216   c-0.041-0.201-0.101-0.401-0.215-0.574c-0.106-0.176-0.253-0.327-0.424-0.442c-0.701-0.487-1.648-0.388-2.436-0.105l-0.08,0.028   l-0.012-0.091c-0.023-0.172-0.016-0.353-0.063-0.519l-0.076-0.247c-0.015-0.088-0.084-0.147-0.124-0.223   c-0.051-0.068-0.08-0.155-0.154-0.203l-0.195-0.168c-0.059-0.065-0.15-0.085-0.225-0.128l-0.236-0.113   c-0.168-0.049-0.342-0.088-0.513-0.133c-0.174-0.034-0.353-0.041-0.53-0.063c-0.354-0.046-0.714-0.015-1.071-0.026l-0.117-0.004   l0.107-0.049c0.172-0.079,0.354-0.142,0.521-0.235c0.159-0.104,0.329-0.195,0.464-0.332C13.622,34.897,13.855,34.574,13.966,34.206   z" fill="#1D1D1B"/></g><g><path d="M26.333,28.259c0,0,0.08,0.905,0.14,2.263c0.059,1.357,0.112,3.168,0.11,4.979   c0.003,1.811-0.049,3.621-0.109,4.979s-0.141,2.263-0.141,2.263s-0.081-0.905-0.141-2.263s-0.112-3.168-0.109-4.979   c-0.002-1.811,0.051-3.621,0.11-4.979C26.253,29.164,26.333,28.259,26.333,28.259z" fill="#1D1D1B"/></g><g><path d="M22.257,45.182c-0.247-0.466-0.605-0.873-1.041-1.161c-0.216-0.144-0.452-0.263-0.701-0.333   c-0.125-0.034-0.247-0.08-0.377-0.087c-0.128-0.012-0.254-0.048-0.384-0.04c-0.259-0.005-0.517,0.015-0.771,0.074   c-0.258,0.032-0.497,0.149-0.746,0.22c-0.236,0.108-0.474,0.218-0.705,0.338l-0.667,0.411l-0.086,0.054l-0.044-0.087l-0.768-1.506   c-0.259-0.492-0.527-0.997-0.936-1.334c-0.213-0.151-0.454-0.255-0.718-0.284c-0.262-0.032-0.534-0.013-0.806,0.022   c-0.544,0.086-1.079,0.258-1.61,0.432l-0.128,0.042l-0.015-0.133c-0.049-0.445-0.101-0.893-0.206-1.325   c-0.102-0.43-0.232-0.867-0.491-1.214c-0.253-0.351-0.664-0.554-1.104-0.534c-0.438,0.003-0.876,0.124-1.305,0.254l-0.1,0.03   l0.017-0.107l0.116-0.763c-0.003-0.128-0.017-0.255-0.025-0.383c-0.005-0.129-0.014-0.257-0.073-0.372   c-0.055-0.113-0.068-0.253-0.158-0.347c-0.087-0.092-0.143-0.219-0.256-0.284C7.971,36.6,7.722,36.5,7.464,36.462   c0.259,0.026,0.515,0.115,0.728,0.274c0.119,0.063,0.183,0.189,0.278,0.282c0.098,0.095,0.118,0.235,0.181,0.353   c0.067,0.12,0.083,0.251,0.094,0.385c0.014,0.132,0.035,0.265,0.043,0.397l-0.095,0.789L8.61,38.865   c0.431-0.138,0.874-0.27,1.343-0.28c0.233-0.011,0.475,0.033,0.693,0.131c0.226,0.093,0.399,0.27,0.55,0.45   c0.291,0.38,0.43,0.831,0.542,1.272c0.115,0.445,0.174,0.897,0.231,1.35l-0.143-0.091c0.536-0.184,1.075-0.367,1.644-0.467   c0.286-0.042,0.58-0.071,0.877-0.027c0.299,0.037,0.586,0.164,0.829,0.345c0.461,0.396,0.72,0.923,0.976,1.423l0.744,1.517   l-0.13-0.032l0.688-0.41c0.239-0.119,0.484-0.228,0.729-0.336c0.259-0.069,0.506-0.185,0.775-0.215   c0.264-0.058,0.532-0.074,0.803-0.064c0.135-0.006,0.268,0.033,0.401,0.048c0.135,0.014,0.26,0.067,0.389,0.108   c0.254,0.085,0.492,0.219,0.707,0.377C21.69,44.277,22.031,44.705,22.257,45.182z" fill="#1D1D1B"/></g><g><path d="M30.408,45.307c0.227-0.477,0.567-0.904,1-1.22c0.215-0.157,0.453-0.291,0.707-0.376   c0.129-0.041,0.254-0.095,0.389-0.108c0.134-0.015,0.267-0.054,0.401-0.048c0.271-0.01,0.539,0.007,0.804,0.064   c0.27,0.03,0.516,0.146,0.774,0.215c0.244,0.108,0.489,0.217,0.729,0.336l0.688,0.41l-0.13,0.032l0.744-1.517   c0.257-0.5,0.515-1.028,0.977-1.424c0.242-0.18,0.53-0.307,0.829-0.344c0.297-0.044,0.591-0.015,0.877,0.027   c0.569,0.1,1.108,0.283,1.645,0.467l-0.144,0.091c0.058-0.452,0.116-0.904,0.231-1.35c0.112-0.441,0.252-0.893,0.542-1.271   c0.15-0.182,0.324-0.358,0.55-0.451c0.219-0.098,0.46-0.142,0.693-0.131c0.469,0.011,0.912,0.143,1.343,0.28l-0.083,0.077   l-0.096-0.789c0.009-0.133,0.029-0.266,0.043-0.397c0.012-0.133,0.027-0.265,0.094-0.385c0.063-0.117,0.083-0.258,0.182-0.353   c0.095-0.093,0.158-0.219,0.277-0.282c0.212-0.159,0.469-0.248,0.728-0.274c-0.258,0.038-0.507,0.138-0.706,0.303   c-0.112,0.065-0.169,0.192-0.256,0.284c-0.09,0.094-0.103,0.233-0.157,0.347c-0.06,0.115-0.068,0.243-0.073,0.372   c-0.008,0.128-0.022,0.256-0.024,0.383l0.116,0.763l0.017,0.107l-0.1-0.03c-0.429-0.13-0.867-0.251-1.305-0.254   c-0.441-0.02-0.852,0.184-1.104,0.534c-0.259,0.348-0.39,0.784-0.491,1.214c-0.104,0.433-0.156,0.88-0.205,1.325l-0.015,0.133   l-0.129-0.042c-0.531-0.174-1.066-0.346-1.61-0.432c-0.271-0.035-0.544-0.055-0.807-0.022c-0.264,0.029-0.505,0.133-0.718,0.284   c-0.408,0.336-0.677,0.842-0.936,1.334l-0.769,1.507l-0.044,0.086l-0.087-0.054l-0.667-0.411c-0.231-0.12-0.468-0.229-0.704-0.338   c-0.249-0.07-0.488-0.188-0.746-0.22c-0.254-0.06-0.512-0.079-0.771-0.074c-0.13-0.008-0.256,0.028-0.385,0.04   c-0.13,0.007-0.252,0.053-0.377,0.087c-0.248,0.07-0.484,0.189-0.7,0.333C31.014,44.434,30.655,44.841,30.408,45.307z" fill="#1D1D1B"/></g></svg>