<?xml version="1.0" ?><!DOCTYPE svg  PUBLIC '-//W3C//DTD SVG 1.1//EN'  'http://www.w3.org/Graphics/SVG/1.1/DTD/svg11.dtd'><svg enable-background="new 0 0 52 52" height="52px" id="Слой_1" version="1.1" viewBox="0 0 52 52" width="52px" xml:space="preserve" xmlns="http://www.w3.org/2000/svg" xmlns:xlink="http://www.w3.org/1999/xlink"><g><path d="M26.653,29.253c0,0-0.108,0.004-0.311,0.013c-0.201,0.02-0.502-0.013-0.882-0.081   c-0.749-0.156-1.793-0.552-2.889-1.288c-0.544-0.37-1.117-0.804-1.66-1.335c-0.544-0.528-1.094-1.129-1.512-1.876   c-0.201-0.378-0.39-0.779-0.484-1.236c-0.101-0.485-0.091-0.866-0.133-1.301c-0.062-0.847-0.125-1.708-0.188-2.569   c-0.087-1.726-0.197-3.442-0.253-5.075c-0.02-0.818-0.003-1.629,0.216-2.402c0.102-0.386,0.304-0.749,0.556-1.044   c0.271-0.281,0.582-0.493,0.897-0.626c0.628-0.289,1.236-0.363,1.762-0.432c0.529-0.061,0.989-0.085,1.368-0.104   c0.757-0.026,1.19-0.02,1.19-0.02s-0.428,0.06-1.176,0.165c-0.374,0.055-0.826,0.124-1.335,0.234   c-0.504,0.118-1.083,0.253-1.623,0.536c-0.55,0.27-0.983,0.753-1.11,1.435c-0.15,0.668-0.118,1.442-0.095,2.236   c0.086,1.602,0.233,3.329,0.351,5.05c0.046,0.862,0.092,1.724,0.137,2.573c0.03,0.412,0.025,0.879,0.097,1.212   c0.065,0.362,0.221,0.717,0.393,1.056c0.756,1.34,1.839,2.417,2.847,3.181c0.508,0.383,0.998,0.703,1.452,0.953   c0.454,0.252,0.875,0.421,1.229,0.537c0.355,0.095,0.641,0.178,0.847,0.181C26.545,29.243,26.653,29.253,26.653,29.253z" fill="#1D1D1B"/></g><g><path d="M20.112,15.895c0,0,0.071-0.054,0.211-0.123c0.136-0.078,0.341-0.171,0.6-0.251   c0.127-0.052,0.273-0.064,0.426-0.095c0.153-0.017,0.315-0.08,0.486-0.057c0.17,0.007,0.347,0.014,0.526,0.021   c0.182-0.011,0.353,0.067,0.531,0.103c0.174,0.052,0.349,0.103,0.521,0.154c0.156,0.087,0.31,0.172,0.458,0.255   c0.146,0.085,0.287,0.168,0.421,0.246c0.125,0.089,0.223,0.203,0.323,0.292c0.386,0.377,0.626,0.633,0.626,0.633   s-0.295-0.207-0.713-0.523c-0.106-0.077-0.209-0.177-0.338-0.25c-0.134-0.065-0.275-0.135-0.422-0.206   c-0.144-0.074-0.292-0.151-0.443-0.229c-0.164-0.042-0.33-0.085-0.496-0.128c-0.167-0.039-0.326-0.12-0.498-0.114   c-0.169-0.012-0.335-0.023-0.496-0.035c-0.162-0.023-0.316,0.019-0.464,0.021c-0.148,0.015-0.292,0.012-0.417,0.051   c-0.255,0.056-0.472,0.095-0.615,0.152C20.192,15.853,20.112,15.895,20.112,15.895z" fill="#1D1D1B"/></g><g><path d="M24.522,17.938c-0.05,0.201-0.233,0.341-0.4,0.452c-0.176,0.107-0.362,0.197-0.555,0.27   c-0.387,0.14-0.787,0.238-1.198,0.294c-0.206,0.026-0.413,0.038-0.637,0.005c-0.129-0.03-0.199-0.053-0.307-0.1   c-0.103-0.055-0.208-0.111-0.286-0.19c-0.347-0.286-0.497-0.78-0.396-1.217l0.006-0.024l0.011-0.015   c0.217-0.293,0.496-0.556,0.884-0.636c0.093-0.032,0.195-0.004,0.292-0.001c0.115,0.016,0.169,0.059,0.256,0.086l0.473,0.197   c0.313,0.136,0.633,0.254,0.942,0.406L24.522,17.938z M24.522,17.938c-0.637-0.249-1.265-0.489-1.914-0.706l-0.482-0.168   c-0.074-0.023-0.173-0.075-0.227-0.074c-0.072,0.003-0.144-0.024-0.215,0.006c-0.287,0.059-0.545,0.297-0.721,0.55l0.017-0.039   c-0.064,0.353,0.032,0.749,0.314,0.988c0.064,0.069,0.141,0.106,0.213,0.153c0.074,0.038,0.2,0.08,0.266,0.094   c0.177,0.032,0.379,0.021,0.576,0.009c0.396-0.03,0.793-0.102,1.177-0.214c0.192-0.056,0.382-0.119,0.563-0.205   C24.264,18.24,24.449,18.135,24.522,17.938z" fill="#1D1D1B"/></g><g><path d="M21.985,27.735c0.015,0.587,0.011,1.174,0,1.761c-0.007,0.588-0.006,1.176-0.05,1.763   c-0.036,0.587-0.059,1.174-0.105,1.762c-0.076,0.59-0.149,1.183-0.24,1.771l-0.014,0.092l-0.102,0.05l-3.264,1.605   c-1.088,0.534-2.19,1.039-3.285,1.561l-0.021,0.01l-0.03,0.008c-0.628,0.151-1.27,0.368-1.881,0.627   c-0.314,0.114-0.614,0.261-0.912,0.41c-0.301,0.146-0.604,0.288-0.884,0.473c-0.284,0.176-0.576,0.342-0.855,0.526l-0.809,0.6   c-0.282,0.188-0.524,0.42-0.767,0.654l-0.746,0.688c0.458-0.493,0.869-1.05,1.394-1.482l0.775-0.67   c0.274-0.202,0.563-0.386,0.845-0.579c0.278-0.203,0.579-0.364,0.88-0.528c0.299-0.168,0.599-0.333,0.916-0.466   c0.623-0.296,1.268-0.515,1.951-0.694l-0.052,0.018c1.09-0.531,2.171-1.078,3.268-1.597l3.289-1.552l-0.116,0.141   c0.087-0.569,0.192-1.136,0.294-1.705c0.073-0.578,0.125-1.162,0.189-1.743L21.985,27.735z" fill="#1D1D1B"/></g><g><g><path d="M25.259,20.877c0,0-0.007,0.054-0.02,0.148c-0.02,0.091-0.069,0.219-0.138,0.375    c-0.064,0.164-0.169,0.325-0.294,0.487c-0.121,0.155-0.241,0.341-0.178,0.446c0.027,0.055,0.099,0.135,0.174,0.216    c0.07,0.067,0.096,0.086,0.194,0.083c0.057,0.002,0.083-0.01,0.164,0.003c0.044,0.006,0.098,0.021,0.158,0.053    c0.105,0.056,0.164,0.114,0.229,0.167c0.123,0.104,0.221,0.185,0.308,0.224c0.086,0.03,0.141,0.043,0.141,0.043    s-0.053,0.003-0.152-0.003c-0.095-0.018-0.239-0.06-0.378-0.149c-0.067-0.04-0.149-0.091-0.213-0.111    c-0.023-0.013-0.061-0.021-0.116-0.02l-0.134,0.01c-0.042,0.008-0.133-0.005-0.197-0.019c-0.056-0.033-0.135-0.079-0.169-0.116    c-0.071-0.073-0.158-0.142-0.236-0.278c-0.058-0.142-0.029-0.316,0.039-0.413c0.06-0.109,0.131-0.191,0.197-0.271    c0.13-0.153,0.269-0.284,0.34-0.418c0.08-0.131,0.18-0.232,0.221-0.319C25.237,20.927,25.259,20.877,25.259,20.877z" fill="#1D1D1B"/></g><g><path d="M26.663,20.877c0,0,0.021,0.05,0.06,0.139c0.041,0.087,0.142,0.188,0.222,0.319    c0.07,0.133,0.21,0.265,0.34,0.418c0.065,0.08,0.138,0.162,0.197,0.271c0.068,0.097,0.097,0.271,0.039,0.413    c-0.078,0.137-0.166,0.205-0.237,0.278c-0.033,0.037-0.112,0.083-0.168,0.116c-0.063,0.015-0.155,0.028-0.197,0.02l-0.134-0.01    c-0.055-0.001-0.093,0.007-0.116,0.02c-0.063,0.021-0.146,0.071-0.213,0.111c-0.139,0.09-0.283,0.132-0.378,0.15    c-0.099,0.006-0.152,0.003-0.152,0.003s0.055-0.013,0.141-0.043c0.086-0.039,0.185-0.12,0.307-0.224    c0.066-0.053,0.124-0.111,0.229-0.167c0.061-0.032,0.114-0.047,0.158-0.053c0.082-0.013,0.106-0.001,0.164-0.003    c0.097,0.003,0.124-0.016,0.194-0.083c0.077-0.081,0.148-0.161,0.175-0.216c0.063-0.105-0.057-0.291-0.178-0.446    c-0.125-0.162-0.23-0.323-0.295-0.487c-0.068-0.157-0.119-0.285-0.139-0.375C26.67,20.931,26.663,20.877,26.663,20.877z" fill="#1D1D1B"/></g></g><g><g><path d="M26,24.527c-0.385-0.282-0.868-0.198-1.291-0.093c-0.431,0.118-0.856,0.291-1.248,0.504l-0.039-0.231    c0.433,0.097,0.869,0.18,1.298,0.287l0.637,0.158c0.204,0.058,0.44,0.131,0.643,0.146c-0.126-0.012-0.226,0.018-0.334,0.003    l-0.331-0.031l-0.66-0.092c-0.435-0.063-0.864-0.151-1.295-0.226l-0.37-0.064l0.331-0.167c0.423-0.214,0.858-0.386,1.325-0.476    c0.232-0.043,0.473-0.058,0.71-0.029C25.611,24.251,25.85,24.352,26,24.527z" fill="#1D1D1B"/></g><g><path d="M23.968,25.271c0,0,0.123,0.076,0.309,0.167c0.186,0.091,0.423,0.221,0.678,0.305    c0.123,0.052,0.247,0.106,0.371,0.132c0.123,0.029,0.232,0.088,0.334,0.099c0.2,0.049,0.34,0.096,0.34,0.096    s-0.139,0.026-0.356,0.043c-0.216,0.011-0.508-0.036-0.78-0.138c-0.27-0.109-0.515-0.272-0.669-0.424    C24.039,25.398,23.968,25.271,23.968,25.271z" fill="#1D1D1B"/></g><g><path d="M26,24.501c0.313-0.356,0.853-0.405,1.301-0.354c0.464,0.054,0.905,0.188,1.336,0.37l0.332,0.14    l-0.346,0.09c-0.86,0.223-1.709,0.578-2.623,0.524c0.223-0.024,0.438-0.069,0.651-0.13c0.216-0.06,0.423-0.121,0.633-0.206    c0.416-0.158,0.842-0.281,1.263-0.424l-0.014,0.23c-0.399-0.178-0.829-0.32-1.261-0.4C26.848,24.266,26.377,24.227,26,24.501z" fill="#1D1D1B"/></g><g><path d="M28.968,24.783c0,0-0.142,0.152-0.386,0.345c-0.239,0.198-0.595,0.411-0.965,0.6    c-0.19,0.084-0.39,0.149-0.57,0.22c-0.19,0.051-0.374,0.077-0.525,0.109C26.202,26.063,26,26.046,26,26.046    s0.197-0.051,0.493-0.127c0.285-0.104,0.659-0.235,1.018-0.417c0.365-0.167,0.724-0.354,0.996-0.492    C28.783,24.874,28.968,24.783,28.968,24.783z" fill="#1D1D1B"/></g></g><g><path d="M28.585,3.24c0,0-0.798,0.013-2.163,0.251C25.061,3.723,23.128,4.217,21,5.232   c-2.127,1.004-4.394,2.651-6.215,4.942c-0.914,1.139-1.708,2.435-2.354,3.828c-0.652,1.392-1.122,2.892-1.479,4.414   c-0.348,1.517-0.693,3.094-0.561,4.568c0.122,1.509,0.587,2.96,1.072,4.358c0.49,1.396,0.986,2.785,1.138,4.193   c0.175,1.406-0.165,2.799-0.816,3.84c-0.631,1.062-1.477,1.816-2.244,2.414c-0.778,0.591-1.495,1.045-2.1,1.391   c-0.602,0.352-1.092,0.595-1.428,0.756C5.68,40.103,5.502,40.19,5.502,40.19s0.171-0.101,0.492-0.29   c0.324-0.183,0.789-0.468,1.37-0.845c0.582-0.375,1.268-0.863,1.998-1.483c0.718-0.627,1.493-1.402,2.056-2.409   c0.574-0.999,0.839-2.256,0.636-3.562c-0.186-1.309-0.708-2.639-1.207-4.042c-0.501-1.401-1.006-2.902-1.156-4.516   c-0.151-1.655,0.186-3.234,0.534-4.8c0.385-1.561,0.886-3.102,1.575-4.536c0.684-1.435,1.521-2.77,2.482-3.941   c1.92-2.361,4.35-3.95,6.543-4.915c2.208-0.975,4.2-1.331,5.577-1.504C27.788,3.188,28.585,3.24,28.585,3.24z" fill="#1D1D1B"/></g><g><path d="M30.611,18.832c0.063-1.077,0.052-2.153-0.1-3.206c-0.152-1.045-0.415-2.084-0.946-2.967   c-0.521-0.884-1.296-1.586-2.219-1.993c-0.461-0.202-0.953-0.342-1.458-0.41c-0.498-0.07-1.033-0.082-1.503-0.022l-0.526,0.067   l0.117-0.5c0.288-1.223,0.724-2.369,1.325-3.462c0.603-1.08,1.405-2.104,2.501-2.797c1.086-0.718,2.472-0.914,3.721-0.695   c1.255,0.233,2.396,0.789,3.431,1.45c2.054,1.314,3.915,3.047,5.099,5.237c1.205,2.185,1.554,4.738,1.382,7.165   c-0.17,2.444-0.781,4.801-1.377,7.127c-0.583,2.323-1.244,4.656-1.236,7.023c0.014,1.174,0.244,2.354,0.818,3.37   c0.586,0.999,1.453,1.864,2.379,2.583c0.938,0.699,2.114,1.171,3.295,0.97c1.174-0.191,2.206-0.966,2.904-1.934   c-0.662,0.992-1.669,1.82-2.88,2.067c-1.22,0.257-2.479-0.193-3.476-0.882c-0.988-0.717-1.911-1.54-2.556-2.613   c-0.631-1.077-0.892-2.33-0.922-3.552c-0.042-2.465,0.6-4.831,1.147-7.165c0.566-2.333,1.12-4.671,1.267-7.036   c0.153-2.353-0.195-4.756-1.337-6.805c-1.12-2.053-2.899-3.704-4.888-4.961c-0.986-0.626-2.057-1.131-3.173-1.333   c-1.112-0.182-2.267-0.014-3.204,0.609c-0.943,0.604-1.678,1.527-2.248,2.533c-0.565,1.009-0.995,2.132-1.262,3.248l-0.409-0.433   c0.599-0.064,1.148-0.034,1.714,0.052c0.56,0.087,1.11,0.253,1.63,0.493c0.518,0.241,1.002,0.564,1.415,0.961   c0.408,0.403,0.741,0.874,0.998,1.374c0.517,1.003,0.75,2.109,0.808,3.196C30.886,16.687,30.784,17.771,30.611,18.832z" fill="#1D1D1B"/></g><g><path d="M39.885,46.631c0,0-0.021-0.148-0.178-0.367c-0.151-0.222-0.454-0.484-0.885-0.735   c-0.861-0.511-2.211-0.996-3.816-1.6c-1.599-0.612-3.492-1.322-5.303-2.51c-0.896-0.598-1.771-1.33-2.444-2.261   c-0.338-0.462-0.611-0.982-0.831-1.513c-0.231-0.518-0.448-1.06-0.629-1.609c-0.366-1.095-0.61-2.255-0.579-3.415   c0.01-1.157,0.291-2.295,0.736-3.293c0.445-1.002,1.001-1.891,1.505-2.732c0.508-0.841,0.973-1.637,1.367-2.39   c0.784-1.51,1.211-2.873,1.465-3.836c0.116-0.485,0.202-0.869,0.244-1.133c0.048-0.264,0.074-0.405,0.074-0.405   s-0.015,0.143-0.041,0.409c-0.021,0.269-0.074,0.658-0.15,1.156c-0.092,0.494-0.2,1.098-0.41,1.769   c-0.203,0.673-0.48,1.419-0.845,2.205c-0.355,0.791-0.821,1.605-1.318,2.454c-0.492,0.851-1.025,1.734-1.436,2.701   c-0.427,0.956-0.714,2.009-0.738,3.105c-0.045,1.097,0.176,2.211,0.47,3.299c0.332,1.07,0.673,2.189,1.322,3.081   c0.638,0.905,1.476,1.639,2.35,2.242c1.765,1.202,3.641,1.944,5.227,2.583c1.594,0.631,2.938,1.14,3.795,1.668   c0.429,0.26,0.729,0.529,0.877,0.755C39.867,46.482,39.885,46.631,39.885,46.631z" fill="#1D1D1B"/></g><g><path d="M25.602,51.324c2.431-2.556,4.918-5.053,7.415-7.54l0.199,0.494c-1.862,0.048-3.726,0.037-5.588,0.056   l0.322-0.226l-0.631,1.767l-0.272,0.765l-0.376-0.725l-0.914-1.756l0.327,0.199l-1.699,0.004l0.208-0.679l0.802,0.55l0.32,0.22   l-0.233,0.304l-0.961,1.252l-0.356,0.463l-0.247-0.524l-0.852-1.809l0.309,0.194c-1.798-0.019-3.596-0.007-5.395-0.053l0.2-0.497   c2.497,2.488,4.985,4.984,7.415,7.541c-2.646-2.332-5.235-4.725-7.815-7.125l-0.514-0.479l0.714-0.019   c1.798-0.046,3.596-0.034,5.395-0.053l0.213-0.003l0.096,0.197l0.875,1.797l-0.603-0.062l0.945-1.264l0.086,0.523l-0.809-0.54   l-1.023-0.682l1.231,0.003l1.699,0.004h0.227l0.101,0.2l0.891,1.768l-0.649,0.041l0.653-1.759l0.085-0.228l0.237,0.002   c1.862,0.019,3.726,0.008,5.588,0.056l0.711,0.018l-0.512,0.477C30.835,46.6,28.247,48.991,25.602,51.324z" fill="#1D1D1B"/></g><g><path d="M31.049,14.416c0,0-0.255,0.086-0.642,0.195c-0.184,0.078-0.384,0.19-0.606,0.284   c-0.229,0.074-0.437,0.249-0.656,0.389c-0.217,0.146-0.462,0.253-0.644,0.422c-0.185,0.163-0.371,0.3-0.525,0.427   c-0.316,0.242-0.541,0.396-0.541,0.396s0.17-0.205,0.446-0.5c0.142-0.143,0.301-0.32,0.486-0.493   c0.179-0.18,0.426-0.304,0.646-0.464c0.235-0.136,0.45-0.303,0.704-0.376c0.243-0.091,0.472-0.164,0.664-0.222   C30.78,14.431,31.049,14.416,31.049,14.416z" fill="#1D1D1B"/></g><g><path d="M30.729,16.912c-0.134-0.024-0.272-0.041-0.396,0.001c-0.118,0.017-0.239,0.118-0.358,0.172l-0.729,0.368   c-0.497,0.228-0.955,0.499-1.432,0.746l0.061-0.144c0.058,0.16,0.291,0.303,0.512,0.393c0.228,0.096,0.471,0.16,0.715,0.226   c0.244,0.063,0.495,0.105,0.747,0.137c0.251,0.034,0.507,0.063,0.762,0.021c-0.5,0.146-1.035,0.104-1.547,0.026   c-0.258-0.039-0.513-0.106-0.762-0.201c-0.124-0.05-0.248-0.106-0.365-0.184c-0.116-0.077-0.235-0.181-0.3-0.348l-0.036-0.097   l0.097-0.047c0.491-0.242,0.973-0.516,1.477-0.709l0.755-0.302c0.133-0.037,0.241-0.113,0.396-0.118   C30.473,16.829,30.599,16.868,30.729,16.912z" fill="#1D1D1B"/></g><g><path d="M51.074,25.75c0,0-0.029,0.615-0.084,1.767c0,0.579-0.1,1.283-0.233,2.11c-0.068,0.412-0.113,0.861-0.215,1.33   c-0.117,0.465-0.243,0.959-0.376,1.481c-0.58,2.064-1.486,4.563-3.161,7.068c-1.643,2.508-3.957,5.079-7.033,7.154   c-3.075,2.056-6.896,3.589-11.12,4.106c-0.524,0.085-1.063,0.073-1.599,0.114c-0.54,0.012-1.074,0.095-1.628,0.05   c-1.083-0.065-2.182-0.053-3.288-0.267c-2.229-0.262-4.419-0.965-6.558-1.858c-2.138-0.916-4.13-2.219-5.997-3.708   c-1.834-1.539-3.447-3.367-4.839-5.373c-1.354-2.037-2.392-4.289-3.156-6.641c-0.717-2.378-1.047-4.838-1.112-7.348   c0.061-2.443,0.394-4.958,1.111-7.322c0.763-2.352,1.802-4.604,3.156-6.641C6.335,9.768,7.948,7.939,9.783,6.4   c1.867-1.49,3.858-2.792,5.997-3.708c4.253-1.866,8.865-2.444,13.067-1.961c4.234,0.519,8.048,2.052,11.126,4.107   c3.075,2.076,5.39,4.647,7.032,7.154c1.675,2.506,2.581,5.004,3.162,7.069c0.132,0.522,0.258,1.017,0.375,1.481   c0.102,0.468,0.146,0.918,0.215,1.33c0.134,0.827,0.233,1.531,0.233,2.11C51.045,25.135,51.074,25.75,51.074,25.75z M51.074,25.75   c0,0-0.033-0.614-0.095-1.766c-0.005-0.579-0.108-1.282-0.247-2.107c-0.071-0.412-0.118-0.86-0.223-1.327   c-0.121-0.463-0.249-0.956-0.385-1.477c-0.593-2.057-1.513-4.543-3.197-7.03c-1.652-2.487-3.973-5.032-7.043-7.075   c-3.066-2.023-6.877-3.52-11.054-4.005c-4.188-0.454-8.731,0.15-12.923,2.019c-2.105,0.917-4.062,2.217-5.893,3.696   C8.216,8.207,6.64,10.018,5.283,12c-1.319,2.013-2.325,4.233-3.061,6.547c-0.69,2.343-0.993,4.738-1.048,7.216   c0.051,2.411,0.357,4.862,1.046,7.191c0.735,2.313,1.741,4.534,3.061,6.547c1.357,1.981,2.933,3.793,4.732,5.322   c1.831,1.479,3.788,2.778,5.893,3.695c2.102,0.895,4.273,1.606,6.461,1.876c1.08,0.219,2.188,0.214,3.269,0.285   c0.53,0.049,1.073-0.03,1.604-0.039c0.531-0.037,1.064-0.022,1.585-0.103c4.188-0.487,7.99-1.982,11.06-4.006   c3.069-2.044,5.39-4.588,7.042-7.076c1.685-2.485,2.605-4.972,3.197-7.029c0.136-0.521,0.264-1.013,0.385-1.477   c0.104-0.467,0.151-0.915,0.223-1.327c0.139-0.824,0.242-1.528,0.247-2.106C51.041,26.364,51.074,25.75,51.074,25.75z"/></g></svg>