<?xml version="1.0" ?><!DOCTYPE svg  PUBLIC '-//W3C//DTD SVG 1.1//EN'  'http://www.w3.org/Graphics/SVG/1.1/DTD/svg11.dtd'><svg enable-background="new 0 0 52 52" height="52px" id="Слой_1" version="1.1" viewBox="0 0 52 52" width="52px" xml:space="preserve" xmlns="http://www.w3.org/2000/svg" xmlns:xlink="http://www.w3.org/1999/xlink"><g><g><g><path d="M22.711,18.782" fill="none"/></g></g></g><g><path d="M23.009,24.579c0,0,0.121,0.257,0.244,0.653c0.122,0.396,0.259,0.927,0.341,1.467   c0.087,0.539,0.12,1.086,0.125,1.5c0.004,0.414-0.033,0.696-0.033,0.696s-0.122-0.257-0.245-0.652   c-0.123-0.396-0.259-0.927-0.341-1.467c-0.087-0.539-0.119-1.087-0.124-1.5C22.972,24.861,23.009,24.579,23.009,24.579z" fill="#1D1D1B"/></g><g><path d="M23.009,24.579" fill="none"/></g><g><path d="M20.707,9.874c0,0,0.112,0.2,0.221,0.509c0.108,0.309,0.227,0.726,0.29,1.15   c0.069,0.424,0.083,0.856,0.073,1.184c-0.01,0.327-0.057,0.552-0.057,0.552s-0.112-0.2-0.222-0.509   c-0.108-0.309-0.226-0.726-0.289-1.15c-0.068-0.424-0.082-0.856-0.073-1.184C20.661,10.099,20.707,9.874,20.707,9.874z" fill="#1D1D1B"/></g><g><path d="M23.799,15.116c0.131,0.405,0.293,0.799,0.398,1.212l0.34,1.232l0.31,1.241   c0.118,0.409,0.2,0.83,0.277,1.258c0.018,0.112,0.046,0.203,0.055,0.332l-0.034,0.317c-0.015,0.212-0.043,0.423-0.124,0.634   c-0.071,0.208-0.116,0.436-0.215,0.626l-0.269,0.592c-0.406,0.765-0.868,1.491-1.419,2.167l-0.175,0.214l-0.166-0.23   c-0.626-0.871-1.241-1.746-1.826-2.645c-0.286-0.454-0.563-0.914-0.831-1.381c-0.13-0.237-0.264-0.47-0.384-0.715   c-0.123-0.244-0.243-0.486-0.334-0.763c-0.051-0.127-0.087-0.295-0.083-0.478l0.06-0.396c0.026-0.262,0.12-0.535,0.178-0.8   c0.138-0.531,0.296-1.037,0.463-1.548c0.332-1.019,0.699-2.022,1.077-3.022l0.017-0.044l0.039,0.025   c0.485,0.308,0.958,0.633,1.415,0.981c0.232,0.169,0.448,0.358,0.667,0.543C23.446,14.666,23.644,14.873,23.799,15.116z    M23.799,15.116c-0.16-0.24-0.362-0.441-0.577-0.632c-0.223-0.18-0.442-0.364-0.677-0.527c-0.462-0.337-0.942-0.651-1.432-0.947   l0.055-0.02c-0.328,1.016-0.633,2.039-0.906,3.068c-0.137,0.512-0.268,1.036-0.37,1.544c-0.041,0.258-0.116,0.499-0.128,0.771   l-0.037,0.398c0.014,0.081,0.027,0.181,0.078,0.3c0.176,0.463,0.449,0.929,0.713,1.382c0.274,0.453,0.557,0.901,0.85,1.345   c0.57,0.896,1.157,1.788,1.761,2.663l-0.34-0.016c0.535-0.635,1.051-1.311,1.478-2.031l0.291-0.556   c0.11-0.184,0.154-0.377,0.234-0.568c0.086-0.185,0.128-0.393,0.154-0.606l0.051-0.315l-0.038-0.299   c-0.085-0.83-0.294-1.668-0.477-2.495l-0.313-1.237C24.075,15.923,23.921,15.524,23.799,15.116z" fill="#1D1D1B"/></g><g><g><path d="M24.094,19.089c-0.017-0.011-0.013,0.136-0.178,0.285c-0.076,0.075-0.189,0.154-0.33,0.209    c-0.138,0.066-0.31,0.101-0.497,0.13c-0.368,0.056-0.852,0.012-1.295-0.145c-0.242-0.089-0.478-0.199-0.683-0.387    c-0.202-0.181-0.406-0.419-0.445-0.769c-0.009-0.083,0.01-0.174,0.02-0.259c0.013-0.04-0.015-0.001,0.032-0.106l0.021-0.041    l0.042-0.082c0.032-0.062,0.181-0.192,0.273-0.222c0.087-0.017,0.194-0.042,0.266-0.031c0.313,0.022,0.521,0.133,0.745,0.219    c0.425,0.186,0.825,0.337,1.176,0.464c0.174,0.067,0.335,0.125,0.474,0.187c0.138,0.068,0.248,0.141,0.323,0.222    C24.167,18.955,24.069,19.094,24.094,19.089z M24.094,19.089c-0.023,0.006,0.066-0.138-0.066-0.316    c-0.076-0.077-0.186-0.145-0.328-0.192c-0.143-0.043-0.305-0.09-0.488-0.117c-0.365-0.058-0.799-0.134-1.252-0.237    c-0.22-0.04-0.466-0.103-0.642-0.093c-0.05-0.003-0.061,0.021-0.094,0.019c-0.008,0.027,0.024-0.036-0.011-0.001l-0.039,0.083    l-0.02,0.042c0.028-0.078,0.008-0.005,0.015-0.016c0.003,0.037-0.01,0.07-0.004,0.108c-0.002,0.156,0.133,0.33,0.264,0.484    c0.14,0.156,0.325,0.287,0.499,0.396c0.398,0.229,0.788,0.336,1.157,0.355c0.18,0.012,0.349-0.012,0.489-0.058    c0.144-0.034,0.258-0.111,0.334-0.181C24.074,19.227,24.078,19.077,24.094,19.089z" fill="#1D1D1B"/></g></g><g><path d="M23.775,18.181c0,0-0.181-0.352-0.47-0.863c-0.294-0.503-0.663-1.213-1.185-1.761   c-0.128-0.133-0.271-0.259-0.421-0.316c-0.15-0.06-0.292-0.024-0.405,0.087c-0.228,0.227-0.347,0.569-0.43,0.841   c-0.172,0.558-0.247,0.948-0.247,0.948s0.007-0.099,0.019-0.271c0.014-0.172,0.028-0.42,0.092-0.713   c0.071-0.287,0.126-0.649,0.415-0.962c0.138-0.16,0.419-0.24,0.633-0.15c0.214,0.077,0.376,0.218,0.523,0.362   c0.552,0.609,0.892,1.332,1.132,1.873C23.662,17.802,23.775,18.181,23.775,18.181z" fill="#1D1D1B"/></g><g><path d="M20.862,19.317c0,0-0.09,0.24-0.008,0.553c0.02,0.077,0.06,0.15,0.113,0.217   c0.057,0.065,0.132,0.114,0.215,0.162c0.174,0.082,0.389,0.131,0.611,0.134c0.443,0.045,0.902-0.018,1.248-0.04   c0.344-0.036,0.581-0.046,0.581-0.046s-0.219,0.082-0.556,0.185c-0.34,0.089-0.806,0.18-1.292,0.15   c-0.24-0.017-0.487-0.081-0.699-0.195c-0.22-0.116-0.342-0.355-0.359-0.541c-0.022-0.192,0.038-0.339,0.073-0.435   C20.83,19.366,20.862,19.317,20.862,19.317z" fill="#1D1D1B"/></g><g><path d="M26.086,8.28c0,0,0.23,0.006,0.663,0.019c0.217,0,0.483,0.015,0.795,0.057   c0.313,0.023,0.671,0.077,1.065,0.169c0.781,0.178,1.75,0.496,2.617,1.238c0.893,0.72,1.507,1.914,1.85,3.261   c0.322,1.356,0.407,2.893,0.367,4.472c-0.006,1.587,0.001,3.254-0.087,5.009c-0.024,0.445-0.015,0.86-0.068,1.341   c-0.063,0.407-0.247,0.929-0.463,1.326c-0.438,0.836-1.065,1.546-1.76,2.174c-0.699,0.627-1.481,1.17-2.34,1.593   c-0.851,0.411-1.816,0.744-2.811,0.719c-0.286-0.025-0.457-0.012-0.732-0.072c-0.257-0.043-0.505-0.098-0.733-0.175   c-0.47-0.135-0.91-0.334-1.337-0.547c-0.85-0.438-1.625-0.993-2.311-1.634c-0.683-0.643-1.293-1.37-1.713-2.218   c-0.213-0.423-0.353-0.879-0.409-1.371c-0.016-0.439-0.032-0.876-0.048-1.309c-0.087-1.727-0.071-3.416-0.081-5.007   c-0.031-1.591,0.058-3.112,0.414-4.469c0.176-0.678,0.448-1.294,0.755-1.852c0.349-0.531,0.725-1.016,1.185-1.354   c0.889-0.717,1.869-1.006,2.654-1.161c0.793-0.161,1.432-0.189,1.863-0.197C25.855,8.279,26.086,8.28,26.086,8.28z M26.086,8.28   c0,0-0.231,0.002-0.663,0.023c-0.431,0.015-1.068,0.052-1.856,0.224c-0.78,0.166-1.748,0.469-2.611,1.188   c-0.448,0.338-0.809,0.82-1.143,1.345c-0.3,0.549-0.538,1.167-0.686,1.838c-0.298,1.338-0.33,2.846-0.239,4.421   c0.07,1.581,0.115,3.239,0.267,4.967c0.032,0.432,0.065,0.866,0.098,1.305c0.06,0.377,0.191,0.778,0.396,1.142   c0.39,0.741,0.958,1.416,1.607,2.005c1.292,1.153,2.97,2.113,4.66,2.173c1.719,0.02,3.387-0.941,4.708-2.062   c1.329-1.159,2.347-2.632,2.216-4.393c0.149-1.701,0.208-3.379,0.272-4.965c0.1-1.588,0.07-3.074-0.195-4.429   c-0.274-1.34-0.88-2.517-1.741-3.237c-0.842-0.742-1.798-1.074-2.573-1.262c-0.392-0.098-0.746-0.157-1.059-0.185   c-0.311-0.046-0.577-0.066-0.793-0.069C26.316,8.29,26.086,8.28,26.086,8.28z" fill="#1D1D1B"/></g><g><g><g><path d="M29.289,18.782" fill="none"/></g></g></g><g><path d="M28.991,24.579c0,0,0.036,0.282,0.033,0.696c-0.006,0.414-0.037,0.961-0.125,1.5   c-0.081,0.541-0.218,1.072-0.34,1.467c-0.123,0.396-0.245,0.652-0.245,0.652s-0.037-0.282-0.033-0.696s0.037-0.962,0.125-1.5   c0.082-0.54,0.219-1.071,0.341-1.467C28.87,24.836,28.991,24.579,28.991,24.579z" fill="#1D1D1B"/></g><g><path d="M28.991,24.579" fill="none"/></g><g><path d="M31.293,9.873c0,0,0.046,0.225,0.056,0.552c0.01,0.327-0.004,0.76-0.072,1.184   c-0.063,0.425-0.181,0.841-0.289,1.15c-0.109,0.309-0.222,0.509-0.222,0.509s-0.047-0.225-0.057-0.552s0.005-0.76,0.073-1.184   c0.063-0.425,0.182-0.841,0.29-1.15S31.293,9.873,31.293,9.873z" fill="#1D1D1B"/></g><g><path d="M28.201,15.115c-0.122,0.408-0.276,0.807-0.372,1.222l-0.313,1.237c-0.182,0.827-0.391,1.666-0.476,2.495   c-0.013,0.099-0.033,0.218-0.038,0.299l0.052,0.315c0.026,0.214,0.067,0.421,0.154,0.606c0.08,0.19,0.124,0.384,0.233,0.568   l0.291,0.555c0.426,0.721,0.942,1.397,1.478,2.032l-0.341,0.016c0.604-0.875,1.19-1.766,1.761-2.663   c0.293-0.443,0.576-0.892,0.851-1.345c0.265-0.453,0.537-0.918,0.714-1.382c0.051-0.12,0.063-0.219,0.077-0.3l-0.037-0.398   c-0.013-0.272-0.087-0.512-0.128-0.771c-0.102-0.509-0.232-1.032-0.37-1.544c-0.273-1.029-0.578-2.053-0.906-3.068l0.056,0.02   c-0.489,0.296-0.969,0.61-1.432,0.946c-0.235,0.164-0.454,0.347-0.677,0.527C28.563,14.674,28.361,14.875,28.201,15.115z    M28.201,15.115c0.155-0.243,0.354-0.45,0.564-0.646c0.219-0.185,0.436-0.375,0.667-0.543c0.456-0.348,0.93-0.673,1.415-0.98   l0.038-0.025l0.018,0.044c0.378,1,0.745,2.003,1.076,3.022c0.168,0.511,0.326,1.017,0.464,1.548c0.059,0.265,0.151,0.538,0.178,0.8   l0.06,0.396c0.005,0.183-0.031,0.351-0.082,0.478c-0.091,0.277-0.211,0.519-0.334,0.763c-0.12,0.245-0.255,0.478-0.385,0.715   c-0.269,0.467-0.545,0.927-0.831,1.381c-0.585,0.899-1.199,1.774-1.825,2.645l-0.166,0.23l-0.175-0.214   c-0.552-0.676-1.014-1.402-1.42-2.167l-0.269-0.592c-0.1-0.19-0.145-0.418-0.215-0.625c-0.08-0.212-0.109-0.423-0.124-0.635   l-0.033-0.317c0.008-0.129,0.037-0.22,0.054-0.332c0.077-0.428,0.16-0.85,0.277-1.259l0.31-1.24l0.34-1.233   C27.907,15.915,28.07,15.52,28.201,15.115z" fill="#1D1D1B"/></g><g><g><path d="M27.906,19.089c0.016-0.012,0.02,0.138,0.188,0.276c0.076,0.07,0.189,0.146,0.334,0.18    c0.14,0.046,0.309,0.07,0.489,0.059c0.368-0.02,0.759-0.126,1.156-0.356c0.174-0.109,0.359-0.241,0.499-0.397    c0.132-0.155,0.267-0.328,0.265-0.484c0.005-0.038-0.008-0.071-0.005-0.108c0.006,0.01-0.014-0.062,0.015,0.016l-0.02-0.042    l-0.04-0.083c-0.035-0.034-0.002,0.028-0.011,0.002c-0.033,0.002-0.044-0.023-0.095-0.019c-0.176-0.009-0.422,0.054-0.642,0.094    c-0.453,0.103-0.888,0.179-1.252,0.237c-0.185,0.027-0.346,0.074-0.488,0.117c-0.143,0.048-0.253,0.116-0.329,0.192    C27.84,18.951,27.93,19.094,27.906,19.089z M27.906,19.089c0.024,0.005-0.073-0.134,0.056-0.325    c0.076-0.082,0.186-0.154,0.323-0.222c0.139-0.062,0.3-0.12,0.475-0.187c0.352-0.126,0.751-0.277,1.176-0.464    c0.223-0.086,0.432-0.197,0.745-0.219c0.07-0.012,0.178,0.014,0.265,0.03c0.093,0.029,0.242,0.16,0.274,0.222l0.042,0.082    l0.021,0.041c0.046,0.104,0.019,0.065,0.031,0.105c0.011,0.085,0.03,0.176,0.021,0.259c-0.039,0.35-0.243,0.587-0.445,0.769    c-0.205,0.188-0.44,0.298-0.683,0.388c-0.442,0.157-0.927,0.201-1.295,0.145c-0.188-0.03-0.358-0.064-0.497-0.13    c-0.142-0.055-0.254-0.135-0.33-0.209C27.919,19.225,27.923,19.078,27.906,19.089z" fill="#1D1D1B"/></g></g><g><path d="M28.225,18.181c0,0,0.113-0.379,0.344-0.925c0.241-0.541,0.58-1.264,1.132-1.873   c0.147-0.144,0.309-0.285,0.522-0.362c0.215-0.089,0.495-0.009,0.634,0.15c0.289,0.312,0.345,0.674,0.416,0.961   c0.063,0.292,0.078,0.541,0.092,0.713c0.012,0.172,0.019,0.271,0.019,0.271s-0.074-0.391-0.247-0.948   c-0.082-0.272-0.202-0.615-0.43-0.841c-0.113-0.111-0.255-0.146-0.405-0.086c-0.15,0.058-0.293,0.183-0.421,0.316   c-0.522,0.548-0.891,1.258-1.186,1.761C28.405,17.829,28.225,18.181,28.225,18.181z" fill="#1D1D1B"/></g><g><path d="M31.138,19.317c0,0,0.032,0.049,0.073,0.145c0.034,0.096,0.095,0.243,0.072,0.435   c-0.018,0.186-0.139,0.425-0.359,0.541c-0.212,0.115-0.458,0.178-0.698,0.195c-0.486,0.03-0.951-0.061-1.291-0.15   c-0.338-0.104-0.557-0.186-0.557-0.186s0.236,0.011,0.581,0.047c0.345,0.021,0.804,0.084,1.247,0.04   c0.223-0.003,0.437-0.052,0.611-0.134c0.083-0.048,0.158-0.097,0.216-0.162c0.053-0.066,0.093-0.14,0.112-0.216   C31.228,19.558,31.138,19.317,31.138,19.317z" fill="#1D1D1B"/></g><g><g><path d="M16.855,32.984l-2.438-3.108l-0.065-0.083l0.088-0.067l3.895-2.976l-0.045,0.291l-1.361-1.805l0.336,0.052    l-3.617,2.73l-0.238,0.18l-0.185-0.241l-7.228-9.395l0.534,0.056l-0.848,0.737l-0.016,0.014L5.651,19.38l-2.414,1.642l0.083-0.518    c2.37,3.161,4.772,6.298,7.116,9.479l0.175,0.237l-0.233,0.165L6.684,33.01l0.047-0.308l1.308,1.843l-0.261-0.041l4.023-2.802    l0.06-0.041l0.04,0.056l1.428,1.972l-1.542-1.884l0.1,0.015L8,34.807l-0.146,0.112l-0.116-0.153l-1.36-1.804l-0.13-0.173    l0.178-0.135l3.617-2.729l-0.058,0.402c-2.441-3.107-4.824-6.259-7.239-9.386l-0.232-0.3l0.315-0.218l2.401-1.661l-0.032,0.024    l0.855-0.729l0.3-0.255l0.234,0.312l7.126,9.472l-0.423-0.062l3.693-2.625l0.199-0.142l0.138,0.193l1.309,1.843l0.123,0.173    l-0.168,0.118l-4.015,2.813l0.022-0.149L16.855,32.984z" fill="#1D1D1B"/></g><g><g><path d="M16.254,33.369c0,0-0.887,0.028-2.181,0.2c-0.646,0.098-1.397,0.198-2.181,0.389     c-0.398,0.072-0.792,0.21-1.2,0.312c-0.404,0.117-0.805,0.267-1.205,0.412c-0.384,0.179-0.796,0.308-1.155,0.521     c-0.361,0.207-0.745,0.369-1.061,0.611c-0.329,0.223-0.66,0.425-0.926,0.676C6.07,36.73,5.78,36.932,5.576,37.181     c-0.217,0.236-0.427,0.447-0.615,0.637c-0.157,0.213-0.293,0.398-0.406,0.552c-0.237,0.307-0.372,0.481-0.372,0.481     s0.083-0.203,0.247-0.556c0.084-0.177,0.186-0.392,0.303-0.638c0.148-0.228,0.32-0.484,0.518-0.759     c0.179-0.292,0.448-0.543,0.718-0.824c0.259-0.295,0.583-0.548,0.925-0.802c0.329-0.275,0.713-0.489,1.101-0.711     c0.383-0.234,0.813-0.383,1.221-0.578c0.85-0.306,1.719-0.557,2.553-0.672c0.829-0.145,1.614-0.168,2.28-0.171     C15.386,33.165,16.254,33.369,16.254,33.369z" fill="#1D1D1B"/></g></g><g><g><path d="M20.383,26.778c-0.152,0.858-0.33,1.71-0.5,2.563L19.62,30.62l-0.14,0.637     c-0.047,0.204-0.082,0.449-0.224,0.683c-0.265,0.438-0.66,0.717-1.049,0.952c-0.396,0.232-0.809,0.412-1.227,0.57     c-0.84,0.306-1.702,0.507-2.567,0.677l0.264-0.236c-0.412,1.436-0.757,2.899-1.097,4.353c-0.167,0.728-0.32,1.458-0.436,2.189     c-0.108,0.724-0.213,1.483-0.128,2.144c0.021,0.156,0.079,0.308,0.118,0.347l0.078,0.062l0.051,0.044l0.038,0.04     c0.022,0.018,0.088,0.141,0.075,0.228c0.001,0.065-0.034,0.201-0.204,0.278c-0.191,0.045-0.148,0.01-0.167,0.018l-0.035-0.007     l-0.045-0.013l-0.05-0.02l-0.274-0.134l-1-0.54l-1.98-1.082l-1.987-1.063c-0.334-0.171-0.67-0.338-1.013-0.488     c-0.172-0.072-0.343-0.149-0.521-0.205c-0.088-0.026-0.179-0.054-0.268-0.05c-0.111-0.007-0.089,0.126-0.039,0.2     c-0.059-0.055-0.106-0.221,0.033-0.234c0.1-0.018,0.196,0,0.29,0.017c0.188,0.034,0.372,0.087,0.552,0.147     c0.36,0.119,0.713,0.256,1.064,0.396c0.701,0.284,1.396,0.581,2.076,0.905l2.042,0.971l1.016,0.477l0.239,0.102l0.016,0.005     c0.004,0.001,0.005,0.001-0.011-0.004l-0.018-0.003c-0.014,0.01,0.035-0.023-0.151,0.02c-0.164,0.074-0.19,0.211-0.195,0.269     c-0.016,0.082,0.048,0.199,0.067,0.213l0.012,0.015c0.013,0.012-0.003-0.001-0.003-0.001c-0.019-0.015-0.073-0.05-0.143-0.115     c-0.218-0.242-0.257-0.475-0.302-0.684c-0.12-0.838-0.011-1.59,0.083-2.353c0.105-0.758,0.247-1.505,0.402-2.247     c0.313-1.485,0.731-2.936,1.164-4.389l0.06-0.202l0.205-0.035c0.844-0.145,1.681-0.337,2.486-0.594     c0.403-0.127,0.799-0.272,1.166-0.461c0.362-0.188,0.709-0.42,0.914-0.722c0.178-0.276,0.25-0.771,0.382-1.17l0.373-1.251     C19.866,28.441,20.111,27.606,20.383,26.778z" fill="#1D1D1B"/></g></g></g><g><g><path d="M34.82,32.488l2.266-3.235l0.022,0.149l-4.015-2.813l-0.168-0.118l0.123-0.173l1.309-1.843l0.138-0.193    l0.199,0.142l3.693,2.625l-0.424,0.062l7.127-9.472l0.234-0.312l0.299,0.255l0.856,0.729l-0.032-0.024l2.4,1.661l0.314,0.218    l-0.231,0.3c-2.415,3.127-4.798,6.279-7.239,9.386l-0.059-0.402l3.617,2.729l0.178,0.135l-0.13,0.173l-1.36,1.804l-0.115,0.153    l-0.146-0.112l-3.888-2.987l0.1-0.015l-1.542,1.884l1.428-1.972l0.041-0.056l0.06,0.041l4.022,2.802l-0.262,0.041l1.308-1.843    l0.048,0.308l-3.693-2.625l-0.233-0.165l0.175-0.237c2.344-3.181,4.746-6.318,7.116-9.479l0.083,0.518l-2.414-1.642l-0.017-0.012    l-0.016-0.014l-0.849-0.737l0.533-0.056L38.45,27.46l-0.186,0.241l-0.238-0.18l-3.616-2.73l0.336-0.052l-1.361,1.805l-0.045-0.291    l3.896,2.976l0.088,0.067l-0.065,0.083L34.82,32.488z" fill="#1D1D1B"/></g><g><g><path d="M35.422,32.873c0,0,0.867-0.204,2.206-0.229c0.666,0.003,1.451,0.026,2.28,0.171     c0.833,0.115,1.702,0.366,2.553,0.672c0.409,0.195,0.839,0.344,1.222,0.578c0.388,0.222,0.771,0.436,1.101,0.711     c0.343,0.254,0.666,0.507,0.925,0.802c0.271,0.281,0.539,0.532,0.718,0.824c0.198,0.274,0.369,0.531,0.518,0.759     c0.117,0.246,0.22,0.461,0.304,0.638c0.164,0.353,0.246,0.556,0.246,0.556s-0.136-0.175-0.372-0.481     c-0.112-0.153-0.249-0.339-0.406-0.552c-0.188-0.189-0.397-0.4-0.614-0.638c-0.205-0.248-0.495-0.449-0.769-0.69     c-0.267-0.251-0.598-0.453-0.927-0.676c-0.316-0.242-0.699-0.404-1.061-0.612c-0.36-0.212-0.771-0.342-1.156-0.52     c-0.399-0.146-0.8-0.295-1.204-0.412c-0.409-0.102-0.803-0.239-1.2-0.312c-0.785-0.19-1.536-0.291-2.182-0.389     C36.309,32.901,35.422,32.873,35.422,32.873z" fill="#1D1D1B"/></g></g><g><g><path d="M31.293,26.282c0.271,0.828,0.517,1.663,0.769,2.496l0.373,1.25c0.133,0.398,0.204,0.894,0.382,1.17     c0.205,0.303,0.553,0.535,0.915,0.723c0.366,0.188,0.763,0.335,1.165,0.461c0.807,0.256,1.643,0.449,2.487,0.594l0.197,0.033     l0.063,0.192c0.491,1.485,0.96,2.971,1.305,4.5c0.171,0.765,0.323,1.534,0.423,2.321c0.05,0.395,0.088,0.791,0.092,1.199     c-0.005,0.409-0.01,0.828-0.216,1.291l-0.523-0.364c1.009-1.043,2.198-1.883,3.466-2.552c0.635-0.334,1.307-0.6,2.001-0.783     c0.349-0.088,0.702-0.159,1.063-0.176c0.354-0.013,0.737,0.018,1.039,0.213c-0.323-0.155-0.688-0.126-1.026-0.08     c-0.343,0.05-0.678,0.15-1.005,0.269c-0.654,0.239-1.27,0.572-1.869,0.921c-1.194,0.713-2.269,1.616-3.197,2.63l-1.286,1.402     l0.763-1.768c0.108-0.251,0.137-0.63,0.125-0.991c-0.011-0.368-0.053-0.743-0.107-1.118c-0.109-0.75-0.273-1.501-0.455-2.246     c-0.37-1.49-0.764-2.988-1.232-4.453l0.261,0.226c-0.864-0.17-1.728-0.369-2.566-0.677c-0.418-0.158-0.832-0.338-1.227-0.57     c-0.39-0.235-0.784-0.515-1.049-0.952c-0.143-0.233-0.177-0.478-0.224-0.682l-0.141-0.637l-0.263-1.278     C31.623,27.992,31.445,27.141,31.293,26.282z" fill="#1D1D1B"/></g></g></g><g><path d="M32.475,30.989c0,0-0.322,0.914-0.932,2.234c-0.313,0.654-0.671,1.426-1.136,2.213   c-0.236,0.392-0.484,0.794-0.771,1.188c-0.297,0.389-0.575,0.799-1.111,1.088c-0.073,0.031-0.145,0.068-0.197,0.077   c-0.01-0.002-0.058,0.027,0.006-0.014c0.017-0.016,0.007-0.003,0.04-0.046c0.053-0.058,0.047-0.184,0.025-0.219   c-0.015-0.046-0.054-0.091-0.093-0.112l-0.018-0.011c-0.038-0.013-0.006-0.003-0.012-0.005c0.081,0.016,0.21,0.023,0.323,0.029   l0.71,0.022c0.476,0.01,0.942,0.02,1.396,0.028c0.906,0.019,1.754,0.088,2.479,0.156c0.726,0.07,1.328,0.193,1.735,0.33   c0.203,0.068,0.356,0.156,0.436,0.245c0.083,0.089,0.063,0.164,0.067,0.16c-0.004,0.004,0.003-0.071-0.087-0.141   c-0.084-0.072-0.241-0.125-0.442-0.171c-0.406-0.095-1.009-0.117-1.728-0.143c-0.72-0.027-1.562-0.002-2.465-0.003   c-0.453,0.001-0.92,0.003-1.396,0.004l-0.725-0.006c-0.127-0.006-0.239-0.005-0.396-0.029c-0.034-0.01-0.033-0.002-0.098-0.028   l-0.039-0.02c-0.044-0.027-0.088-0.078-0.108-0.129c-0.025-0.041-0.024-0.175,0.028-0.24c0.037-0.049,0.036-0.039,0.058-0.06   c0.113-0.074,0.126-0.061,0.174-0.08c0.066-0.013,0.099-0.044,0.136-0.06c0.32-0.158,0.657-0.544,0.929-0.904   c0.282-0.368,0.534-0.756,0.774-1.134c0.472-0.763,0.908-1.484,1.257-2.116C32.002,31.832,32.475,30.989,32.475,30.989z" fill="#1D1D1B"/></g><g><path d="M31.383,37.69c0,0-0.045,0.43-0.229,1.039c-0.178,0.61-0.52,1.386-0.945,2.116   c-0.239,0.35-0.457,0.713-0.717,1.017c-0.261,0.303-0.505,0.583-0.744,0.797c-0.501,0.411-0.859,0.635-0.859,0.635   s0.196-0.394,0.527-0.908c0.157-0.267,0.328-0.585,0.536-0.902c0.196-0.326,0.398-0.682,0.614-1.024   c0.415-0.701,0.855-1.393,1.2-1.912C31.123,38.033,31.383,37.69,31.383,37.69z" fill="#1D1D1B"/></g><g><path d="M34.152,37.853c0,0-0.083,0.572-0.372,1.386c-0.146,0.403-0.299,0.893-0.539,1.372   c-0.234,0.483-0.51,0.986-0.784,1.491c-0.144,0.247-0.287,0.495-0.43,0.739c-0.147,0.24-0.332,0.452-0.488,0.67   c-0.326,0.429-0.643,0.819-0.924,1.145c-0.565,0.65-0.979,1.047-0.979,1.047s0.229-0.539,0.626-1.294   c0.199-0.377,0.444-0.806,0.721-1.255c0.286-0.442,0.566-0.928,0.825-1.428c0.281-0.486,0.562-0.973,0.848-1.418   c0.283-0.446,0.5-0.883,0.731-1.241c0.217-0.364,0.435-0.656,0.551-0.879C34.068,37.972,34.152,37.853,34.152,37.853z" fill="#1D1D1B"/></g><g><path d="M51.074,26c0,0-0.029,0.615-0.084,1.767c0,0.579-0.1,1.283-0.233,2.11c-0.068,0.412-0.113,0.861-0.215,1.33   c-0.117,0.465-0.243,0.959-0.376,1.481c-0.58,2.064-1.486,4.563-3.161,7.068c-1.643,2.508-3.957,5.079-7.033,7.154   c-3.075,2.056-6.896,3.589-11.12,4.106c-0.524,0.085-1.063,0.073-1.599,0.114c-0.54,0.012-1.074,0.095-1.628,0.05   c-1.083-0.065-2.182-0.053-3.288-0.267c-2.229-0.262-4.419-0.965-6.558-1.858c-2.138-0.916-4.13-2.219-5.997-3.708   c-1.834-1.539-3.447-3.367-4.839-5.373c-1.354-2.037-2.392-4.289-3.156-6.641c-0.717-2.378-1.047-4.838-1.112-7.348   c0.061-2.443,0.394-4.958,1.111-7.322c0.763-2.352,1.802-4.604,3.156-6.641c1.392-2.006,3.004-3.834,4.839-5.374   c1.867-1.49,3.858-2.792,5.997-3.708c4.253-1.866,8.865-2.444,13.067-1.961c4.234,0.519,8.048,2.052,11.126,4.107   c3.075,2.076,5.39,4.647,7.032,7.154c1.675,2.506,2.581,5.004,3.162,7.069c0.132,0.522,0.258,1.017,0.375,1.481   c0.102,0.468,0.146,0.918,0.215,1.33c0.134,0.827,0.233,1.531,0.233,2.11C51.045,25.385,51.074,26,51.074,26z M51.074,26   c0,0-0.033-0.614-0.095-1.766c-0.005-0.579-0.108-1.282-0.247-2.107c-0.071-0.412-0.118-0.86-0.223-1.327   c-0.121-0.463-0.249-0.956-0.385-1.477c-0.593-2.057-1.513-4.543-3.197-7.03c-1.652-2.487-3.973-5.032-7.043-7.075   c-3.066-2.023-6.877-3.52-11.054-4.005c-4.188-0.454-8.731,0.15-12.923,2.019c-2.105,0.917-4.062,2.217-5.893,3.696   c-1.799,1.529-3.375,3.34-4.732,5.322c-1.319,2.013-2.325,4.233-3.061,6.547c-0.69,2.343-0.993,4.738-1.048,7.216   c0.051,2.411,0.357,4.862,1.046,7.191c0.735,2.313,1.741,4.534,3.061,6.547c1.357,1.981,2.933,3.793,4.732,5.322   c1.831,1.479,3.788,2.778,5.893,3.695c2.102,0.895,4.273,1.606,6.461,1.876c1.08,0.219,2.188,0.214,3.269,0.285   c0.53,0.049,1.073-0.03,1.604-0.039c0.531-0.037,1.064-0.022,1.585-0.103c4.188-0.487,7.99-1.982,11.06-4.006   c3.069-2.044,5.39-4.588,7.042-7.076c1.685-2.485,2.605-4.972,3.197-7.029c0.136-0.521,0.264-1.013,0.385-1.477   c0.104-0.467,0.151-0.915,0.223-1.327c0.139-0.824,0.242-1.528,0.247-2.106C51.041,26.614,51.074,26,51.074,26z"/></g></svg>