<?xml version="1.0" ?><svg id="Layer_1" style="enable-background:new 0 0 256 256;" version="1.1" viewBox="0 0 256 256" xml:space="preserve" xmlns="http://www.w3.org/2000/svg" xmlns:xlink="http://www.w3.org/1999/xlink"><g fill="#00FFFF" stroke="#000000" stroke-width="2"><path d="M141.3,5.9c-36.7-0.6-70.1,20.6-85.2,54c-5.4,11.9-8.2,24.7-8.2,38c0,0.5,0,3.2,0,7.5c-0.6,3.1-3.3,6.1-6.1,8.9   c-0.9,0.9-2.4,2.3-4.1,3.9c-5.8,5.6-8.4,8.1-9.2,9.2c-1.8,2.2-2.9,4.2-3.6,6.3c-2.3,7.1,3.2,10.5,5,11.6c2.1,1.3,4.2,2.3,5.8,3   c1.7,0.8,3.3,1.5,5,2.2l0.3,0.1c0.2,0.1,0.4,0.2,0.6,0.3c1.4,9.3,6.7,44.3,6.8,44.5c0.6,5.9,2.7,10.4,6,13.4   c5.8,5.3,13.6,5.1,19.9,4.9c4.6-0.1,8.7-0.1,12.9-0.1c0.3,3.9,0.7,9.7,1,14.7c0.3,5,0.7,10.1,0.9,14.1c0.2,2.3,1.3,4.5,3.2,5.9   c1.4,1.1,3.2,1.7,4.9,1.7c0.5,0,1.1-0.1,1.6-0.2l101.8-20.3c5.5-1.1,9.6-6,9.6-11.6v-18.5c0-21.8,4.7-43.8,14-65.4   c5.2-12.1,7.7-24.9,7.5-38.2v0C230.7,46.3,191,6.7,141.3,5.9z M215.2,130.3c-9.8,22.8-14.8,46.1-14.8,69.3v18.5   c0,0.9-0.7,1.8-1.6,1.9l-99.9,19.9c-0.2-3.6-0.5-7.9-0.8-12.1c-1.2-18.6-1.3-19.5-1.5-20.3l-1-3.6h-3.8h-0.9   c-5.6,0-10.8-0.1-16.8,0.1c-5,0.1-10.1,0.3-13-2.3c-1.5-1.4-2.4-3.8-2.8-7.4c-0.1-0.4-7.1-47-7.1-47l-0.2-1.4l-0.9-1.1l-1.1-1.2   c-1.1-0.9-2.4-1.4-3.3-1.7l-1-0.4c-1.6-0.7-3.1-1.3-4.7-2.1c-1.5-0.7-3.2-1.5-4.8-2.5c-0.3-0.2-0.6-0.4-0.7-0.5   c0.3-0.8,0.9-1.7,1.7-2.8c0.8-0.9,5.6-5.5,8.4-8.3c1.7-1.6,3.2-3.1,4.2-4c3.9-3.9,8.1-8.6,9-14.7l0.1-0.4l0-0.4c0-4.5,0-7.5,0-7.9   c0-11.8,2.5-23.2,7.3-33.9c13.5-29.8,43.3-48.8,76.1-48.2c44.4,0.7,79.9,36.1,80.7,80.5C222,108.1,219.8,119.5,215.2,130.3z"/><path fill="#00FF00" d="M186.6,81.1c-1.6,0-3.1,0.2-4.6,0.6l0-26.4l-31.4,0c-2.4,0-4.5,1.2-5.7,3.3c-1.2,2.1-1.2,4.6,0,6.7c0.8,1.4,1.6,3.7,1,6.7   c-0.7,3.4-3.4,6.2-6.8,7c-2.9,0.7-5.8,0-8-1.8c-2.2-1.8-3.5-4.4-3.5-7.3c0-1.6,0.4-3.2,1.2-4.6c1.2-2.1,1.2-4.6,0-6.7   c-1.2-2.1-3.3-3.3-5.7-3.3l-31.6,0l0,90.3l90.3,0l0-26.8c2.8,0.7,5.8,0.8,8.8,0.1c7.1-1.5,12.9-7.2,14.5-14.3   c1.3-5.8,0-11.8-3.7-16.4C197.9,83.7,192.5,81.1,186.6,81.1L186.6,81.1z M193.9,94.5c1.8,2.3,2.4,5.1,1.8,8   c-0.8,3.4-3.5,6.1-6.9,6.8c-3,0.6-5.3-0.2-6.7-1c-2-1.2-4.6-1.2-6.6,0c-2,1.2-3.2,3.3-3.2,5.6l0,21.9l-70.6,0l0-70.6l16.8,0   c-0.4,1.5-0.6,3.1-0.6,4.8c0,5.9,2.6,11.3,7.2,15c4.6,3.7,10.6,5,16.4,3.7c7.1-1.6,12.8-7.5,14.3-14.6c0.6-3,0.5-6-0.2-8.8l16.6,0   l0,21.5c0,2.3,1.2,4.5,3.3,5.6c2,1.2,4.6,1.1,6.6,0c1.4-0.8,3-1.3,4.7-1.3c0,0,0,0,0,0C189.5,91,192.1,92.2,193.9,94.5z"/></g></svg>