<svg width="500" height="500.01" xmlns="http://www.w3.org/2000/svg">

 <g>
  <title>background</title>
  <rect fill="none" id="canvas_background" height="402" width="582" y="-1" x="-1"/>
 </g>
 <g>
  <title fill="#000000">Layer 1</title>
  <path id="svg_5" fill="#000000" d="m437.5,399.046l-375,0l0,-298.082l375,0l0,298.082zm-46.992,-266.149c0,5.742 4.629,10.4 10.386,10.4c5.778,0 10.444,-4.658 10.444,-10.4c0,-5.727 -4.666,-10.43 -10.444,-10.43c-5.757,0.001 -10.386,4.704 -10.386,10.43zm-72.437,0c0,4.557 3.714,8.262 8.291,8.262l43.345,0c4.578,0 8.276,-3.705 8.276,-8.262c0,-4.6 -3.698,-8.291 -8.276,-8.291l-43.345,0c-4.577,0 -8.291,3.692 -8.291,8.291zm102.613,27.246l-336.538,0l0,203.672c0.025,8.775 7.27,16.041 16.015,16.041l304.482,0c8.76,0 16.025,-7.266 16.04,-16.041l0,-203.672l0.001,0z"/>
  <path id="svg_6" fill="#000000" d="m132.827,271.237l66.204,-33.09l0,16.01l-45.604,21.139l45.604,18.734l0,15.938l-66.204,-29.209l0,-9.522zm99.181,52.281l18.457,0l36.347,-97.486l-18.457,0l-36.347,97.486zm61.337,-85.371l0,16.01l45.615,21.139l-45.615,18.734l0,15.938l66.226,-29.209l0,-9.522l-66.226,-33.09z"/>
  <path id="svg_8" fill="#000000" d="m224.845,221.185c2.677,-2.695 4.493,-7.604 5.007,-9.801c0.413,2.213 2.032,7.193 4.581,10.006c3.19,3.486 6.812,5.625 9.064,5.551c-2.424,0.484 -6.006,3.121 -9.195,6.973c-3.051,3.691 -4.907,7.06 -5.102,9.492c-0.099,-2.445 -1.824,-5.902 -4.695,-9.682c-3.02,-3.971 -6.477,-6.768 -8.861,-7.383c2.251,0.117 5.913,-1.846 9.201,-5.156z"/>
  <path id="svg_9" fill="#000000" d="m252.775,197.337c1.678,-1.686 2.817,-4.762 3.143,-6.139c0.261,1.393 1.26,4.512 2.863,6.285c2,2.182 4.256,3.529 5.677,3.441c-1.523,0.338 -3.757,1.992 -5.757,4.395c-1.916,2.285 -3.076,4.41 -3.201,5.947c-0.065,-1.537 -1.146,-3.691 -2.943,-6.078c-1.891,-2.49 -4.055,-4.234 -5.553,-4.615c1.41,0.074 3.703,-1.156 5.771,-3.236z"/>
  <path id="svg_10" fill="#000000" d="m195.449,184.944c2.754,-3.209 4.38,-8.805 4.771,-11.324c0.641,2.461 2.831,7.867 5.922,10.752c3.779,3.59 7.929,5.67 10.426,5.465c-2.637,0.746 -6.387,3.984 -9.602,8.51c-3.084,4.322 -4.893,8.232 -4.9,11.002c-0.308,-2.754 -2.523,-6.445 -6.02,-10.445c-3.713,-4.16 -7.782,-6.973 -10.499,-7.471c2.515,0.029 6.478,-2.491 9.902,-6.489z"/>
 </g>
</svg>