<svg width="32" height="32" xmlns="http://www.w3.org/2000/svg">
 <title/>
 <desc/>

 <g>
  <title>background</title>
  <rect fill="none" id="canvas_background" height="402" width="582" y="-1" x="-1"/>
 </g>
 <g>
  <title>Layer 1</title>
  <path fill="#000000" id="folder-download" d="m16,14l14,0l0,11.00491c0,1.10247 -0.89243,1.99509 -1.99329,1.99509l-25.01342,0c-1.09358,0 -1.99329,-0.89147 -1.99329,-1.99115l0,-11.00885l14,0l0,9.05l-3.25,-3.25l-0.75,0.75l4.5,4.5l4.5,-4.5l-0.75,-0.75l-3.25,3.25l0,-9.05l0,0zm-15,-1l0,-6.00884c0,-1.10149 0.89667,-1.99116 2.00276,-1.99116l10.99724,0l2,4l11.99414,0c1.1088,0 2.00586,0.89323 2.00586,1.99509l0,2.00491l-29,0l0,0l0,0z"/>
 </g>
</svg>