<svg width="32" height="32" xmlns="http://www.w3.org/2000/svg">
 <title/>
 <desc/>

 <g>
  <title>background</title>
  <rect fill="none" id="canvas_background" height="402" width="582" y="-1" x="-1"/>
 </g>
 <g>
  <title>Layer 1</title>
  <path stroke="null" id="folder-add" d="m25.395652,21.979393l-2.488399,0l0,-0.83039l2.488399,0l0,-2.491171l0.829466,0l0,2.491171l2.488399,0l0,0.83039l-2.488399,0l0,2.491171l-0.829466,0l0,-2.491171l0,0zm-4.129232,2.491171l-15.783522,0c-0.907088,0 -1.653367,-0.740268 -1.653367,-1.653431l0,-9.141641l0,0l24.05452,0l0,2.904838c-0.638349,-0.266497 -1.338841,-0.413667 -2.073665,-0.413667c-2.977659,0 -5.39153,2.41656 -5.39153,5.397536c0,1.070074 0.31105,2.067422 0.847565,2.906366l0,0l0,0zm-17.436889,-11.625463l0,-4.989682c0,-0.914666 0.743757,-1.65344 1.661222,-1.65344l9.121839,0l1.658932,3.321561l9.948734,0c0.919712,0 1.663793,0.741729 1.663793,1.656703l0,1.664858l-24.05452,0l0,0l0,0zm21.980854,13.286243c2.519562,0 4.562064,-2.044778 4.562064,-4.567146c0,-2.522368 -2.042502,-4.567146 -4.562064,-4.567146c-2.519562,0 -4.562064,2.044778 -4.562064,4.567146c0,2.522368 2.042502,4.567146 4.562064,4.567146l0,0z"/>
 </g>
</svg>