<?xml version="1.0" ?><!DOCTYPE svg  PUBLIC '-//W3C//DTD SVG 1.1//EN'  'http://www.w3.org/Graphics/SVG/1.1/DTD/svg11.dtd'><svg height="512px" style="enable-background:new 0 0 512 512;" version="1.1" viewBox="0 0 512 512" width="512px" xml:space="preserve" xmlns="http://www.w3.org/2000/svg" xmlns:xlink="http://www.w3.org/1999/xlink"><g id="_x32_10_x2C__file__x2C__browser_x2C__computing_x2C__code"><g id="XMLID_12468_"><rect height="46.598" id="XMLID_12469_" width="372.783" x="69.608" y="302.598"/><rect height="65.237" id="XMLID_12470_" width="83.876" x="41.649" y="41.649"/><path d="M442.392,144.165H69.608v121.154h372.783V144.165z M223.381,237.36H102.227    c-2.573,0-4.659-2.086-4.659-4.659c0-2.574,2.086-4.66,4.659-4.66h121.154c2.574,0,4.66,2.086,4.66,4.66    C228.041,235.274,225.955,237.36,223.381,237.36z M363.175,209.401H102.227c-2.573,0-4.659-2.086-4.659-4.659    s2.086-4.66,4.659-4.66h260.948c2.574,0,4.66,2.087,4.66,4.66S365.749,209.401,363.175,209.401z M363.175,181.443H102.227    c-2.573,0-4.659-2.087-4.659-4.66s2.086-4.66,4.659-4.66h260.948c2.574,0,4.66,2.087,4.66,4.66S365.749,181.443,363.175,181.443z" id="XMLID_12471_"/><path d="M41.649,470.351h428.701V116.206H41.649V470.351z M288.618,447.051h-18.639v-18.639h18.639V447.051z     M316.577,447.051h-18.639v-18.639h18.639V447.051z M344.536,447.051h-18.64v-18.639h18.64V447.051z M372.495,447.051h-18.64    v-18.639h18.64V447.051z M400.453,447.051h-18.639v-18.639h18.639V447.051z M60.289,139.505c0-2.573,2.086-4.659,4.659-4.659    h382.104c2.573,0,4.659,2.086,4.659,4.659v130.475c0,2.573-2.086,4.659-4.659,4.659H64.948c-2.573,0-4.659-2.086-4.659-4.659    V139.505z M60.289,297.938c0-2.574,2.086-4.66,4.659-4.66h382.104c2.573,0,4.659,2.086,4.659,4.66v55.917    c0,2.574-2.086,4.66-4.659,4.66H64.948c-2.573,0-4.659-2.086-4.659-4.66V297.938z M60.289,381.814c0-2.574,2.086-4.66,4.659-4.66    h177.072c2.573,0,4.66,2.086,4.66,4.66v65.236c0,2.574-2.087,4.66-4.66,4.66H64.948c-2.573,0-4.659-2.086-4.659-4.66V381.814z" id="XMLID_12476_"/><rect height="55.918" id="XMLID_12486_" width="167.752" x="69.608" y="386.474"/><path d="M316.577,69.608h153.773V41.649H134.846v65.237h335.505V78.928H316.577c-2.573,0-4.66-2.086-4.66-4.66    C311.917,71.694,314.004,69.608,316.577,69.608z M176.783,83.588h-18.639v-18.64h18.639V83.588z M204.742,83.588h-18.64v-18.64    h18.64V83.588z M232.701,83.588h-18.64v-18.64h18.64V83.588z" id="XMLID_12487_"/></g></g><g id="Layer_1"/></svg>