<?xml version="1.0" ?><!DOCTYPE svg  PUBLIC '-//W3C//DTD SVG 1.1//EN'  'http://www.w3.org/Graphics/SVG/1.1/DTD/svg11.dtd'><svg height="512px" style="enable-background:new 0 0 512 512;" version="1.1" viewBox="0 0 512 512" width="512px" xml:space="preserve" xmlns="http://www.w3.org/2000/svg" xmlns:xlink="http://www.w3.org/1999/xlink"><g id="_x35_45_x2C__Code_x2C__coding_x2C__file_x2C__programming_x2C__script"><g><path d="M157.346,428.737c-1.105,5.356-3.773,10.16-7.493,13.856    c-0.656,0.68-1.333,1.283-2.063,1.887h268.021V53.915h-257.91v85.149v0.075v284.116l0,0v0.352l0,0v0.352l0,0l-0.028,0.354l0,0    v0.326v0.025l-0.024,0.327v0.024l-0.025,0.327l0,0l-0.024,0.353l0,0l-0.049,0.327v0.024l-0.028,0.327v0.025l-0.049,0.326l0,0    l-0.024,0.327v0.025l-0.049,0.327l0,0l-0.078,0.327v0.024l-0.049,0.327l0,0l-0.053,0.327v0.024L157.346,428.737z M128.175,444.354    h0.024h0.049h0.053h0.049l0,0h0.025h0.052l0.049,0.026h0.024h0.049c0.632,0.025,1.26,0.075,1.913,0.101h0.024h0.025h0.053h0.024    h0.049h0.053h0.025h0.049l0.277-0.025l0,0h0.277l0,0h0.249l0.024-0.025h0.253l0,0l0.252-0.024h0.025l0.252-0.025h0.025    l0.225-0.026h0.024l0.252-0.024h0.025l0.228-0.025h0.024l0.225-0.025l0.053-0.024l0.225-0.025h0.024l0.229-0.025l0.049-0.024    l0.204-0.025l0.049-0.025l0.2-0.024l0.077-0.025l0.2-0.026l0.049-0.024l0.204-0.025l0.049-0.025l0.2-0.05h0.053l0.2-0.05    l0.074-0.025l0.179-0.024l0.074-0.026l0.175-0.05l0.077-0.025l0.176-0.05l0.074-0.025l0.151-0.025l0.102-0.05l0.151-0.025    l0.102-0.051l0.151-0.05l0.098-0.025l0.151-0.05l0.077-0.025l0.151-0.05l0.102-0.025l0.151-0.051l0.098-0.051l0.126-0.05    l0.126-0.025l0.126-0.075l0.098-0.024l0.126-0.052l0.126-0.05l0.126-0.05l0.098-0.051l0.126-0.05l0.126-0.05l0.102-0.052    l0.126-0.05l0.098-0.05l0.126-0.075l0.126-0.025l0.126-0.076l0.098-0.05l0.126-0.051l0.102-0.05l0.126-0.075l0.099-0.051    l0.126-0.075l0.077-0.05l0.151-0.075l0.074-0.025l0.151-0.102l0.078-0.024l0.151-0.101l0.074-0.025l0.151-0.101l0.052-0.025    l0.151-0.101l0.073-0.05l0.151-0.075l0.049-0.051l0.179-0.101l0.049-0.025l0.151-0.101l0.049-0.051l0.175-0.1l0.025-0.025    l0.179-0.126l0.049-0.025l0.151-0.101l0.049-0.05l0.175-0.101l0.028-0.051l0.176-0.125l0.024-0.025l0.175-0.126l0.025-0.025    l0.204-0.15l0.175-0.126l0.024-0.025l0.176-0.15l0,0l0.024-0.024l0.354-0.302h0.024l0.551-0.504l0,0l0.179-0.176l0,0l0.351-0.352    l0.351-0.353l0.024-0.024l0.151-0.177h0.024l0.151-0.177h0.028l0.151-0.2l0,0l0.175-0.177v-0.024l0.151-0.177h0.024l0.151-0.201    l0,0l0.151-0.201l0,0l0.175-0.201l0,0l0.151-0.201l0.302-0.402l0,0l0.151-0.201l0,0l0.151-0.227l0,0l0.151-0.2l0,0l0.126-0.227    l0,0l0.151-0.202l0,0l0.126-0.226l0,0l0.151-0.201l0,0l0.126-0.227l0,0l0.123-0.227l0,0l0.126-0.227l0,0l0.126-0.226l0,0    l0.126-0.227l0,0l0.126-0.227l0.098-0.226l0.126-0.227l0.102-0.226l0.098-0.252l0.126-0.227l0.102-0.252l0.102-0.227l0.098-0.251    l0.077-0.227l0.099-0.251l0.077-0.251l0.102-0.227l0.074-0.252l0,0l0.077-0.252l0,0l0.074-0.251l0.077-0.252l0,0l0.074-0.251l0,0    l0.077-0.251l0.049-0.252l0.049-0.251l0.077-0.252l0.049-0.276l0,0l0.049-0.252l0,0l0.053-0.251l0.049-0.277l0,0l0.049-0.251l0,0    l0.028-0.277l0,0l0.025-0.251l0,0l0.049-0.276l0,0l0.025-0.251l0,0l0.024-0.276l0,0l0.028-0.277l0,0l0.024-0.251l0,0v-0.277l0,0    l0.024-0.276l0,0v-0.252v-0.024v-0.252v-0.025v-0.251l0,0V142.232h-42.451v281.023c0,5.834,2.415,11.14,6.24,14.988l0.151,0.149    C118.97,441.639,123.322,443.801,128.175,444.354z M215.513,93.296h-25.272v25.272h25.272V93.296z M187.17,87.109h31.435    c1.685,0,3.095,1.383,3.095,3.094v31.434c0,1.711-1.411,3.094-3.095,3.094H187.17c-1.709,0-3.092-1.383-3.092-3.094V90.203    C184.078,88.492,185.461,87.109,187.17,87.109z M228.842,105.995c-1.713,0-3.095-1.383-3.095-3.093    c0-1.686,1.382-3.068,3.095-3.068h61.861c1.71,0,3.092,1.383,3.092,3.068c0,1.71-1.382,3.093-3.092,3.093H228.842z     M187.17,179.602c-1.709,0-3.092-1.383-3.092-3.093s1.383-3.093,3.092-3.093h124.229c1.709,0,3.092,1.383,3.092,3.093    s-1.383,3.093-3.092,3.093H187.17z M478.227,156.365v-9.933h-32.312v9.933H478.227z M478.227,140.271v-17.15    c0-4.426-1.835-8.475-4.752-11.393c-2.916-2.941-6.966-4.752-11.392-4.752c-4.45,0-8.5,1.811-11.416,4.752l-0.151,0.126    c-2.843,2.917-4.601,6.891-4.601,11.267v17.15H478.227z M465.15,289.27c0,1.711-1.383,3.094-3.092,3.094    c-1.685,0-3.067-1.383-3.067-3.094V162.552h-13.076v174.851h26.454c1.685,0,3.092,1.383,3.092,3.094    c0,1.709-1.407,3.092-3.092,3.092h-26.454v33.824l16.144,34.452l16.168-34.452v-214.86H465.15V289.27z M59.245,276.873    c1.709,0,3.095,1.383,3.095,3.092c0,1.711-1.386,3.094-3.095,3.094H33.773v11.518h46.922V57.738H33.773V70.06h18.232    c1.709,0,3.092,1.383,3.092,3.093s-1.382,3.094-3.092,3.094H33.773v16.799h25.472c1.709,0,3.095,1.383,3.095,3.093    s-1.386,3.093-3.095,3.093H33.773v16.799h18.232c1.709,0,3.092,1.383,3.092,3.094c0,1.684-1.382,3.067-3.092,3.067H33.773v16.798    h25.472c1.709,0,3.095,1.408,3.095,3.094c0,1.709-1.386,3.094-3.095,3.094H33.773v16.798h18.232c1.709,0,3.092,1.384,3.092,3.093    c0,1.711-1.382,3.094-3.092,3.094H33.773v16.798h25.472c1.709,0,3.095,1.384,3.095,3.094s-1.386,3.093-3.095,3.093H33.773v16.799    h18.232c1.709,0,3.092,1.383,3.092,3.093c0,1.685-1.382,3.093-3.092,3.093H33.773v16.773h25.472c1.709,0,3.095,1.408,3.095,3.094    c0,1.71-1.386,3.093-3.095,3.093H33.773v16.798h18.232c1.709,0,3.092,1.385,3.092,3.094c0,1.711-1.382,3.094-3.092,3.094H33.773    v16.799H59.245z M228.842,122.895c-1.713,0-3.095-1.383-3.095-3.093c0-1.686,1.382-3.068,3.095-3.068h124.226    c1.713,0,3.096,1.383,3.096,3.068c0,1.71-1.383,3.093-3.096,3.093H228.842z M187.17,195.923c-1.709,0-3.092-1.383-3.092-3.093    c0-1.711,1.383-3.094,3.092-3.094h74.791c1.709,0,3.092,1.383,3.092,3.094c0,1.71-1.383,3.093-3.092,3.093H187.17z     M187.17,212.244c-1.709,0-3.092-1.408-3.092-3.094c0-1.711,1.383-3.094,3.092-3.094h74.791c1.709,0,3.092,1.383,3.092,3.094    c0,1.686-1.383,3.094-3.092,3.094H187.17z M187.17,228.539c-1.709,0-3.092-1.384-3.092-3.094c0-1.685,1.383-3.093,3.092-3.093    h124.229c1.709,0,3.092,1.408,3.092,3.093c0,1.71-1.383,3.094-3.092,3.094H187.17z M187.17,244.859    c-1.709,0-3.092-1.383-3.092-3.094c0-1.709,1.383-3.092,3.092-3.092h186.646c1.71,0,3.093,1.383,3.093,3.092    c0,1.711-1.383,3.094-3.093,3.094H187.17z M187.17,261.18c-1.709,0-3.092-1.383-3.092-3.092c0-1.711,1.383-3.094,3.092-3.094    h186.646c1.71,0,3.093,1.383,3.093,3.094c0,1.709-1.383,3.092-3.093,3.092H187.17z M187.17,277.501    c-1.709,0-3.092-1.408-3.092-3.093c0-1.71,1.383-3.094,3.092-3.094h186.646c1.71,0,3.093,1.384,3.093,3.094    c0,1.685-1.383,3.093-3.093,3.093H187.17z M187.17,293.797c-1.709,0-3.092-1.383-3.092-3.094c0-1.686,1.383-3.094,3.092-3.094    h186.646c1.71,0,3.093,1.408,3.093,3.094c0,1.711-1.383,3.094-3.093,3.094H187.17z M187.17,310.117    c-1.709,0-3.092-1.383-3.092-3.094c0-1.71,1.383-3.092,3.092-3.092h186.646c1.71,0,3.093,1.382,3.093,3.092    c0,1.711-1.383,3.094-3.093,3.094H187.17z M187.17,326.438c-1.709,0-3.092-1.384-3.092-3.094s1.383-3.093,3.092-3.093h148.02    c1.71,0,3.093,1.383,3.093,3.093s-1.383,3.094-3.093,3.094H187.17z M187.17,342.758c-1.709,0-3.092-1.408-3.092-3.092    c0-1.711,1.383-3.094,3.092-3.094h124.229c1.709,0,3.092,1.383,3.092,3.094c0,1.684-1.383,3.092-3.092,3.092H187.17z     M187.17,359.054c-1.709,0-3.092-1.383-3.092-3.093c0-1.685,1.383-3.093,3.092-3.093h154.457c1.709,0,3.092,1.408,3.092,3.093    c0,1.71-1.383,3.093-3.092,3.093H187.17z M79.892,472.696c-1.685,0-3.092-1.384-3.092-3.094c0-1.685,1.407-3.093,3.092-3.093    H342.96c1.71,0,3.093,1.408,3.093,3.093c0,1.71-1.383,3.094-3.093,3.094H79.892z M233.944,485.999    c-1.709,0-3.092-1.383-3.092-3.068c0-1.71,1.383-3.093,3.092-3.093h182.017c1.713,0,3.096,1.383,3.096,3.093    c0,1.686-1.383,3.068-3.096,3.068H233.944z M434.597,485.999c-1.685,0-3.092-1.383-3.092-3.068c0-1.71,1.407-3.093,3.092-3.093    h22.759c1.71,0,3.092,1.383,3.092,3.093c0,1.686-1.382,3.068-3.092,3.068H434.597z M52.731,485.596    c-1.709,0-3.092-1.383-3.092-3.093c0-1.685,1.383-3.094,3.092-3.094h86.256c1.709,0,3.092,1.409,3.092,3.094    c0,1.71-1.383,3.093-3.092,3.093H52.731z M363.379,472.696c-1.686,0-3.092-1.384-3.092-3.094c0-1.685,1.406-3.093,3.092-3.093    h22.759c1.709,0,3.092,1.408,3.092,3.093c0,1.71-1.383,3.094-3.092,3.094H363.379z M200.148,26.002    c1.709,0,3.092,1.383,3.092,3.067c0,1.71-1.382,3.093-3.092,3.093h-60.279v44.813c0,1.711-1.383,3.094-3.092,3.094    c-1.688,0-3.095-1.383-3.095-3.094V29.069c0-1.685,1.407-3.067,3.095-3.067H200.148z M187.17,375.375    c-1.709,0-3.092-1.383-3.092-3.093s1.383-3.094,3.092-3.094h124.229c1.709,0,3.092,1.384,3.092,3.094s-1.383,3.093-3.092,3.093    H187.17z" style="fill-rule:evenodd;clip-rule:evenodd;"/></g></g><g id="Layer_1"/></svg>