<?xml version="1.0" ?><!DOCTYPE svg  PUBLIC '-//W3C//DTD SVG 1.1//EN'  'http://www.w3.org/Graphics/SVG/1.1/DTD/svg11.dtd'><svg enable-background="new 0 0 30 30" height="30px" id="Layer_1" version="1.1" viewBox="0 0 30 30" width="30px" xml:space="preserve" xmlns="http://www.w3.org/2000/svg" xmlns:xlink="http://www.w3.org/1999/xlink"><g><g><path d="M2.177,7.337c-2.656,3.818-2.325,8.784-0.297,12.841c0.048,0.096,0.099,0.191,0.149,0.287    c0.031,0.061,0.061,0.123,0.094,0.184c0.02,0.035,0.04,0.07,0.06,0.105c0.034,0.064,0.07,0.125,0.106,0.189    c0.063,0.111,0.127,0.221,0.193,0.332c0.037,0.061,0.072,0.121,0.11,0.182c0.073,0.117,0.147,0.234,0.226,0.352    c0.031,0.049,0.063,0.1,0.095,0.148c0.106,0.156,0.214,0.314,0.325,0.469c0.004,0.004,0.006,0.01,0.01,0.012    c0.018,0.025,0.037,0.051,0.055,0.074c0.097,0.135,0.196,0.266,0.297,0.395c0.037,0.049,0.074,0.096,0.111,0.143    c0.09,0.113,0.182,0.225,0.275,0.338c0.034,0.041,0.068,0.084,0.104,0.125c0.125,0.146,0.253,0.293,0.383,0.436    c0.002,0.002,0.006,0.006,0.008,0.008c0.006,0.008,0.01,0.01,0.015,0.018c0.126,0.139,0.257,0.273,0.388,0.408    c0.041,0.043,0.082,0.084,0.125,0.125c0.102,0.104,0.205,0.205,0.31,0.305c0.043,0.041,0.085,0.082,0.127,0.121    c0.14,0.131,0.28,0.26,0.425,0.387c0.002,0.002,0.004,0.004,0.007,0.004c0.024,0.023,0.05,0.043,0.073,0.064    c0.127,0.109,0.256,0.219,0.387,0.326c0.053,0.043,0.106,0.084,0.16,0.127c0.105,0.084,0.213,0.168,0.321,0.252    c0.058,0.043,0.114,0.086,0.172,0.131c0.119,0.088,0.239,0.174,0.36,0.258c0.045,0.033,0.088,0.064,0.132,0.094    c0.013,0.008,0.024,0.018,0.036,0.025c0.115,0.08,0.233,0.156,0.352,0.232c0.05,0.033,0.1,0.068,0.15,0.102    c0.182,0.113,0.364,0.227,0.549,0.336c0.051,0.029,0.102,0.057,0.152,0.086c0.137,0.078,0.273,0.154,0.412,0.23    c0.074,0.041,0.152,0.078,0.228,0.117c0.099,0.051,0.195,0.104,0.295,0.152c0.022,0.012,0.046,0.023,0.068,0.033    c0.04,0.02,0.08,0.039,0.12,0.059c0.154,0.074,0.311,0.146,0.468,0.217c0.033,0.016,0.065,0.029,0.099,0.043    c0.18,0.08,0.361,0.156,0.545,0.227c0.044,0.02,0.088,0.035,0.133,0.053c0.17,0.066,0.342,0.131,0.514,0.191    c0.021,0.008,0.043,0.014,0.064,0.021c0.189,0.066,0.381,0.129,0.574,0.188c0.046,0.014,0.092,0.029,0.139,0.041    c0.195,0.061,0.389,0.131,0.592,0.168c12.846,2.342,16.575-7.719,16.575-7.719c-3.132,4.082-8.695,5.16-13.966,3.961    c-0.199-0.045-0.393-0.107-0.588-0.166c-0.049-0.014-0.098-0.029-0.146-0.045c-0.19-0.057-0.379-0.119-0.566-0.184    c-0.025-0.01-0.052-0.018-0.078-0.027c-0.168-0.061-0.334-0.121-0.5-0.186c-0.046-0.02-0.093-0.037-0.139-0.055    c-0.182-0.072-0.361-0.146-0.54-0.225c-0.036-0.016-0.071-0.031-0.107-0.047c-0.153-0.07-0.304-0.141-0.455-0.213    c-0.044-0.02-0.087-0.041-0.132-0.063c-0.117-0.059-0.234-0.119-0.352-0.18c-0.078-0.041-0.157-0.08-0.234-0.123    c-0.143-0.076-0.283-0.154-0.422-0.236c-0.047-0.025-0.095-0.051-0.143-0.078c-0.186-0.109-0.367-0.223-0.549-0.338    c-0.05-0.031-0.099-0.064-0.148-0.098c-0.131-0.084-0.262-0.172-0.391-0.26c-0.043-0.029-0.084-0.061-0.126-0.088    c-0.124-0.088-0.247-0.178-0.369-0.268c-0.056-0.041-0.11-0.082-0.163-0.125c-0.112-0.084-0.224-0.17-0.334-0.26    c-0.05-0.039-0.1-0.08-0.148-0.119c-0.141-0.115-0.278-0.23-0.415-0.35c-0.015-0.012-0.03-0.025-0.046-0.039    c-0.148-0.129-0.293-0.262-0.436-0.396C8.01,21.133,7.97,21.094,7.93,21.055c-0.106-0.102-0.211-0.203-0.314-0.309    c-0.041-0.041-0.082-0.08-0.123-0.121c-0.13-0.135-0.259-0.27-0.385-0.408c-0.006-0.006-0.012-0.014-0.019-0.02    c-0.133-0.146-0.263-0.295-0.39-0.445c-0.035-0.041-0.068-0.08-0.103-0.121c-0.095-0.113-0.189-0.23-0.281-0.348    c-0.034-0.041-0.069-0.084-0.103-0.127c-0.111-0.145-0.219-0.287-0.324-0.432C2.962,14.733,1.91,9.229,4.25,4.708"/><path d="M10.422,4.12c-1.921,2.766-1.816,6.465-0.318,9.389c0.251,0.49,0.533,0.965,0.85,1.418    c0.287,0.412,0.607,0.904,0.988,1.233c0.139,0.152,0.283,0.303,0.432,0.447c0.037,0.039,0.075,0.076,0.113,0.113    c0.144,0.139,0.289,0.275,0.44,0.408c0.007,0.006,0.012,0.012,0.019,0.016c0.001,0.002,0.002,0.002,0.004,0.004    c0.166,0.146,0.339,0.287,0.514,0.426c0.039,0.029,0.078,0.061,0.117,0.092c0.176,0.135,0.354,0.266,0.537,0.393    c0.006,0.004,0.011,0.008,0.016,0.012c0.082,0.057,0.164,0.107,0.246,0.162c0.039,0.025,0.076,0.053,0.116,0.076    c0.131,0.084,0.264,0.166,0.398,0.244c0.02,0.012,0.038,0.021,0.057,0.033c0.116,0.066,0.234,0.133,0.353,0.197    c0.041,0.023,0.084,0.043,0.125,0.064c0.082,0.043,0.164,0.086,0.247,0.129c0.013,0.006,0.024,0.012,0.037,0.016    c0.169,0.084,0.34,0.164,0.515,0.24c0.037,0.016,0.075,0.031,0.113,0.047c0.139,0.059,0.28,0.117,0.422,0.17    c0.06,0.023,0.12,0.045,0.18,0.066c0.129,0.049,0.258,0.092,0.388,0.135c0.059,0.02,0.116,0.039,0.175,0.057    c0.185,0.057,0.367,0.131,0.56,0.162c9.918,1.643,12.207-5.991,12.207-5.991c-2.064,2.97-6.061,4.39-10.325,3.282    c-0.189-0.051-0.377-0.104-0.563-0.162c-0.057-0.018-0.111-0.037-0.168-0.055c-0.133-0.043-0.264-0.088-0.394-0.137    c-0.06-0.021-0.118-0.043-0.177-0.064c-0.143-0.055-0.283-0.111-0.424-0.172c-0.037-0.016-0.076-0.031-0.113-0.047    c-0.176-0.076-0.348-0.158-0.518-0.242c-0.088-0.041-0.174-0.086-0.26-0.131c-0.049-0.025-0.1-0.053-0.149-0.078    c-0.11-0.059-0.22-0.121-0.328-0.183c-0.026-0.016-0.053-0.029-0.079-0.044c-0.134-0.078-0.266-0.16-0.396-0.242    c-0.041-0.027-0.08-0.055-0.121-0.08c-0.086-0.057-0.172-0.113-0.257-0.172c-0.183-0.125-0.36-0.258-0.536-0.391    c-0.041-0.033-0.081-0.064-0.121-0.096c-1.867-1.475-3.347-3.488-4.051-5.773c-0.736-2.369-0.578-5.027,0.699-7.186"/><path d="M17.355,1.718c-1.132,1.666-1.243,3.736-0.457,5.576c0.828,1.955,2.526,3.486,4.508,4.213    c0.082,0.031,0.164,0.059,0.246,0.086c0.037,0.012,0.072,0.023,0.109,0.035c0.116,0.035,0.232,0.078,0.354,0.102    c5.476,1.059,6.96-2.811,7.356-3.381c-1.303,1.875-3.487,2.324-6.171,1.672c-0.212-0.051-0.445-0.127-0.648-0.199    c-0.263-0.094-0.521-0.201-0.771-0.32c-0.477-0.229-0.931-0.506-1.352-0.824c-2.4-1.822-3.893-5.297-2.326-8.127"/></g></g></svg>