<?xml version="1.0" ?><!DOCTYPE svg  PUBLIC '-//W3C//DTD SVG 1.1//EN'  'http://www.w3.org/Graphics/SVG/1.1/DTD/svg11.dtd'><svg enable-background="new 0 0 32 32" height="32px" id="Layer_1" version="1.1" viewBox="0 0 32 32" width="32px" xml:space="preserve" xmlns="http://www.w3.org/2000/svg" xmlns:xlink="http://www.w3.org/1999/xlink"><g id="code_x2C__coding_x2C__web_x2C__web_page_x2C__programming"><g><g><circle cx="7.5" cy="3.5" fill="#000000" r="0.5"/><circle cx="5.5" cy="3.5" fill="#000000" r="0.5"/><circle cx="3.5" cy="3.5" fill="#000000" r="0.5"/><path d="M26.5,6h-25C1.224,6,1,5.776,1,5.5S1.224,5,1.5,5h25C26.776,5,27,5.224,27,5.5S26.776,6,26.5,6z" fill="#000000"/><path d="M25.5,31h-23C1.673,31,1,30.327,1,29.5v-27C1,1.673,1.673,1,2.5,1h23C26.327,1,27,1.673,27,2.5v8     c0,0.276-0.224,0.5-0.5,0.5S26,10.776,26,10.5v-8C26,2.225,25.775,2,25.5,2h-23C2.225,2,2,2.225,2,2.5v27     C2,29.775,2.225,30,2.5,30h23c0.275,0,0.5-0.225,0.5-0.5c0-0.276,0.224-0.5,0.5-0.5s0.5,0.224,0.5,0.5     C27,30.327,26.327,31,25.5,31z" fill="#000000"/></g></g><g><g><path d="M5.5,21h-1C4.224,21,4,20.776,4,20.5S4.224,20,4.5,20h1C5.776,20,6,20.224,6,20.5S5.776,21,5.5,21z" fill="#000000"/></g><g><path d="M5.5,27h-1C4.224,27,4,26.776,4,26.5S4.224,26,4.5,26h1C5.776,26,6,26.224,6,26.5S5.776,27,5.5,27z" fill="#000000"/></g><g><path d="M5.5,25h-1C4.224,25,4,24.776,4,24.5S4.224,24,4.5,24h1C5.776,24,6,24.224,6,24.5S5.776,25,5.5,25z" fill="#000000"/></g><g><path d="M5.5,23h-1C4.224,23,4,22.776,4,22.5S4.224,22,4.5,22h1C5.776,22,6,22.224,6,22.5S5.776,23,5.5,23z" fill="#000000"/></g><g><path d="M14.5,25h-7C7.224,25,7,24.776,7,24.5S7.224,24,7.5,24h7c0.276,0,0.5,0.224,0.5,0.5S14.776,25,14.5,25z" fill="#000000"/></g><g><path d="M9.5,27h-2C7.224,27,7,26.776,7,26.5S7.224,26,7.5,26h2c0.276,0,0.5,0.224,0.5,0.5S9.776,27,9.5,27z" fill="#000000"/></g><g><path d="M16.5,27h-2c-0.276,0-0.5-0.224-0.5-0.5s0.224-0.5,0.5-0.5h2c0.276,0,0.5,0.224,0.5,0.5     S16.776,27,16.5,27z" fill="#000000"/></g><g><path d="M13.5,23h-6C7.224,23,7,22.776,7,22.5S7.224,22,7.5,22h6c0.276,0,0.5,0.224,0.5,0.5S13.776,23,13.5,23z" fill="#000000"/></g><g><path d="M12.5,27h-1c-0.276,0-0.5-0.224-0.5-0.5s0.224-0.5,0.5-0.5h1c0.276,0,0.5,0.224,0.5,0.5     S12.776,27,12.5,27z" fill="#000000"/></g><g><path d="M5.5,19h-1C4.224,19,4,18.776,4,18.5S4.224,18,4.5,18h1C5.776,18,6,18.224,6,18.5S5.776,19,5.5,19z" fill="#000000"/></g><g><path d="M5.5,17h-1C4.224,17,4,16.776,4,16.5S4.224,16,4.5,16h1C5.776,16,6,16.224,6,16.5S5.776,17,5.5,17z" fill="#000000"/></g><g><path d="M5.5,15h-1C4.224,15,4,14.776,4,14.5S4.224,14,4.5,14h1C5.776,14,6,14.224,6,14.5S5.776,15,5.5,15z" fill="#000000"/></g><g><path d="M9.5,13h-2C7.224,13,7,12.776,7,12.5S7.224,12,7.5,12h2c0.276,0,0.5,0.224,0.5,0.5S9.776,13,9.5,13z" fill="#000000"/></g><g><path d="M17.5,13h-3c-0.276,0-0.5-0.224-0.5-0.5s0.224-0.5,0.5-0.5h3c0.276,0,0.5,0.224,0.5,0.5     S17.776,13,17.5,13z" fill="#000000"/></g><g><path d="M23.5,11h-5c-0.276,0-0.5-0.224-0.5-0.5s0.224-0.5,0.5-0.5h5c0.276,0,0.5,0.224,0.5,0.5     S23.776,11,23.5,11z" fill="#000000"/></g><g><path d="M14,17H7.5C7.224,17,7,16.776,7,16.5S7.224,16,7.5,16H14c0.276,0,0.5,0.224,0.5,0.5S14.276,17,14,17z" fill="#000000"/></g><g><path d="M11.5,21h-4C7.224,21,7,20.776,7,20.5S7.224,20,7.5,20h4c0.276,0,0.5,0.224,0.5,0.5S11.776,21,11.5,21z" fill="#000000"/></g><g><path d="M16.5,11h-3c-0.276,0-0.5-0.224-0.5-0.5s0.224-0.5,0.5-0.5h3c0.276,0,0.5,0.224,0.5,0.5     S16.776,11,16.5,11z" fill="#000000"/></g><g><path d="M9.5,19h-2C7.224,19,7,18.776,7,18.5S7.224,18,7.5,18h2c0.276,0,0.5,0.224,0.5,0.5S9.776,19,9.5,19z" fill="#000000"/></g><g><path d="M13.5,21L13.5,21c-0.276,0-0.5-0.224-0.5-0.5s0.224-0.5,0.5-0.5l0,0c0.276,0,0.5,0.224,0.5,0.5     S13.776,21,13.5,21z" fill="#000000"/></g><g><path d="M11.5,11h-4C7.224,11,7,10.776,7,10.5S7.224,10,7.5,10h4c0.276,0,0.5,0.224,0.5,0.5S11.776,11,11.5,11z" fill="#000000"/></g><g><path d="M5.5,13h-1C4.224,13,4,12.776,4,12.5S4.224,12,4.5,12h1C5.776,12,6,12.224,6,12.5S5.776,13,5.5,13z" fill="#000000"/></g><g><path d="M5.5,11h-1C4.224,11,4,10.776,4,10.5S4.224,10,4.5,10h1C5.776,10,6,10.224,6,10.5S5.776,11,5.5,11z" fill="#000000"/></g><g><path d="M5.5,9h-1C4.224,9,4,8.776,4,8.5S4.224,8,4.5,8h1C5.776,8,6,8.224,6,8.5S5.776,9,5.5,9z" fill="#000000"/></g><g><path d="M15,15H7.5C7.224,15,7,14.776,7,14.5S7.224,14,7.5,14H15c0.276,0,0.5,0.224,0.5,0.5S15.276,15,15,15z" fill="#000000"/></g><g><path d="M13.5,19h-2c-0.276,0-0.5-0.224-0.5-0.5s0.224-0.5,0.5-0.5h2c0.276,0,0.5,0.224,0.5,0.5     S13.776,19,13.5,19z" fill="#000000"/></g><g><path d="M8.5,9h-1C7.224,9,7,8.776,7,8.5S7.224,8,7.5,8h1C8.776,8,9,8.224,9,8.5S8.776,9,8.5,9z" fill="#000000"/></g><g><path d="M12.5,13h-1c-0.276,0-0.5-0.224-0.5-0.5s0.224-0.5,0.5-0.5h1c0.276,0,0.5,0.224,0.5,0.5     S12.776,13,12.5,13z" fill="#000000"/></g></g><g><g><path d="M23,28c-4.411,0-8-3.589-8-8s3.589-8,8-8s8,3.589,8,8S27.411,28,23,28z M23,13c-3.859,0-7,3.141-7,7     s3.141,7,7,7s7-3.141,7-7S26.859,13,23,13z" fill="#000000"/></g><path d="M22.501,23c-0.033,0-0.066-0.003-0.099-0.01c-0.271-0.054-0.447-0.317-0.393-0.588l1-5    c0.055-0.272,0.33-0.449,0.588-0.393c0.271,0.054,0.447,0.317,0.393,0.588l-1,5C22.942,22.836,22.734,23,22.501,23z" fill="#000000"/><path d="M25.5,23c-0.128,0-0.256-0.049-0.354-0.146c-0.195-0.195-0.195-0.512,0-0.707L27.293,20l-2.146-2.146    c-0.195-0.195-0.195-0.512,0-0.707s0.512-0.195,0.707,0l2.5,2.5c0.195,0.195,0.195,0.512,0,0.707l-2.5,2.5    C25.756,22.951,25.628,23,25.5,23z" fill="#000000"/><path d="M20.5,23c-0.128,0-0.256-0.049-0.354-0.146l-2.5-2.5c-0.195-0.195-0.195-0.512,0-0.707l2.5-2.5    c0.195-0.195,0.512-0.195,0.707,0s0.195,0.512,0,0.707L18.707,20l2.146,2.146c0.195,0.195,0.195,0.512,0,0.707    C20.756,22.951,20.628,23,20.5,23z" fill="#000000"/></g></g></svg>
