<?xml version="1.0" ?><svg id="Layer_2" style="enable-background:new 0 0 1000 1000;" version="1.1" viewBox="0 0 1000 1000" xml:space="preserve" xmlns="http://www.w3.org/2000/svg" xmlns:xlink="http://www.w3.org/1999/xlink"><g><path d="M652.227,796.68c-33.65-0.87-82.66-7.75-89.46-39.83c-2.83-13.33-2.39-25.02-0.24-35h-125.05   c2.15,9.98,2.59,21.67-0.24,35c-6.8,32.08-55.81,38.96-89.46,39.83c-20.38,0.52-38.9,11.97-48.53,29.94h401.51   C691.127,808.65,672.607,797.2,652.227,796.68z" style="fill:#000000;"/><path d="M817.77,173.38H182.23c-16.57,0-30,13.43-30,30v50.45h695.54v-50.45   C847.77,186.81,834.34,173.38,817.77,173.38z M637.87,222.43c-2.27,2.27-5.39,3.67-8.83,3.67h-28c-6.88,0-12.5-5.62-12.5-12.5   c0-3.44,1.4-6.56,3.67-8.83c2.27-2.26,5.39-3.67,8.83-3.67h28c6.87,0,12.5,5.63,12.5,12.5   C641.54,217.04,640.13,220.16,637.87,222.43z M721.37,222.43c-2.27,2.27-5.39,3.67-8.83,3.67h-28c-6.88,0-12.5-5.62-12.5-12.5   c0-3.44,1.4-6.56,3.67-8.83c2.27-2.26,5.39-3.67,8.83-3.67h28c6.87,0,12.5,5.63,12.5,12.5   C725.04,217.04,723.63,220.16,721.37,222.43z M804.87,222.43c-2.27,2.27-5.39,3.67-8.83,3.67h-28c-6.88,0-12.5-5.62-12.5-12.5   c0-3.44,1.4-6.56,3.67-8.83c2.27-2.26,5.39-3.67,8.83-3.67h28c6.87,0,12.5,5.63,12.5,12.5   C808.54,217.04,807.13,220.16,804.87,222.43z" style="fill:#000000;"/><path d="M152.232,666.853c0,16.569,13.432,30,30,30h635.537c16.569,0,30-13.431,30-30v-27.645H152.232   V666.853z" style="fill:#000000;"/><path d="M357.75,278.83v335.38h490.02V278.83H357.75z M408.54,309.02h208.65c6.9,0,12.5,5.6,12.5,12.5   s-5.6,12.5-12.5,12.5H408.54c-6.9,0-12.5-5.6-12.5-12.5S401.64,309.02,408.54,309.02z M629.69,371.52c0,6.9-5.6,12.5-12.5,12.5   h-55.43c-6.91,0-12.5-5.6-12.5-12.5s5.59-12.5,12.5-12.5h55.43C624.09,359.02,629.69,364.62,629.69,371.52z M516.69,371.52   c0,6.9-5.6,12.5-12.5,12.5h-55.43c-6.91,0-12.5-5.6-12.5-12.5s5.59-12.5,12.5-12.5h55.43   C511.09,359.02,516.69,364.62,516.69,371.52z M408.54,409.02h128.22c6.9,0,12.5,5.6,12.5,12.5c0,3.45-1.4,6.58-3.66,8.84   c-2.26,2.26-5.39,3.66-8.84,3.66H408.54c-6.9,0-12.5-5.6-12.5-12.5S401.64,409.02,408.54,409.02z M452.97,534.02h-44.43   c-6.9,0-12.5-5.6-12.5-12.5s5.6-12.5,12.5-12.5h44.43c6.91,0,12.5,5.6,12.5,12.5S459.88,534.02,452.97,534.02z M555.19,534.02   h-44.43c-6.91,0-12.5-5.6-12.5-12.5s5.59-12.5,12.5-12.5h44.43c6.9,0,12.5,5.6,12.5,12.5S562.09,534.02,555.19,534.02z    M576.97,484.02h-88c-6.9,0-12.5-5.6-12.5-12.5s5.6-12.5,12.5-12.5h88c6.91,0,12.5,5.6,12.5,12.5S583.88,484.02,576.97,484.02z    M796.97,584.02h-195c-6.9,0-12.5-5.6-12.5-12.5s5.6-12.5,12.5-12.5h195c6.91,0,12.5,5.6,12.5,12.5S803.88,584.02,796.97,584.02z    M600.47,521.52c0-6.9,5.6-12.5,12.5-12.5h44.43c6.91,0,12.5,5.6,12.5,12.5s-5.59,12.5-12.5,12.5h-44.43   C606.07,534.02,600.47,528.42,600.47,521.52z M702.69,521.52c0-6.9,5.59-12.5,12.5-12.5h81.14c6.9,0,12.5,5.6,12.5,12.5   s-5.6,12.5-12.5,12.5h-81.14C708.28,534.02,702.69,528.42,702.69,521.52z M796.97,484.02H629.36c-6.9,0-12.5-5.6-12.5-12.5   s5.6-12.5,12.5-12.5h167.61c6.91,0,12.5,5.6,12.5,12.5S803.88,484.02,796.97,484.02z M796.97,434.02H595.15   c-6.9,0-12.5-5.6-12.5-12.5s5.6-12.5,12.5-12.5h201.82c6.91,0,12.5,5.6,12.5,12.5S803.88,434.02,796.97,434.02z M796.97,384.02   H674.76c-6.91,0-12.5-5.6-12.5-12.5s5.59-12.5,12.5-12.5h122.21c6.91,0,12.5,5.6,12.5,12.5S803.88,384.02,796.97,384.02z" style="fill:#000000;"/><path d="M152.24,278.83v335.38h180.51V278.83H152.24z M197.94,459.02h45.69c6.9,0,12.5,5.6,12.5,12.5   s-5.6,12.5-12.5,12.5h-45.69c-6.91,0-12.5-5.6-12.5-12.5S191.03,459.02,197.94,459.02z M185.44,421.52c0-6.9,5.59-12.5,12.5-12.5   h18.42c6.9,0,12.5,5.6,12.5,12.5s-5.6,12.5-12.5,12.5h-18.42C191.03,434.02,185.44,428.42,185.44,421.52z M287.05,584.02h-55.03   c-6.9,0-12.5-5.6-12.5-12.5s5.6-12.5,12.5-12.5h55.03c6.9,0,12.5,5.6,12.5,12.5S293.95,584.02,287.05,584.02z M287.05,534.02   h-89.11c-6.91,0-12.5-5.6-12.5-12.5s5.59-12.5,12.5-12.5h89.11c6.9,0,12.5,5.6,12.5,12.5S293.95,534.02,287.05,534.02z    M287.05,434.02h-18.42c-6.91,0-12.5-5.6-12.5-12.5s5.59-12.5,12.5-12.5h18.42c6.9,0,12.5,5.6,12.5,12.5   S293.95,434.02,287.05,434.02z M287.05,384.02h-55.03c-6.9,0-12.5-5.6-12.5-12.5s5.6-12.5,12.5-12.5h55.03   c6.9,0,12.5,5.6,12.5,12.5S293.95,384.02,287.05,384.02z M287.05,334.02h-89.11c-6.91,0-12.5-5.6-12.5-12.5s5.59-12.5,12.5-12.5   h89.11c6.9,0,12.5,5.6,12.5,12.5S293.95,334.02,287.05,334.02z" style="fill:#000000;"/></g></svg>