<?xml version="1.0" ?><!DOCTYPE svg  PUBLIC '-//W3C//DTD SVG 1.1//EN'  'http://www.w3.org/Graphics/SVG/1.1/DTD/svg11.dtd'><svg enable-background="new 0 0 32 32" height="32px" version="1.1" viewBox="0 0 32 32" width="32px" xml:space="preserve" xmlns="http://www.w3.org/2000/svg" xmlns:xlink="http://www.w3.org/1999/xlink"><g id="digital_contract"><g><g><g><path d="M28.5,31h-21C6.673,31,6,30.327,6,29.5v-1C6,28.224,6.224,28,6.5,28S7,28.224,7,28.5v1      C7,29.775,7.224,30,7.5,30h21c0.276,0,0.5-0.225,0.5-0.5V8.707L22.293,2H7.5C7.224,2,7,2.225,7,2.5v5C7,7.776,6.776,8,6.5,8      S6,7.776,6,7.5v-5C6,1.673,6.673,1,7.5,1h15c0.133,0,0.26,0.053,0.354,0.146l7,7C29.947,8.24,30,8.367,30,8.5v21      C30,30.327,29.327,31,28.5,31z" fill="#000000"/></g></g><g><g><path d="M6.5,15.969c-0.276,0-0.5-0.224-0.5-0.5V11.5C6,11.224,6.224,11,6.5,11S7,11.224,7,11.5v3.969      C7,15.745,6.776,15.969,6.5,15.969z" fill="#000000"/></g></g><g><g><path d="M29.52,9c-0.007,0-0.014-0.001-0.02,0h-6C22.673,9,22,8.327,22,7.5v-6c0-0.202,0.122-0.385,0.309-0.462      c0.187-0.075,0.402-0.034,0.545,0.108l6.926,6.926c0.144,0.088,0.24,0.247,0.24,0.428C30.02,8.776,29.796,9,29.52,9z M23,2.707      V7.5C23,7.775,23.224,8,23.5,8h4.793L23,2.707z" fill="#000000"/></g></g><path d="M7.5,9C5.019,9,3,11.019,3,13.5V18h1v-4.5C4,11.57,5.57,10,7.5,10s3.5,1.57,3.5,3.5V18h1v-4.5    C12,11.019,9.981,9,7.5,9z" fill="#000000"/><g><g><path d="M9.5,27h-4C3.57,27,2,25.43,2,23.5v-6C2,17.224,2.224,17,2.5,17h5C7.776,17,8,17.224,8,17.5      S7.776,18,7.5,18H3v5.5C3,24.879,4.121,26,5.5,26h4c1.379,0,2.5-1.121,2.5-2.5V18H9.5C9.224,18,9,17.776,9,17.5S9.224,17,9.5,17      h3c0.276,0,0.5,0.224,0.5,0.5v6C13,25.43,11.43,27,9.5,27z" fill="#000000"/></g></g></g><g><g><g><circle cx="7.5" cy="21.5" fill="#000000" r="1"/></g></g></g><g><g><path d="M24.5,28.5c-1.654,0-3-1.346-3-3s1.346-3,3-3s3,1.346,3,3S26.154,28.5,24.5,28.5z M24.5,23.5     c-1.103,0-2,0.897-2,2s0.897,2,2,2s2-0.897,2-2S25.603,23.5,24.5,23.5z" fill="#000000"/></g></g><g><g><g><path d="M7.5,24L7.5,24C7.224,24,7,23.776,7,23.5V21h1v2.5C8,23.776,7.776,24,7.5,24z" fill="#000000"/></g></g></g><g><g><path d="M19.5,26h-5c-0.276,0-0.5-0.224-0.5-0.5s0.224-0.5,0.5-0.5h5c0.276,0,0.5,0.224,0.5,0.5     S19.776,26,19.5,26z" fill="#000000"/></g></g><g><g><path d="M19.5,24h-5c-0.276,0-0.5-0.224-0.5-0.5s0.224-0.5,0.5-0.5h5c0.276,0,0.5,0.224,0.5,0.5     S19.776,24,19.5,24z" fill="#000000"/></g></g><g><g><path d="M20,17h-5.5c-0.276,0-0.5-0.224-0.5-0.5s0.224-0.5,0.5-0.5H20c0.276,0,0.5,0.224,0.5,0.5S20.276,17,20,17     z" fill="#000000"/></g></g><g><g><path d="M24.5,15h-10c-0.276,0-0.5-0.224-0.5-0.5s0.224-0.5,0.5-0.5h10c0.276,0,0.5,0.224,0.5,0.5     S24.776,15,24.5,15z" fill="#000000"/></g></g><g><g><path d="M24.5,13h-10c-0.276,0-0.5-0.224-0.5-0.5s0.224-0.5,0.5-0.5h10c0.276,0,0.5,0.224,0.5,0.5     S24.776,13,24.5,13z" fill="#000000"/></g></g><g><g><path d="M20.5,7H11c-0.276,0-0.5-0.224-0.5-0.5S10.724,6,11,6h9.5C20.776,6,21,6.224,21,6.5S20.776,7,20.5,7z" fill="#000000"/></g></g></g></svg>
