<?xml version="1.0" ?><!DOCTYPE svg  PUBLIC '-//W3C//DTD SVG 1.1//EN'  'http://www.w3.org/Graphics/SVG/1.1/DTD/svg11.dtd'><svg enable-background="new 0 0 32 32" height="32px" id="_x3C_Layer_x3E_" version="1.1" viewBox="0 0 32 32" width="32px" xml:space="preserve" xmlns="http://www.w3.org/2000/svg" xmlns:xlink="http://www.w3.org/1999/xlink"><g id="file"><g><g><path d="M27.5,31h-21C6.224,31,6,30.776,6,30.5S6.224,30,6.5,30H27V3.5C27,3.224,27.224,3,27.5,3S28,3.224,28,3.5     v27C28,30.776,27.776,31,27.5,31z" fill="#000000"/></g><g><path d="M25.5,29h-21C4.224,29,4,28.776,4,28.5v-21C4,7.224,4.224,7,4.5,7S5,7.224,5,7.5V28h20V2H12.5     C12.224,2,12,1.776,12,1.5S12.224,1,12.5,1h13C25.776,1,26,1.224,26,1.5v27C26,28.776,25.776,29,25.5,29z" fill="#000000"/></g></g><g><g><path d="M10.5,8H4.521C4.319,8,4.137,7.878,4.06,7.691C3.982,7.505,4.025,7.29,4.167,7.147l5.979-6     c0.143-0.145,0.359-0.186,0.545-0.109C10.878,1.115,11,1.298,11,1.5v6C11,7.776,10.776,8,10.5,8z M5.726,7H10V2.71L5.726,7z" fill="#000000"/></g></g><g><g><path d="M7.5,15h8c0.276,0,0.5-0.224,0.5-0.5S15.776,14,15.5,14h-8C7.224,14,7,14.224,7,14.5S7.224,15,7.5,15z" fill="#000000"/></g></g><g><g><path d="M7.5,17h5c0.276,0,0.5-0.224,0.5-0.5S12.776,16,12.5,16h-5C7.224,16,7,16.224,7,16.5S7.224,17,7.5,17z" fill="#000000"/></g></g><g><g><path d="M14.5,17h8c0.276,0,0.5-0.224,0.5-0.5S22.776,16,22.5,16h-8c-0.276,0-0.5,0.224-0.5,0.5     S14.224,17,14.5,17z" fill="#000000"/></g></g><g><g><path d="M7.5,21h7c0.276,0,0.5-0.224,0.5-0.5S14.776,20,14.5,20h-7C7.224,20,7,20.224,7,20.5S7.224,21,7.5,21z" fill="#000000"/></g></g><g><g><path d="M7.5,19h10c0.276,0,0.5-0.224,0.5-0.5S17.776,18,17.5,18h-10C7.224,18,7,18.224,7,18.5S7.224,19,7.5,19z" fill="#000000"/></g></g><g><g><path d="M19.5,19h3c0.276,0,0.5-0.224,0.5-0.5S22.776,18,22.5,18h-3c-0.276,0-0.5,0.224-0.5,0.5     S19.224,19,19.5,19z" fill="#000000"/></g></g><g><g><path d="M17.5,15h5c0.276,0,0.5-0.224,0.5-0.5S22.776,14,22.5,14h-5c-0.276,0-0.5,0.224-0.5,0.5     S17.224,15,17.5,15z" fill="#000000"/></g></g><g><g><path d="M9.5,11h13c0.276,0,0.5-0.224,0.5-0.5S22.776,10,22.5,10h-13C9.224,10,9,10.224,9,10.5S9.224,11,9.5,11z" fill="#000000"/></g></g><g><g><path d="M7.5,13h15c0.276,0,0.5-0.224,0.5-0.5S22.776,12,22.5,12h-15C7.224,12,7,12.224,7,12.5S7.224,13,7.5,13z" fill="#000000"/></g></g></g></svg>
