<?xml version="1.0" ?><!DOCTYPE svg  PUBLIC '-//W3C//DTD SVG 1.1//EN'  'http://www.w3.org/Graphics/SVG/1.1/DTD/svg11.dtd'><svg height="512px" style="enable-background:new 0 0 512 512;" version="1.1" viewBox="0 0 512 512" width="512px" xml:space="preserve" xmlns="http://www.w3.org/2000/svg" xmlns:xlink="http://www.w3.org/1999/xlink"><g id="_x35_42_x2C__Animation_x2C__computer_x2C__editor_x2C__monitor_x2C__software"><g><path d="M469.046,56.334c-3.502-3.517-8.349-5.688-13.684-5.688H84.313    c-5.352,0-10.185,2.171-13.701,5.688s-5.685,8.378-5.685,13.698v267.181c0,5.32,2.186,10.182,5.685,13.698    c3.517,3.517,8.381,5.687,13.701,5.687h371.049c5.32,0,10.182-2.17,13.684-5.687c3.517-3.517,5.699-8.378,5.699-13.698V70.032    C474.745,64.712,472.563,59.851,469.046,56.334 M146.733,439.461v10.824h246.191v-10.824    C310.855,439.461,228.803,439.461,146.733,439.461z M451.004,284.773V74.191H87.781v210.582H451.004z M458.511,70.43v218.104    c0,2.048-1.682,3.761-3.745,3.761H84.022c-2.063,0-3.762-1.713-3.762-3.761V70.43c0-2.079,1.698-3.762,3.762-3.762h370.744    C456.829,66.668,458.511,68.351,458.511,70.43z M314.449,364.119h-89.226l-17.839,67.82h124.906L314.449,364.119z     M273.366,332.718c-0.916-0.888-2.154-1.438-3.53-1.438s-2.614,0.55-3.499,1.438c-0.919,0.917-1.471,2.14-1.471,3.517    c0,1.375,0.552,2.629,1.439,3.516c0.916,0.887,2.154,1.438,3.53,1.438s2.614-0.551,3.503-1.407    c0.916-0.917,1.467-2.171,1.467-3.546C274.806,334.857,274.255,333.635,273.366,332.718z M269.836,323.759    c3.426,0,6.545,1.406,8.806,3.669c2.277,2.264,3.671,5.381,3.671,8.807c0,3.424-1.394,6.543-3.653,8.807    c-2.278,2.262-5.397,3.668-8.823,3.668c-3.439,0-6.56-1.406-8.806-3.639c-2.277-2.293-3.671-5.412-3.671-8.836    c0-3.426,1.394-6.543,3.657-8.807C263.276,325.165,266.396,323.759,269.836,323.759z M143.417,247.652l-12.445-12.444    l-12.413,12.414l12.427,12.445L143.417,247.652z M133.632,227.228l17.551,17.551c0.656-0.55,1.558-0.917,2.432-0.917h7.507    c2.72,0,4.632,2.905,3.376,5.412c-0.474,1.193-1.955,2.109-3.376,2.109h-7.507c-0.934,0-1.79-0.336-2.432-0.887l-17.551,17.521    c-1.467,1.467-3.853,1.438-5.289,0l-17.751-17.735c-1.467-1.468-1.467-3.853,0-5.32l17.719-17.704    C129.779,225.79,132.166,225.79,133.632,227.228z M420.229,247.622l-12.413-12.414l-12.325,12.506l12.294,12.354L420.229,247.622z     M410.658,227.441l17.537,17.551c1.449,1.469,1.449,3.822-0.018,5.29l-17.72,17.735c-1.467,1.467-3.853,1.467-5.303,0    l-17.737-17.735c-1.467-1.437-1.467-3.821-0.014-5.29l17.751-17.765c1.45-1.468,3.836-1.468,5.303,0L410.658,227.441z     M191.178,251.383c1.421,0,2.906-0.916,3.38-2.109c1.253-2.507-0.66-5.412-3.38-5.412h-7.521c-1.407,0-2.892,0.947-3.365,2.11    c-1.253,2.507,0.66,5.411,3.365,5.411H191.178z M221.237,251.383c1.404,0,2.902-0.916,3.362-2.109    c1.253-2.507-0.642-5.412-3.362-5.412h-7.524c-1.407,0-2.902,0.947-3.362,2.11c-1.253,2.507,0.642,5.411,3.362,5.411H221.237z     M251.292,251.383c1.407,0,2.906-0.916,3.362-2.109c1.256-2.507-0.643-5.412-3.362-5.412h-7.521c-1.421,0-2.906,0.947-3.379,2.11    c-1.253,2.507,0.656,5.411,3.379,5.411H251.292z M281.333,251.383c1.422,0,2.906-0.916,3.38-2.109    c1.253-2.507-0.66-5.412-3.38-5.412h-7.507c-1.421,0-2.905,0.947-3.38,2.11c-1.253,2.507,0.66,5.411,3.38,5.411H281.333z     M311.393,251.383c1.421,0,2.888-0.916,3.376-2.109c1.253-2.507-0.656-5.412-3.376-5.412h-7.508c-1.438,0-2.905,0.947-3.394,2.11    c-1.238,2.507,0.671,5.411,3.394,5.411H311.393z M341.434,251.383c1.436,0,2.902-0.916,3.394-2.109    c1.253-2.507-0.674-5.412-3.394-5.412h-7.507c-1.421,0-2.905,0.947-3.38,2.11c-1.253,2.507,0.656,5.411,3.38,5.411H341.434z     M371.488,251.383c1.422,0,2.906-0.916,3.381-2.109c1.252-2.507-0.656-5.412-3.381-5.412h-7.506c-1.422,0-2.906,0.947-3.38,2.11    c-1.253,2.507,0.659,5.411,3.38,5.411H371.488z M231.418,152.528l-47.701-12.78v61.917l47.701,12.813V152.528z M238.924,152.528    v61.949c15.916-4.28,31.782-8.53,47.684-12.813v-37.151v-0.091v-0.092v-6.36l-20.152-5.412c-1.681-0.428-2.779-1.957-2.779-3.607    v-3.058L238.924,152.528z M309.479,113.758v40.574l20.653-5.534l10.139-2.721v-40.606L309.479,113.758z M281.898,100.578    l23.818,6.391l23.837-6.391l-23.837-6.39L281.898,100.578z M294.129,169.346v35.193c-0.015,1.651-1.13,3.181-2.797,3.64    l-12.291,3.302l33.281,8.929v-46.202L294.129,169.346z M319.847,174.207v46.202l35.222-9.448V164.76L319.847,174.207z     M359.563,156.197h0.091l0.092,0.031l0.277,0.092l0,0l0.168,0.061l0,0h0.061l0.018,0.031h0.027    c0.169,0.061,0.323,0.152,0.46,0.244h0.032l0.059,0.062l0,0l0.046,0.03h0.018l0.028,0.03l0.154,0.093l0.046,0.03l0,0l0.046,0.061    h0.031l0.014,0.03l0.046,0.031l0.046,0.031l0.018,0.03l0.027,0.03l0.046,0.029l0,0l0.046,0.031l0.018,0.031l0.014,0.03l0.046,0.03    l0,0l0.046,0.063h0.018l0.014,0.029l0.045,0.062h0.015l0.032,0.03l0.014,0.031l0.018,0.03l0.031,0.03h0.014l0.046,0.061v0.031    l0.032,0.031l0.027,0.03l0,0l0.031,0.061h0.015l0.031,0.062l0.015,0.031h0.018l0.031,0.061h0.014l0.014,0.061l0.018,0.031h0.015    l0.032,0.061h0.014l0.014,0.063l0.018,0.029l0.014,0.031l0.032,0.061l0.014,0.062h0.032v0.03l0.031,0.061l0,0l0.027,0.063v0.03    l0.018,0.03l0.047,0.123v0.029l0.014,0.031l0.014,0.031v0.029l0.031,0.062l0,0v0.062l0.018,0.031l0.015,0.061v0.03l0.031,0.062    v0.03v0.062l0.028,0.122l0,0l0.018,0.091l0,0l0.014,0.092l0,0v0.093v0.03v0.061l0.014,0.031v0.062v0.03v0.061v0.031v0.061    c0,49.137,0,22.016,0,53.907c0,1.651-1.115,3.18-2.797,3.639l-42.531,11.405l-0.046,0.03h-0.014l-0.063,0.03h-0.091h-0.015    l-0.045,0.031h-0.031h-0.032l-0.06,0.031h-0.031h-0.061l0,0l-0.076,0.029h-0.018h-0.061h-0.045h-0.015l-0.077,0.031h-0.018h-0.06    h-0.014h-0.063h-0.027h-0.05h-0.06h-0.014h-0.078h-0.076h-0.015h-0.063h-0.045h-0.028h-0.063h-0.014h-0.077l0,0l-0.077-0.031    h-0.028h-0.032h-0.063h-0.014l-0.078-0.029l0,0h-0.076h-0.015l-0.06-0.031h-0.031h-0.032l-0.06-0.031h-0.018h-0.074l-0.063-0.03    h-0.014l-0.046-0.03l-42.532-11.405c-1.621-0.459-2.723-1.865-2.783-3.455l-33.266,8.929l-0.063,0.03h-0.014h-0.077l-0.06,0.03    h-0.032h-0.045l-0.045,0.031h-0.032l-0.06,0.03l0,0h-0.078h-0.017h-0.06l-0.031,0.03h-0.028h-0.063h-0.014h-0.077l0,0l-0.077,0.03    h-0.014h-0.063h-0.028h-0.045h-0.046h-0.031h-0.078h-0.077h-0.014h-0.046h-0.063h-0.028h-0.063l0,0l-0.091-0.03l0,0h-0.06h-0.032    h-0.045h-0.046l-0.031-0.03h-0.06l0,0h-0.091l0,0l-0.063-0.03h-0.031l-0.046-0.031h-0.045h-0.028l-0.063-0.03h-0.06h-0.032    l-0.046-0.03l-55.008-14.769c-1.667-0.459-2.783-1.988-2.783-3.64l-0.014-69.684c0-0.918,0.337-1.743,0.87-2.416h0.018    l0.046-0.061h0.014l0.032-0.062h0.028l0.031-0.062h0.032l0.105-0.122l0.018-0.03l0.06-0.031v-0.03l0.063-0.03v-0.03l0.06-0.03    l0.032-0.031l0.045-0.031h0.014l0.063-0.061h0.014l0.046-0.061h0.031l0.046-0.031l0.074-0.062h0.032l0.246-0.152l0.045-0.03h0.032    l0.045-0.031l0.028-0.031l0.14-0.061h0.046l0.028-0.03l0.186-0.062h0.046l0.305-0.091l0.091-0.03h0.014l54.98-14.77    c0.611-0.152,1.285-0.184,1.927,0l27.549,7.4v-23.209c0-0.887,0.319-1.742,0.856-2.385l0,0l0.06-0.061v-0.031l0.06-0.029v-0.031    l0.063-0.062l0,0l0.123-0.122h0.014l0.046-0.062h0.014l0.046-0.062h0.031l0.063-0.061l0,0l0.06-0.061h0.014l0.046-0.031    l0.031-0.031l0.046-0.03h0.018l0.06-0.061l0.077-0.03l0.015-0.031l0.245-0.121l0.06-0.031l0.032-0.031l0.045-0.03h0.046    l0.123-0.062L266,97.092h0.06l0.169-0.061l0.045-0.03l0.306-0.092h0.092l0,0l38.085-10.243c0.61-0.152,1.284-0.184,1.94,0    l38.067,10.243h0.018h0.092c0.564,0.153,1.084,0.397,1.512,0.765h0.032l0.015,0.03l0.045,0.03l0,0l0.046,0.062l0.291,0.276    l0.046,0.061l0,0l0.045,0.029l0.018,0.031l0.015,0.031l0.091,0.091v0.03l0.092,0.123h0.018l0.014,0.061l0.031,0.031h0.015    l0.031,0.061h0.015l0.014,0.063l0.123,0.213l0.018,0.061h0.014l0.046,0.123l0.031,0.031v0.029l0.091,0.245l0.015,0.03    c0.123,0.367,0.2,0.765,0.2,1.162v48.373c-0.018,1.498-0.92,2.844-2.295,3.455L359.563,156.197z M316.084,167.45l28.27-7.583    l-13.256-3.547l-22.812,6.115l-1.39,0.367l-0.046,0.031h-0.031l-0.06,0.029h-0.077h-0.018h-0.028l-0.031,0.031h-0.032h-0.028    l-0.063,0.029h-0.015h-0.077l0,0h-0.06v0.031H306.3h-0.046h-0.046h-0.031l-0.06,0.031H306.1h-0.077l0,0h-0.06h-0.046h-0.046    h-0.045h-0.018h-0.092h-0.06h-0.031h-0.06h-0.032h-0.031h-0.06h-0.031l0,0h-0.06l0,0l-0.077-0.031h-0.032h-0.046h-0.045h-0.032    l-0.06-0.031h-0.014l0,0h-0.063h-0.014l-0.063-0.029h-0.028l0,0h-0.045l-0.046-0.031h-0.018h-0.077l-0.06-0.029h-0.014    l-0.063-0.031 M271.197,140.909V141v0.093v4.984l19.906,5.351h0.092l0.228,0.061l0.077,0.031l0.077,0.031h0.028l0.077,0.03    l10.275,2.751v-40.574l-30.761-8.287v23.116v0.092V140.909z M194.435,134.855l40.728,10.916l28.515-7.645v-6.574l-28.515-7.645    L194.435,134.855z M384.116,126.997c0,1.406,0.919,2.905,2.112,3.364c2.506,1.252,5.395-0.643,5.395-3.364v-7.522    c0-1.406-0.916-2.904-2.109-3.363c-2.506-1.254-5.397,0.643-5.397,3.363V126.997z M384.116,157.055    c0,1.406,0.919,2.873,2.112,3.362c2.506,1.254,5.395-0.642,5.395-3.362v-7.522c0-1.437-0.916-2.905-2.109-3.395    c-2.506-1.254-5.397,0.673-5.397,3.395V157.055z M384.116,187.08c0,1.438,0.919,2.905,2.112,3.395    c2.506,1.254,5.395-0.672,5.395-3.395v-7.49c0-1.438-0.916-2.905-2.109-3.395c-2.506-1.254-5.397,0.672-5.397,3.395V187.08z     M85.84,471.902c-2.078,0-3.759-1.681-3.759-3.76c0-2.08,1.681-3.762,3.759-3.762h231.775c2.077,0,3.758,1.682,3.758,3.762    c0,2.079-1.681,3.76-3.758,3.76H85.84z M221.556,485.999c-2.064,0-3.745-1.682-3.745-3.761s1.681-3.762,3.745-3.762h160.405    c2.064,0,3.745,1.683,3.745,3.762s-1.681,3.761-3.745,3.761H221.556z M398.365,485.999c-2.064,0-3.76-1.682-3.76-3.761    s1.695-3.762,3.76-3.762h20.06c2.078,0,3.763,1.683,3.763,3.762s-1.685,3.761-3.763,3.761H398.365z M44.775,170.018    c0,2.08-1.695,3.762-3.759,3.762c-2.081,0-3.762-1.682-3.762-3.762V55.508c0-8.102,3.317-15.502,8.655-20.854    c5.348-5.32,12.75-8.652,20.867-8.652h65.786c2.078,0,3.762,1.682,3.762,3.761s-1.685,3.761-3.762,3.761H66.776    c-6.054,0-11.557,2.477-15.547,6.451c-3.977,3.977-6.454,9.51-6.454,15.533V170.018z M129.842,485.999    c-2.081,0-3.762-1.682-3.762-3.761s1.681-3.762,3.762-3.762h63.936c2.063,0,3.745,1.683,3.745,3.762s-1.681,3.761-3.745,3.761    H129.842z M391.623,89.418c0-1.406-0.916-2.904-2.109-3.363c-2.506-1.254-5.397,0.642-5.397,3.363v7.521    c0,1.406,0.919,2.905,2.112,3.364c2.506,1.254,5.395-0.642,5.395-3.364V89.418z" style="fill-rule:evenodd;clip-rule:evenodd;"/></g></g><g id="Layer_1"/></svg>