<svg width="32" height="32" xmlns="http://www.w3.org/2000/svg">

 <g>
  <title>background</title>
  <rect fill="none" id="canvas_background" height="402" width="582" y="-1" x="-1"/>
 </g>
 <g>
  <title fill="#000000">Layer 1</title>
  <path id="svg_1" fill="#000000" d="m31,21.996c-0.552,0 -1,0.448 -1,1l0,7l-28,0l0,-7c0,-0.552 -0.448,-1 -1,-1s-1,0.448 -1,1l0,8c0,0.552 0.448,1 1,1l30,0c0.552,0 1,-0.448 1,-1l0,-8c0,-0.553 -0.448,-1 -1,-1z"/>
  <path id="svg_2" fill="#000000" d="m9.731,8.602l5.275,-5.2l0,19.593c0,0.552 0.452,1 1.01,1c0.558,0 1.01,-0.448 1.01,-1l0,-19.593l5.275,5.2c0.394,0.391 1.034,0.391 1.428,0s0.395,-1.024 0,-1.414l-6.999,-6.899c-0.39,-0.387 -1.046,-0.383 -1.429,0l-6.998,6.899c-0.395,0.391 -0.394,1.024 0,1.414c0.394,0.391 1.034,0.391 1.428,0z"/>
 </g>
</svg>