<svg width="48" height="48" xmlns="http://www.w3.org/2000/svg">

 <g>
  <title>background</title>
  <rect fill="none" id="canvas_background" height="402" width="582" y="-1" x="-1"/>
 </g>
 <g>
  <title>Layer 1</title>
  <path stroke="#000000" stroke-width="1px" id="svg_3" d="m14.101,42.314c-1.87,0 -3.628,-0.729 -4.95,-2.051l-1.415,-1.413c-2.729,-2.729 -2.729,-7.171 0,-9.899l9.192,-9.192c1.322,-1.322 3.08,-2.051 4.95,-2.051s3.628,0.729 4.949,2.051l1.414,1.414c0.391,0.391 0.391,1.023 0,1.414s-1.023,0.391 -1.414,0l-1.414,-1.414c-0.944,-0.944 -2.2,-1.465 -3.535,-1.465c-1.336,0 -2.592,0.521 -3.536,1.465l-9.192,9.191c-1.949,1.949 -1.949,5.121 0,7.071l1.414,1.414c0.944,0.944 2.2,1.465 3.536,1.465c1.335,0 2.591,-0.521 3.535,-1.465l6.365,-6.364c0.391,-0.391 1.023,-0.391 1.414,0s0.391,1.023 0,1.414l-6.364,6.364c-1.321,1.323 -3.079,2.051 -4.949,2.051z"/>
  <path stroke="#000000" stroke-width="1px" id="svg_5" d="m26.121,30.293c-1.869,0 -3.628,-0.729 -4.949,-2.051c-0.391,-0.391 -0.391,-1.023 0,-1.414s1.023,-0.391 1.414,0c0.944,0.944 2.2,1.465 3.535,1.465c1.336,0 2.592,-0.521 3.536,-1.465l9.192,-9.192c1.949,-1.949 1.949,-5.121 0,-7.07l-1.413,-1.416c-1.949,-1.949 -5.122,-1.949 -7.071,0l-6.365,6.365c-0.391,0.391 -1.023,0.391 -1.414,0s-0.391,-1.023 0,-1.414l6.364,-6.364c2.729,-2.729 7.17,-2.729 9.899,0l1.414,1.415c2.729,2.729 2.729,7.17 0,9.898l-9.192,9.192c-1.321,1.322 -3.08,2.051 -4.95,2.051z"/>
 </g>
</svg>