<?xml version="1.0" encoding="utf-8"?>
<!-- Generator: Adobe Illustrator 22.1.0, SVG Export Plug-In . SVG Version: 6.00 Build 0)  -->
<svg version="1.1" id="Layer_1" xmlns="http://www.w3.org/2000/svg" xmlns:xlink="http://www.w3.org/1999/xlink" x="0px" y="0px"
	 viewBox="0 0 512 512" style="enable-background:new 0 0 512 512;" xml:space="preserve">
<style type="text/css">
	.st0{fill:none;}
</style>
<g id="Layer_13">
	<g>
		<path class="st0" d="M256,45.1c-8.6,0-15.5,10.7-15.5,23.8c0,13.1,6.9,23.8,15.5,23.8c8.6,0,15.5-10.6,15.5-23.8
			C271.5,55.8,264.6,45.1,256,45.1z"/>
		<path d="M366.4,503.6V280.5H145.6v223.1H366.4z M160.7,365.9c0.1,0,0.3-0.1,0.4-0.1c13,0,16,22.1,27,22.5c11,0.4,7.9-18,35.5-18.5
			c27.6-0.5,24.6,34.3,35,34.7c10.4,0.4,7.5-46.2,29.1-44.2c21.6,2.1,12,38.4,32,39.3c19.9,0.9,12.6-33.8,31-33.8
			c0.2,0,0.4,0,0.6,0.1v118.2c-0.4,2.8-0.6,4.3-0.6,4.3H161.1c0,0-0.2-1.5-0.4-4.3V365.9z"/>
		<path d="M306.5,199.9c-33.4-63.4-7.4-128.7-8-141.8c-0.6-13.2-16.8-23.4-16.8-23.4S265.5,8.4,256,8.4c-9.5,0-25.7,26.3-25.7,26.3
			S214.1,44.9,213.5,58c-0.6,13.2,25.4,78.4-8,141.8c-12.4,29.3-51.4,63.6-58.7,69.8h218.4C358,263.5,318.9,229.2,306.5,199.9z
			 M256,92.7c-8.6,0-15.5-10.6-15.5-23.8c0-13.1,6.9-23.8,15.5-23.8c8.6,0,15.5,10.7,15.5,23.8C271.5,82.1,264.6,92.7,256,92.7z"/>
	</g>
</g>
</svg>
