<?xml version="1.0" encoding="utf-8"?>
<!-- Generator: Adobe Illustrator 22.1.0, SVG Export Plug-In . SVG Version: 6.00 Build 0)  -->
<svg version="1.1" id="Layer_1" xmlns="http://www.w3.org/2000/svg" xmlns:xlink="http://www.w3.org/1999/xlink" x="0px" y="0px"
	 viewBox="0 0 48 48" style="enable-background:new 0 0 48 48;" xml:space="preserve">
<path d="M40.2,2.5H7.7c-3,0-5.4,2.4-5.4,5.4v32.5c0,3,2.4,5.4,5.4,5.4h32.5c3,0,5.4-2.4,5.4-5.4V7.9C45.6,4.9,43.2,2.5,40.2,2.5z
	 M41.9,38.7c0,1.7-1.4,3.1-3.1,3.1H9.2c-1.7,0-3.1-1.4-3.1-3.1v-29c0-1.7,1.4-3.1,3.1-3.1h29.7C40.6,6.6,42,8,42,9.7L41.9,38.7
	L41.9,38.7z"/>
<g>
	<path d="M10.6,15.7c0.6-0.2,1.7-0.3,2.8-0.3c1.5,0,2.5,0.3,3.2,1.1c0.6,0.6,1,1.5,1,2.6c0,1.5-0.7,2.7-2,3.3v0.1
		c1.2,0.3,2.4,1.6,2.4,3.7c0,1.3-0.4,2.3-1,3c-0.8,1-2.1,1.4-4.1,1.4c-1.1,0-1.9-0.1-2.4-0.2L10.6,15.7L10.6,15.7z M12.1,21.9h1.4
		c1.6,0,2.6-1,2.6-2.5c0-1.7-1.1-2.4-2.6-2.4c-0.7,0-1.1,0.1-1.3,0.2L12.1,21.9L12.1,21.9z M12.1,29.1c0.3,0.1,0.7,0.1,1.2,0.1
		c1.6,0,3-0.7,3-2.9c0-2.1-1.4-2.9-3-2.9h-1.2V29.1z"/>
	<path d="M22.1,17.2h-3.6v-1.7h8.7v1.7h-3.6v13.3h-1.5L22.1,17.2L22.1,17.2z"/>
	<path d="M28.5,30.5v-15h1.7l3.7,7.6c0.9,1.7,1.5,3.3,2.1,4.9l0,0c-0.2-2-0.2-3.8-0.2-6.2v-6.3h1.4v15h-1.5l-3.7-7.6
		c-0.8-1.7-1.6-3.4-2.2-5h-0.1c0.1,1.9,0.1,3.7,0.1,6.2v6.4C29.9,30.5,28.5,30.5,28.5,30.5z"/>
</g>
</svg>
