<?xml version="1.0" ?><!DOCTYPE svg  PUBLIC '-//W3C//DTD SVG 1.1//EN'  'http://www.w3.org/Graphics/SVG/1.1/DTD/svg11.dtd'><svg height="512px" style="enable-background:new 0 0 512 512;" version="1.1" viewBox="0 0 512 512" width="512px" xml:space="preserve" xmlns="http://www.w3.org/2000/svg" xmlns:xlink="http://www.w3.org/1999/xlink"><g id="_x31_59_x2C__Twitter_x2C__Image_x2C__Picture"><g id="XMLID_5057_"><g><path d="M470,480H40c-2.63,0-5.21-1.07-7.07-2.931C31.07,475.21,30,472.63,30,470v-70c0-5.51,4.49-10,10-10c5.51,0,10,4.49,10,10     v60h419.78c-5.41-0.12-9.78-4.561-9.78-10V50h-80c-5.51,0-10-4.48-10-10c0-5.51,4.49-10,10-10h90c2.63,0,5.21,1.07,7.069,2.93     C478.93,34.79,480,37.37,480,40v410c0,5.49-4.45,9.97-9.94,10c5.49,0.04,9.94,4.51,9.94,10C480,475.51,475.51,480,470,480z      M40,360c-5.51,0-10-4.49-10-10s4.49-10,10-10c5.51,0,10,4.49,10,10S45.51,360,40,360z M40,310c-5.51,0-10-4.49-10-10V40     c0-2.63,1.07-5.21,2.93-7.07C34.79,31.07,37.37,30,40,30h240c5.51,0,10,4.49,10,10c0,5.52-4.49,10-10,10H50v250     C50,305.51,45.51,310,40,310z M330,50c-5.51,0-10-4.48-10-10c0-5.51,4.49-10,10-10s10,4.49,10,10C340,45.52,335.51,50,330,50z"/></g><g id="XMLID_5058_"><path d="M40,480c-2.67,0-5.18-1.04-7.07-2.931c-3.9-3.899-3.9-10.239,0-14.14l175-175c1.89-1.89,4.4-2.93,7.07-2.93     c2.67,0,5.18,1.04,7.07,2.93l170,170c3.9,3.9,3.9,10.24,0,14.14C390.18,473.96,387.67,475,385,475s-5.181-1.04-7.07-2.931     L263.02,357.16c-0.029-0.03-0.06-0.061-0.09-0.091L215,309.14L47.08,477.06c0,0,0,0.01-0.01,0.01C45.18,478.96,42.67,480,40,480z     "/></g><g id="XMLID_5059_"><path d="M470,370c-2.5,0-4.88-0.92-6.73-2.601L360.33,273.81l-83.261,83.26C275.18,358.96,272.67,360,270,360     s-5.181-1.04-7.07-2.931c-1.89-1.89-2.93-4.399-2.93-7.069s1.04-5.181,2.93-7.07l90-90c1.89-1.89,4.4-2.93,7.07-2.93     c2.49,0,4.88,0.92,6.729,2.6l110,100c4.08,3.71,4.38,10.05,0.67,14.13C475.51,368.81,472.81,370,470,370z"/></g><g id="XMLID_5060_"><path d="M150,210L150,210c-6.75,0-13.3-1.32-19.46-3.93c-5.96-2.52-11.3-6.12-15.89-10.72c-4.6-4.59-8.2-9.93-10.72-15.89     C101.32,173.3,100,166.75,100,160s1.32-13.3,3.93-19.46c2.52-5.96,6.12-11.3,10.72-15.89c4.59-4.59,9.93-8.2,15.89-10.72     c6.16-2.6,12.71-3.93,19.46-3.93s13.3,1.33,19.46,3.93c5.96,2.52,11.3,6.13,15.89,10.72c4.6,4.59,8.2,9.93,10.72,15.89     c2.61,6.16,3.93,12.71,3.93,19.46s-1.32,13.3-3.93,19.46c-2.52,5.96-6.12,11.3-10.72,15.89c-4.59,4.6-9.93,8.2-15.89,10.72     C163.3,208.68,156.75,210,150,210z M150,130c-16.51,0.03-29.97,13.49-30,30c0.03,16.51,13.49,29.97,30,30     c16.51-0.03,29.97-13.49,30-30C179.97,143.49,166.51,130.03,150,130L150,130z"/></g></g></g><g id="Layer_1"/></svg>