<svg width="272" height="272" xmlns="http://www.w3.org/2000/svg">

 <title/>
 <g>
  <title>background</title>
  <rect fill="none" id="canvas_background" height="402" width="582" y="-1" x="-1"/>
 </g>
 <g>
  <title fill="#000000">Layer 1</title>
  <polygon fill="#000000" id="svg_1" points="125.59 176.56 117.19 177 119.36 168.88 122.73 156.31 126.01 168.53 126.88 171.76 125.59 176.56" class="cls-1"/>
  <polygon fill="#000000" id="svg_2" points="123.74 183.46 124.84 183.76 122.78 191.49 113.94 189.12 115.55 183.12 123.95 182.67 123.74 183.46" class="cls-1"/>
  <polygon fill="#000000" id="svg_3" points="132.89 194.19 130.55 193.56 131.63 189.5 132.89 194.19" class="cls-1"/>
  <path fill="#000000" id="svg_4" d="m172.89,10.26l0,0c-3.68,-3.86 -10.34,-2.55 -11.63,2.28l-24.76,92.4l4.14,15.45l27.67,-103.26c5.23,6.24 7.17,14.16 5.21,21.5l-27.39,102.22l4.14,15.46l31,-115.61c2.81,-10.58 -0.33,-22 -8.38,-30.44z" class="cls-1"/>
  <polygon fill="#000000" id="svg_5" points="136.5 195.16 139.63 196 140.11 194.19 136.5 195.16" class="cls-1"/>
  <path fill="#000000" id="svg_6" d="m124,182.67l-8.4,0.45l-12.69,0.67a48.35,48.35 0 0 0 -44.13,36.21l-2.78,10.6c-2.1,7.91 2,16.18 9,18.07a40.33,40.33 0 0 0 10.41,1.33c18.7,0 35.22,-13 40.16,-31.52l7.21,-27l2.06,-7.73l0.31,-1.15l-1.15,0.07zm-14.96,33.73c-6.04,18.31 -24.34,29.29 -41.96,24.54c-2.46,-0.66 -4.43,-4.34 -3.38,-8.28l2.81,-10.57a40.37,40.37 0 0 1 36.77,-30.31l11.3,-0.6l-5.54,25.22z" class="cls-1"/>
  <path fill="#000000" id="svg_7" d="m126.5,168.52l7.68,-0.41l-34.7,-129.48c-2,-7.34 0,-15.25 5.21,-21.5l40.56,151.36l0.64,0l7.76,0.41l-41.91,-156.37c-1.29,-4.83 -8,-6.13 -11.63,-2.28l0,0c-8.05,8.45 -11.19,19.87 -8.35,30.45l41.61,155.3l0.42,-0.11l-7.29,-27.37z" class="cls-1"/>
  <path fill="#000000" id="svg_8" d="m131.86,188.65l-0.23,0.85l-1.08,4.06l-7.22,27.12c-5.54,20.8 -24.73,35.32 -46.67,35.32a50.13,50.13 0 0 1 -13.08,-1.75c-11.46,-3.08 -18.35,-14.65 -15.39,-25.8l2.81,-10.57c6,-22.67 26.16,-38.76 50.08,-40l16.1,-0.85l8.4,-0.44l0.94,0l2.07,-0.11l-2.1,-7.88l9.51,-0.6l-0.2,0l-9.69,0.52l-0.11,0l-6.65,0.35l-18.7,1c-27.34,1.45 -50.46,20 -57.39,46l-2.8,10.53c-4.1,15.41 5.3,31.34 21,35.57a57.72,57.72 0 0 0 15.17,2c25,0 47.77,-16.35 54.4,-41.26l4.74,-17.8l0.2,-0.74l-4.11,-15.52z" class="cls-1"/>
  <path fill="#000000" id="svg_9" d="m213.23,220a48.38,48.38 0 0 0 -44.09,-36.24l-22.27,-1.18l9.56,35.92c4.94,18.56 21.46,31.52 40.16,31.52a40,40 0 0 0 10.41,-1.35c7,-1.88 11.14,-10.15 9.05,-18l-2.82,-10.67zm-5.49,31.58c-17.62,4.75 -35.9,-6.23 -40.76,-24.47l-6.73,-25.29l11.29,0.6a40.41,40.41 0 0 1 36.78,30.31l2.81,10.57c-1.78,-6.7 -3.75,-3.02 -6.21,-2.36l2.82,10.64z" class="cls-1"/>
  <path fill="#000000" id="svg_10" d="m231.54,226.4l-2.81,-10.57c-6.93,-26 -30,-44.52 -57.39,-46l-25.44,-1.34l-9.7,-0.52l-9.7,0.52l9.7,36.42l4.74,17.8c8,29.89 39.11,47.46 69.58,39.24a29.48,29.48 0 0 0 22,-28.25a28.46,28.46 0 0 0 -0.98,-7.3zm-23.1,27.85a50.32,50.32 0 0 1 -13.1,1.75l0,0c-21.95,0 -41.14,-14.52 -46.68,-35.32l-11.88,-44.68l8.68,0.47l25.45,1.34c23.91,1.27 44,17.36 50.08,40l2.81,10.57a20.51,20.51 0 0 1 0.69,5.27a21.46,21.46 0 0 1 -16.05,20.6z" class="cls-1"/>
  <circle fill="#000000" id="svg_11" r="4" cy="156" cx="136" class="cls-1"/>
 </g>
</svg>