<svg width="32" height="32" xmlns="http://www.w3.org/2000/svg">
 <title/>

 <g>
  <title>background</title>
  <rect fill="none" id="canvas_background" height="402" width="582" y="-1" x="-1"/>
 </g>
 <g>
  <title fill="#ffffff">Layer 1</title>
  <path fill="#ffffff" id="svg_1" d="m3.42,13.47l-2.26,-4.39a1,1 0 1 1 1.78,-0.92l1.18,2.3a13.18,13.18 0 0 1 24.56,1.91a1,1 0 0 1 -1.92,0.55a11.18,11.18 0 0 0 -20.88,-1.51l3.28,-1.14a1,1 0 1 1 0.66,1.89l-5.19,1.84a1.25,1.25 0 0 1 -0.32,0a1,1 0 0 1 -0.89,-0.53zm27.42,9.42l-2.25,-4.44a1,1 0 0 0 -1.23,-0.45l-5.18,1.82a1,1 0 0 0 0.66,1.89l3.29,-1.15a11.15,11.15 0 0 1 -20.89,-1.56a1,1 0 0 0 -1.92,0.54a13.14,13.14 0 0 0 24.56,1.93l1.18,2.31a1,1 0 0 0 0.89,0.55a1,1 0 0 0 0.45,-0.11a1,1 0 0 0 0.44,-1.33z"/>
 </g>
</svg>