<svg id="Layer_1" data-name="Layer 1" xmlns="http://www.w3.org/2000/svg" xmlns:xlink="http://www.w3.org/1999/xlink" viewBox="0 0 817.61 595.07"><defs><linearGradient id="linear-gradient" x1="380.87" y1="393.72" x2="382.9" y2="538.49" gradientUnits="userSpaceOnUse"><stop offset="0.01"/><stop offset="0.97" stop-color="#3f3d56" stop-opacity="0"/></linearGradient><linearGradient id="linear-gradient-2" x1="412.6" y1="420.1" x2="384.26" y2="-88.1" gradientUnits="userSpaceOnUse"><stop offset="0.03" stop-color="#fff" stop-opacity="0"/><stop offset="1" stop-color="#fff"/></linearGradient><linearGradient id="linear-gradient-3" x1="892.24" y1="-446.43" x2="317.43" y2="572.36" xlink:href="#linear-gradient"/><linearGradient id="linear-gradient-4" x1="564.32" y1="435.83" x2="656.37" y2="435.83" gradientUnits="userSpaceOnUse"><stop offset="0" stop-color="#183866"/><stop offset="1" stop-color="#1a7fc1"/></linearGradient><linearGradient id="linear-gradient-5" x1="587.95" y1="422.82" x2="613.07" y2="422.82" xlink:href="#linear-gradient-4"/><linearGradient id="linear-gradient-6" x1="386.4" y1="499.36" x2="384.96" y2="547.01" xlink:href="#linear-gradient"/><linearGradient id="linear-gradient-7" x1="260.64" y1="231.56" x2="-1.02" y2="237.57" xlink:href="#linear-gradient-2"/><linearGradient id="linear-gradient-8" x1="323.54" y1="130.98" x2="285.07" y2="171.48" xlink:href="#linear-gradient-2"/><linearGradient id="linear-gradient-9" x1="196" y1="204.56" x2="257.75" y2="361.47" xlink:href="#linear-gradient-2"/><linearGradient id="linear-gradient-10" x1="455.64" y1="106.36" x2="549" y2="319.42" gradientUnits="userSpaceOnUse"><stop offset="0" stop-color="#68e1fd"/><stop offset="1" stop-color="#fff"/></linearGradient><linearGradient id="linear-gradient-11" x1="402.14" y1="90.31" x2="405.17" y2="335.3" xlink:href="#linear-gradient-2"/><linearGradient id="linear-gradient-12" x1="403.92" y1="256.49" x2="406.96" y2="501.48" gradientUnits="userSpaceOnUse"><stop offset="0.03" stop-color="#fff" stop-opacity="0"/><stop offset="0.45" stop-color="#fff" stop-opacity="0.45"/><stop offset="1" stop-color="#fff"/></linearGradient><linearGradient id="linear-gradient-13" x1="403.65" y1="256.49" x2="406.69" y2="501.48" xlink:href="#linear-gradient-2"/><linearGradient id="linear-gradient-14" x1="630" y1="364.18" x2="666.85" y2="364.18" gradientUnits="userSpaceOnUse"><stop offset="0" stop-color="#ecc4d7"/><stop offset="0.16" stop-color="#edcbd5"/><stop offset="0.42" stop-color="#efd4d1"/><stop offset="0.7" stop-color="#f2eac9"/></linearGradient><linearGradient id="linear-gradient-15" x1="562.76" y1="458.48" x2="636.33" y2="445.79" xlink:href="#linear-gradient"/><linearGradient id="linear-gradient-16" x1="581.37" y1="418.6" x2="589.42" y2="418.6" xlink:href="#linear-gradient-14"/></defs><title>15. Analyze on Screen</title><rect x="561.12" y="586.36" width="102.53" height="8.71" rx="3.85" fill="#1d2741" opacity="0.18"/><path d="M384.65,4.07c-31.33,9.69-59,28.31-85.92,47.05Q191.38,125.9,89.82,208.58C66.65,227.43,43.35,247,27.37,272.25c-28.49,45-29.9,103.28-14.09,154.13S60.36,521.8,94.17,562.93c7.31,8.89,15.09,17.92,25.49,22.83s22.58,5.17,34.2,4.82c66.31-2,131.16-19.15,197-27,102.2-12.23,205.55-2,308.44,1,39.23,1.13,81,.53,114.07-20.64s52-62.47,46.44-101.34c-4.83-33.87-26.06-63.27-34-96.55-10.38-43.47,2.74-89.34-3.22-133.64C774,147.86,725.13,94.39,668,63.21,621.16,37.62,567.91,23.5,515.65,13.92,472.38,6,428.32-9.44,384.65,4.07Z" transform="translate(-3.2 1.27)" fill="#68e1fd" opacity="0.18"/><rect x="294.42" y="402.55" width="175.05" height="136.14" fill="#68e1fd"/><rect x="294.42" y="402.55" width="175.05" height="136.14" fill="url(#linear-gradient)" style="isolation:isolate"/><path d="M748.3,91.43V439a47.64,47.64,0,0,1-47.64,47.64H98.9A47.65,47.65,0,0,1,51.25,439V91.43A47.64,47.64,0,0,1,98.9,43.79H700.66A47.63,47.63,0,0,1,748.3,91.43Z" transform="translate(-3.2 1.27)" fill="#68e1fd"/><path d="M748.3,91.43V439a47.64,47.64,0,0,1-47.64,47.64H98.9a47.45,47.45,0,0,1-29-9.81,47.39,47.39,0,0,1-9.81-29V100.3a47.64,47.64,0,0,1,47.64-47.64H709.54a47.36,47.36,0,0,1,29,9.81A47.45,47.45,0,0,1,748.3,91.43Z" transform="translate(-3.2 1.27)" fill="url(#linear-gradient-2)" style="isolation:isolate"/><path d="M748.3,401.28V439a47.64,47.64,0,0,1-47.64,47.64H98.9A47.64,47.64,0,0,1,51.25,439V401.28Z" transform="translate(-3.2 1.27)" fill="url(#linear-gradient-3)" style="isolation:isolate"/><path d="M656.35,427a144.14,144.14,0,0,1-4.72,38.5c-1.7,6.46-3.92,13-8.08,18.19a24.2,24.2,0,0,1-2.82,3H572.46c2.77-12,6.64-27.06,5.28-28.83-6.18-8.08-8.54-18.37-10.68-28.32-1.79-8.33-3.53-16.88-2.36-25.33.14-1,.31-2,.51-2.89,2.91-13.34,24.74-16.13,34.12-16.26l8,16.26c0,7.86,33.84-20.89,39.77-14.58,3.4,3.62,5.54,8.85,6.89,14.58C656,410,656.26,419.91,656.35,427Z" transform="translate(-3.2 1.27)" opacity="0.33" fill="url(#linear-gradient-4)"/><path d="M586.08,417.1,575.4,394.18A63.63,63.63,0,0,1,599.33,385a3.53,3.53,0,0,1,2.47.21,3.58,3.58,0,0,1,1.12,1.48c4.38,8.54,8.76,17.09,12.27,26,1.64,4.16,3.09,8.75,1.76,13-1.63,5.22-6.86,8.32-11.68,10.9C590,444.84,590.67,427,586.08,417.1Z" transform="translate(-3.2 1.27)" fill="#fff"/><path d="M608.28,410.85c-3.18,5.26-5.27,11.1-8.17,16.52-.49.91-1.23,1.95-2.26,1.84a2.55,2.55,0,0,1-1.18-.54,62.08,62.08,0,0,1-8.72-7.21c0,5.89,3.59,11.11,7,15.92a2.61,2.61,0,0,0,.89.89,2.38,2.38,0,0,0,1,.17,21.8,21.8,0,0,0,11.32-3.08,1.3,1.3,0,0,0,.54-.47,1.43,1.43,0,0,0,.12-.74c-.11-5.75-.67-11.75,1.59-17,.69-1.62,1.64-3.13,2.19-4.81.36-1.11,1.08-4.67-.7-5.06C610.52,406.93,608.86,409.89,608.28,410.85Z" transform="translate(-3.2 1.27)" opacity="0.09" fill="url(#linear-gradient-5)"/><path d="M534.15,540.93a12.19,12.19,0,0,1-.84,4.49,12.45,12.45,0,0,1-11.65,8h-273a12.48,12.48,0,0,1-11.65-8,12.19,12.19,0,0,1-.84-4.49,12.48,12.48,0,0,1,12.49-12.49h273A12.49,12.49,0,0,1,534.15,540.93Z" transform="translate(-3.2 1.27)" fill="#68e1fd"/><path d="M534.15,540.93a12.19,12.19,0,0,1-.84,4.49,12.45,12.45,0,0,1-11.65,8h-273a12.48,12.48,0,0,1-11.65-8,12.19,12.19,0,0,1-.84-4.49,12.48,12.48,0,0,1,12.49-12.49h273A12.49,12.49,0,0,1,534.15,540.93Z" transform="translate(-3.2 1.27)" fill="url(#linear-gradient-6)" style="isolation:isolate"/><path d="M533.31,545.42a12.45,12.45,0,0,1-11.65,8h-273a12.48,12.48,0,0,1-11.65-8,12.24,12.24,0,0,1,2.82-4.35,12.45,12.45,0,0,1,8.83-3.66h273A12.48,12.48,0,0,1,533.31,545.42Z" transform="translate(-3.2 1.27)" fill="#68e1fd"/><path d="M156.29,232.77A54.35,54.35,0,0,0,208,287.07v27.08a81.42,81.42,0,0,1,0-162.76v27.08A54.35,54.35,0,0,0,156.29,232.77Z" transform="translate(-3.2 1.27)" fill="url(#linear-gradient-7)" style="isolation:isolate"/><path d="M292.08,232.77a81.25,81.25,0,0,1-29.27,62.53l-17.47-20.68a54.37,54.37,0,0,0-34.69-96.22c-.88,0-1.75,0-2.62.07V151.39c.87,0,1.74,0,2.62,0A81.43,81.43,0,0,1,292.08,232.77Z" transform="translate(-3.2 1.27)" fill="url(#linear-gradient-8)" style="isolation:isolate"/><path d="M262.81,295.3a81.08,81.08,0,0,1-52.16,18.9c-.88,0-1.75,0-2.62-.05V287.07c.87,0,1.74.06,2.62.06a54.17,54.17,0,0,0,34.69-12.51Z" transform="translate(-3.2 1.27)" fill="url(#linear-gradient-9)" style="isolation:isolate"/><rect x="350.21" y="255.05" width="342.04" height="1.99" fill="url(#linear-gradient-10)"/><path d="M349.67,182.23s65.07-9.73,81.52-38.89,50.11-35.9,77,19.44,70.31,60.58,86,41.88,35.9-86,63.57-87.5,37.65,52.35,37.65,52.35v68.06h-342Z" transform="translate(-3.2 1.27)" fill="#68e1fd"/><rect x="352.7" y="281.98" width="103.71" height="7.48" fill="url(#linear-gradient-11)" style="isolation:isolate"/><rect x="352.7" y="304.01" width="103.71" height="7.48" fill="url(#linear-gradient-12)" style="isolation:isolate"/><rect x="352.7" y="326.04" width="103.71" height="7.48" fill="url(#linear-gradient-13)" style="isolation:isolate"/><rect x="503.78" y="281.98" width="12.96" height="7.48" fill="#68e1fd"/><rect x="503.78" y="304.01" width="12.96" height="7.48" fill="#68e1fd"/><rect x="503.78" y="326.04" width="12.96" height="7.48" fill="#68e1fd"/><path d="M630.06,362.15s12.67-23.93,21.47-22.17,17.6,10.91,14.78,17.95S648.9,378,648.45,384.33s-11,3.52-11,3.52l-1.76-13.38S629.35,368.84,630.06,362.15Z" transform="translate(-3.2 1.27)" fill="url(#linear-gradient-14)"/><path d="M652.73,334.34c2.6-.84,5.42-.47,8.08.1s5.55,1.47,7.46,3.5c2.71,2.88,2.92,7.25,4.51,10.88,1.37,3.14,3.83,5.82,4.59,9.16a11.45,11.45,0,0,1-1.55,8.37,17.46,17.46,0,0,1-6.3,5.89c-2.24,1.3-4.69,2.24-6.86,3.66s-3.85,3.16-5.87,4.61a10.48,10.48,0,0,1-6.93,2.33,4.35,4.35,0,0,1-2.61-1.09c-1.35-1.3-1.28-3.45-1.13-5.32q.3-3.39.58-6.79a11.55,11.55,0,0,0,4.06-.53,3.93,3.93,0,0,0,2.6-2.94c.27-2-1.77-3.77-3.81-4s-4,.67-5.86,1.53c-.78-1.61.37-3.46,1.52-4.84a56.52,56.52,0,0,1,5.26-5.46,4.39,4.39,0,0,0,1.48-1.92c.52-1.84-1.33-3.37-2.12-4.82a18,18,0,0,1-1.33-3.84C647.38,339,648.68,335.64,652.73,334.34Z" transform="translate(-3.2 1.27)" fill="#3f3d56"/><path d="M663.16,460.25c-.5,3.31-1.13,6.69-2.81,9.59-5,8.59-16.73,9.87-26.67,9.66-4.81-.09-10.1-.55-14.16-2.84a12.48,12.48,0,0,1-4-3.42c-2.72-3.65-3-8.53-2.87-13.08.15-4.71.6-9.53.67-14.27.09-5.87-.42-11.62-2.82-16.91-1.31-2.9,4.46-13.33,5.67-16.28,1.95-4.73-4.1-1.78-2.15-6.51,2.15-5.21,4.43-10.6,8.65-14.3,6.54-5.7,16-6.05,24.7-6.1,1.4,0,3.34.64,3,2,6.67,1.83,10.23,12.6,11.57,19.37A154.77,154.77,0,0,1,663.16,460.25Z" transform="translate(-3.2 1.27)" fill="#68e1fd"/><path d="M626.94,476.21a36.75,36.75,0,0,1-7.42.45,12.48,12.48,0,0,1-4-3.42c-2.72-3.65-3-8.53-2.87-13.08.15-4.71.6-9.53.67-14.27l13.59-27.29S631.74,475.18,626.94,476.21Z" transform="translate(-3.2 1.27)" fill="url(#linear-gradient-15)" style="isolation:isolate"/><path d="M643.43,479.06l10-2.85s2.77,2.89,0,14.24-3.64,90.28-3.64,90.28l-9-.05-8-73.34s-17.42,62.3-18.48,73.39H603.66s3.72-99.35,11.89-107.49C615.55,473.24,620.38,475.6,643.43,479.06Z" transform="translate(-3.2 1.27)" fill="#3f3d56"/><path d="M610.77,414.47s-3.81,28.18-8.68,27.74-13.27-17.46-13.27-17.46a9.6,9.6,0,0,0-6.2,9.47c0,7.55,7.52,14.63,7.52,14.63S611.83,464.34,618,452s10.3-42.05,10.3-42.05,9.14-23-.07-21.43C615.63,390.57,610.77,414.47,610.77,414.47Z" transform="translate(-3.2 1.27)" fill="#68e1fd"/><path d="M582.69,422.43a19.09,19.09,0,0,1-.44-12.72,3.08,3.08,0,0,1,1.25,1.67l2.7,6.13a12.62,12.62,0,0,0,2.33-2.72,1.86,1.86,0,0,1,.87,1.95,12.29,12.29,0,0,1-.7,2.18,13.41,13.41,0,0,0-.08,5.95,20.61,20.61,0,0,1-2.13,1.7c-.64.44-1.48,1.28-2,.73s-.57-1.94-.83-2.56S583,423.21,582.69,422.43Z" transform="translate(-3.2 1.27)" fill="url(#linear-gradient-16)"/><path d="M614.22,580.73l-1.32,10.6H589.14s1.59-7.43,14.52-10.6Z" transform="translate(-3.2 1.27)" fill="#3f3d56"/><path d="M650.16,580.73l.84,10.6H625.08s1.58-7.43,14.52-10.6Z" transform="translate(-3.2 1.27)" fill="#3f3d56"/></svg>