<svg xmlns="http://www.w3.org/2000/svg" viewBox="0 0 1000 1000"><defs><style>.cls-1{isolation:isolate;}.cls-16,.cls-18,.cls-2,.cls-20,.cls-21,.cls-22,.cls-23,.cls-24,.cls-6{fill:none;}.cls-3{fill:#c9c9c9;}.cls-4{fill:#cecece;}.cls-5{fill:#fff;}.cls-6,.cls-8{stroke:#1f3969;}.cls-16,.cls-18,.cls-20,.cls-21,.cls-22,.cls-23,.cls-24,.cls-6,.cls-8{stroke-linecap:round;stroke-linejoin:round;}.cls-20,.cls-21,.cls-22,.cls-23,.cls-24,.cls-6,.cls-8{stroke-width:4px;}.cls-7{fill:#ff3e3e;}.cls-19,.cls-8{fill:#1f3969;}.cls-8{opacity:0.28;}.cls-9{fill:#50b56f;}.cls-10{fill:#5f5aff;}.cls-11{fill:#f6f9fd;}.cls-12{fill:#bfcfe2;}.cls-13{fill:#2d425e;}.cls-14{fill:#d0ddf0;}.cls-15{fill:#2aa1ff;}.cls-16,.cls-18,.cls-20{stroke:#fff;}.cls-16,.cls-18{stroke-width:2px;}.cls-16,.cls-17{opacity:0.34;mix-blend-mode:screen;}.cls-21{stroke:#7bffa0;}.cls-22{stroke:#9169ff;}.cls-23{stroke:#ffc47d;}.cls-24{stroke:#ff5757;}.cls-25{fill:#ffa364;}.cls-26{fill:#ff5252;}.cls-27,.cls-28{fill:#6567c3;}.cls-28{mix-blend-mode:overlay;}</style></defs><title>coding</title><g class="cls-1"><g id="Layer_1" data-name="Layer 1"><rect class="cls-2" width="1000" height="1000"/><g id="_Group_" data-name="&lt;Group&gt;"><rect id="_Rectangle_" data-name="&lt;Rectangle&gt;" class="cls-3" x="160.16" y="648.3" width="638.33" height="18" rx="9" ry="9"/><g id="_Group_2" data-name="&lt;Group&gt;"><g id="_Group_3" data-name="&lt;Group&gt;"><path id="_Path_" data-name="&lt;Path&gt;" class="cls-4" d="M137.93,363.39a17.34,17.34,0,0,1,0-34.68h98v34.68Z" transform="translate(147.96 209.9)"/><path id="_Rectangle_2" data-name="&lt;Rectangle&gt;" class="cls-5" d="M285.89,532.6H389.6a0,0,0,0,1,0,0v46.68a0,0,0,0,1,0,0H285.89a23.34,23.34,0,0,1-23.34-23.34v0a23.34,23.34,0,0,1,23.34-23.34Z"/><line id="_Path_2" data-name="&lt;Path&gt;" class="cls-6" x1="279.55" y1="550.57" x2="383.93" y2="550.57"/><line id="_Path_3" data-name="&lt;Path&gt;" class="cls-6" x1="279.55" y1="561.16" x2="383.93" y2="561.16"/><path id="_Path_4" data-name="&lt;Path&gt;" class="cls-6" d="M137.93,363.39a17.34,17.34,0,0,1,0-34.68h98v34.68Z" transform="translate(147.96 209.9)"/><path id="_Path_5" data-name="&lt;Path&gt;" class="cls-7" d="M137.93,363.39a17.34,17.34,0,0,1,0-34.68h99.72l4-6H137.94a23.34,23.34,0,0,0-23.35,23.34h0a23.34,23.34,0,0,0,23.35,23.34H241.65l-4-6Z" transform="translate(147.96 209.9)"/><path id="_Path_6" data-name="&lt;Path&gt;" class="cls-6" d="M137.93,363.39a17.34,17.34,0,0,1,0-34.68h99.72l4-6H137.94a23.34,23.34,0,0,0-23.35,23.34h0a23.34,23.34,0,0,0,23.35,23.34H241.65l-4-6Z" transform="translate(147.96 209.9)"/><rect id="_Rectangle_3" data-name="&lt;Rectangle&gt;" class="cls-8" x="348.91" y="532.6" width="18.39" height="46.68"/></g><g id="_Group_4" data-name="&lt;Group&gt;"><rect id="_Rectangle_4" data-name="&lt;Rectangle&gt;" class="cls-9" x="182.27" y="579.29" width="203.43" height="38.56" rx="6.76" ry="6.76"/><rect id="_Rectangle_5" data-name="&lt;Rectangle&gt;" class="cls-6" x="182.27" y="579.29" width="203.43" height="38.56" rx="6.76" ry="6.76"/></g><path id="_Path_7" data-name="&lt;Path&gt;" class="cls-8" d="M231,369.39H201v15A17.06,17.06,0,0,0,218,401.45h19.71c0-.09,0-.17,0-.26v-25A6.76,6.76,0,0,0,231,369.39Z" transform="translate(147.96 209.9)"/><path id="_Path_8" data-name="&lt;Path&gt;" class="cls-4" d="M284.43,415.69H64.49a32.8,32.8,0,0,1,0,22.72H284.43a32.8,32.8,0,0,1,0-22.72Z" transform="translate(147.96 209.9)"/><rect id="_Rectangle_6" data-name="&lt;Rectangle&gt;" class="cls-10" x="206.48" y="619.54" width="231.87" height="6.04"/><rect id="_Rectangle_7" data-name="&lt;Rectangle&gt;" class="cls-6" x="206.48" y="619.54" width="231.87" height="6.04"/><rect id="_Rectangle_8" data-name="&lt;Rectangle&gt;" class="cls-11" x="206.48" y="648.3" width="231.87" height="6.04"/><rect id="_Rectangle_9" data-name="&lt;Rectangle&gt;" class="cls-10" x="206.48" y="648.3" width="231.87" height="6.04"/><rect id="_Rectangle_10" data-name="&lt;Rectangle&gt;" class="cls-6" x="206.48" y="648.3" width="231.87" height="6.04"/><path id="_Path_9" data-name="&lt;Path&gt;" class="cls-12" d="M405.68,423.1l-3-33.65H353.25l-3,33.65c-.7,7.82-5.4,15.31-12.78,21.28v.07h81v-.07C411.08,438.41,406.38,430.92,405.68,423.1Z" transform="translate(147.96 209.9)"/><polygon id="_Path_10" data-name="&lt;Path&gt;" class="cls-8" points="501.21 599.35 499.4 619.54 552.43 619.54 550.62 599.35 501.21 599.35"/><path id="_Path_11" data-name="&lt;Path&gt;" class="cls-6" d="M405.68,423.1l-3-33.65H353.25l-3,33.65c-.7,7.82-5.4,15.31-12.78,21.28v.07h81v-.07C411.08,438.41,406.38,430.92,405.68,423.1Z" transform="translate(147.96 209.9)"/><rect id="_Rectangle_11" data-name="&lt;Rectangle&gt;" class="cls-5" x="355.91" y="374.35" width="340" height="230" rx="12" ry="12"/><rect id="_Rectangle_12" data-name="&lt;Rectangle&gt;" class="cls-12" x="355.91" y="374.35" width="340" height="230" rx="12" ry="12"/><rect id="_Rectangle_13" data-name="&lt;Rectangle&gt;" class="cls-6" x="355.91" y="374.35" width="340" height="230" rx="12" ry="12"/><rect id="_Rectangle_14" data-name="&lt;Rectangle&gt;" class="cls-11" x="290.66" y="115.75" width="174.59" height="306" transform="translate(794.66 100.68) rotate(90)"/><path id="_Path_12" data-name="&lt;Path&gt;" class="cls-8" d="M236,164.45V303a8,8,0,0,0,8,8H433a8,8,0,0,0,8-8V164.45Z" transform="translate(147.96 209.9)"/><rect id="_Rectangle_15" data-name="&lt;Rectangle&gt;" class="cls-6" x="290.66" y="115.75" width="174.59" height="306" transform="translate(794.66 100.68) rotate(90)"/><line id="_Path_13" data-name="&lt;Path&gt;" class="cls-6" x1="512.47" y1="585.05" x2="539.36" y2="585.05"/><rect id="_Rectangle_16" data-name="&lt;Rectangle&gt;" class="cls-13" x="392.93" y="345.65" width="205.07" height="164.29" rx="8" ry="8"/><path id="_Rectangle_17" data-name="&lt;Rectangle&gt;" class="cls-6" d="M400.93,345.65H590a8,8,0,0,1,8,8v11.45a0,0,0,0,1,0,0H392.93a0,0,0,0,1,0,0V353.65A8,8,0,0,1,400.93,345.65Z"/><path id="_Rectangle_18" data-name="&lt;Rectangle&gt;" class="cls-14" d="M400.93,345.65H590a8,8,0,0,1,8,8v15.26a0,0,0,0,1,0,0H392.93a0,0,0,0,1,0,0V353.65A8,8,0,0,1,400.93,345.65Z"/><path id="_Rectangle_19" data-name="&lt;Rectangle&gt;" class="cls-6" d="M400.93,345.65H590a8,8,0,0,1,8,8v15.26a0,0,0,0,1,0,0H392.93a0,0,0,0,1,0,0V353.65A8,8,0,0,1,400.93,345.65Z"/><path id="_Rectangle_20" data-name="&lt;Rectangle&gt;" class="cls-6" d="M400.93,345.65H590a8,8,0,0,1,8,8v15.26a0,0,0,0,1,0,0H392.93a0,0,0,0,1,0,0V353.65A8,8,0,0,1,400.93,345.65Z"/><rect id="_Rectangle_21" data-name="&lt;Rectangle&gt;" class="cls-6" x="392.93" y="345.65" width="205.07" height="164.29" rx="8" ry="8"/><g id="_Group_5" data-name="&lt;Group&gt;"><rect id="_Rectangle_22" data-name="&lt;Rectangle&gt;" class="cls-8" x="564.67" y="406.4" width="132.02" height="138.95" rx="8" ry="8"/><rect id="_Rectangle_23" data-name="&lt;Rectangle&gt;" class="cls-15" x="572.67" y="399.4" width="132.02" height="138.95" rx="8" ry="8"/><rect id="_Rectangle_24" data-name="&lt;Rectangle&gt;" class="cls-6" x="572.67" y="399.4" width="132.02" height="138.95" rx="8" ry="8"/><rect id="_Rectangle_25" data-name="&lt;Rectangle&gt;" class="cls-16" x="592.69" y="419.34" width="91.9" height="18.13" rx="5.17" ry="5.17"/><g id="_Group_6" data-name="&lt;Group&gt;" class="cls-17"><rect id="_Rectangle_26" data-name="&lt;Rectangle&gt;" class="cls-18" x="592.77" y="448.65" width="55.98" height="18.13" rx="5.17" ry="5.17"/><rect id="_Rectangle_27" data-name="&lt;Rectangle&gt;" class="cls-18" x="656.68" y="448.65" width="27.99" height="18.13" rx="5.17" ry="5.17"/></g><g id="_Group_7" data-name="&lt;Group&gt;"><line id="_Path_14" data-name="&lt;Path&gt;" class="cls-18" x1="592.69" y1="497.23" x2="684.59" y2="497.23"/><line id="_Path_15" data-name="&lt;Path&gt;" class="cls-18" x1="592.69" y1="508.02" x2="684.59" y2="508.02"/><line id="_Path_16" data-name="&lt;Path&gt;" class="cls-18" x1="592.69" y1="518.81" x2="648.67" y2="518.81"/></g></g><circle id="_Path_17" data-name="&lt;Path&gt;" class="cls-19" cx="413" cy="357.29" r="4"/><circle id="_Path_18" data-name="&lt;Path&gt;" class="cls-19" cx="426.89" cy="357.29" r="4"/><circle id="_Path_19" data-name="&lt;Path&gt;" class="cls-19" cx="440.77" cy="357.29" r="4"/><g id="_Group_8" data-name="&lt;Group&gt;"><line id="_Path_20" data-name="&lt;Path&gt;" class="cls-20" x1="510.74" y1="387.38" x2="523.67" y2="387.38"/><line id="_Path_21" data-name="&lt;Path&gt;" class="cls-21" x1="444.77" y1="387.38" x2="501.15" y2="387.38"/><line id="_Path_22" data-name="&lt;Path&gt;" class="cls-22" x1="417" y1="387.38" x2="436.77" y2="387.38"/></g><g id="_Group_9" data-name="&lt;Group&gt;"><line id="_Path_23" data-name="&lt;Path&gt;" class="cls-22" x1="442.77" y1="485.94" x2="485.83" y2="485.94"/><line id="_Path_24" data-name="&lt;Path&gt;" class="cls-21" x1="417" y1="485.94" x2="430.89" y2="485.94"/></g><g id="_Group_10" data-name="&lt;Group&gt;"><line id="_Path_25" data-name="&lt;Path&gt;" class="cls-20" x1="501.15" y1="399.7" x2="509.16" y2="399.7"/><line id="_Path_26" data-name="&lt;Path&gt;" class="cls-22" x1="464.28" y1="399.7" x2="491.51" y2="399.7"/><line id="_Path_27" data-name="&lt;Path&gt;" class="cls-23" x1="426.89" y1="399.7" x2="454.63" y2="399.7"/></g><g id="_Group_11" data-name="&lt;Group&gt;"><line id="_Path_28" data-name="&lt;Path&gt;" class="cls-20" x1="469.83" y1="412.02" x2="493.67" y2="412.02"/><line id="_Path_29" data-name="&lt;Path&gt;" class="cls-24" x1="439.77" y1="412.02" x2="462.25" y2="412.02"/></g><g id="_Group_12" data-name="&lt;Group&gt;"><line id="_Path_30" data-name="&lt;Path&gt;" class="cls-20" x1="473.01" y1="424.34" x2="477.95" y2="424.34"/><line id="_Path_31" data-name="&lt;Path&gt;" class="cls-22" x1="453.19" y1="424.34" x2="464.28" y2="424.34"/><line id="_Path_32" data-name="&lt;Path&gt;" class="cls-21" x1="426.89" y1="424.34" x2="444.77" y2="424.34"/></g><g id="_Group_13" data-name="&lt;Group&gt;"><line id="_Path_33" data-name="&lt;Path&gt;" class="cls-23" x1="465.29" y1="436.66" x2="497.18" y2="436.66"/><line id="_Path_34" data-name="&lt;Path&gt;" class="cls-24" x1="426.89" y1="436.66" x2="455.51" y2="436.66"/></g><g id="_Group_14" data-name="&lt;Group&gt;"><line id="_Path_35" data-name="&lt;Path&gt;" class="cls-22" x1="502.18" y1="448.98" x2="519.52" y2="448.98"/><line id="_Path_36" data-name="&lt;Path&gt;" class="cls-24" x1="465.29" y1="448.98" x2="493.04" y2="448.98"/><line id="_Path_37" data-name="&lt;Path&gt;" class="cls-21" x1="439.77" y1="448.98" x2="455.51" y2="448.98"/></g><g id="_Group_15" data-name="&lt;Group&gt;"><line id="_Path_38" data-name="&lt;Path&gt;" class="cls-20" x1="477.89" y1="461.3" x2="493.04" y2="461.3"/><line id="_Path_39" data-name="&lt;Path&gt;" class="cls-22" x1="439.77" y1="461.3" x2="467.51" y2="461.3"/></g><g id="_Group_16" data-name="&lt;Group&gt;"><line id="_Path_40" data-name="&lt;Path&gt;" class="cls-20" x1="517.2" y1="473.62" x2="534.5" y2="473.62"/><line id="_Path_41" data-name="&lt;Path&gt;" class="cls-23" x1="464.28" y1="473.62" x2="507.85" y2="473.62"/><line id="_Path_42" data-name="&lt;Path&gt;" class="cls-20" x1="426.89" y1="473.62" x2="454.63" y2="473.62"/></g><line id="_Path_43" data-name="&lt;Path&gt;" class="cls-6" x1="214.9" y1="632.52" x2="430.36" y2="632.52"/><line id="_Path_44" data-name="&lt;Path&gt;" class="cls-6" x1="214.9" y1="640.54" x2="430.36" y2="640.54"/><path id="_Path_45" data-name="&lt;Path&gt;" class="cls-6" d="M284.43,415.69H64.49a32.8,32.8,0,0,1,0,22.72H284.43a32.8,32.8,0,0,1,0-22.72Z" transform="translate(147.96 209.9)"/></g><g id="_Group_17" data-name="&lt;Group&gt;"><g id="_Group_18" data-name="&lt;Group&gt;"><rect id="_Rectangle_28" data-name="&lt;Rectangle&gt;" class="cls-25" x="574.8" y="334.55" width="9.81" height="72.65" transform="translate(108.67 280.01) rotate(-6.69)"/><rect id="_Rectangle_29" data-name="&lt;Rectangle&gt;" class="cls-15" x="571" y="334.77" width="9.81" height="7.39" transform="translate(112.42 279.34) rotate(-6.69)"/><rect id="_Rectangle_30" data-name="&lt;Rectangle&gt;" class="cls-6" x="571" y="334.77" width="9.81" height="7.39" transform="translate(112.42 279.34) rotate(-6.69)"/><rect id="_Rectangle_31" data-name="&lt;Rectangle&gt;" class="cls-6" x="574.8" y="334.55" width="9.81" height="72.65" transform="translate(108.67 280.01) rotate(-6.69)"/></g><g id="_Group_19" data-name="&lt;Group&gt;"><rect id="_Rectangle_32" data-name="&lt;Rectangle&gt;" class="cls-26" x="593.48" y="348.17" width="9.81" height="72.65" transform="translate(193.01 147.48) rotate(6.2)"/><rect id="_Rectangle_33" data-name="&lt;Rectangle&gt;" class="cls-6" x="593.48" y="348.17" width="9.81" height="72.65" transform="translate(193.01 147.48) rotate(6.2)"/><rect id="_Rectangle_34" data-name="&lt;Rectangle&gt;" class="cls-13" x="597.01" y="348.36" width="9.81" height="7.39" transform="translate(189.52 146.91) rotate(6.2)"/><rect id="_Rectangle_35" data-name="&lt;Rectangle&gt;" class="cls-6" x="597.01" y="348.36" width="9.81" height="7.39" transform="translate(189.52 146.91) rotate(6.2)"/></g><polygon id="_Path_46" data-name="&lt;Path&gt;" class="cls-27" points="761.07 654.57 721.81 654.57 715.42 594.39 767.46 594.39 761.07 654.57"/><polygon id="_Path_47" data-name="&lt;Path&gt;" class="cls-28" points="715.42 594.39 715.54 595.5 755.18 595.5 748.91 654.57 761.07 654.57 767.46 594.39 715.42 594.39"/><polygon id="_Path_48" data-name="&lt;Path&gt;" class="cls-6" points="761.07 654.57 721.81 654.57 715.42 594.39 767.46 594.39 761.07 654.57"/></g></g></g></g></svg>