<svg id="Layer_1" data-name="Layer 1" xmlns="http://www.w3.org/2000/svg" xmlns:xlink="http://www.w3.org/1999/xlink" viewBox="0 0 1000 1000"><defs><style>.cls-1{fill:#9f4b22;}.cls-10,.cls-19,.cls-2,.cls-44,.cls-46,.cls-7{fill:none;}.cls-3{fill:#ffeb3b;}.cls-4{fill:#f57f17;}.cls-5{fill:#ffc107;}.cls-6{fill:#ff6f00;}.cls-10,.cls-48,.cls-7{stroke:#3f2522;}.cls-10,.cls-19,.cls-44,.cls-46,.cls-48,.cls-7{stroke-linecap:round;stroke-linejoin:round;}.cls-19,.cls-44,.cls-46,.cls-48,.cls-7{stroke-width:6px;}.cls-48,.cls-8{fill:#ff9800;}.cls-27,.cls-38,.cls-9{fill:#026060;}.cls-9{opacity:0.14;}.cls-10{stroke-width:8px;}.cls-11{fill:#f1e4e5;}.cls-12{fill:#ddd4d5;}.cls-13,.cls-23{fill:#3f2522;}.cls-14{fill:#6b352f;}.cls-15{fill:#a35d58;opacity:0.48;}.cls-16{fill:#602c29;}.cls-17{mask:url(#mask);}.cls-18{opacity:0.56;}.cls-19{stroke:#dd795b;}.cls-20{fill:#bdced9;}.cls-21,.cls-26{fill:#fff;}.cls-21{opacity:0.26;}.cls-22{fill:#acc1cc;}.cls-23{stroke:#000;stroke-miterlimit:10;}.cls-24{fill:#301b19;opacity:0.76;}.cls-25{fill:#38beb3;}.cls-26{opacity:0.23;}.cls-27{opacity:0.32;}.cls-28{fill:#9bc7bc;}.cls-29{fill:#72a596;opacity:0.47;}.cls-30{fill:#94af4a;}.cls-31{fill:#ec2731;}.cls-32{fill:#d3112e;}.cls-33{fill:#ffa4ad;opacity:0.51;}.cls-34{fill:#48633b;}.cls-35{fill:#bfbc47;}.cls-36{fill:#4d9358;}.cls-37{fill:#f44336;}.cls-38{opacity:0.05;}.cls-39{fill:#92d3d1;opacity:0.15;}.cls-40{fill:#ab5647;}.cls-41{fill:#ffbba6;opacity:0.21;}.cls-42{fill:#9b4f45;}.cls-43{fill:#8c443e;}.cls-44{stroke:#00c0f4;}.cls-45{fill:#2196f3;}.cls-46{stroke:#fff;opacity:0.4;}.cls-47{fill:#cc253d;}.cls-49{fill:#3e454f;}</style><mask id="mask" x="228.5" y="447.06" width="137.35" height="225.97" maskUnits="userSpaceOnUse"><g transform="translate(198)"><g id="_Group_" data-name="&lt;Group&gt;"><path id="_Path_" data-name="&lt;Path&gt;" class="cls-1" d="M94.32,642.16h0c-16.2,0-29.85-13.36-30.51-30.51L58.32,470.16h72l-5.48,141.49C124.17,628.8,110.52,642.16,94.32,642.16Z"/></g></g></mask></defs><title>customize</title><rect id="_Rectangle_" data-name="&lt;Rectangle&gt;" class="cls-2" width="1000" height="1000"/><rect id="_Rectangle_2" data-name="&lt;Rectangle&gt;" class="cls-3" x="642.55" y="3" width="150" height="358.19"/><path id="_Path_2" data-name="&lt;Path&gt;" class="cls-4" d="M564.55,60.5V111a15,15,0,0,1-15,15h0a15,15,0,0,1-15-15V43a15,15,0,0,0-15-15h0a15,15,0,0,0-15,15v68a15,15,0,0,1-15,15h0a15,15,0,0,1-15-15V88a15,15,0,0,0-15-15h0a15,15,0,0,0-15,15V349.19h150V60.5a15,15,0,0,0-15-15h0A15,15,0,0,0,564.55,60.5Z" transform="translate(198)"/><path id="_Path_3" data-name="&lt;Path&gt;" class="cls-5" d="M564.55,72.5V123a15,15,0,0,1-15,15h0a15,15,0,0,1-15-15V55a15,15,0,0,0-15-15h0a15,15,0,0,0-15,15v68a15,15,0,0,1-15,15h0a15,15,0,0,1-15-15V100a15,15,0,0,0-15-15h0a15,15,0,0,0-15,15V361.19h150V72.5a15,15,0,0,0-15-15h0A15,15,0,0,0,564.55,72.5Z" transform="translate(198)"/><path id="_Path_4" data-name="&lt;Path&gt;" class="cls-6" d="M564.55,168.33v71.06a15,15,0,0,1-15,15h0a15,15,0,0,1-15-15v-36.8a15,15,0,0,0-15-15h0a15,15,0,0,0-15,15v36.8a15,15,0,0,1-15,15h0a15,15,0,0,1-15-15v-50.5a15,15,0,0,0-15-15h0a15,15,0,0,0-15,15v164h150V168.33a15,15,0,0,0-15-15h0A15,15,0,0,0,564.55,168.33Z" transform="translate(198)"/><path id="_Path_5" data-name="&lt;Path&gt;" class="cls-7" d="M564.55,72.5V123a15,15,0,0,1-15,15h0a15,15,0,0,1-15-15V55a15,15,0,0,0-15-15h0a15,15,0,0,0-15,15v68a15,15,0,0,1-15,15h0a15,15,0,0,1-15-15V100a15,15,0,0,0-15-15h0a15,15,0,0,0-15,15V361.19h150V72.5a15,15,0,0,0-15-15h0A15,15,0,0,0,564.55,72.5Z" transform="translate(198)"/><path id="_Path_6" data-name="&lt;Path&gt;" class="cls-8" d="M564.55,181.33v71.06a15,15,0,0,1-15,15h0a15,15,0,0,1-15-15v-36.8a15,15,0,0,0-15-15h0a15,15,0,0,0-15,15v36.8a15,15,0,0,1-15,15h0a15,15,0,0,1-15-15v-50.5a15,15,0,0,0-15-15h0a15,15,0,0,0-15,15v164h150V181.33a15,15,0,0,0-15-15h0A15,15,0,0,0,564.55,181.33Z" transform="translate(198)"/><rect id="_Rectangle_3" data-name="&lt;Rectangle&gt;" class="cls-9" x="642.5" y="325" width="150.05" height="36.19"/><path id="_Path_7" data-name="&lt;Path&gt;" class="cls-7" d="M564.55,181.33v71.06a15,15,0,0,1-15,15h0a15,15,0,0,1-15-15v-36.8a15,15,0,0,0-15-15h0a15,15,0,0,0-15,15v36.8a15,15,0,0,1-15,15h0a15,15,0,0,1-15-15v-50.5a15,15,0,0,0-15-15h0a15,15,0,0,0-15,15v164h150V181.33a15,15,0,0,0-15-15h0A15,15,0,0,0,564.55,181.33Z" transform="translate(198)"/><rect id="_Rectangle_4" data-name="&lt;Rectangle&gt;" class="cls-7" x="642.55" y="3" width="150" height="358.19"/><path id="_Path_8" data-name="&lt;Path&gt;" class="cls-10" d="M517.16,514.42V492.73a26.27,26.27,0,0,1,26.27-26.27h77.39a26.27,26.27,0,0,0,26.27-26.27V417.46a26.27,26.27,0,0,0-26.27-26.27H597.09" transform="translate(198)"/><path id="_Path_9" data-name="&lt;Path&gt;" class="cls-11" d="M366.43,382.14l-28.16-51.06a2.42,2.42,0,0,0-4.23,0l-28.1,51v9.21h60.49Z" transform="translate(198)"/><path id="_Path_10" data-name="&lt;Path&gt;" class="cls-12" d="M338.27,331.08a2.42,2.42,0,0,0-4.23,0l-3.15,5.71,26.21,47.52v6.94h9.33v-9.11Z" transform="translate(198)"/><path id="_Path_11" data-name="&lt;Path&gt;" class="cls-7" d="M366.43,382.14l-28.16-51.06a2.42,2.42,0,0,0-4.23,0l-28.1,51v9.21h60.49Z" transform="translate(198)"/><path id="_Path_12" data-name="&lt;Path&gt;" class="cls-7" d="M347,346.91l-8.73-15.83a2.42,2.42,0,0,0-4.23,0l-8.73,15.83Z" transform="translate(198)"/><path id="_Path_13" data-name="&lt;Path&gt;" class="cls-13" d="M347,346.91l-8.73-15.83a2.42,2.42,0,0,0-4.23,0l-8.73,15.83Z" transform="translate(198)"/><path id="_Path_14" data-name="&lt;Path&gt;" class="cls-14" d="M94.32,642.16h0c-16.2,0-29.85-13.36-30.51-30.51L58.32,470.16h72l-5.48,141.49C124.17,628.8,110.52,642.16,94.32,642.16Z" transform="translate(198)"/><path id="_Path_15" data-name="&lt;Path&gt;" class="cls-15" d="M64.53,617.33h0A13.75,13.75,0,0,0,78.27,603l-5-118.51a15,15,0,0,0-14.95-14.33h0l5.49,141.49A32,32,0,0,0,64.53,617.33Z" transform="translate(198)"/><path id="_Path_16" data-name="&lt;Path&gt;" class="cls-16" d="M130.32,470.16a16.77,16.77,0,0,0-16.75,16.12L109,603.84C108.35,621,94.7,634.36,78.5,634.36a30.08,30.08,0,0,1-4.57-.36,29.88,29.88,0,0,0,20.39,8.16h0c16.2,0,29.85-13.36,30.52-30.51l5.48-141.49Z" transform="translate(198)"/><g class="cls-17"><g id="_Group_2" data-name="&lt;Group&gt;" class="cls-18"><path id="_Path_17" data-name="&lt;Path&gt;" class="cls-19" d="M33.5,464.5c.11,11.62,47.11,8.34,54.75,29.5,7.56,20.94-33.18,38.84-46.25,92.5-6.32,26-3.67,50.14,2.25,52.34,7.54,2.8,12.87-36.58,38.25-40.09,15.64-2.16,28,9,43.25,28.25,23.11,29.17,24.8,43.82,30.75,43,7.71-1.06,17.73-61.92-9.5-82-16.13-11.9-35-3.5-45.33-16.33-9.8-12.18-2.14-29.86.23-35.83,1.56-3.92,12.33-23.34,29.43-36.17,5.93-4.45,10.13-3.91,13.67-8.67,5.51-7.4,6.81-20.29,0-29.5-9.24-12.49-28.92-11.58-37.5-4s6.07,15.31,0,18c-10.62,4.7-20.61-28.23-41.75-25.25C50.6,452.38,33.43,457.45,33.5,464.5Z" transform="translate(198)"/><path id="_Path_18" data-name="&lt;Path&gt;" class="cls-19" d="M41.25,495.75c10.2-8.06,21.24-10.7,27.75-6.42.79.53,4.43,3.07,5,7.17.73,5.24-4,9.7-8.5,14-5.23,5-12.78,12.43-22.5,22.5" transform="translate(198)"/><path id="_Path_19" data-name="&lt;Path&gt;" class="cls-19" d="M78.5,462.5C85,469,93.75,486.6,108,486.6c13.75,0,16.12-26.43,22.32-24.1,2.2.82,7.62,5.44,7.93,7.83.66,5.12-3.9,9.6-8.44,13.17a217.29,217.29,0,0,0-28.1,26.3c-6.52,7.25-18,24.2-19.89,40-1.14,9.25-1.16,21.82,4.68,30.68,9.73,14.77,36.65,18.62,66,8.5" transform="translate(198)"/><path id="_Path_20" data-name="&lt;Path&gt;" class="cls-19" d="M144.33,514c-9-3.57-27.11,13.17-29.66,31-.34,2.34-2,13.79,4.33,18.33,6.79,4.89,19.51-.58,26-8C156.51,542.18,153.19,517.52,144.33,514Z" transform="translate(198)"/><path id="_Path_21" data-name="&lt;Path&gt;" class="cls-19" d="M55.33,586.33c-.38-1.33-5.2-19,3.88-28,1.17-1.15,7.19-6.46,10.79-.6,2.66,4.34,3.32,19.52-2.17,31.6-5,11.12-15.13,15.84-19.83,19" transform="translate(198)"/><path id="_Path_22" data-name="&lt;Path&gt;" class="cls-19" d="M66.33,651c-3.39-13.18,1.47-28.33,11.34-34.25A25,25,0,0,1,90,613.44c7,.25,11.88,4,14.49,6.06,0,0,14.82,11.73,14.23,35.82,0,.31,0,.64,0,.64a48,48,0,0,1-2.21,13.29" transform="translate(198)"/><path id="_Path_23" data-name="&lt;Path&gt;" class="cls-19" d="M88.75,648c-4.77-5.07-5.22-11.89-2.08-15.67,2.9-3.49,8.15-3.49,11.33-2.58,6.13,1.77,10.59,8.69,10.67,17.25" transform="translate(198)"/></g></g><path id="_Path_24" data-name="&lt;Path&gt;" class="cls-20" d="M130.32,470.16h-72c.73-27.34,6.4-47.85,14.34-61.66H116C123.93,422.31,129.6,442.82,130.32,470.16Z" transform="translate(198)"/><path id="_Path_25" data-name="&lt;Path&gt;" class="cls-21" d="M72.66,408.5c-7.94,13.81-13.61,34.32-14.34,61.66h0a14,14,0,0,0,13.91-12.73c1.89-21.07,7-37.36,13.6-48.93Z" transform="translate(198)"/><path id="_Rectangle_5" data-name="&lt;Rectangle&gt;" class="cls-22" d="M269.5,408.5h46.33a0,0,0,0,1,0,0v15.67a0,0,0,0,1,0,0H284.92a15.42,15.42,0,0,1-15.42-15.42v-.25A0,0,0,0,1,269.5,408.5Z"/><path id="_Path_26" data-name="&lt;Path&gt;" class="cls-22" d="M116,408.5H98.92c7.93,13.81,13.61,34.32,14.33,61.66h17.07C129.6,442.82,123.93,422.31,116,408.5Z" transform="translate(198)"/><path id="_Path_27" data-name="&lt;Path&gt;" class="cls-7" d="M130.32,470.16h-72c.73-27.34,6.4-47.85,14.34-61.66H116C123.93,422.31,129.6,442.82,130.32,470.16Z" transform="translate(198)"/><rect id="_Rectangle_6" data-name="&lt;Rectangle&gt;" class="cls-20" x="260.32" y="384.5" width="64" height="24" rx="12" ry="12"/><ellipse id="_Path_28" data-name="&lt;Path&gt;" class="cls-21" cx="266.3" cy="396.5" rx="6.13" ry="7.97"/><path id="_Path_29" data-name="&lt;Path&gt;" class="cls-22" d="M114.32,384.5H90.13a12,12,0,0,1,0,24h24.19a12,12,0,0,0,0-24Z" transform="translate(198)"/><rect id="_Rectangle_7" data-name="&lt;Rectangle&gt;" class="cls-7" x="260.32" y="384.5" width="64" height="24" rx="12" ry="12"/><path id="_Path_30" data-name="&lt;Path&gt;" class="cls-23" d="M116.29,315.49c4.74,6.48,12.29,13,13.9,24.84a38.92,38.92,0,0,1-.75,14.36c-3.67,15.27-21,31.46-41.43,29.48-20.87-2-37.68-22.44-35-45.84A75.17,75.17,0,0,1,99.06,276a4.78,4.78,0,0,1,6.63,4.26C106.19,297.93,111.32,308.72,116.29,315.49Z" transform="translate(198)"/><path id="_Path_31" data-name="&lt;Path&gt;" class="cls-7" d="M116.29,315.49c4.74,6.48,12.29,13,13.9,24.84a38.92,38.92,0,0,1-.75,14.36c-3.67,15.27-21,31.46-41.43,29.48-20.87-2-37.68-22.44-35-45.84A75.17,75.17,0,0,1,99.06,276a4.78,4.78,0,0,1,6.63,4.26C106.19,297.93,111.32,308.72,116.29,315.49Z" transform="translate(198)"/><path id="_Path_32" data-name="&lt;Path&gt;" class="cls-24" d="M123.19,339.52c0-.16,0-.33,0-.49s.07-.5.1-.74c.06-.53.13-1.05.21-1.57,0-.19.07-.38.11-.57.47-2.73,1.24-10.87,2.28-13.36-1.77-.3-3.37,4.28-4.51,2.9-1.36-1.66-2.68-3.25-3.84-4.82-5-6.78-10.1-17.57-10.6-35.23a4.78,4.78,0,0,0-6.62-4.27A75.64,75.64,0,0,0,73,300.79c-7.66,8.61-16.49,12.54-19,24.37.45.13,9.06,7.34,9.06,12.78v15.12a12.7,12.7,0,0,0,12.2,12.85,12.43,12.43,0,0,0,12.67-12.43V327.43a7.12,7.12,0,0,1,6.72-7.22,6.94,6.94,0,0,1,7.16,6.93V339c0,6.86,4.79,12.43,10.7,12.43,5.41,0,9.87-4.67,10.59-10.72C123.12,340.33,123.16,339.93,123.19,339.52Z" transform="translate(198)"/><path id="_Path_33" data-name="&lt;Path&gt;" class="cls-7" d="M94.32,642.16h0c-16.2,0-29.85-13.36-30.51-30.51L58.32,470.16h72l-5.48,141.49C124.17,628.8,110.52,642.16,94.32,642.16Z" transform="translate(198)"/><path id="_Rectangle_8" data-name="&lt;Rectangle&gt;" class="cls-25" d="M388,447.1h64a0,0,0,0,1,0,0v156a32,32,0,0,1-32,32h0a32,32,0,0,1-32-32v-156a0,0,0,0,1,0,0Z"/><path id="_Rectangle_9" data-name="&lt;Rectangle&gt;" class="cls-26" d="M390,452.67h0a12,12,0,0,1,12,12V603.33a12,12,0,0,1-12,12h0a0,0,0,0,1,0,0V452.67A0,0,0,0,1,390,452.67Z"/><path id="_Path_34" data-name="&lt;Path&gt;" class="cls-27" d="M239,447.1V595.33a32,32,0,0,1-32,32h0a32,32,0,0,1-6.69-.71A31.84,31.84,0,0,0,222,635.1h0a32,32,0,0,0,32-32v-156Z" transform="translate(198)"/><path id="_Rectangle_10" data-name="&lt;Rectangle&gt;" class="cls-7" d="M388,447.1h64a0,0,0,0,1,0,0v156a32,32,0,0,1-32,32h0a32,32,0,0,1-32-32v-156a0,0,0,0,1,0,0Z"/><path id="_Path_35" data-name="&lt;Path&gt;" class="cls-28" d="M238,377.1V347.52H206V377.1a16,16,0,0,1-16,16h0v54h64v-54h0A16,16,0,0,1,238,377.1Z" transform="translate(198)"/><path id="_Rectangle_11" data-name="&lt;Rectangle&gt;" class="cls-21" d="M390.33,396.5h0a11.33,11.33,0,0,1,11.33,11.33V433A10.67,10.67,0,0,1,391,443.67h-.67a0,0,0,0,1,0,0V396.5A0,0,0,0,1,390.33,396.5Z"/><path id="_Path_36" data-name="&lt;Path&gt;" class="cls-29" d="M238,377.1V347.52h0a14,14,0,0,0-14,14V377.1a30,30,0,0,0,16,26.53V433.1a14,14,0,0,0,14,14h0v-54A16,16,0,0,1,238,377.1Z" transform="translate(198)"/><path id="_Path_37" data-name="&lt;Path&gt;" class="cls-7" d="M238,377.1V347.52H206V377.8a15.3,15.3,0,0,1-15.3,15.3H190v54h64v-54h0A16,16,0,0,1,238,377.1Z" transform="translate(198)"/><path id="_Path_38" data-name="&lt;Path&gt;" class="cls-30" d="M210,302.87v44.65h24V313.94a36.49,36.49,0,0,1-20.28-12.42A2.1,2.1,0,0,0,210,302.87Z" transform="translate(198)"/><path id="_Path_39" data-name="&lt;Path&gt;" class="cls-7" d="M210,303.67v43.85h24V313.94a36.4,36.4,0,0,1-19.76-11.81A2.4,2.4,0,0,0,210,303.67Z" transform="translate(198)"/><path id="_Rectangle_12" data-name="&lt;Rectangle&gt;" class="cls-31" d="M504.15,608.75h60a0,0,0,0,1,0,0v15.46a12,12,0,0,1-12,12h-36a12,12,0,0,1-12-12V608.75A0,0,0,0,1,504.15,608.75Z"/><path id="_Path_40" data-name="&lt;Path&gt;" class="cls-32" d="M357,618.76v4.68a5.31,5.31,0,0,1-5.31,5.31h-25.6a7.45,7.45,0,0,0-7.45,7.46h35.52a12,12,0,0,0,12-12V610h-.41A8.76,8.76,0,0,0,357,618.76Z" transform="translate(198)"/><path id="_Path_41" data-name="&lt;Path&gt;" class="cls-33" d="M313.06,630.75h0a3.93,3.93,0,0,1-3.93-3.94V611.5h3.93a3.93,3.93,0,0,1,3.94,3.93v11.39A3.93,3.93,0,0,1,313.06,630.75Z" transform="translate(198)"/><path id="_Rectangle_13" data-name="&lt;Rectangle&gt;" class="cls-7" d="M504.15,608.75h60a0,0,0,0,1,0,0v15.46a12,12,0,0,1-12,12h-36a12,12,0,0,1-12-12V608.75A0,0,0,0,1,504.15,608.75Z"/><path id="_Rectangle_14" data-name="&lt;Rectangle&gt;" class="cls-34" d="M556.15,377.75h0a10,10,0,0,1,10,10v221a0,0,0,0,1,0,0h-20a0,0,0,0,1,0,0v-221A10,10,0,0,1,556.15,377.75Z"/><path id="_Rectangle_15" data-name="&lt;Rectangle&gt;" class="cls-7" d="M556.15,377.75h0a10,10,0,0,1,10,10v221a0,0,0,0,1,0,0h-20a0,0,0,0,1,0,0v-221A10,10,0,0,1,556.15,377.75Z"/><path id="_Rectangle_16" data-name="&lt;Rectangle&gt;" class="cls-30" d="M512.15,377.75h0a10,10,0,0,1,10,10v221a0,0,0,0,1,0,0h-20a0,0,0,0,1,0,0v-221A10,10,0,0,1,512.15,377.75Z"/><rect id="_Rectangle_17" data-name="&lt;Rectangle&gt;" class="cls-35" x="502.71" y="382.28" width="8.36" height="221.94" rx="4.18" ry="4.18"/><path id="_Rectangle_18" data-name="&lt;Rectangle&gt;" class="cls-7" d="M512.15,377.75h0a10,10,0,0,1,10,10v221a0,0,0,0,1,0,0h-20a0,0,0,0,1,0,0v-221A10,10,0,0,1,512.15,377.75Z"/><path id="_Rectangle_19" data-name="&lt;Rectangle&gt;" class="cls-36" d="M534.15,377.75h0a12,12,0,0,1,12,12v219a0,0,0,0,1,0,0h-24a0,0,0,0,1,0,0v-219A12,12,0,0,1,534.15,377.75Z"/><path id="_Rectangle_20" data-name="&lt;Rectangle&gt;" class="cls-7" d="M534.15,377.75h0a12,12,0,0,1,12,12v219a0,0,0,0,1,0,0h-24a0,0,0,0,1,0,0v-219A12,12,0,0,1,534.15,377.75Z"/><rect id="_Rectangle_21" data-name="&lt;Rectangle&gt;" class="cls-37" x="626.59" y="351.19" width="181" height="80" rx="19.33" ry="19.33"/><rect id="_Rectangle_22" data-name="&lt;Rectangle&gt;" class="cls-26" x="629" y="366.36" width="11.66" height="49.65" rx="5.83" ry="5.83"/><rect id="_Rectangle_23" data-name="&lt;Rectangle&gt;" class="cls-38" x="647.18" y="400.02" width="139.82" height="12.33" rx="6.17" ry="6.17"/><rect id="_Rectangle_24" data-name="&lt;Rectangle&gt;" class="cls-38" x="647.18" y="388.16" width="139.82" height="6.17" rx="3.08" ry="3.08"/><path id="_Path_42" data-name="&lt;Path&gt;" class="cls-9" d="M590.26,351.19h-1a19.18,19.18,0,0,1,2.06,8.65V406a14.55,14.55,0,0,1-14.56,14.56H453.34a10.68,10.68,0,0,0-10.67,10.68H590.26a19.32,19.32,0,0,0,19.33-19.33V370.51A19.32,19.32,0,0,0,590.26,351.19Z" transform="translate(198)"/><rect id="_Rectangle_25" data-name="&lt;Rectangle&gt;" class="cls-39" x="633.38" y="353.64" width="167.42" height="10.39" rx="5.19" ry="5.19"/><rect id="_Rectangle_26" data-name="&lt;Rectangle&gt;" class="cls-7" x="626.59" y="351.19" width="181" height="80" rx="19.33" ry="19.33"/><rect id="_Rectangle_27" data-name="&lt;Rectangle&gt;" class="cls-40" x="693.9" y="519.38" width="42.53" height="110.93" rx="21.27" ry="21.27"/><rect id="_Rectangle_28" data-name="&lt;Rectangle&gt;" class="cls-41" x="695.45" y="530" width="10.78" height="87.5" rx="5.39" ry="5.39"/><path id="_Path_43" data-name="&lt;Path&gt;" class="cls-42" d="M522.55,520.09a21.16,21.16,0,0,1,4.88,13.55V602a21.27,21.27,0,0,1-21.27,21.27h0a21.36,21.36,0,0,1-5.39-.72,21.24,21.24,0,0,0,16.39,7.72h0A21.27,21.27,0,0,0,538.43,609v-68.4A21.26,21.26,0,0,0,522.55,520.09Z" transform="translate(198)"/><rect id="_Rectangle_29" data-name="&lt;Rectangle&gt;" class="cls-7" x="693.9" y="519.38" width="42.53" height="110.93" rx="21.27" ry="21.27"/><rect id="_Rectangle_30" data-name="&lt;Rectangle&gt;" class="cls-42" x="693.9" y="506.15" width="42.53" height="18.23" rx="9.11" ry="9.11"/><ellipse id="_Path_44" data-name="&lt;Path&gt;" class="cls-41" cx="700.07" cy="515.25" rx="6.17" ry="6.25"/><path id="_Path_45" data-name="&lt;Path&gt;" class="cls-43" d="M529.31,506.15H515a9.11,9.11,0,0,1,9.11,9.11h0a9.11,9.11,0,0,1-9.11,9.12h14.31a9.12,9.12,0,0,0,9.12-9.12h0A9.11,9.11,0,0,0,529.31,506.15Z" transform="translate(198)"/><rect id="_Rectangle_31" data-name="&lt;Rectangle&gt;" class="cls-7" x="693.9" y="506.15" width="42.53" height="18.23" rx="9.11" ry="9.11"/><path id="_Rectangle_32" data-name="&lt;Rectangle&gt;" class="cls-7" d="M625.41,376.19h1.19a0,0,0,0,1,0,0v30a0,0,0,0,1,0,0h-1.19a6.81,6.81,0,0,1-6.81-6.81V383A6.81,6.81,0,0,1,625.41,376.19Z"/><path id="_Rectangle_33" data-name="&lt;Rectangle&gt;" class="cls-13" d="M625.41,376.19h1.19a0,0,0,0,1,0,0v30a0,0,0,0,1,0,0h-1.19a6.81,6.81,0,0,1-6.81-6.81V383A6.81,6.81,0,0,1,625.41,376.19Z"/><path id="_Rectangle_34" data-name="&lt;Rectangle&gt;" class="cls-7" d="M616.41,376.19h1.19a0,0,0,0,1,0,0v30a0,0,0,0,1,0,0h-1.19a6.81,6.81,0,0,1-6.81-6.81V383A6.81,6.81,0,0,1,616.41,376.19Z" transform="translate(1425.18 782.38) rotate(-180)"/><path id="_Rectangle_35" data-name="&lt;Rectangle&gt;" class="cls-13" d="M616.41,376.19h1.19a0,0,0,0,1,0,0v30a0,0,0,0,1,0,0h-1.19a6.81,6.81,0,0,1-6.81-6.81V383A6.81,6.81,0,0,1,616.41,376.19Z" transform="translate(1425.18 782.38) rotate(-180)"/><path id="_Path_46" data-name="&lt;Path&gt;" class="cls-44" d="M121.93,322.54c-2-2.5-4-4.78-5.64-7.05-5-6.77-10.09-17.54-10.6-35.17A4.81,4.81,0,0,0,99,276a74.81,74.81,0,0,0-42.14,44.83s0,0,0,0" transform="translate(198)"/><path id="_Path_47" data-name="&lt;Path&gt;" class="cls-45" d="M121.28,334.15c0-.17,0-.33,0-.5s.07-.49.1-.73c.06-.53.13-1.06.21-1.58,0-.19.07-.37.1-.56a37.05,37.05,0,0,1,2.29-7.86,7.38,7.38,0,0,1-4.51-2.61c-1.36-1.66-2.68-3.24-3.84-4.82-5-6.77-10.1-17.57-10.6-35.23A4.77,4.77,0,0,0,98.43,276,75.64,75.64,0,0,0,71.1,295.42c-7.66,8.61-13.22,20.5-15.9,28.26.44.13,5.95,3.45,5.95,8.88v15.13a12.71,12.71,0,0,0,12.2,12.85A12.44,12.44,0,0,0,86,348.1v-26a7.14,7.14,0,0,1,6.72-7.23,7,7,0,0,1,7.16,6.94v11.88c0,6.87,4.79,12.44,10.7,12.44,5.41,0,9.87-4.67,10.59-10.72C121.21,335,121.25,334.55,121.28,334.15Z" transform="translate(198)"/><line id="_Path_48" data-name="&lt;Path&gt;" class="cls-46" x1="408" y1="578.75" x2="408" y2="594.65"/><line id="_Path_49" data-name="&lt;Path&gt;" class="cls-46" x1="408" y1="462.36" x2="408" y2="565.19"/><path id="_Path_50" data-name="&lt;Path&gt;" class="cls-46" d="M87.44,607.2" transform="translate(198)"/><path id="_Path_51" data-name="&lt;Path&gt;" class="cls-47" d="M519.69,177.76h0l-10.78-16c-5.67-8.41-.35-20.17,9.77-20.86.33,0,.67,0,1,0h0q.52,0,1,0c10.12.69,15.44,12.45,9.76,20.86Z" transform="translate(198)"/><path id="_Path_52" data-name="&lt;Path&gt;" class="cls-25" d="M519.69,184.76h0l-10.78-16c-5.67-8.41-.35-20.17,9.77-20.86.33,0,.67,0,1,0h0q.52,0,1,0c10.12.69,15.44,12.45,9.76,20.86Z" transform="translate(198)"/><path id="_Path_53" data-name="&lt;Path&gt;" class="cls-48" d="M519.69,184.76h0l-10.78-16c-5.67-8.41-.35-20.17,9.77-20.86.33,0,.67,0,1,0h0q.52,0,1,0c10.12.69,15.44,12.45,9.76,20.86Z" transform="translate(198)"/><path id="_Path_54" data-name="&lt;Path&gt;" class="cls-46" d="M454.67,393.67" transform="translate(198)"/><path id="_Path_55" data-name="&lt;Path&gt;" class="cls-46" d="M454.67,371" transform="translate(198)"/><path id="_Path_56" data-name="&lt;Path&gt;" class="cls-46" d="M454.67,416" transform="translate(198)"/><line id="_Path_57" data-name="&lt;Path&gt;" class="cls-46" x1="652.67" y1="371" x2="736.43" y2="371"/><line id="_Path_58" data-name="&lt;Path&gt;" class="cls-46" x1="753.5" y1="371" x2="765.5" y2="371"/><circle id="_Path_59" data-name="&lt;Path&gt;" class="cls-49" cx="715.19" cy="606.44" r="6.69"/><circle id="_Path_60" data-name="&lt;Path&gt;" class="cls-7" cx="715.19" cy="606.44" r="6.69"/></svg>