<svg xmlns="http://www.w3.org/2000/svg" viewBox="0 0 1200 900"><defs><style>.cls-1{fill:none;}.cls-2{fill:#eff1f7;}.cls-3{fill:#c2cef9;}.cls-4{fill:#87a0f9;}.cls-5{fill:#cfd1d6;}.cls-6{fill:#ccd6f9;}.cls-7{fill:#fae1e7;}.cls-8{fill:#faedf1;}.cls-9{fill:#fa3e6a;}.cls-10{fill:#fa8aa4;}.cls-11{fill:#3d3d3d;}.cls-12{fill:#e3e5eb;}.cls-13{fill:#0055fe;}.cls-14{fill:#fa5a7f;}.cls-15{fill:#b4b6ba;}.cls-16{fill:#607ce3;}.cls-17{fill:#666;}.cls-18{fill:#faaeb1;}.cls-19{fill:#bdbdbd;}.cls-20{opacity:0.5;}.cls-21{fill:#626262;}.cls-22{fill:#e9ecf5;}.cls-23{fill:#b7c8f4;}.cls-24{fill:#656e87;}.cls-25{fill:#f3f6ff;}.cls-26{fill:#9cb0e6;}.cls-27{fill:#fa3765;}</style></defs>
<g id="object"><rect class="cls-1" width="1200" height="900"/><path class="cls-2" d="M226.59,783.08C346.91,776.75,468,757,588.24,763.66c78.11,4.36,156.17,11.47,234.52,10s208.24-12,274.65-40.32c19.09-8.14,38.66-20,38.38-35.33-.43-23.72-44.86-33.79-79.73-33.82-106-.08-256.62,30.11-361.2,41.84C563.6,720.79,445.27,699.34,321,673.32c-39.37-8.25-77.3-13.85-118.63-10-40.62,3.8-138,16.26-138.21,48.73C63.78,766.78,173.49,785.88,226.59,783.08Z"/><path class="cls-3" d="M195.46,552.16c-20.57-23.06-3.28-41.51-.2-76.11S173.49,423,144.52,423c-26.73,0-53.82,18.45-50.74,53.05s20.36,53.05-.2,76.11-35.94,91.61,50.94,91.61S216,575.23,195.46,552.16Z"/><path class="cls-4" d="M144.52,718a1,1,0,0,1-1-1V484.39a1,1,0,0,1,2,0V717A1,1,0,0,1,144.52,718Z"/><path class="cls-4" d="M142.58,522.14c-4.33,0-14.57-.68-21-6.67-3.6-3.36-5.43-7.86-5.43-13.39a1,1,0,0,1,2,0c0,4.95,1.61,9,4.79,11.92,7.51,7,21.38,6.1,21.52,6.09a1,1,0,0,1,1.07.92,1,1,0,0,1-.93,1.07C144.46,522.09,143.73,522.14,142.58,522.14Z"/><path class="cls-4" d="M148.08,595.64c-2.11,0-3.48-.14-3.67-.16a1,1,0,1,1,.22-2c.16,0,16.69,1.68,26.92-7.51,5.41-4.86,8.15-11.92,8.15-21a1,1,0,0,1,2,0c0,9.67-3,17.23-8.82,22.49C164.92,594.62,153.79,595.64,148.08,595.64Z"/><path class="cls-3" d="M1067.54,541.48c-20.78-23.3-3.31-41.94-.2-76.89s-22-53.59-51.26-53.59c-27,0-54.37,18.64-51.26,53.59s20.57,53.59-.2,76.89S928.32,634,1016.08,634,1088.31,564.78,1067.54,541.48Z"/><path class="cls-4" d="M1016.08,709a1,1,0,0,1-1-1V473a1,1,0,1,1,2,0V708A1,1,0,0,1,1016.08,709Z"/><path class="cls-4" d="M1014.12,511.14c-4.37,0-14.71-.68-21.21-6.73-3.64-3.39-5.49-7.94-5.49-13.52a1,1,0,0,1,2,0c0,5,1.63,9.05,4.85,12.05,7.58,7.07,21.6,6.16,21.74,6.15a1,1,0,0,1,1.07.93,1,1,0,0,1-.93,1.06C1016,511.09,1015.28,511.14,1014.12,511.14Z"/><path class="cls-4" d="M1019.68,585.39a33,33,0,0,1-3.71-.17,1,1,0,1,1,.22-2c.16,0,16.87,1.69,27.2-7.59,5.47-4.91,8.24-12,8.24-21.21a1,1,0,0,1,2,0c0,9.76-3,17.4-8.91,22.71C1036.68,584.36,1025.45,585.39,1019.68,585.39Z"/><rect class="cls-5" x="306.8" y="456.44" width="662.35" height="42.72"/><rect class="cls-6" x="316.99" y="168" width="618.47" height="307.46"/><path class="cls-1" d="M758.84,314.18c-8.31-7.49-24.39-6.07-27.93,4.53a48,48,0,0,0-80.15-17.6c.25-15.23-13-28-27.6-32.41s-30.25-2.3-45.34-.17c1.13-25.28-16.21-50.28-40.3-58.06s-52.77,2.33-66.65,23.5c-10.39-33.29-44.28-57.71-79.16-57-32.52.63-63.33,23-74.72,53.36v113.2l451.21,1.69C769,334,767.14,321.67,758.84,314.18Z"/><rect class="cls-7" x="316.99" y="343.48" width="618.47" height="131.98"/><polygon class="cls-8" points="546.32 343.48 358.16 475.46 780.94 475.46 680.25 343.48 546.32 343.48"/><path class="cls-9" d="M663.24,330.89h-74a8.75,8.75,0,0,0-8.08,5.43l-6,14.53a8.74,8.74,0,0,0,8.09,12h86a8.74,8.74,0,0,0,8.09-12l-6-14.53A8.75,8.75,0,0,0,663.24,330.89Z"/><path class="cls-9" d="M641.59,306H610.85a11.44,11.44,0,0,0-10.11,6.1l-9.91,18.77h70.78l-9.91-18.77A11.44,11.44,0,0,0,641.59,306Z"/><path class="cls-4" d="M605.52,314.57a6.16,6.16,0,0,1,5.47-3.3h30.73a6.16,6.16,0,0,1,5.47,3.3l8.3,16.32H597Z"/><circle class="cls-10" cx="592.02" cy="346.85" r="7.08"/><circle class="cls-10" cx="660.42" cy="346.85" r="7.08"/><rect class="cls-1" x="612.06" y="343.48" width="28.32" height="8.52"/><path class="cls-11" d="M585,362.9h11.79a0,0,0,0,1,0,0v6.36a2.81,2.81,0,0,1-2.81,2.81h-6.18a2.81,2.81,0,0,1-2.81-2.81V362.9A0,0,0,0,1,585,362.9Z"/><path class="cls-11" d="M655.67,362.9h11.79a0,0,0,0,1,0,0v6.36a2.81,2.81,0,0,1-2.81,2.81h-6.18a2.81,2.81,0,0,1-2.81-2.81V362.9A0,0,0,0,1,655.67,362.9Z"/><path class="cls-9" d="M592,333.2H579.26a4.76,4.76,0,0,1-4.76-4.76h0a4.76,4.76,0,0,1,4.76-4.76h8a4.76,4.76,0,0,1,4.76,4.76Z"/><path class="cls-9" d="M660.4,333.2h12.78a4.76,4.76,0,0,0,4.76-4.76h0a4.76,4.76,0,0,0-4.76-4.76h-8a4.76,4.76,0,0,0-4.76,4.76Z"/><rect class="cls-4" x="445.07" y="296.48" width="5" height="76.32"/><path class="cls-4" d="M442.19,242l-30.74,44.13a6.57,6.57,0,0,0,5.38,10.32h61.48a6.57,6.57,0,0,0,5.39-10.32L453,242A6.56,6.56,0,0,0,442.19,242Z"/><path class="cls-12" d="M420,285.42l25.27-36.28a2.86,2.86,0,0,1,4.69,0l25.26,36.28a2.85,2.85,0,0,1-2.34,4.49H422.31A2.86,2.86,0,0,1,420,285.42Z"/><polygon class="cls-13" points="585.5 419.75 562.35 419.75 562.35 417.75 584.13 417.75 608.47 355.57 610.34 356.3 585.5 419.75"/><rect class="cls-13" x="387.84" y="388.12" width="174.87" height="56.12"/><path class="cls-4" d="M418.11,431.74l-1.81-5.53a.27.27,0,0,0-.23-.18h-13.5c-.09,0-.16.06-.22.18l-1.77,5.53a.61.61,0,0,1-.63.5h-2.18a.53.53,0,0,1-.45-.18.56.56,0,0,1-.05-.5l10-30.53a.6.6,0,0,1,.63-.5h2.9a.61.61,0,0,1,.64.5l10,30.53a.5.5,0,0,1,0,.23.38.38,0,0,1-.16.31.56.56,0,0,1-.38.14h-2.18A.61.61,0,0,1,418.11,431.74Zm-14.59-8.34h11.65q.27,0,.18-.27l-5.89-18.52c0-.13-.08-.19-.14-.19s-.1.06-.13.19l-5.85,18.52Q403.3,423.4,403.52,423.4Z"/><path class="cls-4" d="M440.71,400.53h2.22a.52.52,0,0,1,.59.59v30.53a.52.52,0,0,1-.59.59h-2a.52.52,0,0,1-.59-.59V404.06a.22.22,0,0,0-.07-.18.25.25,0,0,0-.21,0l-4.75,2a.62.62,0,0,1-.27.05c-.28,0-.41-.17-.41-.5V404a.72.72,0,0,1,.41-.68l4.93-2.63A1.57,1.57,0,0,1,440.71,400.53Z"/><path class="cls-4" d="M450.41,431.65V430a1.08,1.08,0,0,1,.27-.72q3.39-4,10.24-12.6,4.26-5.38,4.26-8.38a4.9,4.9,0,0,0-1.64-3.85,6.17,6.17,0,0,0-4.25-1.45,5.9,5.9,0,0,0-4.17,1.48,4.88,4.88,0,0,0-1.54,3.87v1.27a.52.52,0,0,1-.59.59h-2.08a.52.52,0,0,1-.59-.59v-1.68a7.31,7.31,0,0,1,2.6-5.62,9.57,9.57,0,0,1,6.37-2.12,10.53,10.53,0,0,1,4.8,1,7.61,7.61,0,0,1,4.35,7q0,3.86-4.26,9.29-2,2.67-7.52,9.37l-1.86,2.27a.14.14,0,0,0,0,.18.18.18,0,0,0,.18.09H468.8a.52.52,0,0,1,.59.59v1.63a.52.52,0,0,1-.59.59H451A.52.52,0,0,1,450.41,431.65Z"/><path class="cls-4" d="M492.13,422.54a13.76,13.76,0,0,1-.68,4.35,8,8,0,0,1-3.06,4.24,9.21,9.21,0,0,1-5.32,1.47,8.93,8.93,0,0,1-5.48-1.68,8.21,8.21,0,0,1-3.08-4.44,14.34,14.34,0,0,1-.5-3.3.52.52,0,0,1,.59-.59h2.08a.52.52,0,0,1,.59.59,14.81,14.81,0,0,0,.27,2.31,5.67,5.67,0,0,0,1.95,3.12,5.48,5.48,0,0,0,3.58,1.18,5.59,5.59,0,0,0,3.28-.93,5.19,5.19,0,0,0,1.93-2.65,12.08,12.08,0,0,0-.18-8.2,4.94,4.94,0,0,0-5.08-3.26,4.17,4.17,0,0,0-1.45.27,1.18,1.18,0,0,1-.31.09.54.54,0,0,1-.46-.27l-1-1.17a.92.92,0,0,1-.18-.41.88.88,0,0,1,.18-.41l7.88-9.24c.15-.18.11-.27-.14-.27H474.87a.52.52,0,0,1-.59-.59v-1.63a.52.52,0,0,1,.59-.59h16.49a.52.52,0,0,1,.59.59v1.81a1.2,1.2,0,0,1-.27.72l-7.3,8.75a.14.14,0,0,0,0,.18c0,.06.1.09.22.09a7.07,7.07,0,0,1,6.66,4.57A13.89,13.89,0,0,1,492.13,422.54Z"/><path class="cls-4" d="M517.36,421.18v1.73a.52.52,0,0,1-.59.58H515c-.15,0-.22.08-.22.23v7.93a.52.52,0,0,1-.59.59h-2a.52.52,0,0,1-.59-.59v-7.93c0-.15-.07-.23-.22-.23H497.93a.51.51,0,0,1-.59-.58v-1.45a2.12,2.12,0,0,1,.18-.73L506.67,401a.75.75,0,0,1,.72-.45h2.09c.24,0,.4.06.47.18a.52.52,0,0,1,0,.5l-8.88,19.11a.21.21,0,0,0,0,.19.15.15,0,0,0,.14.09h10.15c.15,0,.22-.08.22-.23v-7.11a.52.52,0,0,1,.59-.59h2a.52.52,0,0,1,.59.59v7.11c0,.15.07.23.22.23h1.77A.52.52,0,0,1,517.36,421.18Z"/><path class="cls-4" d="M555.1,412.8h-3.27c-.18,0-.27.08-.27.23l-1.09,7.11c0,.16.06.23.19.23h2.85a.52.52,0,0,1,.59.59l-.05,1.63a.52.52,0,0,1-.59.59h-3.21c-.18,0-.27.07-.27.22L548.8,431c0,.36-.24.54-.64.54l-2-.09a.52.52,0,0,1-.43-.18.51.51,0,0,1-.12-.45l1.13-7.39c0-.15-.06-.22-.18-.22h-7.11c-.18,0-.27.07-.27.22L538,431a.55.55,0,0,1-.63.54l-2-.09a.54.54,0,0,1-.43-.18.48.48,0,0,1-.11-.45l1.13-7.39c0-.15-.06-.22-.18-.22H533a.52.52,0,0,1-.59-.59l.05-1.63a.52.52,0,0,1,.58-.59h3.13c.18,0,.27-.07.27-.23l1.09-7.11c0-.15-.06-.23-.18-.23h-2.68a.51.51,0,0,1-.58-.58v-1.68a.52.52,0,0,1,.58-.59h3.13c.18,0,.27-.07.27-.23l1.18-7.56a.58.58,0,0,1,.63-.54l2,.09a.54.54,0,0,1,.43.18.51.51,0,0,1,.12.45l-1.14,7.38c0,.16.06.23.19.23h7.06c.18,0,.27-.07.27-.23l1.18-7.56a.58.58,0,0,1,.64-.54l2,.09a.52.52,0,0,1,.43.18.51.51,0,0,1,.12.45l-1.14,7.38c0,.16.07.23.19.23h2.85a.52.52,0,0,1,.59.59l-.05,1.68A.51.51,0,0,1,555.1,412.8Zm-7.84,7.34,1.09-7.11c0-.15-.07-.23-.19-.23h-7.11c-.18,0-.27.08-.27.23l-1.09,7.11c0,.16.06.23.18.23H547C547.17,420.37,547.26,420.3,547.26,420.14Z"/><path class="cls-9" d="M807.8,276.89c-12.12-13.6-1.93-24.48-.12-44.87s-12.83-31.28-29.91-31.28C762,200.74,746,211.62,747.86,232s12,31.27-.12,44.87-21.19,54,30,54S819.92,290.49,807.8,276.89Z"/><path class="cls-10" d="M777.77,375.08a1,1,0,0,1-1-1V236.93a1,1,0,0,1,2,0V374.08A1,1,0,0,1,777.77,375.08Z"/><path class="cls-10" d="M776.64,259.6c-2.59,0-8.77-.41-12.68-4a10.72,10.72,0,0,1-3.33-8.19,1,1,0,0,1,2,0,8.82,8.82,0,0,0,2.69,6.72c4.29,4,12.3,3.49,12.38,3.48a1,1,0,0,1,1.07.93,1,1,0,0,1-.93,1.07C777.77,259.57,777.33,259.6,776.64,259.6Z"/><path class="cls-10" d="M779.86,302.93c-1.26,0-2.08-.09-2.2-.1a1,1,0,0,1,.22-2c.09,0,9.67,1,15.56-4.32,3.09-2.79,4.66-6.84,4.66-12.07a1,1,0,1,1,2,0c0,5.82-1.79,10.38-5.34,13.56C790,302.31,783.28,302.93,779.86,302.93Z"/><path class="cls-10" d="M880.49,330.77c-14.64-16.42-2.33-29.56-.14-54.19s-15.5-37.76-36.12-37.76c-19,0-38.32,13.14-36.13,37.76s14.5,37.77-.14,54.19S782.38,396,844.23,396,895.13,347.19,880.49,330.77Z"/><path class="cls-14" d="M844.23,449.13a1,1,0,0,1-1-1V282.52a1,1,0,0,1,2,0V448.13A1,1,0,0,1,844.23,449.13Z"/><path class="cls-14" d="M842.86,309.69c-3.12,0-10.51-.5-15.16-4.83a12.73,12.73,0,0,1-4-9.74,1,1,0,1,1,2,0,10.82,10.82,0,0,0,3.33,8.28c5.26,4.9,15,4.26,15.1,4.25a1,1,0,0,1,1.06.93,1,1,0,0,1-.92,1.06C844.21,309.65,843.68,309.69,842.86,309.69Z"/><path class="cls-14" d="M846.75,362a23.8,23.8,0,0,1-2.63-.12,1,1,0,0,1,.21-2c.12,0,11.77,1.18,18.95-5.27,3.79-3.4,5.71-8.36,5.71-14.73a1,1,0,1,1,2,0c0,7-2.15,12.43-6.38,16.22C858.87,361.27,850.86,362,846.75,362Z"/><polygon class="cls-13" points="404.5 259.7 402.5 259.7 402.5 235.9 426.3 235.9 426.3 237.9 404.5 237.9 404.5 259.7"/><polygon class="cls-13" points="492.64 259.7 490.64 259.7 490.64 237.9 468.85 237.9 468.85 235.9 492.64 235.9 492.64 259.7"/><polygon class="cls-13" points="426.3 306.35 402.5 306.35 402.5 282.56 404.5 282.56 404.5 304.35 426.3 304.35 426.3 306.35"/><polygon class="cls-13" points="492.64 306.35 468.85 306.35 468.85 304.35 490.64 304.35 490.64 282.56 492.64 282.56 492.64 306.35"/><polygon class="cls-13" points="567.56 325.98 565.56 325.98 565.56 294.12 597.42 294.12 597.42 296.12 567.56 296.12 567.56 325.98"/><polygon class="cls-13" points="686.88 325.98 684.88 325.98 684.88 296.12 655.02 296.12 655.02 294.12 686.88 294.12 686.88 325.98"/><polygon class="cls-13" points="597.42 384.47 565.56 384.47 565.56 352.61 567.56 352.61 567.56 382.47 597.42 382.47 597.42 384.47"/><polygon class="cls-13" points="686.88 384.47 655.02 384.47 655.02 382.47 684.88 382.47 684.88 352.61 686.88 352.61 686.88 384.47"/><polygon class="cls-12" points="895.87 498.45 398.67 498.45 348.88 562.59 945.66 562.59 895.87 498.45"/><rect class="cls-15" x="348.88" y="562.59" width="596.79" height="13.82"/><rect class="cls-5" x="376.74" y="576.41" width="541.07" height="135.55"/><path class="cls-5" d="M665.82,383.57H845.75a3.18,3.18,0,0,1,3.18,3.18V498.45a0,0,0,0,1,0,0H662.63a0,0,0,0,1,0,0V386.76A3.18,3.18,0,0,1,665.82,383.57Z"/><rect class="cls-4" x="708.3" y="357.82" width="94.96" height="166.38" transform="translate(1196.79 -314.77) rotate(90)"/><path class="cls-6" d="M814.4,441s-26.24,29.56-58.62,29.56S697.16,441,697.16,441s26.25-29.56,58.62-29.56S814.4,441,814.4,441Z"/><circle class="cls-4" cx="755.78" cy="441.01" r="21.47"/><polygon class="cls-5" points="451.52 509.37 443.51 509.37 419.86 552.84 427.87 552.84 451.52 509.37"/><polygon class="cls-5" points="478.2 509.37 470.19 509.37 450.27 552.84 458.28 552.84 478.2 509.37"/><polygon class="cls-5" points="507.16 509.37 499.15 509.37 480.48 552.84 488.49 552.84 507.16 509.37"/><polygon class="cls-5" points="531.36 509.37 523.35 509.37 510.9 552.84 518.91 552.84 531.36 509.37"/><path class="cls-13" d="M501.58,531.1H486.64a3.17,3.17,0,0,1-3.18-3.17h0a3.18,3.18,0,0,1,3.18-3.18h14.94a3.18,3.18,0,0,1,3.18,3.18h0A3.17,3.17,0,0,1,501.58,531.1Z"/><path class="cls-13" d="M526.72,540.64h-15a3.17,3.17,0,0,1-3.17-3.18h0a3.17,3.17,0,0,1,3.17-3.17h15a3.17,3.17,0,0,1,3.17,3.17h0A3.17,3.17,0,0,1,526.72,540.64Z"/><path class="cls-4" d="M572.47,513.33c0,2.19-4.4,4-9.82,4s-9.83-1.77-9.83-4,4.4-4,9.83-4S572.47,511.14,572.47,513.33Z"/><path class="cls-4" d="M601.59,513.33c0,2.19-4.4,4-9.83,4s-9.83-1.77-9.83-4,4.4-4,9.83-4S601.59,511.14,601.59,513.33Z"/><path class="cls-4" d="M629.82,513.33c0,2.19-4.4,4-9.83,4s-9.82-1.77-9.82-4,4.4-4,9.82-4S629.82,511.14,629.82,513.33Z"/><ellipse class="cls-4" cx="556.56" cy="548.38" rx="9.83" ry="3.96"/><ellipse class="cls-4" cx="585.67" cy="548.38" rx="9.83" ry="3.96"/><ellipse class="cls-9" cx="613.9" cy="548.38" rx="9.83" ry="3.96"/><ellipse class="cls-4" cx="559.27" cy="531.1" rx="9.83" ry="3.96"/><ellipse class="cls-4" cx="588.38" cy="531.1" rx="9.83" ry="3.96"/><ellipse class="cls-4" cx="616.62" cy="531.1" rx="9.83" ry="3.96"/><path class="cls-15" d="M846.5,552.34H660.89a4.81,4.81,0,0,1-4.74-5.64l5.79-33.12a4.81,4.81,0,0,1,4.74-4H846.5a4.82,4.82,0,0,1,4.82,4.81v33.13A4.82,4.82,0,0,1,846.5,552.34Z"/><path class="cls-15" d="M770.88,695.74h-212a7.11,7.11,0,0,1-7.1-7.1V618.73a7.11,7.11,0,0,1,7.1-7.1h212a7.11,7.11,0,0,1,7.09,7.1v69.91A7.11,7.11,0,0,1,770.88,695.74Zm-212-82.11a5.11,5.11,0,0,0-5.1,5.1v69.91a5.11,5.11,0,0,0,5.1,5.1h212a5.1,5.1,0,0,0,5.09-5.1V618.73a5.1,5.1,0,0,0-5.09-5.1Z"/><rect class="cls-4" x="549.44" y="626.47" width="7.11" height="14.92"/><rect class="cls-4" x="549.44" y="667.97" width="7.11" height="14.92"/><rect class="cls-4" x="392.42" y="660.58" width="51.44" height="34.16" rx="6.91" ry="6.91"/><rect class="cls-15" x="402.4" y="672.7" width="30.55" height="10.84"/><rect class="cls-15" x="486.65" y="612.63" width="5.47" height="82.1"/><rect class="cls-15" x="472.73" y="629.45" width="5.47" height="48.47"/><rect class="cls-15" x="513.77" y="629.45" width="5.47" height="48.47"/><rect class="cls-15" x="501.69" y="612.63" width="5.47" height="82.1"/><path class="cls-4" d="M374.53,731.05c-9.72,0-18.37-3.24-24.09-9.25s-7.8-14.07-8.42-19.65.05-10,2.07-13.43c3.26-5.58,9.46-8,15.46-10.36l1.52-.6c2.47-1,4.35-3.56,6.17-6,2.52-3.43,5.11-7,9.5-7v2c-3.37,0-5.56,3-7.88,6.17-2,2.71-4,5.52-7.05,6.72l-1.53.6c-5.68,2.23-11.55,4.53-14.47,9.51-1.79,3.06-2.38,7-1.81,12.2s2.44,12.77,7.89,18.5c6.89,7.23,18.43,10.17,30.88,7.84,11.67-2.18,22-8.39,28.32-17,6.83-9.33,8.8-21.84,5-31.85l1.87-.71c4.08,10.8,2.07,23.73-5.26,33.75-6.62,9.05-17.4,15.54-29.58,17.82A47.42,47.42,0,0,1,374.53,731.05Z"/><rect class="cls-4" x="427.71" y="521.52" width="3.36" height="22.89"/><circle class="cls-9" cx="429.41" cy="518.73" r="9.55" transform="translate(-241.03 455.57) rotate(-45)"/><rect class="cls-4" x="457" y="521.52" width="3.36" height="22.89"/><circle class="cls-9" cx="458.7" cy="518.73" r="9.55" transform="translate(-151.23 846.57) rotate(-76.77)"/><path class="cls-13" d="M780.13,436.71H774a18.87,18.87,0,0,0-2.28-5.51l4.36-4.36a.58.58,0,0,0,0-.81l-5.27-5.27a.57.57,0,0,0-.82,0l-4.36,4.36a18.34,18.34,0,0,0-5.51-2.28v-6.17a.57.57,0,0,0-.57-.58h-7.45a.58.58,0,0,0-.58.58v6.17a18.34,18.34,0,0,0-5.51,2.28l-4.36-4.36a.57.57,0,0,0-.82,0L735.53,426a.56.56,0,0,0,0,.81l4.36,4.36a18.34,18.34,0,0,0-2.28,5.51h-6.17a.58.58,0,0,0-.58.58v7.45a.57.57,0,0,0,.58.57h6.17a18.34,18.34,0,0,0,2.28,5.51l-4.36,4.36a.57.57,0,0,0,0,.82l5.26,5.27a.59.59,0,0,0,.82,0l4.36-4.36a18.87,18.87,0,0,0,5.51,2.28v6.17a.58.58,0,0,0,.58.57h7.45a.57.57,0,0,0,.57-.57v-6.17a18.87,18.87,0,0,0,5.51-2.28l4.36,4.36a.59.59,0,0,0,.82,0L776,456a.59.59,0,0,0,0-.82l-4.36-4.36a18.87,18.87,0,0,0,2.28-5.51h6.17a.57.57,0,0,0,.57-.57v-7.45A.58.58,0,0,0,780.13,436.71Zm-24.35,14.38A10.08,10.08,0,1,1,765.86,441,10.07,10.07,0,0,1,755.78,451.09Z"/><circle class="cls-4" cx="755.78" cy="441.01" r="12.43"/><circle class="cls-13" cx="755.78" cy="441.01" r="7.81"/><circle class="cls-6" cx="759.68" cy="435.14" r="4.17"/><polygon class="cls-5" points="635.94 473.08 649.33 460.63 662.63 460.63 662.63 498.45 635.94 498.45 635.94 473.08"/><path class="cls-12" d="M649.85,476.82h12.78v-5.16H649.85a2.58,2.58,0,0,0-2.58,2.58h0A2.59,2.59,0,0,0,649.85,476.82Z"/><path class="cls-12" d="M649.85,488.25h12.78v-5.16H649.85a2.59,2.59,0,0,0-2.58,2.58h0A2.58,2.58,0,0,0,649.85,488.25Z"/><rect class="cls-12" x="661.63" y="465.04" width="2" height="33.41"/><polygon class="cls-5" points="875.62 473.08 862.24 460.63 848.93 460.63 848.93 498.45 875.62 498.45 875.62 473.08"/><path class="cls-12" d="M861.71,476.82H848.93v-5.16h12.78a2.57,2.57,0,0,1,2.58,2.58h0A2.58,2.58,0,0,1,861.71,476.82Z"/><path class="cls-12" d="M861.71,488.25H848.93v-5.16h12.78a2.58,2.58,0,0,1,2.58,2.58h0A2.57,2.57,0,0,1,861.71,488.25Z"/><rect class="cls-12" x="847.49" y="465.04" width="2" height="33.41"/><polygon class="cls-5" points="969.15 337.83 957.6 321.64 935.45 321.64 935.45 475.46 969.15 475.46 969.15 337.83"/><circle class="cls-16" cx="952.3" cy="344.53" r="10.74"/><path class="cls-13" d="M962.94,341.88l-19.19,9.53a2.35,2.35,0,0,1-3.15-1.07h0a2.34,2.34,0,0,1,1.06-3.15l19.19-9.53a2.35,2.35,0,0,1,3.15,1.06h0A2.35,2.35,0,0,1,962.94,341.88Z"/><circle class="cls-16" cx="952.3" cy="379.27" r="10.74" transform="translate(10.74 784.46) rotate(-45)"/><path class="cls-13" d="M959.93,387.15l-17.86-11.84a2.35,2.35,0,0,1-.66-3.26h0a2.35,2.35,0,0,1,3.26-.66l17.86,11.84a2.35,2.35,0,0,1,.66,3.26h0A2.35,2.35,0,0,1,959.93,387.15Z"/><rect class="cls-16" x="941.56" y="404.73" width="21.48" height="3.3"/><rect class="cls-16" x="941.56" y="412.03" width="21.48" height="3.3"/><rect class="cls-16" x="941.56" y="419.32" width="21.48" height="3.3"/><path class="cls-4" d="M981.71,695.74h-63.9v-2h63.9a6.47,6.47,0,0,0,6.47-6.47V460.8a6.47,6.47,0,0,0-6.47-6.47H969.15v-2h12.56a8.48,8.48,0,0,1,8.47,8.47V687.27A8.48,8.48,0,0,1,981.71,695.74Z"/><path class="cls-17" d="M759.26,718.34s2.28,13.48,0,15.37-21.37,3.77-31.24,4-30.86,2.31-34,0-.63-8.39,12.18-10.07S737.61,712,737.61,712Z"/><path class="cls-11" d="M762.27,612.63l-26.66,98.2s12.13,7.51,23.65,7.51c0,0,30.24-47.59,33.41-52.85S762.27,612.63,762.27,612.63Z"/><path class="cls-11" d="M879.67,417.07c-3.91-1.08-7.44-2.66-9.54-4.93-7-7.59-.78-12.09,3.78-9.67a8.71,8.71,0,0,0,5.48.95s-7-4.73-4.92-9.45,9.83,4.35,19.85,6.61,28.54-1.89,28.54,13.8c0,0,5.67-2.45,7,6.05s-7.37,13.8-7.37,19.47-7,16.22-13.31,12.74Z"/><path class="cls-18" d="M881.09,412.49s-2.46,6.81-2.46,11.53c0,0-9.07,13.05-11,14.75s6.43,3.78,8.13,3.78c0,0-.76,13,2.27,14.93s20.41,0,24.76-8.32S909.44,426,907.74,418,881.09,412.49,881.09,412.49Z"/><path class="cls-18" d="M901.32,442a9.21,9.21,0,0,0,8.88,3.78c6-.75,8.32-10.4,5.86-13.42s-11.34-.94-11.34-.94Z"/><polygon class="cls-18" points="889.41 454.46 887.85 471.66 908.31 464.48 910.01 441.23 889.41 454.46"/><path class="cls-11" d="M912.85,422.7s-6.17,15.35-9.46,15.57-3.4-18.78-3.4-18.78-11.17.11-20.28-2.41l-2.4-6.67,7.75-1.7,26.27,3.43Z"/><path class="cls-2" d="M882.92,467.83s10.2-4,29.93-9.68l2,9.68s10.2,15,9,41-9,57-11,60.39-51.55,10.53-61.77,0,15.18-54.51,17.66-68.45,8.57-20.44,8.57-20.44Z"/><path class="cls-2" d="M894,481.74c13.09,1.4,21.65,13.73,20.92,22.78s-11.15,37.56-55.56,39.75-59.22-22.2-59.22-22.2-2.2-11.24,11.51-12.89c0,0,12.34,7.46,26.87,7.29s28-6.47,36.19-16.61S887.12,481,894,481.74Z"/><path class="cls-19" d="M838.5,517.47a1,1,0,0,1,0-2c14.06-.16,27.3-6.23,35.42-16.24,1.91-2.35,3.64-4.68,5.16-6.73l1.06-1.42a1,1,0,1,1,1.6,1.2l-1.05,1.41c-1.54,2.07-3.28,4.42-5.21,6.8-8.49,10.47-22.31,16.82-37,17Z"/><path class="cls-19" d="M853.84,545.41c-40.25,0-54.43-22.59-54.58-22.83a1,1,0,0,1,1.71-1c.15.24,15.12,23.87,58.32,21.72,42.4-2.09,53.8-28.74,54.61-38.83a1,1,0,0,1,2,.16c-.86,10.58-12.68,38.51-56.51,40.67C857.49,545.37,855.64,545.41,853.84,545.41Z"/><path class="cls-18" d="M810,509.45s-7.27-8.52-11.58-10.28-8.44-.2-13.34,3.92-11,9.7-9.41,13.38,2.74,9.56,6.08,9.56,8.62-4.51,8.62-4.51,5,6.38,9.79.55S810,509.45,810,509.45Z"/><g class="cls-20"><path class="cls-1" d="M789.47,522c-1.83-3.17-3.12-5.66-3.85-7.11a8.87,8.87,0,0,1-4.32,2.55l-.37-2a7,7,0,0,0,4.07-3l1-1.47.75,1.6s1.59,3.4,4.47,8.39Z"/></g><path class="cls-11" d="M879.23,450.27a20.88,20.88,0,0,1-3.64-.32,1,1,0,0,1-.79-1.17A1,1,0,0,1,876,448s5,.95,8.2-.69a1,1,0,1,1,.92,1.77A13,13,0,0,1,879.23,450.27Z"/><path class="cls-11" d="M883.45,435.2a1,1,0,0,1-1-.84,26.65,26.65,0,0,1,0-7.1,1,1,0,1,1,2,.29,25.23,25.23,0,0,0,0,6.49,1,1,0,0,1-.83,1.15Z"/><path class="cls-17" d="M803.93,715s4.49,17.2,3,20.77-16,5.45-26,4.19-34,4.77-38.21.39,1.26-8.15,7.77-9.83,19.78-4.13,26.79-10.15Z"/><path class="cls-11" d="M851.08,569.26l-4,9.91S772.23,584,759.82,596s17.11,103.62,17.45,108-4,7-2,10.74,2,5.7,2,5.7,17.09,2.35,26.66-5.37a268.73,268.73,0,0,0,3.87-45.62c0-25.5,1.67-34.22,1.67-34.22s57.37,4.69,75.49-.67,30.95-39,24.2-63.6Z"/><path class="cls-13" d="M939.43,498.45c-18.65,1.88-33.09,55.5-38.11,81.15s-12.74,49-43.85,44.3-49.19-11.07-51.52,6.41,11.07,21.57,46.63,21.57,59-2.13,64.46-39.25,17.72-87.89,28.22-100.39S939.43,498.45,939.43,498.45Z"/><path class="cls-4" d="M864.4,643h0a5.51,5.51,0,0,1-5.51-5.51V587.06h11v50.42A5.5,5.5,0,0,1,864.4,643Z"/><rect class="cls-4" x="800.71" y="576.41" width="87.47" height="13.72" rx="6.86" ry="6.86"/><path class="cls-19" d="M859.78,539.92a1.53,1.53,0,0,1-1.14-.51A85.28,85.28,0,0,1,846,520.87a15.47,15.47,0,0,0-6.08,11.39,1,1,0,1,1-2-.1,17.39,17.39,0,0,1,7-12.91,1.91,1.91,0,0,1,1.57-.32,2,2,0,0,1,1.31,1,84,84,0,0,0,11.57,17.21,100.15,100.15,0,0,1,5.1-29.27,1,1,0,1,1,1.89.63,98.36,98.36,0,0,0-5,29.86,1.52,1.52,0,0,1-1,1.42A1.47,1.47,0,0,1,859.78,539.92Zm-.46-1.54Z"/><rect class="cls-4" x="862.74" y="651.78" width="14.49" height="68.97"/><path class="cls-4" d="M909.47,738.77a2.27,2.27,0,0,0,2-3.38C904.58,723.45,888.32,715,869.33,715s-35.24,8.41-42.11,20.35a2.27,2.27,0,0,0,2,3.38Z"/><path class="cls-21" d="M778,716.12a1,1,0,0,1-.06-2,30.9,30.9,0,0,0,20.58-9.73,155.14,155.14,0,0,1-17.65.29,1.56,1.56,0,0,1-1-2.66A150.3,150.3,0,0,0,806,665.4a1,1,0,0,1,1.78.92,153.05,153.05,0,0,1-25.82,36.4,152.51,152.51,0,0,0,17.5-.41,1.59,1.59,0,0,1,1.53.85,1.55,1.55,0,0,1-.21,1.71A32.89,32.89,0,0,1,778,716.12Z"/><path class="cls-21" d="M775.25,715.71a1,1,0,0,1-.87-.52c-1.37-2.5-.31-4.67.62-6.59a8.71,8.71,0,0,0,1.27-4.55c-.06-.74-1.3-5.17-2.88-10.79-12.23-43.44-23.48-89.06-14.26-98a1,1,0,0,1,1.41,0,1,1,0,0,1,0,1.41c-9.6,9.31,8.12,72.31,14.79,96,2,7.1,2.88,10.28,3,11.18a10.64,10.64,0,0,1-1.46,5.58c-1,2-1.5,3.23-.67,4.75a1,1,0,0,1-.88,1.48Z"/><path class="cls-19" d="M890.6,484.09a1,1,0,0,1-1-1c0-2.73-2.67-7.83-4.3-10.61L878.07,481a1,1,0,1,1-1.52-1.29l8.12-9.6a1,1,0,0,1,1.61.11c.19.31,4.36,6.93,5.18,11.46,3.73-1.47,15.36-6.48,22.7-14.54a1,1,0,0,1,1.48,1.34c-9.14,10-24.08,15.32-24.72,15.54A1.13,1.13,0,0,1,890.6,484.09Z"/><path class="cls-4" d="M285.18,719.54s-4,12.32-3,18,31,4.09,41.47,4.61S339,740.82,338,738s-13.06-3.27-18.95-7.14-13.57-11.32-13.57-11.32Z"/><path class="cls-4" d="M178.9,714.2s-6.69,11.09-7,16.81,29.25,11,39.36,13.87,15.26,2.22,14.89-.75-12-6.14-16.84-11.24-10.65-14.1-10.65-14.1Z"/><path class="cls-11" d="M308.4,594.49s11.8,29.36,7.12,73.17-7.12,51.88-7.12,51.88-6.82,7.36-23.22,0c0,0,3.43-53.28,0-69.75s-27.32-71-27.32-71-9,59.14-20.79,79.33S199.51,719,199.51,719s-10.51,4.56-21.19-4c0,0,23-50.44,26.82-76.15s5.65-74.16,5.65-74.16l43.92-37.27h21.21Z"/><path class="cls-18" d="M291.29,356.71s1.8,5,0,13.21c0,0,2.4,9.46,4.65,12.31s-4.05,2.55-5.4,2.55c0,0-2.86,10.66-5.26,11.56s-12.76-4.95-12.76-4.95l3.31-24.95Z"/><path class="cls-18" d="M280.27,389.41s-4.94,11.12-4.69,16.55l-7.9-5.68,3.7-13.34Z"/><path class="cls-22" d="M271.4,400.86s28,7.65,38.74,23.67S323.54,456.81,335,458s24.87-10.13,24.87-10.13S371.12,452.27,373,463c0,0-15.55,24.87-39.7,24.39s-46.87-16.5-46.87-16.5Z"/><path class="cls-18" d="M359.88,447.88a113.43,113.43,0,0,1,3.45-15.27c2.28-7.25,4.15-18.24,7.88-17.82s.41,11.81,0,15.75c0,0,14.71,5,13.26,11s-9.12,16.16-14.3,18.44Z"/><path class="cls-22" d="M294.52,427.76c2.28,9.13-.61,68.29,8.53,88s27.41,78.58,25,84.5-28.16,25.08-62.52,15.53c-8.66-2.4-14-30.29-14-30.29s-6.25,27.28-11.75,29.42-38.24-6.12-42.22-11.32-6.12-34,0-52,25.7-76.81,26-91.64,4.59-45.18,4.59-45.18l44.31-11Z"/><path class="cls-22" d="M217.2,430.76s-14,33-13.44,45.28S217.2,500.2,217.2,500.2L231,438.71Z"/><path class="cls-1" d="M336.77,459.1a16.43,16.43,0,0,1-1.86-.1c-8.18-.85-12.05-8.6-16.94-18.41a134.55,134.55,0,0,0-8.66-15.5c-10.43-15.54-37.89-23.19-38.17-23.27a1,1,0,0,1,.53-1.93,108.22,108.22,0,0,1,15.49,5.89C298.4,411.05,306.41,417.17,311,424a136.89,136.89,0,0,1,8.79,15.73c4.8,9.62,8.27,16.58,15.36,17.31,10.92,1.13,24-9.78,24.12-9.89a1,1,0,1,1,1.29,1.53C360,449.1,348,459.1,336.77,459.1Z"/><path class="cls-11" d="M289.41,346c9.33,6.31,4.45,21.48-3.21,27.9s-13.83,16.3-12.22,24.21-.37,21-11,21.48-16.3,9.88-16.3,16-6.92,16.3-25.69,10.62S196.31,432.88,197.29,426s7.66-6.42,12.6-12.1-2.22-9.63,6.42-18.52,21.73-8.64,22.23-15.56-3-27.17,9.38-37.29S272.62,334.59,289.41,346Z"/><path class="cls-23" d="M296.64,477.92a1,1,0,0,1-.43-.1,55.74,55.74,0,0,1-21.15-19.3,1,1,0,0,1,1.7-1A54.63,54.63,0,0,0,297.07,476a1,1,0,0,1-.43,1.9Z"/><path class="cls-23" d="M215.27,497.29a.86.86,0,0,1-.28,0,1,1,0,0,1-.68-1.24c5.4-18.49,8.2-30.62,8.31-36.07a1,1,0,0,1,1-1,1,1,0,0,1,1,1c-.11,5.62-2.94,17.93-8.39,36.59A1,1,0,0,1,215.27,497.29Z"/><path class="cls-24" d="M215.71,443.17a1,1,0,0,1-.14-2,23.43,23.43,0,0,0,18.83-16.77c.38-1.45.66-3,.93-4.56.79-4.53,1.61-9.21,5.3-12.12,2.28-1.79,5.08-2.37,7.78-2.94a23.2,23.2,0,0,0,5.54-1.64c3.48-1.73,6.18-5.59,7.21-10.35,1-4.43.56-9.09.17-13.59a1,1,0,0,1,2-.17c.4,4.65.81,9.46-.22,14.18-1.17,5.43-4.19,9.7-8.27,11.72a25.42,25.42,0,0,1-6,1.81c-2.59.54-5,1.06-6.95,2.56-3.09,2.43-3.81,6.54-4.57,10.88-.28,1.58-.56,3.2-1,4.73a25.48,25.48,0,0,1-20.47,18.24Z"/><path class="cls-24" d="M201.57,436.23a1,1,0,0,1-1-.85,1,1,0,0,1,.85-1.14,23.43,23.43,0,0,0,18.82-16.76c.38-1.46.66-3,.93-4.57.79-4.53,1.61-9.21,5.3-12.11,2.28-1.79,5.08-2.38,7.78-2.95a22.83,22.83,0,0,0,5.55-1.64,12.5,12.5,0,0,0,5-4.78,1,1,0,0,1,1.38-.33,1,1,0,0,1,.33,1.37,14.43,14.43,0,0,1-5.84,5.53,24.27,24.27,0,0,1-6,1.81c-2.59.54-5,1.06-6.95,2.56-3.09,2.43-3.81,6.54-4.57,10.89-.28,1.57-.56,3.19-1,4.73a25.45,25.45,0,0,1-20.47,18.23Z"/><path class="cls-11" d="M288,375.79h-.11a1,1,0,0,1-.89-1.1l.69-6.51a1,1,0,1,1,2,.21L289,374.9A1,1,0,0,1,288,375.79Z"/><path class="cls-11" d="M289.16,390.23H289a11.47,11.47,0,0,1-5.2-2.56,1,1,0,1,1,1.38-1.44,9.56,9.56,0,0,0,4.18,2,1,1,0,0,1-.18,2Z"/><path class="cls-10" d="M638.56,689.78c-2.51-5.49-4.31-11.46-3.94-17.48s3.19-12.11,8.29-15.34,11.48-3.27,16.46-6.46c2.87-1.85,5.06-4.61,7.94-6.46s7-2.54,9.48-.18,1.82,7-.42,9.79-5.55,4.49-8.38,6.7a27.9,27.9,0,0,0-9.73,27.83Z"/><path class="cls-14" d="M646.54,687.13a1,1,0,0,1-.9-.57,19,19,0,0,1,1-17.6c3.22-5.34,8.68-8.72,13.51-11.7a1,1,0,0,1,1,1.7c-4.63,2.87-9.88,6.11-12.84,11a16.9,16.9,0,0,0-.87,15.69A1,1,0,0,1,647,687,1.12,1.12,0,0,1,646.54,687.13Z"/><path class="cls-10" d="M618.7,689.17A25.31,25.31,0,0,1,608,661.88c1.54-5.69,5.15-11.1,4.39-16.94-.4-3.11-2-5.91-3-8.9s-1.14-6.6,1-8.92,5.94-2.45,8.73-1,4.7,4.18,6.16,7a38.87,38.87,0,0,1,4,23.78c-.82,5.25-2.71,10.42-2.26,15.71s3.24,10.14,6,14.75Z"/><path class="cls-14" d="M622.58,686.93a1,1,0,0,1-.62-.21,19.58,19.58,0,0,1-6.31-21.34,35.89,35.89,0,0,1,1.8-4.09,35.26,35.26,0,0,0,1.68-3.82c.49-1.38,1.43-4.87-.32-7.4a1,1,0,1,1,1.64-1.14c1.61,2.32,1.81,5.67.57,9.21a37.53,37.53,0,0,1-1.78,4,34.13,34.13,0,0,0-1.7,3.86,17.52,17.52,0,0,0,5.65,19.11,1,1,0,0,1,.18,1.4A1,1,0,0,1,622.58,686.93Z"/><path class="cls-14" d="M620.14,684c-3.68-1.53-5-6.39-3.82-10.2s4.06-6.8,6.91-9.58,5.82-5.69,7.12-9.45c2.53-7.32-1.94-15.57.18-23,2-6.82,8.81-11,15.42-13.55a21.24,21.24,0,0,1,8.4-1.89c2.89.09,5.88,1.39,7.33,3.89,2.31,4-.07,9-3,12.6s-6.61,7-7.23,11.53c-.55,4,1.47,7.93,2.49,11.89a24.79,24.79,0,0,1-2.87,19c-2.23,3.6-5.34,6.56-8,9.83s-5,7.09-5.26,11.32Z"/><path class="cls-10" d="M631.57,687.09a1,1,0,0,1-.89-.53c-2.28-4.28-2-10,.87-16.55.63-1.43,1.32-2.85,2-4.22,1.74-3.55,3.38-6.9,4-10.59a37.77,37.77,0,0,0,.28-6.93c0-1.38,0-2.81,0-4.22.21-4.93,1.61-8.63,4.17-11a1,1,0,0,1,1.42.06,1,1,0,0,1-.06,1.41c-2.16,2-3.35,5.23-3.53,9.61-.06,1.36,0,2.75,0,4.1a39.69,39.69,0,0,1-.3,7.29c-.65,4-2.44,7.63-4.17,11.15-.66,1.35-1.35,2.75-2,4.14-1.81,4.16-3.45,10.11-.94,14.82A1,1,0,0,1,632,687,1,1,0,0,1,631.57,687.09Z"/><polygon class="cls-4" points="662.44 683.48 606.33 683.48 612.87 739.58 653.29 739.58 662.44 683.48"/><path class="cls-10" d="M1115.48,606.3c-12.81-14.37-2-25.87-.12-47.43s-13.56-33-31.62-33c-16.65,0-33.53,11.5-31.61,33s12.69,33.06-.13,47.43-22.39,57.08,31.74,57.08S1128.29,620.67,1115.48,606.3Z"/><path class="cls-14" d="M1083.74,710a1,1,0,0,1-1-1V564.07a1,1,0,1,1,2,0V709A1,1,0,0,1,1083.74,710Z"/><path class="cls-14" d="M1082.55,588c-2.74,0-9.25-.43-13.36-4.26a11.24,11.24,0,0,1-3.51-8.61,1,1,0,0,1,2,0,9.37,9.37,0,0,0,2.87,7.15c4.55,4.24,13,3.69,13.12,3.69a1,1,0,1,1,.14,2C1083.73,587.94,1083.27,588,1082.55,588Z"/><path class="cls-14" d="M1086,633.76a21.35,21.35,0,0,1-2.32-.1,1,1,0,0,1,.22-2c.1,0,10.24,1,16.49-4.58,3.28-3,5-7.26,5-12.8a1,1,0,0,1,2,0c0,6.14-1.89,11-5.63,14.29C1096.61,633.12,1089.56,633.76,1086,633.76Z"/><rect class="cls-25" x="186.83" y="222.56" width="162.59" height="96.18" rx="8.96" ry="8.96"/><path class="cls-1" d="M340.46,319.74H195.79a10,10,0,0,1-10-10V246.27a1,1,0,0,1,2,0v63.51a8,8,0,0,0,8,8H340.46a1,1,0,1,1,0,2Z"/><path class="cls-13" d="M340.46,222.56H195.79a9,9,0,0,0-9,9V240H349.42v-8.42A9,9,0,0,0,340.46,222.56Z"/><circle class="cls-4" cx="198.35" cy="231.25" r="2.95"/><path class="cls-26" d="M201,254.38a2.69,2.69,0,1,1-2.69-2.69A2.69,2.69,0,0,1,201,254.38Z"/><circle class="cls-25" cx="211.9" cy="231.25" r="2.95"/><circle class="cls-27" cx="225.45" cy="231.25" r="2.95"/><path class="cls-26" d="M241.24,257.07H213a2.69,2.69,0,0,1,0-5.38h28.25a2.69,2.69,0,0,1,0,5.38Z"/><path class="cls-26" d="M283.36,257.07H255.1a2.69,2.69,0,0,1,0-5.38h28.26a2.69,2.69,0,0,1,0,5.38Z"/><path class="cls-26" d="M201,268.72a2.69,2.69,0,1,1-2.69-2.69A2.68,2.68,0,0,1,201,268.72Z"/><path class="cls-26" d="M228.7,271.4H213a2.69,2.69,0,1,1,0-5.37H228.7a2.69,2.69,0,0,1,0,5.37Z"/><path class="cls-26" d="M319.2,271.4H242.56a2.69,2.69,0,1,1,0-5.37H319.2a2.69,2.69,0,1,1,0,5.37Z"/><path class="cls-26" d="M201,284a2.69,2.69,0,1,1-2.69-2.69A2.69,2.69,0,0,1,201,284Z"/><path class="cls-26" d="M254.84,286.64H213a2.69,2.69,0,1,1,0-5.38h41.85a2.69,2.69,0,0,1,0,5.38Z"/></g></svg>