<svg id="Layer_1" data-name="Layer 1" xmlns="http://www.w3.org/2000/svg" xmlns:xlink="http://www.w3.org/1999/xlink" viewBox="0 0 548.27 592.23"><defs><linearGradient id="linear-gradient" x1="210.14" y1="263.34" x2="771.37" y2="830.29" gradientUnits="userSpaceOnUse"><stop offset="0" stop-opacity="0"/><stop offset="0.2" stop-color="#09080c" stop-opacity="0.14"/><stop offset="0.57" stop-color="#201f2b" stop-opacity="0.5"/><stop offset="0.99" stop-color="#3f3d56"/></linearGradient><linearGradient id="linear-gradient-2" x1="549.95" y1="157.43" x2="548.92" y2="155.02" gradientUnits="userSpaceOnUse"><stop offset="0.09" stop-color="#68e1fd"/><stop offset="0.2" stop-color="#65d5f1"/><stop offset="0.4" stop-color="#5db7d2"/><stop offset="0.66" stop-color="#51859f"/><stop offset="0.97" stop-color="#404059"/><stop offset="0.99" stop-color="#3f3d56"/></linearGradient><linearGradient id="linear-gradient-3" x1="528.8" y1="133.77" x2="567.69" y2="133.77" gradientUnits="userSpaceOnUse"><stop offset="0" stop-color="#ecc4d7"/><stop offset="0.42" stop-color="#efd4d1"/><stop offset="1" stop-color="#f2eac9"/></linearGradient><linearGradient id="linear-gradient-4" x1="-1217.56" y1="2615.31" x2="-1226.39" y2="2624.21" gradientTransform="matrix(0.61, 0.79, -0.79, 0.61, 3259.72, -345.32)" xlink:href="#linear-gradient-3"/><linearGradient id="linear-gradient-5" x1="201.68" y1="289.71" x2="214.56" y2="289.71" gradientUnits="userSpaceOnUse"><stop offset="0" stop-color="#183866"/><stop offset="1" stop-color="#1a7fc1"/></linearGradient><linearGradient id="linear-gradient-6" x1="194.68" y1="339.08" x2="207.56" y2="339.08" xlink:href="#linear-gradient-5"/><linearGradient id="linear-gradient-7" x1="223.94" y1="310.91" x2="205.18" y2="315.18" gradientUnits="userSpaceOnUse"><stop offset="0" stop-color="#68e1fd"/><stop offset="1" stop-color="#69b9eb"/></linearGradient><linearGradient id="linear-gradient-8" x1="217.01" y1="360.28" x2="198.25" y2="364.55" xlink:href="#linear-gradient-7"/><linearGradient id="linear-gradient-9" x1="193.69" y1="165.01" x2="271.42" y2="250.51" gradientUnits="userSpaceOnUse"><stop offset="0" stop-color="#fff" stop-opacity="0"/><stop offset="0.09" stop-color="#fff" stop-opacity="0.05"/><stop offset="0.24" stop-color="#fff" stop-opacity="0.17"/><stop offset="0.45" stop-color="#fff" stop-opacity="0.37"/><stop offset="0.69" stop-color="#fff" stop-opacity="0.65"/><stop offset="0.98" stop-color="#fff"/><stop offset="0.98" stop-color="#fff"/></linearGradient><linearGradient id="linear-gradient-10" x1="173.29" y1="208.68" x2="266.57" y2="318.61" xlink:href="#linear-gradient-9"/><linearGradient id="linear-gradient-11" x1="219.12" y1="-200.44" x2="211.4" y2="715.79" xlink:href="#linear-gradient-2"/><linearGradient id="linear-gradient-12" x1="211.27" y1="-200.5" x2="203.55" y2="715.72" xlink:href="#linear-gradient-2"/><linearGradient id="linear-gradient-13" x1="234.89" y1="190.59" x2="212.53" y2="195.68" xlink:href="#linear-gradient-7"/><linearGradient id="linear-gradient-14" x1="226.62" y1="249.43" x2="204.27" y2="254.52" xlink:href="#linear-gradient-7"/><linearGradient id="linear-gradient-15" x1="88.05" y1="236.68" x2="162.09" y2="323.71" xlink:href="#linear-gradient-9"/><linearGradient id="linear-gradient-16" x1="152.74" y1="241.97" x2="193.39" y2="289.75" xlink:href="#linear-gradient-9"/><linearGradient id="linear-gradient-17" x1="84.41" y1="330.44" x2="167.15" y2="415.94" xlink:href="#linear-gradient-9"/><linearGradient id="linear-gradient-18" x1="132.41" y1="-201.17" x2="124.69" y2="715.06" xlink:href="#linear-gradient-2"/><linearGradient id="linear-gradient-19" x1="104.79" y1="-201.4" x2="97.07" y2="714.82" xlink:href="#linear-gradient-2"/><linearGradient id="linear-gradient-20" x1="150.1" y1="279.82" x2="124.6" y2="285.62" xlink:href="#linear-gradient-7"/><linearGradient id="linear-gradient-21" x1="122" y1="346.92" x2="96.5" y2="352.73" xlink:href="#linear-gradient-7"/><linearGradient id="linear-gradient-22" x1="73.36" y1="100.24" x2="195.51" y2="185.75" xlink:href="#linear-gradient-9"/><linearGradient id="linear-gradient-23" x1="58.2" y1="158.73" x2="185.89" y2="263.11" xlink:href="#linear-gradient-9"/><linearGradient id="linear-gradient-24" x1="126.58" y1="-201.22" x2="118.86" y2="715.01" xlink:href="#linear-gradient-2"/><linearGradient id="linear-gradient-25" x1="117.63" y1="-201.29" x2="109.92" y2="714.93" xlink:href="#linear-gradient-2"/><linearGradient id="linear-gradient-26" x1="145.48" y1="137.12" x2="119.98" y2="142.93" xlink:href="#linear-gradient-7"/><linearGradient id="linear-gradient-27" x1="136.05" y1="204.22" x2="110.55" y2="210.03" xlink:href="#linear-gradient-7"/><linearGradient id="linear-gradient-28" x1="290.11" y1="217.89" x2="267.85" y2="240.34" xlink:href="#linear-gradient-5"/><linearGradient id="linear-gradient-29" x1="203.56" y1="243.66" x2="156.16" y2="291.46" xlink:href="#linear-gradient-5"/><linearGradient id="linear-gradient-30" x1="317.25" y1="232.15" x2="411.63" y2="376.5" xlink:href="#linear-gradient-9"/><linearGradient id="linear-gradient-31" x1="227.71" y1="392.2" x2="384.2" y2="392.2" xlink:href="#linear-gradient-9"/><linearGradient id="linear-gradient-32" x1="351.76" y1="-199.32" x2="344.05" y2="716.9" xlink:href="#linear-gradient-2"/><linearGradient id="linear-gradient-33" x1="307.28" y1="-199.69" x2="299.56" y2="716.53" xlink:href="#linear-gradient-2"/><linearGradient id="linear-gradient-34" x1="382.75" y1="280.67" x2="341.68" y2="290.02" xlink:href="#linear-gradient-7"/><linearGradient id="linear-gradient-35" x1="337.49" y1="388.75" x2="296.42" y2="398.1" xlink:href="#linear-gradient-7"/><linearGradient id="linear-gradient-36" x1="319.4" y1="348.19" x2="340.94" y2="348.19" xlink:href="#linear-gradient-9"/><linearGradient id="linear-gradient-37" x1="288.07" y1="231.02" x2="339.23" y2="231.02" xlink:href="#linear-gradient-9"/><linearGradient id="linear-gradient-38" x1="319.83" y1="466.45" x2="594.18" y2="466.45" xlink:href="#linear-gradient-9"/><linearGradient id="linear-gradient-39" x1="322.52" y1="461.44" x2="594.18" y2="461.44" xlink:href="#linear-gradient-9"/><linearGradient id="linear-gradient-40" x1="359.62" y1="451.83" x2="364.69" y2="514.36" gradientTransform="translate(459.75 -110.69) rotate(45)" xlink:href="#linear-gradient-2"/><linearGradient id="linear-gradient-41" x1="244.78" y1="494.74" x2="246.32" y2="513.67" xlink:href="#linear-gradient-5"/><linearGradient id="linear-gradient-42" x1="238.3" y1="483.48" x2="260.01" y2="483.48" xlink:href="#linear-gradient-9"/><linearGradient id="linear-gradient-43" x1="3325.19" y1="451.83" x2="3330.26" y2="514.36" gradientTransform="matrix(-0.38, -0.92, -0.92, 0.38, 2281.89, 3384.08)" xlink:href="#linear-gradient-2"/><linearGradient id="linear-gradient-44" x1="3329.01" y1="498.51" x2="3330.55" y2="517.44" gradientTransform="matrix(-1, 0, 0, 1, 3875.38, 0)" xlink:href="#linear-gradient-5"/><linearGradient id="linear-gradient-45" x1="234.89" y1="478.53" x2="256.5" y2="486.03" xlink:href="#linear-gradient-9"/><linearGradient id="linear-gradient-46" x1="412.48" y1="483.48" x2="434.19" y2="483.48" xlink:href="#linear-gradient-9"/><linearGradient id="linear-gradient-47" x1="220.75" y1="305.63" x2="156.85" y2="370.06" xlink:href="#linear-gradient-5"/><linearGradient id="linear-gradient-48" x1="305.4" y1="248.65" x2="245.81" y2="308.74" xlink:href="#linear-gradient-5"/><linearGradient id="linear-gradient-49" x1="267.78" y1="358.48" x2="202.44" y2="424.37" xlink:href="#linear-gradient-5"/><linearGradient id="linear-gradient-50" x1="487.83" y1="275.77" x2="478.11" y2="285.56" xlink:href="#linear-gradient-3"/><linearGradient id="linear-gradient-51" x1="547.79" y1="317.81" x2="590.29" y2="317.81" xlink:href="#linear-gradient"/><linearGradient id="linear-gradient-52" x1="600.33" y1="290.79" x2="647.23" y2="290.79" xlink:href="#linear-gradient"/><linearGradient id="linear-gradient-53" x1="526.29" y1="117.86" x2="326.57" y2="168.65" xlink:href="#linear-gradient"/><linearGradient id="linear-gradient-54" x1="869.38" y1="-109.47" x2="925.86" y2="-109.47" gradientTransform="matrix(0.99, -0.12, 0.12, 0.99, -354.91, 266.48)" xlink:href="#linear-gradient-3"/><linearGradient id="linear-gradient-55" x1="417.45" y1="117.36" x2="402.02" y2="145.49" xlink:href="#linear-gradient-2"/><linearGradient id="linear-gradient-56" x1="439.96" y1="125.66" x2="446.39" y2="136.59" xlink:href="#linear-gradient-2"/><linearGradient id="linear-gradient-57" x1="566.8" y1="135.85" x2="535.15" y2="177.35" xlink:href="#linear-gradient-3"/></defs><title>18. Logistics</title><path d="M326.66,588C209.36,571,138.18,487.9,122.14,389c-9.86-60.76,1.08-127.51,34.92-188.59C246,39.85,470.65,36.12,470.65,36.12c129.28-6.41,103.82,211.93,96.34,259-4,24.93,21.18,58.21,47.3,93.89,23.15,31.64,47.06,65.18,52.13,96.48C677.21,552.05,516,615.51,326.66,588Z" transform="translate(-118.66 -3.77)" fill="#68e1fd" opacity="0.18"/><path d="M326.66,589.42c-117.3-17-188.48-100.12-204.52-199H614.29c23.15,31.63,47.06,65.17,52.13,96.47C677.21,553.46,516,616.91,326.66,589.42Z" transform="translate(-118.66 -3.77)" fill="#68e1fd"/><path d="M326.66,589.42c-117.3-17-188.48-100.12-204.52-199H614.29c23.15,31.63,47.06,65.17,52.13,96.47C677.21,553.46,516,616.91,326.66,589.42Z" transform="translate(-118.66 -3.77)" fill="url(#linear-gradient)" style="isolation:isolate"/><path d="M328.08,504.3c-5.93-.12-13-.92-15.73-6.22-1.34-2.63-1.17-5.74-1.62-8.66-4-26.3-50-25.15-57.55-50.65-.65-2.21-.86-4.85.67-6.56,1.37-1.51,3.62-1.76,5.65-1.9l66.85-4.69c2.7-9.88-7.86-18.31-17.62-21.44-43.71-14-93.33,14.77-136.26-1.52-2.29-.87-4.71-2-5.79-4.22-3.1-6.33,6.84-10.67,13.88-10.78L349.8,385c3.56-.06,7.2-.1,10.6,1,5.23,1.69,9.21,5.85,13,9.86C389.43,413,406,430.41,427,440.91c38.5,19.24,84.48,12.13,126.75,20.25C566,463.51,581,471.92,578,484c-9.58,37.76-80.87,23.64-106.53,23.13Z" transform="translate(-118.66 -3.77)" fill="#1d2741" opacity="0.18"/><path d="M517.85,86l.08,32.94,12.85,33.83,10.46-5a5.78,5.78,0,0,1,7.5,2.3l2.84,4.9a7.57,7.57,0,0,1-3,10.51c-7.56,4-23,13.58-25.89,13.58-4.43,0-17.17-19.83-17.17-19.83Z" transform="translate(-118.66 -3.77)" fill="#68e1fd"/><path d="M545.42,147.4s-4.73,3.67-2.5,7.7,9.69,4.19,9.69,4.19S558.74,148.44,545.42,147.4Z" transform="translate(-118.66 -3.77)" fill="url(#linear-gradient-2)" style="isolation:isolate"/><path d="M548.8,125.08a44,44,0,0,1,6.91,1.28l10.42,2.52a2.21,2.21,0,0,1,1.38.72c.56.85-.3,2-1.24,2.35-3,1.22-6.8-1-9.48.75-1.5,1-2,3-3.2,4.34-1.52,1.84-4,2.58-6.38,2.84s-4.8.15-7.12.69c-3.49.81-7.23,3.06-10.36,1.31a1.94,1.94,0,0,1-.78-.72c-.39-.74.08-1.63.46-2.37a13.08,13.08,0,0,0,1.4-6.79c-.15-3.29-.24-3.05,3.15-4.24C538.71,126.08,543.7,124.68,548.8,125.08Z" transform="translate(-118.66 -3.77)" fill="url(#linear-gradient-3)"/><polygon points="434.56 291.96 434.27 298.88 446.35 298.78 447.25 289.3 434.56 291.96" fill="url(#linear-gradient-4)"/><path d="M552.94,302.65l12.07-.1,3.7,4.77s16.08,5.8,19.13,13.72,2.39,12,2.39,12l-42.44-13.92Z" transform="translate(-118.66 -3.77)" fill="#68e1fd"/><path d="M464.65,187.11s85.11.63,92.11,5.51c19.42,13.53,13.42,100.86,13.42,100.86l-17.33,5L538.8,224.25Z" transform="translate(-118.66 -3.77)" fill="#25233a"/><rect x="171.82" y="284.67" width="71.48" height="49.56" fill="#68e1fd"/><rect x="166.86" y="334.23" width="71.48" height="55.24" fill="#68e1fd"/><rect x="201.68" y="284.67" width="12.88" height="10.08" fill="url(#linear-gradient-5)"/><rect x="194.68" y="334.04" width="12.88" height="10.08" fill="url(#linear-gradient-6)"/><rect x="208.12" y="294.76" width="0.99" height="39.29" fill="url(#linear-gradient-7)"/><rect x="201.18" y="344.13" width="0.99" height="39.29" fill="url(#linear-gradient-8)"/><rect x="172.77" y="159.32" width="85.19" height="59.07" fill="#68e1fd"/><rect x="172.77" y="159.32" width="85.19" height="59.07" fill="url(#linear-gradient-9)" style="isolation:isolate"/><rect x="166.87" y="218.38" width="85.18" height="65.83" fill="#68e1fd"/><rect x="166.87" y="218.38" width="85.18" height="65.83" fill="url(#linear-gradient-10)" style="isolation:isolate"/><rect x="208.36" y="159.32" width="15.35" height="12.02" fill="url(#linear-gradient-11)" style="isolation:isolate"/><rect x="200.02" y="218.16" width="15.35" height="12.02" fill="url(#linear-gradient-12)" style="isolation:isolate"/><rect x="216.04" y="171.34" width="1.18" height="46.82" fill="url(#linear-gradient-13)"/><rect x="207.77" y="230.18" width="1.18" height="46.82" fill="url(#linear-gradient-14)"/><rect x="79.26" y="244.16" width="97.15" height="67.36" fill="#68e1fd"/><polygon points="176.41 284.21 176.41 311.52 79.26 311.52 79.26 244.15 166.87 244.15 166.87 284.21 176.41 284.21" fill="url(#linear-gradient-15)" style="isolation:isolate"/><rect x="166.87" y="244.15" width="9.54" height="40.06" fill="url(#linear-gradient-16)" style="isolation:isolate"/><rect x="53.85" y="311.52" width="97.15" height="75.08" fill="#68e1fd"/><rect x="53.85" y="311.52" width="97.15" height="75.08" fill="url(#linear-gradient-17)" style="isolation:isolate"/><rect x="119.84" y="244.16" width="17.51" height="13.7" fill="url(#linear-gradient-18)" style="isolation:isolate"/><rect x="91.66" y="311.26" width="17.51" height="13.7" fill="url(#linear-gradient-19)" style="isolation:isolate"/><rect x="128.6" y="257.86" width="1.35" height="53.4" fill="url(#linear-gradient-20)"/><rect x="100.5" y="324.97" width="1.35" height="53.4" fill="url(#linear-gradient-21)"/><rect x="74.64" y="101.46" width="97.15" height="67.36" fill="#68e1fd"/><rect x="74.64" y="101.46" width="97.15" height="67.36" fill="url(#linear-gradient-22)" style="isolation:isolate"/><rect x="67.9" y="168.82" width="97.15" height="75.08" fill="#68e1fd"/><rect x="67.9" y="168.82" width="97.15" height="75.08" fill="url(#linear-gradient-23)" style="isolation:isolate"/><rect x="115.22" y="101.46" width="17.51" height="13.7" fill="url(#linear-gradient-24)" style="isolation:isolate"/><rect x="105.7" y="168.56" width="17.51" height="13.7" fill="url(#linear-gradient-25)" style="isolation:isolate"/><rect x="123.97" y="115.16" width="1.35" height="53.4" fill="url(#linear-gradient-26)"/><rect x="114.54" y="182.27" width="1.35" height="53.4" fill="url(#linear-gradient-27)"/><path d="M283.71,207.44v40.23s-14.64-18.68-14-28.84S283.71,207.44,283.71,207.44Z" transform="translate(-118.66 -3.77)" opacity="0.2" fill="url(#linear-gradient-28)"/><polygon points="227.71 258.87 227.04 284.21 166.87 284.21 166.87 218.38 172.77 218.38 172.77 210.48 181.74 218.38 207.77 241.31 208.95 242.35 227.71 258.87" opacity="0.2" fill="url(#linear-gradient-29)"/><rect x="268.65" y="223.23" width="156.48" height="108.5" fill="#68e1fd"/><rect x="268.65" y="223.23" width="156.48" height="108.5" fill="url(#linear-gradient-30)" style="isolation:isolate"/><rect x="227.71" y="331.73" width="156.48" height="120.93" fill="#68e1fd"/><rect x="227.71" y="331.73" width="156.48" height="120.93" fill="url(#linear-gradient-31)" style="isolation:isolate"/><rect x="334.01" y="223.23" width="28.2" height="22.07" fill="url(#linear-gradient-32)" style="isolation:isolate"/><rect x="288.61" y="331.31" width="28.2" height="22.07" fill="url(#linear-gradient-33)" style="isolation:isolate"/><rect x="348.11" y="245.3" width="2.17" height="86.01" fill="url(#linear-gradient-34)"/><rect x="302.85" y="353.39" width="2.17" height="86.01" fill="url(#linear-gradient-35)"/><path d="M340.94,456.43H319.4V250.72A10.77,10.77,0,0,1,330.17,240h0a10.77,10.77,0,0,1,10.77,10.77Z" transform="translate(-118.66 -3.77)" fill="#68e1fd"/><path d="M334.89,258.23h0a11.29,11.29,0,0,1-15.84-2l-28.59-36.63a11.29,11.29,0,0,1,2-15.84h0a11.28,11.28,0,0,1,15.84,1.95l28.59,36.63A11.28,11.28,0,0,1,334.89,258.23Z" transform="translate(-118.66 -3.77)" fill="#68e1fd"/><path d="M594.18,466.45h0a10,10,0,0,1-10,10H339.88a20.05,20.05,0,0,1-20.05-20.05H584.15A10,10,0,0,1,594.18,466.45Z" transform="translate(-118.66 -3.77)" fill="#68e1fd"/><path d="M594.18,466.46H339.88a20,20,0,0,1-17.36-10H584.15A10,10,0,0,1,594.18,466.46Z" transform="translate(-118.66 -3.77)" fill="#68e1fd"/><path d="M340.94,456.43H319.4V250.72A10.77,10.77,0,0,1,330.17,240h0a10.77,10.77,0,0,1,10.77,10.77Z" transform="translate(-118.66 -3.77)" fill="url(#linear-gradient-36)" style="isolation:isolate"/><path d="M334.89,258.23h0a11.29,11.29,0,0,1-15.84-2l-28.59-36.63a11.29,11.29,0,0,1,2-15.84h0a11.28,11.28,0,0,1,15.84,1.95l28.59,36.63A11.28,11.28,0,0,1,334.89,258.23Z" transform="translate(-118.66 -3.77)" fill="url(#linear-gradient-37)" style="isolation:isolate"/><path d="M594.18,466.45h0a10,10,0,0,1-10,10H339.88a20.05,20.05,0,0,1-20.05-20.05H584.15A10,10,0,0,1,594.18,466.45Z" transform="translate(-118.66 -3.77)" fill="url(#linear-gradient-38)" style="isolation:isolate"/><path d="M594.18,466.46H339.88a20,20,0,0,1-17.36-10H584.15A10,10,0,0,1,594.18,466.46Z" transform="translate(-118.66 -3.77)" fill="url(#linear-gradient-39)" style="isolation:isolate"/><circle cx="363.49" cy="499.62" r="16.6" transform="translate(-365.48 399.6) rotate(-45)" fill="url(#linear-gradient-40)" style="isolation:isolate"/><circle cx="244.92" cy="496.39" r="5.03" fill="url(#linear-gradient-41)"/><polygon points="249.15 494.25 238.3 494.25 238.3 472.71 260.01 472.71 249.15 494.25" fill="url(#linear-gradient-42)" style="isolation:isolate"/><circle cx="546.32" cy="499.62" r="16.6" transform="translate(-243 809.4) rotate(-67.5)" fill="url(#linear-gradient-43)" style="isolation:isolate"/><path d="M541.21,500.16a5,5,0,1,0,5-5A5,5,0,0,0,541.21,500.16Z" transform="translate(-118.66 -3.77)" fill="url(#linear-gradient-44)"/><polygon points="423.34 494.25 434.19 494.25 434.19 472.71 412.48 472.71 423.34 494.25" fill="#68e1fd"/><polygon points="249.15 494.25 238.3 494.25 238.3 472.71 260.01 472.71 249.15 494.25" fill="#68e1fd"/><polygon points="249.15 494.25 238.3 494.25 238.3 472.71 260.01 472.71 249.15 494.25" fill="url(#linear-gradient-45)" style="isolation:isolate"/><polygon points="423.34 494.25 434.19 494.25 434.19 472.71 412.48 472.71 423.34 494.25" fill="url(#linear-gradient-46)" style="isolation:isolate"/><rect x="176.41" y="286.22" width="24.77" height="103.25" opacity="0.2" fill="url(#linear-gradient-47)"/><rect x="268.65" y="226.01" width="13.92" height="105.39" opacity="0.2" fill="url(#linear-gradient-48)"/><rect x="228.15" y="332.98" width="13.92" height="116.88" opacity="0.2" fill="url(#linear-gradient-49)"/><path d="M448.38,186s-5.29,31.51,17.17,38.49S543.79,227,543.79,227L595,287.6l12.62-17.08-46.23-63.37a50.55,50.55,0,0,0-33.52-15.85Z" transform="translate(-118.66 -3.77)" fill="#3f3d56"/><polygon points="476.38 283.84 481.67 288.31 488.99 278.7 484.66 272.63 476.38 283.84" fill="url(#linear-gradient-50)"/><path d="M600.33,292.07l7.32-9.6h6s14.44-9.16,22.57-6.72,11,5.5,11,5.5l-37,25Z" transform="translate(-118.66 -3.77)" fill="#68e1fd"/><path d="M552.94,302.65l12.07-.1,3.7,4.77s16.08,5.8,19.13,13.72,2.39,12,2.39,12l-42.44-13.92Z" transform="translate(-118.66 -3.77)" fill="url(#linear-gradient-51)" style="isolation:isolate"/><path d="M600.33,292.07l7.32-9.6h6s14.44-9.16,22.57-6.72,11,5.5,11,5.5l-37,25Z" transform="translate(-118.66 -3.77)" fill="url(#linear-gradient-52)" style="isolation:isolate"/><path d="M504.54,187.92H448.15a4.16,4.16,0,0,1-.65-.33c-1.75-1-6.42-4.75-5.88-15,.39-7.35,7-34.47,12.38-55.74,3.83-15.14,7.09-27.32,7.09-27.32s7-18.38,18.66-23.25c4.38-1.84,10-4.85,16.09-3.66,10.1,2,20.49,11.1,22,23.38C519.14,96.39,504.54,187.92,504.54,187.92Z" transform="translate(-118.66 -3.77)" fill="#68e1fd"/><path d="M504.54,187.92H448.15a4.16,4.16,0,0,1-.65-.33c-1.75-1-6.42-4.75-5.88-15,.39-7.35,7-34.47,12.38-55.74,3.83-15.14,7.09-27.32,7.09-27.32s7-18.38,18.66-23.25c4.38-1.84,10-4.85,16.09-3.66,10.1,2,20.49,11.1,22,23.38C519.14,96.39,504.54,187.92,504.54,187.92Z" transform="translate(-118.66 -3.77)" fill="url(#linear-gradient-53)" style="isolation:isolate"/><path d="M467.86,142.52s-12.82,33.83-3.21,44.59l-17.15.48c-1.75-1-6.42-4.75-5.88-15,.39-7.35,7-34.47,12.38-55.74L476.68,86Z" transform="translate(-118.66 -3.77)" fill="#68e1fd"/><path d="M495.85,62.62l6-16.53s7-26.54,23.08-27.89,29.6,10.25,22.81,28.91-10.24,21.47-16.78,22.71-12.75-1.88-12.75-1.88l-5.77,8.82S510.59,81.85,495.85,62.62Z" transform="translate(-118.66 -3.77)" fill="url(#linear-gradient-54)"/><path d="M467.43,81.78s-27.4,39.57-25.85,49.87c1.82,12.08,53.6,13.95,74.83,14.64a12.33,12.33,0,0,0,12.22-8.83l0-.11a12.33,12.33,0,0,0-10.17-15.71L483,116.86l16.74-31.78C504,71.54,488.05,60.61,477,69.53A37.89,37.89,0,0,0,467.43,81.78Z" transform="translate(-118.66 -3.77)" fill="#68e1fd"/><polygon points="412.98 124.05 408.61 123.52 405.65 139.97 410.51 139.97 412.98 124.05" fill="url(#linear-gradient-55)" style="isolation:isolate"/><path d="M516.55,41.94c-1.39-.64-.2-3-1.12-4.23-.79-1.07-2.53-.52-3.51.39a7.69,7.69,0,0,0-2.15,7.37,5.52,5.52,0,0,1,.37,2.61c-.45,1.78-2.91,2-4.69,1.56s-3.8-1.21-5.33-.18c-1.3-2.19-.4-5,.62-7.32a92,92,0,0,1,6.36-12,6.62,6.62,0,0,0,1.18-2.66c.16-1.45-.67-2.8-1.24-4.14C504.4,17,508,9.3,514,6s13.48-2.7,19.71,0c2.27,1,4.46,2.3,6.9,2.8,3.6.73,7.32-.35,11-.28a18,18,0,0,1,14.42,8A18,18,0,0,1,567.54,33c-1.29,3.12-4.45,6.16-7.64,5.07-1.31-.44-2.3-1.5-3.51-2.18s-2.95-.83-3.77.28A3.4,3.4,0,0,1,552,37c-1.07.79-2-1.08-2.61-2.25-1.44-2.66-5.18-2.61-8.2-2.52a40.94,40.94,0,0,1-8.7-.7c-2.06-.39-4.85-1.79-7-1.21C523.13,30.93,516.85,42.07,516.55,41.94Z" transform="translate(-118.66 -3.77)" fill="#3f3d56"/><polygon points="472.98 111.12 475.61 114.31 416.44 156.97 414.08 153.63 472.98 111.12" fill="url(#linear-gradient-56)" style="isolation:isolate"/><path d="M545.42,153.3s1,3.28,6.16,1.62,14.55-7.16,15.27-8.63,8.81-9.72,8.31-14.43Z" transform="translate(-118.66 -3.77)" fill="url(#linear-gradient-57)"/></svg>